M48
; DRILL file {KiCad 9.0.6} date 2025-12-07T16:13:18-0700
; FORMAT={-:-/ absolute / metric / decimal}
; #@! TF.CreationDate,2025-12-07T16:13:18-07:00
; #@! TF.GenerationSoftware,Kicad,Pcbnew,9.0.6
; #@! TF.FileFunction,Plated,1,4,PTH
FMAT,2
METRIC
; #@! TA.AperFunction,Plated,PTH,ViaDrill
T1C0.300
; #@! TA.AperFunction,Plated,PTH,ViaDrill
T2C0.400
; #@! TA.AperFunction,Plated,PTH,ViaDrill
T3C0.500
; #@! TA.AperFunction,Plated,PTH,ViaDrill
T4C0.600
; #@! TA.AperFunction,Plated,PTH,ComponentDrill
T5C0.700
; #@! TA.AperFunction,Plated,PTH,ComponentDrill
T6C0.800
; #@! TA.AperFunction,Plated,PTH,ComponentDrill
T7C1.000
; #@! TA.AperFunction,Plated,PTH,ComponentDrill
T8C1.070
; #@! TA.AperFunction,Plated,PTH,ComponentDrill
T9C1.200
; #@! TA.AperFunction,Plated,PTH,ComponentDrill
T10C1.300
; #@! TA.AperFunction,Plated,PTH,ComponentDrill
T11C1.500
; #@! TA.AperFunction,Plated,PTH,ComponentDrill
T12C1.650
; #@! TA.AperFunction,Plated,PTH,ComponentDrill
T13C1.900
; #@! TA.AperFunction,Plated,PTH,ComponentDrill
T14C2.900
; #@! TA.AperFunction,Plated,PTH,ComponentDrill
T15C3.000
; #@! TA.AperFunction,Plated,PTH,ComponentDrill
T16C3.600
%
G90
G05
T1
X55.0Y-53.0
X57.15Y-111.1
X57.2Y-51.7
X57.3Y-103.9
X57.3Y-121.65
X58.0Y-70.1
X58.5Y-59.7
X58.5Y-64.3
X58.5Y-128.9
X59.0Y-56.0
X60.2Y-66.9
X60.2Y-76.1
X60.65Y-108.2
X61.1Y-109.2
X61.4Y-69.6
X61.5Y-73.6
X61.6Y-130.3
X61.7Y-52.6
X61.8Y-77.4
X62.25Y-104.9
X62.3Y-100.85
X62.6Y-123.2
X62.95Y-96.7
X63.15Y-100.7
X64.2Y-102.9
X65.0Y-59.4
X65.3Y-101.8
X65.4Y-54.3
X65.55Y-97.05
X65.75Y-100.05
X66.3Y-130.3
X66.5Y-100.85
X66.75Y-118.75
X66.8Y-105.5
X66.85Y-99.7
X66.9Y-96.45
X67.65Y-105.55
X67.7Y-63.3
X67.8Y-104.5
X67.8Y-111.4
X67.85Y-99.35
X68.1Y-43.3
X68.3Y-110.7
X68.4Y-97.4
X68.513Y-115.813
X68.6Y-64.9
X68.7Y-62.6
X68.75Y-99.75
X68.75Y-105.05
X68.9Y-103.4
X69.1Y-61.6
X69.5Y-51.4
X70.1Y-130.3
X70.2Y-116.0
X70.3Y-104.9
X70.3Y-117.4
X70.55Y-103.3
X70.85Y-127.8
X70.9Y-98.6
X70.95Y-104.25
X71.0Y-123.3
X71.2Y-50.8
X71.4Y-118.5
X72.25Y-107.45
X72.5Y-119.6
X73.0Y-59.4
X73.15Y-107.2
X73.4Y-100.0
X73.9Y-63.05
X73.9Y-122.3
X74.15Y-108.2
X74.159Y-99.747
X74.65Y-105.9
X74.7Y-130.3
X74.85Y-121.4
X74.9Y-52.6
X74.934Y-99.55
X75.1Y-109.9
X75.15Y-125.6
X75.2Y-118.6
X75.4Y-120.35
X75.8Y-99.3
X75.9Y-106.9
X76.2Y-110.45
X76.4Y-95.6
X76.65Y-129.75
X76.7Y-72.1
X76.8Y-105.2
X76.9Y-106.0
X76.9Y-111.4
X77.0Y-104.4
X77.2Y-57.8
X77.2Y-69.3
X77.2Y-107.0
X77.3Y-112.2
X77.5Y-73.2
X77.5Y-96.4
X77.9Y-71.6
X78.0Y-121.45
X78.1Y-123.0
X78.1Y-125.9
X78.3Y-52.7
X78.4Y-43.0
X79.025Y-102.2
X79.2Y-95.9
X79.4Y-112.2
X79.5Y-70.4
X79.9Y-107.15
X80.1Y-98.3
X80.2Y-94.1
X80.75Y-125.3
X80.8Y-99.2
X81.2Y-64.0
X81.5Y-59.3
X81.5Y-100.3
X81.7Y-114.7
X81.8Y-77.3
X81.8Y-80.4
X81.8Y-83.1
X81.8Y-85.7
X81.8Y-89.2
X82.1Y-128.7
X83.1Y-52.6
X83.2Y-130.3
X83.4Y-91.5
X83.7Y-96.0
X84.6Y-102.45
X84.7Y-76.7
X85.0Y-117.6
X85.2Y-85.4
X85.2Y-135.7
X85.4Y-81.2
X85.5Y-76.4
X85.6Y-98.7
X85.7Y-89.8
X85.8Y-100.3
X85.82Y-99.469
X86.0Y-101.6
X86.3Y-110.3
X86.6Y-109.3
X86.7Y-97.9
X86.8Y-121.5
X87.6Y-43.4
X87.7Y-108.6
X87.9Y-132.1
X88.0Y-48.1
X88.1Y-109.8
X88.75Y-103.5
X88.9Y-74.9
X89.2Y-108.7
X89.3Y-132.3
X89.5Y-73.8
X89.6Y-113.5
X90.4Y-135.4
X90.8Y-112.3
X91.2Y-73.3
X91.6Y-121.5
X91.7Y-108.2
X91.9Y-111.2
X92.1Y-74.9
X92.3Y-44.4
X92.3Y-128.2
X92.7Y-106.6
X92.7Y-109.7
X93.1Y-73.5
X93.3Y-101.0
X93.3Y-114.2
X93.6Y-77.9
X93.8Y-83.0
X94.0Y-105.4
X94.05Y-102.95
X94.1Y-106.4
X94.4Y-56.1
X94.5Y-113.3
X95.0Y-109.8
X95.5Y-128.6
X95.517Y-126.183
X95.6Y-117.6
X95.6Y-135.4
X96.0Y-106.0
X96.3Y-92.0
X96.4Y-118.4
X96.6Y-108.6
X96.7Y-119.2
X96.7Y-128.8
X96.8Y-111.8
X97.0Y-123.2
X97.1Y-88.6
X97.6Y-93.2
X97.6Y-122.4
X97.7Y-76.1
X97.8Y-54.5
X98.2Y-86.2
X98.4Y-70.3
X98.5Y-48.8
X98.5Y-57.35
X98.5Y-83.1
X98.7Y-87.7
X98.7Y-123.5
X98.8Y-94.4
X98.9Y-117.6
X99.3Y-107.45
X99.7Y-46.1
X99.8Y-117.3
X100.0Y-123.6
X100.2Y-84.4
X100.2Y-85.7
X100.2Y-86.9
X100.2Y-88.2
X100.7Y-128.4
X101.0Y-74.2
X101.6Y-127.7
X101.8Y-63.5
X102.2Y-74.5
X102.517Y-118.583
X102.617Y-126.483
X103.2Y-114.5
X103.5Y-118.6
X103.7Y-119.5
X103.717Y-125.383
X103.8Y-72.5
X103.8Y-121.483
X104.7Y-72.8
X104.9Y-113.4
X104.9Y-114.4
X104.9Y-122.8
X105.15Y-63.1
X105.4Y-116.6
X105.5Y-84.1
X105.7Y-135.8
X105.9Y-78.6
X105.9Y-114.1
X105.9Y-123.3
X106.5Y-69.8
X106.5Y-79.6
X106.7Y-115.0
X106.8Y-129.9
X107.0Y-80.5
X107.2Y-78.5
X107.4Y-126.9
X108.0Y-104.5
X108.3Y-81.3
X108.3Y-135.6
X108.5Y-118.5
X108.5Y-123.4
X108.6Y-113.0
X108.7Y-87.4
X108.9Y-63.5
X109.3Y-59.5
X109.4Y-64.6
X109.75Y-119.55
X109.8Y-129.6
X110.1Y-126.5
X110.8Y-110.7
X110.8Y-123.1
X110.9Y-89.6
X111.0Y-128.5
X111.2Y-78.2
X111.3Y-103.0
X111.3Y-119.8
X111.5Y-129.7
X111.6Y-75.8
X111.7Y-114.2
X112.0Y-90.7
X112.075Y-110.307
X112.2Y-113.1
X112.3Y-59.5
X112.4Y-118.4
X112.4Y-119.7
X112.5Y-78.2
X112.5Y-104.0
X112.7Y-129.3
X113.1Y-83.7
X113.4Y-114.3
X113.6Y-105.2
X113.7Y-118.2
X113.9Y-59.5
X114.2Y-76.1
X114.2Y-92.9
X114.7Y-59.9
X115.1Y-78.0
X115.2Y-128.4
X116.2Y-127.4
X116.35Y-69.85
X116.475Y-107.707
X117.0Y-72.5
X117.0Y-133.0
X117.5Y-96.2
X117.6Y-86.4
X117.9Y-83.1
X118.0Y-133.0
X118.5Y-97.2
X118.7Y-83.8
X118.7Y-127.3
X118.85Y-63.1
X119.0Y-82.9
X119.4Y-69.35
X120.1Y-90.0
X120.3Y-75.8
X120.3Y-127.4
X120.5Y-129.2
X120.575Y-111.807
X120.6Y-116.5
X121.0Y-119.3
X121.0Y-126.6
X121.2Y-84.8
X121.4Y-76.9
X121.6Y-115.8
X121.7Y-126.0
X121.8Y-63.0
X121.8Y-133.9
X121.9Y-100.6
X122.2Y-115.0
X122.4Y-117.2
X123.0Y-135.0
X123.1Y-116.5
X123.1Y-121.4
X123.2Y-114.1
X123.6Y-79.1
X123.8Y-115.8
X124.0Y-113.3
X124.0Y-135.6
X124.1Y-102.8
X124.2Y-90.4
X124.3Y-93.0
X124.6Y-115.0
X124.9Y-126.2
X125.2Y-131.5
X125.2Y-133.2
X125.3Y-90.3
X125.4Y-114.1
X126.1Y-62.95
X126.1Y-89.4
X126.3Y-96.7
X126.9Y-82.4
X126.9Y-126.5
X127.4Y-89.3
X127.6Y-130.4
X127.8Y-131.6
X127.9Y-119.9
X128.0Y-83.4
X128.0Y-135.35
X128.1Y-123.0
X128.2Y-91.2
X128.3Y-125.2
X128.6Y-82.8
X128.6Y-119.2
X129.1Y-84.6
X129.2Y-118.6
X129.3Y-58.4
X130.0Y-98.1
X130.2Y-85.7
X130.2Y-117.7
X130.3Y-91.7
X130.4Y-59.5
X130.75Y-95.85
X130.8Y-109.3
X130.8Y-117.0
X130.8Y-132.8
X130.9Y-48.6
X131.3Y-86.7
X131.3Y-135.5
X131.4Y-104.9
X131.5Y-116.4
X131.6Y-85.9
X131.9Y-59.5
X132.2Y-60.8
X132.3Y-107.5
X132.4Y-87.9
X132.75Y-95.0
X132.8Y-51.7
X133.1Y-106.6
X133.1Y-111.6
X133.3Y-60.2
X133.5Y-88.9
X133.9Y-105.7
X134.4Y-88.6
X134.4Y-129.5
X134.6Y-118.6
X134.7Y-105.1
X134.8Y-116.4
X134.9Y-60.2
X135.6Y-59.3
X135.6Y-118.0
X135.7Y-91.2
X136.0Y-85.8
X136.5Y-128.4
X136.5Y-130.6
X136.7Y-116.7
X137.0Y-99.7
X137.5Y-110.3
X137.5Y-126.3
X137.7Y-80.4
X137.8Y-113.3
X138.2Y-115.1
X138.3Y-109.5
X138.7Y-127.3
X139.1Y-108.7
X139.7Y-47.2
X140.2Y-96.8
X140.5Y-126.9
X140.55Y-130.5
X141.6Y-72.3
X141.8Y-83.6
X142.1Y-111.4
X142.3Y-88.2
X142.4Y-99.1
X142.7Y-123.25
X142.9Y-115.0
X144.0Y-92.6
X144.5Y-54.4
X145.5Y-108.9
X146.8Y-90.6
X147.0Y-71.9
X147.1Y-75.3
X148.6Y-115.3
X150.0Y-112.0
X150.7Y-71.7
X152.0Y-130.5
X152.9Y-82.35
X155.5Y-85.5
X158.7Y-96.3
X159.35Y-122.25
X159.6Y-90.35
X160.6Y-112.9
X162.25Y-123.25
X163.25Y-107.3
X163.3Y-83.9
X163.4Y-90.35
X163.5Y-130.5
X163.65Y-125.85
X163.8Y-112.9
X164.9Y-97.5
X165.5Y-72.7
X166.15Y-134.4
X166.5Y-103.3
X166.6Y-113.1
X166.6Y-114.7
X167.2Y-89.9
X167.8Y-48.45
X168.1Y-114.3
X168.1Y-115.9
X168.5Y-79.9
X169.7Y-116.4
X170.2Y-124.6
X171.0Y-74.3
X171.0Y-81.0
X171.0Y-106.262
X171.05Y-129.55
X173.3Y-102.9
X174.4Y-130.8
X174.8Y-47.8
X175.0Y-82.9
X175.8Y-108.8
X176.1Y-105.65
X176.15Y-57.3
X176.9Y-59.3
X176.9Y-130.9
X177.3Y-62.4
X177.5Y-82.1
X178.3Y-62.4
X178.4Y-108.6
X178.9Y-99.3
X179.1Y-130.9
X179.4Y-62.4
X179.4Y-80.2
X179.4Y-117.7
X179.7Y-101.6
X180.5Y-108.4
X180.6Y-74.7
X180.7Y-84.35
X180.75Y-56.6
X181.8Y-79.9
X181.9Y-60.75
X182.0Y-130.9
X182.4Y-108.6
X183.3Y-73.7
X184.2Y-108.5
X184.35Y-117.7
X184.55Y-60.75
X184.7Y-82.5
X185.1Y-131.0
X185.8Y-53.7
X185.8Y-108.4
X187.0Y-60.75
X187.2Y-83.4
X187.5Y-50.3
X187.9Y-131.2
X189.4Y-60.4
X190.0Y-80.3
X190.1Y-131.1
X190.2Y-117.7
X190.4Y-62.4
X190.5Y-99.6
X190.6Y-90.2
X191.5Y-62.4
X192.3Y-131.3
X192.6Y-62.4
X193.7Y-91.35
X194.2Y-117.4
X194.5Y-88.5
X195.1Y-74.6
X195.3Y-60.6
X197.0Y-131.1
X197.35Y-104.6
X197.4Y-76.9
X198.3Y-128.4
X198.6Y-60.6
X198.6Y-73.8
X198.6Y-86.1
X199.8Y-75.3
X201.2Y-125.2
X202.7Y-74.6
X203.6Y-121.3
X203.7Y-60.6
X203.7Y-62.0
X203.85Y-50.3
X204.4Y-117.7
X205.8Y-124.3
X206.05Y-102.05
X206.3Y-91.5
X206.3Y-98.8
X208.2Y-134.6
X209.0Y-128.7
X209.5Y-90.5
X209.7Y-81.1
X210.1Y-76.4
X212.8Y-79.7
X213.5Y-134.4
X213.9Y-88.6
X214.45Y-128.45
X215.2Y-110.1
X215.3Y-67.8
X216.3Y-91.35
X217.6Y-66.1
X218.4Y-104.45
X218.5Y-68.2
X218.6Y-70.1
X218.65Y-91.85
X218.7Y-125.9
X218.8Y-112.4
X218.8Y-115.2
X218.8Y-119.0
X218.9Y-122.0
X219.2Y-52.9
X219.35Y-96.75
X219.8Y-86.0
X220.2Y-84.7
X220.7Y-43.45
X222.0Y-93.9
X222.65Y-46.85
X223.8Y-78.7
X224.6Y-44.9
X224.6Y-51.5
X224.6Y-88.8
X225.0Y-58.3
X225.3Y-48.6
X225.6Y-53.3
X225.8Y-49.6
X226.4Y-88.8
X226.525Y-58.503
X227.0Y-53.1
X227.1Y-44.2
X229.0Y-63.1
X229.2Y-44.2
X232.1Y-44.2
X233.5Y-121.5
X233.7Y-53.1
X233.8Y-44.2
X234.0Y-86.6
X234.1Y-82.5
X234.2Y-55.8
X235.0Y-117.5
X235.5Y-48.5
X236.4Y-44.9
X236.5Y-134.6
X236.6Y-56.3
X236.7Y-49.6
X236.8Y-68.9
X237.1Y-104.75
X237.7Y-47.6
X238.4Y-55.3
X238.8Y-56.3
X239.2Y-118.5
X239.3Y-111.0
X239.3Y-112.5
X239.3Y-120.0
X239.3Y-122.9
X239.6Y-57.3
X239.8Y-132.2
X240.3Y-58.1
X240.5Y-127.9
X241.3Y-88.0
X241.5Y-127.7
X242.2Y-54.1
X242.45Y-105.15
X242.7Y-127.7
X242.85Y-114.45
X243.0Y-90.2
X243.1Y-55.1
X243.1Y-108.0
X243.1Y-109.5
X243.1Y-118.5
X243.1Y-124.5
X243.2Y-115.5
X243.2Y-123.0
X243.3Y-97.2
X243.5Y-126.7
X243.8Y-110.5
X243.9Y-55.9
X244.3Y-102.5
X244.4Y-128.5
X244.7Y-115.7
X244.8Y-74.8
X245.0Y-68.4
X245.6Y-91.9
X246.1Y-126.6
X248.0Y-54.8
X249.05Y-59.75
T2
X81.5Y-135.0
X89.3Y-135.2
X135.3Y-75.3
X137.7Y-127.9
X138.5Y-79.9
X148.2Y-72.4
X151.6Y-72.4
X183.6Y-92.0
X184.8Y-93.2
X185.4Y-91.9
X227.2Y-100.4
X227.6Y-97.7
X229.3Y-95.4
X229.5Y-99.8
X230.6Y-94.0
X230.6Y-97.4
X231.9Y-98.7
X231.9Y-99.9
X232.8Y-94.0
X232.8Y-97.4
X233.7Y-104.0
X234.2Y-95.3
X238.2Y-97.7
X239.2Y-99.0
T3
X62.6Y-126.6
X65.4Y-127.2
X71.1Y-126.6
X73.7Y-128.25
X118.1Y-129.8
T4
X240.5Y-54.3
X240.5Y-55.5
X241.25Y-56.25
T5
X57.8Y-118.3
X89.2Y-86.4
X116.0Y-121.9
X128.2Y-110.0
X156.5Y-74.1
X218.5Y-100.7
T6
X76.55Y-123.8
X76.55Y-127.2
T7
X59.6Y-97.335
X59.6Y-99.875
X104.1Y-46.5
X107.6Y-51.5
X114.6Y-46.5
X118.1Y-51.5
X125.1Y-46.5
X128.6Y-51.5
X135.6Y-46.5
X139.1Y-51.5
X145.2Y-87.75
X150.2Y-91.25
X164.5Y-46.5
X168.0Y-51.5
X175.373Y-111.05
X175.373Y-128.83
X176.58Y-114.4
X176.88Y-125.7
X177.912Y-111.05
X177.912Y-128.83
X179.12Y-114.4
X179.42Y-125.7
X180.452Y-111.05
X180.452Y-128.83
X181.66Y-114.4
X181.96Y-125.7
X182.992Y-128.83
X182.992Y-111.05
X184.2Y-114.4
X184.5Y-125.7
X185.532Y-111.05
X185.533Y-128.83
X186.74Y-114.4
X187.04Y-125.7
X188.072Y-111.05
X188.072Y-128.83
X189.28Y-114.4
X189.36Y-106.9
X189.58Y-125.7
X190.612Y-128.83
X190.613Y-111.05
X191.82Y-114.4
X191.9Y-106.9
X192.12Y-125.7
X193.153Y-111.05
X193.153Y-128.83
X194.36Y-114.4
X194.66Y-125.7
X195.692Y-111.05
X195.692Y-128.83
X196.9Y-114.4
X197.2Y-125.7
X207.3Y-88.75
X211.55Y-44.1
X212.3Y-92.25
X215.05Y-49.1
X223.0Y-60.5
X223.0Y-100.5
X240.5Y-60.5
X240.5Y-100.5
X248.0Y-113.5
X248.0Y-118.5
X250.5Y-113.5
X250.5Y-116.0
X250.5Y-118.5
T8
X86.92Y-60.73
X86.92Y-63.27
X89.46Y-60.73
X89.46Y-63.27
X92.0Y-60.73
X92.0Y-63.27
X94.54Y-60.73
X94.54Y-63.27
X97.08Y-60.73
X97.08Y-63.27
X146.92Y-60.5
X146.92Y-63.04
X149.46Y-60.5
X149.46Y-63.04
X152.0Y-60.5
X152.0Y-63.04
X154.54Y-60.5
X154.54Y-63.04
X157.08Y-60.5
X157.08Y-63.04
X206.96Y-60.5
X206.96Y-63.04
X209.5Y-60.5
X209.5Y-63.04
X212.04Y-60.5
X212.04Y-63.04
X214.58Y-60.5
X214.58Y-63.04
X217.12Y-60.5
X217.12Y-63.04
T9
X224.871Y-113.03
X224.9Y-128.6
X229.871Y-113.03
X229.9Y-128.6
T10
X162.763Y-99.437
X170.383Y-99.437
X174.79Y-99.425
X182.41Y-99.425
X186.817Y-99.437
X194.437Y-99.437
X205.89Y-74.325
X213.51Y-74.325
X223.71Y-74.325
X223.71Y-81.945
X229.27Y-92.145
X236.89Y-74.325
X236.89Y-81.945
X236.89Y-92.145
T11
X162.763Y-74.137
X162.763Y-80.537
X170.383Y-77.337
X174.79Y-74.125
X174.79Y-80.525
X182.41Y-77.325
X186.817Y-74.137
X186.817Y-80.537
X194.437Y-77.337
T12
X245.742Y-78.725
X245.742Y-83.325
X245.742Y-87.925
T13
X192.2Y-51.5
X196.9Y-48.5
X196.9Y-54.5
T14
X247.0Y-109.6
X247.0Y-122.4
T15
X157.25Y-81.0
X157.25Y-101.0
X200.75Y-81.0
X200.75Y-101.0
T16
X57.0Y-45.5
X57.0Y-135.5
X152.0Y-45.5
X247.0Y-45.5
X247.0Y-135.5
M30
