%TF.GenerationSoftware,KiCad,Pcbnew,9.0.6*%
%TF.CreationDate,2025-12-07T16:13:13-07:00*%
%TF.ProjectId,64 Bit - Main Board,36342042-6974-4202-9d20-4d61696e2042,rev?*%
%TF.SameCoordinates,Original*%
%TF.FileFunction,Soldermask,Top*%
%TF.FilePolarity,Negative*%
%FSLAX46Y46*%
G04 Gerber Fmt 4.6, Leading zero omitted, Abs format (unit mm)*
G04 Created by KiCad (PCBNEW 9.0.6) date 2025-12-07 16:13:13*
%MOMM*%
%LPD*%
G01*
G04 APERTURE LIST*
G04 Aperture macros list*
%AMRoundRect*
0 Rectangle with rounded corners*
0 $1 Rounding radius*
0 $2 $3 $4 $5 $6 $7 $8 $9 X,Y pos of 4 corners*
0 Add a 4 corners polygon primitive as box body*
4,1,4,$2,$3,$4,$5,$6,$7,$8,$9,$2,$3,0*
0 Add four circle primitives for the rounded corners*
1,1,$1+$1,$2,$3*
1,1,$1+$1,$4,$5*
1,1,$1+$1,$6,$7*
1,1,$1+$1,$8,$9*
0 Add four rect primitives between the rounded corners*
20,1,$1+$1,$2,$3,$4,$5,0*
20,1,$1+$1,$4,$5,$6,$7,0*
20,1,$1+$1,$6,$7,$8,$9,0*
20,1,$1+$1,$8,$9,$2,$3,0*%
%AMRotRect*
0 Rectangle, with rotation*
0 The origin of the aperture is its center*
0 $1 length*
0 $2 width*
0 $3 Rotation angle, in degrees counterclockwise*
0 Add horizontal line*
21,1,$1,$2,0,0,$3*%
G04 Aperture macros list end*
%ADD10C,0.200000*%
%ADD11C,8.000000*%
%ADD12C,0.150000*%
%ADD13C,0.125000*%
%ADD14RoundRect,0.200000X-0.200000X-0.275000X0.200000X-0.275000X0.200000X0.275000X-0.200000X0.275000X0*%
%ADD15C,1.500000*%
%ADD16RoundRect,0.200000X-0.275000X0.200000X-0.275000X-0.200000X0.275000X-0.200000X0.275000X0.200000X0*%
%ADD17RoundRect,0.200000X-0.053033X0.335876X-0.335876X0.053033X0.053033X-0.335876X0.335876X-0.053033X0*%
%ADD18RoundRect,0.200000X0.275000X-0.200000X0.275000X0.200000X-0.275000X0.200000X-0.275000X-0.200000X0*%
%ADD19RoundRect,0.200000X0.053033X-0.335876X0.335876X-0.053033X-0.053033X0.335876X-0.335876X0.053033X0*%
%ADD20C,2.250000*%
%ADD21C,1.950000*%
%ADD22RoundRect,0.218750X-0.026517X0.335876X-0.335876X0.026517X0.026517X-0.335876X0.335876X-0.026517X0*%
%ADD23RoundRect,0.225000X0.335876X0.017678X0.017678X0.335876X-0.335876X-0.017678X-0.017678X-0.335876X0*%
%ADD24RoundRect,0.225000X0.017678X-0.335876X0.335876X-0.017678X-0.017678X0.335876X-0.335876X0.017678X0*%
%ADD25R,0.600000X1.000000*%
%ADD26RoundRect,0.150000X-0.150000X0.587500X-0.150000X-0.587500X0.150000X-0.587500X0.150000X0.587500X0*%
%ADD27C,1.605000*%
%ADD28RoundRect,0.200000X0.200000X0.275000X-0.200000X0.275000X-0.200000X-0.275000X0.200000X-0.275000X0*%
%ADD29RoundRect,0.075000X-0.441942X-0.548008X0.548008X0.441942X0.441942X0.548008X-0.548008X-0.441942X0*%
%ADD30RoundRect,0.075000X0.441942X-0.548008X0.548008X-0.441942X-0.441942X0.548008X-0.548008X0.441942X0*%
%ADD31RotRect,1.100000X1.300000X225.000000*%
%ADD32RoundRect,0.225000X-0.017678X0.335876X-0.335876X0.017678X0.017678X-0.335876X0.335876X-0.017678X0*%
%ADD33RotRect,0.700000X1.525000X315.000000*%
%ADD34RoundRect,0.250000X-1.007627X-0.548008X-0.548008X-1.007627X1.007627X0.548008X0.548008X1.007627X0*%
%ADD35R,1.000000X0.600000*%
%ADD36C,0.750000*%
%ADD37R,0.600000X1.150000*%
%ADD38R,0.300000X1.150000*%
%ADD39R,1.550000X1.250000*%
%ADD40R,1.550000X1.500000*%
%ADD41RoundRect,0.150000X0.150000X-0.587500X0.150000X0.587500X-0.150000X0.587500X-0.150000X-0.587500X0*%
%ADD42C,8.000000*%
%ADD43RoundRect,0.250000X1.100000X-0.325000X1.100000X0.325000X-1.100000X0.325000X-1.100000X-0.325000X0*%
%ADD44RoundRect,0.225000X-0.335876X-0.017678X-0.017678X-0.335876X0.335876X0.017678X0.017678X0.335876X0*%
%ADD45C,2.475000*%
%ADD46RoundRect,0.225000X0.250000X-0.225000X0.250000X0.225000X-0.250000X0.225000X-0.250000X-0.225000X0*%
%ADD47R,1.950000X1.950000*%
%ADD48RotRect,0.300000X0.850000X135.000000*%
%ADD49C,1.750000*%
%ADD50RoundRect,0.250000X-1.075000X0.362500X-1.075000X-0.362500X1.075000X-0.362500X1.075000X0.362500X0*%
%ADD51R,1.700000X1.700000*%
%ADD52C,1.700000*%
%ADD53RoundRect,0.200000X-0.335876X-0.053033X-0.053033X-0.335876X0.335876X0.053033X0.053033X0.335876X0*%
%ADD54RotRect,0.900000X1.850000X45.000000*%
%ADD55RotRect,1.850000X3.200000X315.000000*%
%ADD56RoundRect,0.250001X-0.949999X-0.949999X0.949999X-0.949999X0.949999X0.949999X-0.949999X0.949999X0*%
%ADD57C,2.400000*%
%ADD58R,0.900000X1.850000*%
%ADD59R,3.200000X1.850000*%
%ADD60RoundRect,0.225000X0.225000X0.250000X-0.225000X0.250000X-0.225000X-0.250000X0.225000X-0.250000X0*%
%ADD61C,4.000000*%
%ADD62RotRect,1.500000X0.800000X315.000000*%
%ADD63RotRect,1.500000X0.800000X225.000000*%
%ADD64RotRect,0.650000X1.500000X315.000000*%
%ADD65R,2.500000X5.100000*%
%ADD66C,17.800000*%
%ADD67RoundRect,0.200000X0.335876X0.053033X0.053033X0.335876X-0.335876X-0.053033X-0.053033X-0.335876X0*%
%ADD68RoundRect,0.225000X-0.225000X-0.250000X0.225000X-0.250000X0.225000X0.250000X-0.225000X0.250000X0*%
%ADD69R,0.700000X1.600000*%
%ADD70R,1.820000X1.670000*%
%ADD71C,3.000000*%
%ADD72R,1.000000X2.000000*%
%ADD73RoundRect,0.425000X-0.425000X0.425000X-0.425000X-0.425000X0.425000X-0.425000X0.425000X0.425000X0*%
%ADD74C,5.000000*%
G04 APERTURE END LIST*
D10*
X77500000Y-84900000D02*
X76400000Y-84900000D01*
D11*
X252402187Y-140600000D02*
X52402187Y-140600000D01*
D12*
X188646896Y-53189849D02*
X188650741Y-51956277D01*
D10*
X69000000Y-84900000D02*
X74186384Y-80539400D01*
X61638784Y-89150000D02*
X62591412Y-88600000D01*
X61638784Y-80650000D02*
X62591412Y-81200000D01*
X64750000Y-77538784D02*
X65300000Y-78491412D01*
D12*
X188666897Y-51239849D02*
X188666897Y-49299849D01*
D10*
X76361216Y-89150000D02*
X75408588Y-88600000D01*
X64750000Y-92261216D02*
X65300000Y-91308588D01*
D12*
X189316898Y-48599848D02*
G75*
G02*
X187969750Y-48599848I-673574J0D01*
G01*
X187969750Y-48599848D02*
G75*
G02*
X189316898Y-48599848I673574J0D01*
G01*
D10*
X73250000Y-77538784D02*
X72700000Y-78491412D01*
D12*
X188768876Y-51239849D02*
G75*
G02*
X188564918Y-51239849I-101979J0D01*
G01*
X188564918Y-51239849D02*
G75*
G02*
X188768876Y-51239849I101979J0D01*
G01*
X78525400Y-84874600D02*
G75*
G02*
X59525400Y-84874600I-9500000J0D01*
G01*
X59525400Y-84874600D02*
G75*
G02*
X78525400Y-84874600I9500000J0D01*
G01*
D11*
X251900000Y-67000000D02*
X252000000Y-106100000D01*
X252048906Y-125500000D02*
X251951093Y-140600000D01*
D10*
X69000000Y-84900000D02*
X68649184Y-89886600D01*
X76361216Y-80650000D02*
X75408588Y-81200000D01*
X73250000Y-92261216D02*
X72700000Y-91308588D01*
D12*
X189157101Y-50811864D02*
G75*
G02*
X188156902Y-50789854I-510201J-448036D01*
G01*
X188856896Y-51239849D02*
G75*
G02*
X188444586Y-51239849I-206155J0D01*
G01*
X188444586Y-51239849D02*
G75*
G02*
X188856896Y-51239849I206155J0D01*
G01*
D11*
X52100000Y-140600000D02*
X52100000Y-65600000D01*
D10*
X60500000Y-84900000D02*
X61600000Y-84900000D01*
D12*
X189306898Y-53859849D02*
G75*
G02*
X187959752Y-53859849I-673573J0D01*
G01*
X187959752Y-53859849D02*
G75*
G02*
X189306898Y-53859849I673573J0D01*
G01*
X188666897Y-51239849D02*
G75*
G02*
X188634585Y-51239849I-16156J0D01*
G01*
X188634585Y-51239849D02*
G75*
G02*
X188666897Y-51239849I16156J0D01*
G01*
D10*
X69000000Y-76400000D02*
X69000000Y-77500000D01*
X69000000Y-93400000D02*
X69000000Y-92300000D01*
X66419888Y-130809013D02*
X66300841Y-130999489D01*
X67277031Y-130809013D02*
X67086555Y-130809013D01*
X67086555Y-130809013D02*
X66985364Y-130856632D01*
X66985364Y-130856632D02*
X66931793Y-130904251D01*
X66931793Y-130904251D02*
X66818697Y-131047108D01*
X66818697Y-131047108D02*
X66747269Y-131237584D01*
X66747269Y-131237584D02*
X66699650Y-131618536D01*
X66699650Y-131618536D02*
X66735364Y-131713774D01*
X66735364Y-131713774D02*
X66777031Y-131761394D01*
X66777031Y-131761394D02*
X66866317Y-131809013D01*
X66866317Y-131809013D02*
X67056793Y-131809013D01*
X67056793Y-131809013D02*
X67157983Y-131761394D01*
X67157983Y-131761394D02*
X67211555Y-131713774D01*
X67211555Y-131713774D02*
X67271078Y-131618536D01*
X67271078Y-131618536D02*
X67300840Y-131380441D01*
X67300840Y-131380441D02*
X67265126Y-131285203D01*
X67265126Y-131285203D02*
X67223459Y-131237584D01*
X67223459Y-131237584D02*
X67134174Y-131189965D01*
X67134174Y-131189965D02*
X66943697Y-131189965D01*
X66943697Y-131189965D02*
X66842507Y-131237584D01*
X66842507Y-131237584D02*
X66788936Y-131285203D01*
X66788936Y-131285203D02*
X66729412Y-131380441D01*
X68187745Y-131142346D02*
X68104412Y-131809013D01*
X67997269Y-130761394D02*
X67669888Y-131475679D01*
X67669888Y-131475679D02*
X68288936Y-131475679D01*
X69788936Y-131285203D02*
X69925841Y-131332822D01*
X69925841Y-131332822D02*
X69967507Y-131380441D01*
X69967507Y-131380441D02*
X70003222Y-131475679D01*
X70003222Y-131475679D02*
X69985364Y-131618536D01*
X69985364Y-131618536D02*
X69925841Y-131713774D01*
X69925841Y-131713774D02*
X69872269Y-131761394D01*
X69872269Y-131761394D02*
X69771079Y-131809013D01*
X69771079Y-131809013D02*
X69390126Y-131809013D01*
X69390126Y-131809013D02*
X69515126Y-130809013D01*
X69515126Y-130809013D02*
X69848460Y-130809013D01*
X69848460Y-130809013D02*
X69937745Y-130856632D01*
X69937745Y-130856632D02*
X69979412Y-130904251D01*
X69979412Y-130904251D02*
X70015126Y-130999489D01*
X70015126Y-130999489D02*
X70003222Y-131094727D01*
X70003222Y-131094727D02*
X69943698Y-131189965D01*
X69943698Y-131189965D02*
X69890126Y-131237584D01*
X69890126Y-131237584D02*
X69788936Y-131285203D01*
X69788936Y-131285203D02*
X69455603Y-131285203D01*
X70390126Y-131809013D02*
X70473460Y-131142346D01*
X70515126Y-130809013D02*
X70461555Y-130856632D01*
X70461555Y-130856632D02*
X70503222Y-130904251D01*
X70503222Y-130904251D02*
X70556793Y-130856632D01*
X70556793Y-130856632D02*
X70515126Y-130809013D01*
X70515126Y-130809013D02*
X70503222Y-130904251D01*
X70806793Y-131142346D02*
X71187745Y-131142346D01*
X70991316Y-130809013D02*
X70884174Y-131666155D01*
X70884174Y-131666155D02*
X70919888Y-131761394D01*
X70919888Y-131761394D02*
X71009174Y-131809013D01*
X71009174Y-131809013D02*
X71104412Y-131809013D01*
X71610364Y-130809013D02*
X71491317Y-130999489D01*
X72675840Y-131809013D02*
X72800840Y-130809013D01*
X72800840Y-130809013D02*
X73247269Y-131809013D01*
X73247269Y-131809013D02*
X73372269Y-130809013D01*
X73723459Y-131809013D02*
X73806793Y-131142346D01*
X73848459Y-130809013D02*
X73794888Y-130856632D01*
X73794888Y-130856632D02*
X73836555Y-130904251D01*
X73836555Y-130904251D02*
X73890126Y-130856632D01*
X73890126Y-130856632D02*
X73848459Y-130809013D01*
X73848459Y-130809013D02*
X73836555Y-130904251D01*
X74104411Y-131809013D02*
X74711554Y-131142346D01*
X74187745Y-131142346D02*
X74628221Y-131809013D01*
X75009173Y-131809013D02*
X75092507Y-131142346D01*
X75134173Y-130809013D02*
X75080602Y-130856632D01*
X75080602Y-130856632D02*
X75122269Y-130904251D01*
X75122269Y-130904251D02*
X75175840Y-130856632D01*
X75175840Y-130856632D02*
X75134173Y-130809013D01*
X75134173Y-130809013D02*
X75122269Y-130904251D01*
X75872268Y-131761394D02*
X75771078Y-131809013D01*
X75771078Y-131809013D02*
X75580601Y-131809013D01*
X75580601Y-131809013D02*
X75491316Y-131761394D01*
X75491316Y-131761394D02*
X75455601Y-131666155D01*
X75455601Y-131666155D02*
X75503221Y-131285203D01*
X75503221Y-131285203D02*
X75562744Y-131189965D01*
X75562744Y-131189965D02*
X75663935Y-131142346D01*
X75663935Y-131142346D02*
X75854411Y-131142346D01*
X75854411Y-131142346D02*
X75943697Y-131189965D01*
X75943697Y-131189965D02*
X75979411Y-131285203D01*
X75979411Y-131285203D02*
X75967506Y-131380441D01*
X75967506Y-131380441D02*
X75479411Y-131475679D01*
X77086554Y-130809013D02*
X77657983Y-130809013D01*
X77247269Y-131809013D02*
X77372269Y-130809013D01*
X78378221Y-131142346D02*
X78294888Y-131809013D01*
X77949650Y-131142346D02*
X77884174Y-131666155D01*
X77884174Y-131666155D02*
X77919888Y-131761394D01*
X77919888Y-131761394D02*
X78009174Y-131809013D01*
X78009174Y-131809013D02*
X78152031Y-131809013D01*
X78152031Y-131809013D02*
X78253221Y-131761394D01*
X78253221Y-131761394D02*
X78306793Y-131713774D01*
X78771078Y-131809013D02*
X78896078Y-130809013D01*
X78848459Y-131189965D02*
X78949650Y-131142346D01*
X78949650Y-131142346D02*
X79140126Y-131142346D01*
X79140126Y-131142346D02*
X79229412Y-131189965D01*
X79229412Y-131189965D02*
X79271078Y-131237584D01*
X79271078Y-131237584D02*
X79306793Y-131332822D01*
X79306793Y-131332822D02*
X79271078Y-131618536D01*
X79271078Y-131618536D02*
X79211555Y-131713774D01*
X79211555Y-131713774D02*
X79157983Y-131761394D01*
X79157983Y-131761394D02*
X79056793Y-131809013D01*
X79056793Y-131809013D02*
X78866316Y-131809013D01*
X78866316Y-131809013D02*
X78777031Y-131761394D01*
X80062745Y-131761394D02*
X79961555Y-131809013D01*
X79961555Y-131809013D02*
X79771078Y-131809013D01*
X79771078Y-131809013D02*
X79681793Y-131761394D01*
X79681793Y-131761394D02*
X79646078Y-131666155D01*
X79646078Y-131666155D02*
X79693698Y-131285203D01*
X79693698Y-131285203D02*
X79753221Y-131189965D01*
X79753221Y-131189965D02*
X79854412Y-131142346D01*
X79854412Y-131142346D02*
X80044888Y-131142346D01*
X80044888Y-131142346D02*
X80134174Y-131189965D01*
X80134174Y-131189965D02*
X80169888Y-131285203D01*
X80169888Y-131285203D02*
X80157983Y-131380441D01*
X80157983Y-131380441D02*
X79669888Y-131475679D01*
X81878222Y-131713774D02*
X81824650Y-131761394D01*
X81824650Y-131761394D02*
X81675841Y-131809013D01*
X81675841Y-131809013D02*
X81580603Y-131809013D01*
X81580603Y-131809013D02*
X81443698Y-131761394D01*
X81443698Y-131761394D02*
X81360365Y-131666155D01*
X81360365Y-131666155D02*
X81324650Y-131570917D01*
X81324650Y-131570917D02*
X81300841Y-131380441D01*
X81300841Y-131380441D02*
X81318698Y-131237584D01*
X81318698Y-131237584D02*
X81390126Y-131047108D01*
X81390126Y-131047108D02*
X81449650Y-130951870D01*
X81449650Y-130951870D02*
X81556793Y-130856632D01*
X81556793Y-130856632D02*
X81705603Y-130809013D01*
X81705603Y-130809013D02*
X81800841Y-130809013D01*
X81800841Y-130809013D02*
X81937746Y-130856632D01*
X81937746Y-130856632D02*
X81979412Y-130904251D01*
X82437746Y-131809013D02*
X82348460Y-131761394D01*
X82348460Y-131761394D02*
X82312746Y-131666155D01*
X82312746Y-131666155D02*
X82419888Y-130809013D01*
X82961556Y-131809013D02*
X82872270Y-131761394D01*
X82872270Y-131761394D02*
X82830603Y-131713774D01*
X82830603Y-131713774D02*
X82794889Y-131618536D01*
X82794889Y-131618536D02*
X82830603Y-131332822D01*
X82830603Y-131332822D02*
X82890127Y-131237584D01*
X82890127Y-131237584D02*
X82943698Y-131189965D01*
X82943698Y-131189965D02*
X83044889Y-131142346D01*
X83044889Y-131142346D02*
X83187746Y-131142346D01*
X83187746Y-131142346D02*
X83277032Y-131189965D01*
X83277032Y-131189965D02*
X83318698Y-131237584D01*
X83318698Y-131237584D02*
X83354413Y-131332822D01*
X83354413Y-131332822D02*
X83318698Y-131618536D01*
X83318698Y-131618536D02*
X83259175Y-131713774D01*
X83259175Y-131713774D02*
X83205603Y-131761394D01*
X83205603Y-131761394D02*
X83104413Y-131809013D01*
X83104413Y-131809013D02*
X82961556Y-131809013D01*
X84157984Y-131761394D02*
X84056794Y-131809013D01*
X84056794Y-131809013D02*
X83866318Y-131809013D01*
X83866318Y-131809013D02*
X83777032Y-131761394D01*
X83777032Y-131761394D02*
X83735365Y-131713774D01*
X83735365Y-131713774D02*
X83699651Y-131618536D01*
X83699651Y-131618536D02*
X83735365Y-131332822D01*
X83735365Y-131332822D02*
X83794889Y-131237584D01*
X83794889Y-131237584D02*
X83848460Y-131189965D01*
X83848460Y-131189965D02*
X83949651Y-131142346D01*
X83949651Y-131142346D02*
X84140127Y-131142346D01*
X84140127Y-131142346D02*
X84229413Y-131189965D01*
X84580603Y-131809013D02*
X84705603Y-130809013D01*
X84723461Y-131428060D02*
X84961556Y-131809013D01*
X85044889Y-131142346D02*
X84616318Y-131523298D01*
X66247269Y-133418957D02*
X66372269Y-132418957D01*
X66372269Y-132418957D02*
X66610365Y-132418957D01*
X66610365Y-132418957D02*
X66747269Y-132466576D01*
X66747269Y-132466576D02*
X66830603Y-132561814D01*
X66830603Y-132561814D02*
X66866317Y-132657052D01*
X66866317Y-132657052D02*
X66890127Y-132847528D01*
X66890127Y-132847528D02*
X66872269Y-132990385D01*
X66872269Y-132990385D02*
X66800841Y-133180861D01*
X66800841Y-133180861D02*
X66741317Y-133276099D01*
X66741317Y-133276099D02*
X66634174Y-133371338D01*
X66634174Y-133371338D02*
X66485365Y-133418957D01*
X66485365Y-133418957D02*
X66247269Y-133418957D01*
X67247269Y-133418957D02*
X67330603Y-132752290D01*
X67306793Y-132942766D02*
X67366317Y-132847528D01*
X67366317Y-132847528D02*
X67419888Y-132799909D01*
X67419888Y-132799909D02*
X67521079Y-132752290D01*
X67521079Y-132752290D02*
X67616317Y-132752290D01*
X67866317Y-133418957D02*
X67949651Y-132752290D01*
X67991317Y-132418957D02*
X67937746Y-132466576D01*
X67937746Y-132466576D02*
X67979413Y-132514195D01*
X67979413Y-132514195D02*
X68032984Y-132466576D01*
X68032984Y-132466576D02*
X67991317Y-132418957D01*
X67991317Y-132418957D02*
X67979413Y-132514195D01*
X68330603Y-132752290D02*
X68485365Y-133418957D01*
X68485365Y-133418957D02*
X68806793Y-132752290D01*
X69491317Y-133371338D02*
X69390127Y-133418957D01*
X69390127Y-133418957D02*
X69199650Y-133418957D01*
X69199650Y-133418957D02*
X69110365Y-133371338D01*
X69110365Y-133371338D02*
X69074650Y-133276099D01*
X69074650Y-133276099D02*
X69122270Y-132895147D01*
X69122270Y-132895147D02*
X69181793Y-132799909D01*
X69181793Y-132799909D02*
X69282984Y-132752290D01*
X69282984Y-132752290D02*
X69473460Y-132752290D01*
X69473460Y-132752290D02*
X69562746Y-132799909D01*
X69562746Y-132799909D02*
X69598460Y-132895147D01*
X69598460Y-132895147D02*
X69586555Y-132990385D01*
X69586555Y-132990385D02*
X69098460Y-133085623D01*
X69961555Y-133418957D02*
X70044889Y-132752290D01*
X70021079Y-132942766D02*
X70080603Y-132847528D01*
X70080603Y-132847528D02*
X70134174Y-132799909D01*
X70134174Y-132799909D02*
X70235365Y-132752290D01*
X70235365Y-132752290D02*
X70330603Y-132752290D01*
X71741318Y-132895147D02*
X71878223Y-132942766D01*
X71878223Y-132942766D02*
X71919889Y-132990385D01*
X71919889Y-132990385D02*
X71955604Y-133085623D01*
X71955604Y-133085623D02*
X71937746Y-133228480D01*
X71937746Y-133228480D02*
X71878223Y-133323718D01*
X71878223Y-133323718D02*
X71824651Y-133371338D01*
X71824651Y-133371338D02*
X71723461Y-133418957D01*
X71723461Y-133418957D02*
X71342508Y-133418957D01*
X71342508Y-133418957D02*
X71467508Y-132418957D01*
X71467508Y-132418957D02*
X71800842Y-132418957D01*
X71800842Y-132418957D02*
X71890127Y-132466576D01*
X71890127Y-132466576D02*
X71931794Y-132514195D01*
X71931794Y-132514195D02*
X71967508Y-132609433D01*
X71967508Y-132609433D02*
X71955604Y-132704671D01*
X71955604Y-132704671D02*
X71896080Y-132799909D01*
X71896080Y-132799909D02*
X71842508Y-132847528D01*
X71842508Y-132847528D02*
X71741318Y-132895147D01*
X71741318Y-132895147D02*
X71407985Y-132895147D01*
X72485366Y-133418957D02*
X72396080Y-133371338D01*
X72396080Y-133371338D02*
X72354413Y-133323718D01*
X72354413Y-133323718D02*
X72318699Y-133228480D01*
X72318699Y-133228480D02*
X72354413Y-132942766D01*
X72354413Y-132942766D02*
X72413937Y-132847528D01*
X72413937Y-132847528D02*
X72467508Y-132799909D01*
X72467508Y-132799909D02*
X72568699Y-132752290D01*
X72568699Y-132752290D02*
X72711556Y-132752290D01*
X72711556Y-132752290D02*
X72800842Y-132799909D01*
X72800842Y-132799909D02*
X72842508Y-132847528D01*
X72842508Y-132847528D02*
X72878223Y-132942766D01*
X72878223Y-132942766D02*
X72842508Y-133228480D01*
X72842508Y-133228480D02*
X72782985Y-133323718D01*
X72782985Y-133323718D02*
X72729413Y-133371338D01*
X72729413Y-133371338D02*
X72628223Y-133418957D01*
X72628223Y-133418957D02*
X72485366Y-133418957D01*
X73675842Y-133418957D02*
X73741318Y-132895147D01*
X73741318Y-132895147D02*
X73705604Y-132799909D01*
X73705604Y-132799909D02*
X73616318Y-132752290D01*
X73616318Y-132752290D02*
X73425842Y-132752290D01*
X73425842Y-132752290D02*
X73324651Y-132799909D01*
X73681794Y-133371338D02*
X73580604Y-133418957D01*
X73580604Y-133418957D02*
X73342508Y-133418957D01*
X73342508Y-133418957D02*
X73253223Y-133371338D01*
X73253223Y-133371338D02*
X73217508Y-133276099D01*
X73217508Y-133276099D02*
X73229413Y-133180861D01*
X73229413Y-133180861D02*
X73288937Y-133085623D01*
X73288937Y-133085623D02*
X73390128Y-133038004D01*
X73390128Y-133038004D02*
X73628223Y-133038004D01*
X73628223Y-133038004D02*
X73729413Y-132990385D01*
X74152032Y-133418957D02*
X74235366Y-132752290D01*
X74211556Y-132942766D02*
X74271080Y-132847528D01*
X74271080Y-132847528D02*
X74324651Y-132799909D01*
X74324651Y-132799909D02*
X74425842Y-132752290D01*
X74425842Y-132752290D02*
X74521080Y-132752290D01*
X75199652Y-133418957D02*
X75324652Y-132418957D01*
X75205604Y-133371338D02*
X75104414Y-133418957D01*
X75104414Y-133418957D02*
X74913938Y-133418957D01*
X74913938Y-133418957D02*
X74824652Y-133371338D01*
X74824652Y-133371338D02*
X74782985Y-133323718D01*
X74782985Y-133323718D02*
X74747271Y-133228480D01*
X74747271Y-133228480D02*
X74782985Y-132942766D01*
X74782985Y-132942766D02*
X74842509Y-132847528D01*
X74842509Y-132847528D02*
X74896080Y-132799909D01*
X74896080Y-132799909D02*
X74997271Y-132752290D01*
X74997271Y-132752290D02*
X75187747Y-132752290D01*
X75187747Y-132752290D02*
X75277033Y-132799909D01*
X75425842Y-133514195D02*
X76187747Y-133514195D01*
X76419890Y-132418957D02*
X76628224Y-133418957D01*
X76628224Y-133418957D02*
X77086557Y-132418957D01*
X77818700Y-133418957D02*
X77247271Y-133418957D01*
X77532986Y-133418957D02*
X77657986Y-132418957D01*
X77657986Y-132418957D02*
X77544890Y-132561814D01*
X77544890Y-132561814D02*
X77437748Y-132657052D01*
X77437748Y-132657052D02*
X77336557Y-132704671D01*
X78259176Y-133323718D02*
X78300843Y-133371338D01*
X78300843Y-133371338D02*
X78247271Y-133418957D01*
X78247271Y-133418957D02*
X78205605Y-133371338D01*
X78205605Y-133371338D02*
X78259176Y-133323718D01*
X78259176Y-133323718D02*
X78247271Y-133418957D01*
X79038938Y-132418957D02*
X79134176Y-132418957D01*
X79134176Y-132418957D02*
X79223461Y-132466576D01*
X79223461Y-132466576D02*
X79265128Y-132514195D01*
X79265128Y-132514195D02*
X79300842Y-132609433D01*
X79300842Y-132609433D02*
X79324652Y-132799909D01*
X79324652Y-132799909D02*
X79294890Y-133038004D01*
X79294890Y-133038004D02*
X79223461Y-133228480D01*
X79223461Y-133228480D02*
X79163938Y-133323718D01*
X79163938Y-133323718D02*
X79110366Y-133371338D01*
X79110366Y-133371338D02*
X79009176Y-133418957D01*
X79009176Y-133418957D02*
X78913938Y-133418957D01*
X78913938Y-133418957D02*
X78824652Y-133371338D01*
X78824652Y-133371338D02*
X78782985Y-133323718D01*
X78782985Y-133323718D02*
X78747271Y-133228480D01*
X78747271Y-133228480D02*
X78723461Y-133038004D01*
X78723461Y-133038004D02*
X78753223Y-132799909D01*
X78753223Y-132799909D02*
X78824652Y-132609433D01*
X78824652Y-132609433D02*
X78884176Y-132514195D01*
X78884176Y-132514195D02*
X78937747Y-132466576D01*
X78937747Y-132466576D02*
X79038938Y-132418957D01*
X80437747Y-133418957D02*
X80562747Y-132418957D01*
X80562747Y-132418957D02*
X80800843Y-132418957D01*
X80800843Y-132418957D02*
X80937747Y-132466576D01*
X80937747Y-132466576D02*
X81021081Y-132561814D01*
X81021081Y-132561814D02*
X81056795Y-132657052D01*
X81056795Y-132657052D02*
X81080605Y-132847528D01*
X81080605Y-132847528D02*
X81062747Y-132990385D01*
X81062747Y-132990385D02*
X80991319Y-133180861D01*
X80991319Y-133180861D02*
X80931795Y-133276099D01*
X80931795Y-133276099D02*
X80824652Y-133371338D01*
X80824652Y-133371338D02*
X80675843Y-133418957D01*
X80675843Y-133418957D02*
X80437747Y-133418957D01*
X81824652Y-133371338D02*
X81723462Y-133418957D01*
X81723462Y-133418957D02*
X81532985Y-133418957D01*
X81532985Y-133418957D02*
X81443700Y-133371338D01*
X81443700Y-133371338D02*
X81407985Y-133276099D01*
X81407985Y-133276099D02*
X81455605Y-132895147D01*
X81455605Y-132895147D02*
X81515128Y-132799909D01*
X81515128Y-132799909D02*
X81616319Y-132752290D01*
X81616319Y-132752290D02*
X81806795Y-132752290D01*
X81806795Y-132752290D02*
X81896081Y-132799909D01*
X81896081Y-132799909D02*
X81931795Y-132895147D01*
X81931795Y-132895147D02*
X81919890Y-132990385D01*
X81919890Y-132990385D02*
X81431795Y-133085623D01*
X82729414Y-133371338D02*
X82628224Y-133418957D01*
X82628224Y-133418957D02*
X82437748Y-133418957D01*
X82437748Y-133418957D02*
X82348462Y-133371338D01*
X82348462Y-133371338D02*
X82306795Y-133323718D01*
X82306795Y-133323718D02*
X82271081Y-133228480D01*
X82271081Y-133228480D02*
X82306795Y-132942766D01*
X82306795Y-132942766D02*
X82366319Y-132847528D01*
X82366319Y-132847528D02*
X82419890Y-132799909D01*
X82419890Y-132799909D02*
X82521081Y-132752290D01*
X82521081Y-132752290D02*
X82711557Y-132752290D01*
X82711557Y-132752290D02*
X82800843Y-132799909D01*
X83979415Y-132514195D02*
X84032986Y-132466576D01*
X84032986Y-132466576D02*
X84134176Y-132418957D01*
X84134176Y-132418957D02*
X84372272Y-132418957D01*
X84372272Y-132418957D02*
X84461557Y-132466576D01*
X84461557Y-132466576D02*
X84503224Y-132514195D01*
X84503224Y-132514195D02*
X84538938Y-132609433D01*
X84538938Y-132609433D02*
X84527034Y-132704671D01*
X84527034Y-132704671D02*
X84461557Y-132847528D01*
X84461557Y-132847528D02*
X83818700Y-133418957D01*
X83818700Y-133418957D02*
X84437748Y-133418957D01*
X85181796Y-132418957D02*
X85277034Y-132418957D01*
X85277034Y-132418957D02*
X85366319Y-132466576D01*
X85366319Y-132466576D02*
X85407986Y-132514195D01*
X85407986Y-132514195D02*
X85443700Y-132609433D01*
X85443700Y-132609433D02*
X85467510Y-132799909D01*
X85467510Y-132799909D02*
X85437748Y-133038004D01*
X85437748Y-133038004D02*
X85366319Y-133228480D01*
X85366319Y-133228480D02*
X85306796Y-133323718D01*
X85306796Y-133323718D02*
X85253224Y-133371338D01*
X85253224Y-133371338D02*
X85152034Y-133418957D01*
X85152034Y-133418957D02*
X85056796Y-133418957D01*
X85056796Y-133418957D02*
X84967510Y-133371338D01*
X84967510Y-133371338D02*
X84925843Y-133323718D01*
X84925843Y-133323718D02*
X84890129Y-133228480D01*
X84890129Y-133228480D02*
X84866319Y-133038004D01*
X84866319Y-133038004D02*
X84896081Y-132799909D01*
X84896081Y-132799909D02*
X84967510Y-132609433D01*
X84967510Y-132609433D02*
X85027034Y-132514195D01*
X85027034Y-132514195D02*
X85080605Y-132466576D01*
X85080605Y-132466576D02*
X85181796Y-132418957D01*
X85884177Y-132514195D02*
X85937748Y-132466576D01*
X85937748Y-132466576D02*
X86038938Y-132418957D01*
X86038938Y-132418957D02*
X86277034Y-132418957D01*
X86277034Y-132418957D02*
X86366319Y-132466576D01*
X86366319Y-132466576D02*
X86407986Y-132514195D01*
X86407986Y-132514195D02*
X86443700Y-132609433D01*
X86443700Y-132609433D02*
X86431796Y-132704671D01*
X86431796Y-132704671D02*
X86366319Y-132847528D01*
X86366319Y-132847528D02*
X85723462Y-133418957D01*
X85723462Y-133418957D02*
X86342510Y-133418957D01*
X87372272Y-132418957D02*
X86896081Y-132418957D01*
X86896081Y-132418957D02*
X86788939Y-132895147D01*
X86788939Y-132895147D02*
X86842510Y-132847528D01*
X86842510Y-132847528D02*
X86943700Y-132799909D01*
X86943700Y-132799909D02*
X87181796Y-132799909D01*
X87181796Y-132799909D02*
X87271081Y-132847528D01*
X87271081Y-132847528D02*
X87312748Y-132895147D01*
X87312748Y-132895147D02*
X87348462Y-132990385D01*
X87348462Y-132990385D02*
X87318700Y-133228480D01*
X87318700Y-133228480D02*
X87259177Y-133323718D01*
X87259177Y-133323718D02*
X87205605Y-133371338D01*
X87205605Y-133371338D02*
X87104415Y-133418957D01*
X87104415Y-133418957D02*
X86866319Y-133418957D01*
X86866319Y-133418957D02*
X86777034Y-133371338D01*
X86777034Y-133371338D02*
X86735367Y-133323718D01*
D12*
X59649585Y-102495112D02*
X59649585Y-102959398D01*
X59649585Y-102959398D02*
X59363871Y-102673684D01*
X59363871Y-102673684D02*
X59363871Y-102780826D01*
X59363871Y-102780826D02*
X59328157Y-102847791D01*
X59328157Y-102847791D02*
X59292442Y-102879041D01*
X59292442Y-102879041D02*
X59221014Y-102905826D01*
X59221014Y-102905826D02*
X59042442Y-102883505D01*
X59042442Y-102883505D02*
X58971014Y-102838862D01*
X58971014Y-102838862D02*
X58935300Y-102798684D01*
X58935300Y-102798684D02*
X58899585Y-102722791D01*
X58899585Y-102722791D02*
X58899585Y-102508505D01*
X58899585Y-102508505D02*
X58935300Y-102441541D01*
X58935300Y-102441541D02*
X58971014Y-102410291D01*
X58971014Y-103196005D02*
X58935300Y-103227255D01*
X58935300Y-103227255D02*
X58899585Y-103187077D01*
X58899585Y-103187077D02*
X58935300Y-103155827D01*
X58935300Y-103155827D02*
X58971014Y-103196005D01*
X58971014Y-103196005D02*
X58899585Y-103187077D01*
X59649585Y-103566541D02*
X59649585Y-104030827D01*
X59649585Y-104030827D02*
X59363871Y-103745113D01*
X59363871Y-103745113D02*
X59363871Y-103852255D01*
X59363871Y-103852255D02*
X59328157Y-103919220D01*
X59328157Y-103919220D02*
X59292442Y-103950470D01*
X59292442Y-103950470D02*
X59221014Y-103977255D01*
X59221014Y-103977255D02*
X59042442Y-103954934D01*
X59042442Y-103954934D02*
X58971014Y-103910291D01*
X58971014Y-103910291D02*
X58935300Y-103870113D01*
X58935300Y-103870113D02*
X58899585Y-103794220D01*
X58899585Y-103794220D02*
X58899585Y-103579934D01*
X58899585Y-103579934D02*
X58935300Y-103512970D01*
X58935300Y-103512970D02*
X58971014Y-103481720D01*
X59649585Y-104245113D02*
X58899585Y-104401363D01*
X58899585Y-104401363D02*
X59649585Y-104745113D01*
X59399585Y-105535292D02*
X58649585Y-105441542D01*
X59363871Y-105530827D02*
X59399585Y-105606720D01*
X59399585Y-105606720D02*
X59399585Y-105749577D01*
X59399585Y-105749577D02*
X59363871Y-105816542D01*
X59363871Y-105816542D02*
X59328157Y-105847792D01*
X59328157Y-105847792D02*
X59256728Y-105874577D01*
X59256728Y-105874577D02*
X59042442Y-105847792D01*
X59042442Y-105847792D02*
X58971014Y-105803149D01*
X58971014Y-105803149D02*
X58935300Y-105762970D01*
X58935300Y-105762970D02*
X58899585Y-105687077D01*
X58899585Y-105687077D02*
X58899585Y-105544220D01*
X58899585Y-105544220D02*
X58935300Y-105477256D01*
X58899585Y-106151363D02*
X59399585Y-106213863D01*
X59256728Y-106196006D02*
X59328157Y-106240648D01*
X59328157Y-106240648D02*
X59363871Y-106280827D01*
X59363871Y-106280827D02*
X59399585Y-106356720D01*
X59399585Y-106356720D02*
X59399585Y-106428148D01*
X58899585Y-106722792D02*
X58935300Y-106655827D01*
X58935300Y-106655827D02*
X58971014Y-106624577D01*
X58971014Y-106624577D02*
X59042442Y-106597792D01*
X59042442Y-106597792D02*
X59256728Y-106624577D01*
X59256728Y-106624577D02*
X59328157Y-106669220D01*
X59328157Y-106669220D02*
X59363871Y-106709399D01*
X59363871Y-106709399D02*
X59399585Y-106785292D01*
X59399585Y-106785292D02*
X59399585Y-106892434D01*
X59399585Y-106892434D02*
X59363871Y-106959399D01*
X59363871Y-106959399D02*
X59328157Y-106990649D01*
X59328157Y-106990649D02*
X59256728Y-107017434D01*
X59256728Y-107017434D02*
X59042442Y-106990649D01*
X59042442Y-106990649D02*
X58971014Y-106946006D01*
X58971014Y-106946006D02*
X58935300Y-106905827D01*
X58935300Y-106905827D02*
X58899585Y-106829934D01*
X58899585Y-106829934D02*
X58899585Y-106722792D01*
X59399585Y-107678148D02*
X58792442Y-107602255D01*
X58792442Y-107602255D02*
X58721014Y-107557613D01*
X58721014Y-107557613D02*
X58685300Y-107517434D01*
X58685300Y-107517434D02*
X58649585Y-107441541D01*
X58649585Y-107441541D02*
X58649585Y-107334398D01*
X58649585Y-107334398D02*
X58685300Y-107267434D01*
X58935300Y-107620113D02*
X58899585Y-107544220D01*
X58899585Y-107544220D02*
X58899585Y-107401363D01*
X58899585Y-107401363D02*
X58935300Y-107334398D01*
X58935300Y-107334398D02*
X58971014Y-107303148D01*
X58971014Y-107303148D02*
X59042442Y-107276363D01*
X59042442Y-107276363D02*
X59256728Y-107303148D01*
X59256728Y-107303148D02*
X59328157Y-107347791D01*
X59328157Y-107347791D02*
X59363871Y-107387970D01*
X59363871Y-107387970D02*
X59399585Y-107463863D01*
X59399585Y-107463863D02*
X59399585Y-107606720D01*
X59399585Y-107606720D02*
X59363871Y-107673684D01*
X58899585Y-107972791D02*
X59399585Y-108035291D01*
X59256728Y-108017434D02*
X59328157Y-108062076D01*
X59328157Y-108062076D02*
X59363871Y-108102255D01*
X59363871Y-108102255D02*
X59399585Y-108178148D01*
X59399585Y-108178148D02*
X59399585Y-108249576D01*
X58899585Y-108758505D02*
X59292442Y-108807612D01*
X59292442Y-108807612D02*
X59363871Y-108780827D01*
X59363871Y-108780827D02*
X59399585Y-108713862D01*
X59399585Y-108713862D02*
X59399585Y-108571005D01*
X59399585Y-108571005D02*
X59363871Y-108495112D01*
X58935300Y-108762970D02*
X58899585Y-108687077D01*
X58899585Y-108687077D02*
X58899585Y-108508505D01*
X58899585Y-108508505D02*
X58935300Y-108441541D01*
X58935300Y-108441541D02*
X59006728Y-108414755D01*
X59006728Y-108414755D02*
X59078157Y-108423684D01*
X59078157Y-108423684D02*
X59149585Y-108468327D01*
X59149585Y-108468327D02*
X59185300Y-108544220D01*
X59185300Y-108544220D02*
X59185300Y-108722791D01*
X59185300Y-108722791D02*
X59221014Y-108798684D01*
X58899585Y-109115648D02*
X59399585Y-109178148D01*
X59328157Y-109169219D02*
X59363871Y-109209398D01*
X59363871Y-109209398D02*
X59399585Y-109285291D01*
X59399585Y-109285291D02*
X59399585Y-109392433D01*
X59399585Y-109392433D02*
X59363871Y-109459398D01*
X59363871Y-109459398D02*
X59292442Y-109486183D01*
X59292442Y-109486183D02*
X58899585Y-109437076D01*
X59292442Y-109486183D02*
X59363871Y-109530826D01*
X59363871Y-109530826D02*
X59399585Y-109606719D01*
X59399585Y-109606719D02*
X59399585Y-109713862D01*
X59399585Y-109713862D02*
X59363871Y-109780826D01*
X59363871Y-109780826D02*
X59292442Y-109807612D01*
X59292442Y-109807612D02*
X58899585Y-109758505D01*
X58899585Y-110115648D02*
X59399585Y-110178148D01*
X59328157Y-110169219D02*
X59363871Y-110209398D01*
X59363871Y-110209398D02*
X59399585Y-110285291D01*
X59399585Y-110285291D02*
X59399585Y-110392433D01*
X59399585Y-110392433D02*
X59363871Y-110459398D01*
X59363871Y-110459398D02*
X59292442Y-110486183D01*
X59292442Y-110486183D02*
X58899585Y-110437076D01*
X59292442Y-110486183D02*
X59363871Y-110530826D01*
X59363871Y-110530826D02*
X59399585Y-110606719D01*
X59399585Y-110606719D02*
X59399585Y-110713862D01*
X59399585Y-110713862D02*
X59363871Y-110780826D01*
X59363871Y-110780826D02*
X59292442Y-110807612D01*
X59292442Y-110807612D02*
X58899585Y-110758505D01*
X58935300Y-111405826D02*
X58899585Y-111329933D01*
X58899585Y-111329933D02*
X58899585Y-111187076D01*
X58899585Y-111187076D02*
X58935300Y-111120112D01*
X58935300Y-111120112D02*
X59006728Y-111093326D01*
X59006728Y-111093326D02*
X59292442Y-111129041D01*
X59292442Y-111129041D02*
X59363871Y-111173683D01*
X59363871Y-111173683D02*
X59399585Y-111249576D01*
X59399585Y-111249576D02*
X59399585Y-111392433D01*
X59399585Y-111392433D02*
X59363871Y-111459398D01*
X59363871Y-111459398D02*
X59292442Y-111486183D01*
X59292442Y-111486183D02*
X59221014Y-111477255D01*
X59221014Y-111477255D02*
X59149585Y-111111183D01*
X58899585Y-111758505D02*
X59399585Y-111821005D01*
X59256728Y-111803148D02*
X59328157Y-111847790D01*
X59328157Y-111847790D02*
X59363871Y-111887969D01*
X59363871Y-111887969D02*
X59399585Y-111963862D01*
X59399585Y-111963862D02*
X59399585Y-112035290D01*
X59399585Y-112856720D02*
X58649585Y-112762970D01*
X59363871Y-112852255D02*
X59399585Y-112928148D01*
X59399585Y-112928148D02*
X59399585Y-113071005D01*
X59399585Y-113071005D02*
X59363871Y-113137970D01*
X59363871Y-113137970D02*
X59328157Y-113169220D01*
X59328157Y-113169220D02*
X59256728Y-113196005D01*
X59256728Y-113196005D02*
X59042442Y-113169220D01*
X59042442Y-113169220D02*
X58971014Y-113124577D01*
X58971014Y-113124577D02*
X58935300Y-113084398D01*
X58935300Y-113084398D02*
X58899585Y-113008505D01*
X58899585Y-113008505D02*
X58899585Y-112865648D01*
X58899585Y-112865648D02*
X58935300Y-112798684D01*
X58899585Y-113579934D02*
X58935300Y-113512969D01*
X58935300Y-113512969D02*
X58971014Y-113481719D01*
X58971014Y-113481719D02*
X59042442Y-113454934D01*
X59042442Y-113454934D02*
X59256728Y-113481719D01*
X59256728Y-113481719D02*
X59328157Y-113526362D01*
X59328157Y-113526362D02*
X59363871Y-113566541D01*
X59363871Y-113566541D02*
X59399585Y-113642434D01*
X59399585Y-113642434D02*
X59399585Y-113749576D01*
X59399585Y-113749576D02*
X59363871Y-113816541D01*
X59363871Y-113816541D02*
X59328157Y-113847791D01*
X59328157Y-113847791D02*
X59256728Y-113874576D01*
X59256728Y-113874576D02*
X59042442Y-113847791D01*
X59042442Y-113847791D02*
X58971014Y-113803148D01*
X58971014Y-113803148D02*
X58935300Y-113762969D01*
X58935300Y-113762969D02*
X58899585Y-113687076D01*
X58899585Y-113687076D02*
X58899585Y-113579934D01*
X59399585Y-114142433D02*
X58899585Y-114222790D01*
X58899585Y-114222790D02*
X59256728Y-114410290D01*
X59256728Y-114410290D02*
X58899585Y-114508505D01*
X58899585Y-114508505D02*
X59399585Y-114713862D01*
X58935300Y-115227254D02*
X58899585Y-115151361D01*
X58899585Y-115151361D02*
X58899585Y-115008504D01*
X58899585Y-115008504D02*
X58935300Y-114941540D01*
X58935300Y-114941540D02*
X59006728Y-114914754D01*
X59006728Y-114914754D02*
X59292442Y-114950469D01*
X59292442Y-114950469D02*
X59363871Y-114995111D01*
X59363871Y-114995111D02*
X59399585Y-115071004D01*
X59399585Y-115071004D02*
X59399585Y-115213861D01*
X59399585Y-115213861D02*
X59363871Y-115280826D01*
X59363871Y-115280826D02*
X59292442Y-115307611D01*
X59292442Y-115307611D02*
X59221014Y-115298683D01*
X59221014Y-115298683D02*
X59149585Y-114932611D01*
X58899585Y-115579933D02*
X59399585Y-115642433D01*
X59256728Y-115624576D02*
X59328157Y-115669218D01*
X59328157Y-115669218D02*
X59363871Y-115709397D01*
X59363871Y-115709397D02*
X59399585Y-115785290D01*
X59399585Y-115785290D02*
X59399585Y-115856718D01*
X186450414Y-53065601D02*
X186450414Y-53422744D01*
X186450414Y-53422744D02*
X186807557Y-53458458D01*
X186807557Y-53458458D02*
X186771842Y-53422744D01*
X186771842Y-53422744D02*
X186736128Y-53351316D01*
X186736128Y-53351316D02*
X186736128Y-53172744D01*
X186736128Y-53172744D02*
X186771842Y-53101316D01*
X186771842Y-53101316D02*
X186807557Y-53065601D01*
X186807557Y-53065601D02*
X186878985Y-53029887D01*
X186878985Y-53029887D02*
X187057557Y-53029887D01*
X187057557Y-53029887D02*
X187128985Y-53065601D01*
X187128985Y-53065601D02*
X187164700Y-53101316D01*
X187164700Y-53101316D02*
X187200414Y-53172744D01*
X187200414Y-53172744D02*
X187200414Y-53351316D01*
X187200414Y-53351316D02*
X187164700Y-53422744D01*
X187164700Y-53422744D02*
X187128985Y-53458458D01*
X186914700Y-52137029D02*
X186914700Y-51565601D01*
X187200414Y-50244172D02*
X187200414Y-50672743D01*
X187200414Y-50458458D02*
X186450414Y-50458458D01*
X186450414Y-50458458D02*
X186557557Y-50529886D01*
X186557557Y-50529886D02*
X186628985Y-50601315D01*
X186628985Y-50601315D02*
X186664700Y-50672743D01*
X186521842Y-49958457D02*
X186486128Y-49922743D01*
X186486128Y-49922743D02*
X186450414Y-49851315D01*
X186450414Y-49851315D02*
X186450414Y-49672743D01*
X186450414Y-49672743D02*
X186486128Y-49601315D01*
X186486128Y-49601315D02*
X186521842Y-49565600D01*
X186521842Y-49565600D02*
X186593271Y-49529886D01*
X186593271Y-49529886D02*
X186664700Y-49529886D01*
X186664700Y-49529886D02*
X186771842Y-49565600D01*
X186771842Y-49565600D02*
X187200414Y-49994172D01*
X187200414Y-49994172D02*
X187200414Y-49529886D01*
X186450414Y-49315600D02*
X187200414Y-49065600D01*
X187200414Y-49065600D02*
X186450414Y-48815600D01*
D13*
X188638990Y-48382944D02*
X188638990Y-48763897D01*
X188448514Y-48573420D02*
X188829466Y-48573420D01*
X188628990Y-53659372D02*
X188628990Y-54040325D01*
D12*
%TO.C,REF\u002A\u002A*%
X61708449Y-133733138D02*
X64333649Y-133720338D01*
X61708649Y-131070338D02*
X61708449Y-133733138D01*
X61708649Y-131070338D02*
X64333849Y-131057538D01*
X62508549Y-130826738D02*
X62508749Y-130613938D01*
X62508649Y-133270338D02*
X61708449Y-133733138D01*
X62508649Y-133270338D02*
X62508649Y-131320338D01*
X62508649Y-133270338D02*
X64083649Y-133270338D01*
X62508849Y-130607538D02*
X61708649Y-131070338D01*
X62508849Y-130607538D02*
X65134049Y-130594738D01*
X63166099Y-132865463D02*
X63151199Y-131425213D01*
X63651199Y-132875213D02*
X63158649Y-132145338D01*
X63701199Y-131450213D02*
X63158649Y-132145338D01*
X64333849Y-131057538D02*
X64333649Y-133720338D01*
X64633649Y-133270338D02*
X65133849Y-133257538D01*
X65133849Y-133257538D02*
X64333649Y-133720338D01*
X65134049Y-130594738D02*
X64333849Y-131057538D01*
X65134049Y-130594738D02*
X65133849Y-133257538D01*
%TD*%
D14*
%TO.C,D29*%
X226475000Y-54700000D03*
X228125000Y-54700000D03*
%TD*%
D15*
%TO.C,TP3*%
X128200000Y-110000000D03*
%TD*%
D16*
%TO.C,R74*%
X136900000Y-77975000D03*
X136900000Y-79625000D03*
%TD*%
D17*
%TO.C,R51*%
X111744516Y-104822283D03*
X110577790Y-105989009D03*
%TD*%
D18*
%TO.C,R41*%
X113800000Y-58425000D03*
X113800000Y-56775000D03*
%TD*%
D17*
%TO.C,R11*%
X117174037Y-92140891D03*
X116007311Y-93307617D03*
%TD*%
D19*
%TO.C,D5*%
X96333275Y-126966729D03*
X97500001Y-125800003D03*
%TD*%
D20*
%TO.C,K2*%
X174790000Y-74125000D03*
X174790000Y-80525000D03*
D21*
X174790000Y-99425000D03*
X182410000Y-99425000D03*
D20*
X182410000Y-77325000D03*
%TD*%
D15*
%TO.C,SW3*%
X125100000Y-46500000D03*
X128600000Y-51500000D03*
%TD*%
D17*
%TO.C,R10*%
X114974037Y-89940891D03*
X113807311Y-91107617D03*
%TD*%
D22*
%TO.C,D1*%
X97958927Y-95145235D03*
X96845233Y-96258929D03*
%TD*%
D23*
%TO.C,C9*%
X67111007Y-103660407D03*
X66014991Y-102564391D03*
%TD*%
D24*
%TO.C,C2*%
X65901559Y-111724785D03*
X66997575Y-110628769D03*
%TD*%
D17*
%TO.C,R22*%
X132766920Y-89700193D03*
X131600194Y-90866919D03*
%TD*%
%TO.C,D19*%
X122892829Y-79826102D03*
X121726103Y-80992828D03*
%TD*%
D25*
%TO.C,Q10*%
X222740000Y-87575000D03*
X224640000Y-87575000D03*
X223690000Y-85275000D03*
%TD*%
D15*
%TO.C,TP5*%
X156500000Y-74100000D03*
%TD*%
D17*
%TO.C,R49*%
X110602879Y-103738920D03*
X109436153Y-104905646D03*
%TD*%
D24*
%TO.C,C5*%
X71053552Y-116672793D03*
X72149568Y-115576777D03*
%TD*%
D19*
%TO.C,R27*%
X116216637Y-75483362D03*
X117383363Y-74316636D03*
%TD*%
%TO.C,R21*%
X122826103Y-82092828D03*
X123992829Y-80926102D03*
%TD*%
%TO.C,R12*%
X117107311Y-94407617D03*
X118274037Y-93240891D03*
%TD*%
D14*
%TO.C,R57*%
X225675000Y-60600000D03*
X227325000Y-60600000D03*
%TD*%
D17*
%TO.C,R7*%
X100700000Y-118200000D03*
X99533274Y-119366726D03*
%TD*%
%TO.C,D7*%
X101800000Y-119300000D03*
X100633274Y-120466726D03*
%TD*%
D16*
%TO.C,R58*%
X221090000Y-86000000D03*
X221090000Y-87650000D03*
%TD*%
D17*
%TO.C,R26*%
X121783363Y-78716636D03*
X120616637Y-79883362D03*
%TD*%
D15*
%TO.C,TP4*%
X218500000Y-100700000D03*
%TD*%
D26*
%TO.C,Q3*%
X72050000Y-123224999D03*
X70150000Y-123224999D03*
X71100000Y-125100000D03*
%TD*%
D14*
%TO.C,R68*%
X67050000Y-123600000D03*
X68700000Y-123600000D03*
%TD*%
D27*
%TO.C,J2*%
X146920000Y-63040000D03*
X146920000Y-60500000D03*
X149460000Y-63040000D03*
X149460000Y-60500000D03*
X152000000Y-63040000D03*
X152000000Y-60500000D03*
X154540000Y-63040000D03*
X154540000Y-60500000D03*
X157080000Y-63040000D03*
X157080000Y-60500000D03*
%TD*%
D28*
%TO.C,R33*%
X242125000Y-120000000D03*
X240475000Y-120000000D03*
%TD*%
%TO.C,R61*%
X136950000Y-76500000D03*
X135300000Y-76500000D03*
%TD*%
D25*
%TO.C,Q2*%
X96550002Y-71350001D03*
X94650002Y-71350001D03*
X95600002Y-73650001D03*
%TD*%
D29*
%TO.C,U1*%
X71735519Y-108861181D03*
X72089072Y-109214734D03*
X72442625Y-109568287D03*
X72796179Y-109921841D03*
X73149732Y-110275394D03*
X73503286Y-110628948D03*
X73856839Y-110982501D03*
X74210392Y-111336054D03*
X74563946Y-111689608D03*
X74917499Y-112043161D03*
X75271052Y-112396714D03*
X75624606Y-112750268D03*
X75978159Y-113103821D03*
X76331713Y-113457375D03*
X76685266Y-113810928D03*
X77038819Y-114164481D03*
D30*
X79761181Y-114164481D03*
X80114734Y-113810928D03*
X80468287Y-113457375D03*
X80821841Y-113103821D03*
X81175394Y-112750268D03*
X81528948Y-112396714D03*
X81882501Y-112043161D03*
X82236054Y-111689608D03*
X82589608Y-111336054D03*
X82943161Y-110982501D03*
X83296714Y-110628948D03*
X83650268Y-110275394D03*
X84003821Y-109921841D03*
X84357375Y-109568287D03*
X84710928Y-109214734D03*
X85064481Y-108861181D03*
D29*
X85064481Y-106138819D03*
X84710928Y-105785266D03*
X84357375Y-105431713D03*
X84003821Y-105078159D03*
X83650268Y-104724606D03*
X83296714Y-104371052D03*
X82943161Y-104017499D03*
X82589608Y-103663946D03*
X82236054Y-103310392D03*
X81882501Y-102956839D03*
X81528948Y-102603286D03*
X81175394Y-102249732D03*
X80821841Y-101896179D03*
X80468287Y-101542625D03*
X80114734Y-101189072D03*
X79761181Y-100835519D03*
D30*
X77038819Y-100835519D03*
X76685266Y-101189072D03*
X76331713Y-101542625D03*
X75978159Y-101896179D03*
X75624606Y-102249732D03*
X75271052Y-102603286D03*
X74917499Y-102956839D03*
X74563946Y-103310392D03*
X74210392Y-103663946D03*
X73856839Y-104017499D03*
X73503286Y-104371052D03*
X73149732Y-104724606D03*
X72796179Y-105078159D03*
X72442625Y-105431713D03*
X72089072Y-105785266D03*
X71735519Y-106138819D03*
%TD*%
D31*
%TO.C,Y1*%
X70449567Y-113876777D03*
X68823221Y-112250431D03*
X67550429Y-113523223D03*
X69176775Y-115149569D03*
%TD*%
D32*
%TO.C,C13*%
X115759276Y-108419400D03*
X114663260Y-109515416D03*
%TD*%
D15*
%TO.C,TP2*%
X116000000Y-121900000D03*
%TD*%
%TO.C,SW6*%
X164500000Y-46500000D03*
X168000000Y-51500000D03*
%TD*%
%TO.C,R80*%
X76550000Y-127200000D03*
X76550000Y-123800000D03*
%TD*%
D17*
%TO.C,R19*%
X125092829Y-82026102D03*
X123926103Y-83192828D03*
%TD*%
D14*
%TO.C,R30*%
X240475000Y-117000000D03*
X242125000Y-117000000D03*
%TD*%
D19*
%TO.C,D16*%
X124783404Y-102083710D03*
X125950130Y-100916984D03*
%TD*%
D16*
%TO.C,R40*%
X134900000Y-56775000D03*
X134900000Y-58425000D03*
%TD*%
D33*
%TO.C,U3*%
X115364712Y-113629365D03*
X114466686Y-112731339D03*
X113568661Y-111833314D03*
X112670635Y-110935288D03*
X108835288Y-114770635D03*
X109733314Y-115668661D03*
X110631339Y-116566686D03*
X111529365Y-117464712D03*
%TD*%
D17*
%TO.C,R18*%
X111700031Y-86666885D03*
X110533305Y-87833611D03*
%TD*%
D16*
%TO.C,R63*%
X231100000Y-51375000D03*
X231100000Y-53025000D03*
%TD*%
D17*
%TO.C,R20*%
X127292829Y-84226103D03*
X126126103Y-85392829D03*
%TD*%
D34*
%TO.C,C21*%
X135425841Y-106446683D03*
X137511807Y-108532649D03*
%TD*%
D35*
%TO.C,Q7*%
X76036200Y-57769800D03*
X76036200Y-55869800D03*
X73736200Y-56819800D03*
%TD*%
D26*
%TO.C,Q4*%
X153400000Y-75800000D03*
X151500000Y-75800000D03*
X152450000Y-77675001D03*
%TD*%
D14*
%TO.C,R38*%
X99375001Y-75375001D03*
X101025001Y-75375001D03*
%TD*%
D16*
%TO.C,R46*%
X133400000Y-56775000D03*
X133400000Y-58425000D03*
%TD*%
D24*
%TO.C,C12*%
X118764480Y-113616636D03*
X119860496Y-112520620D03*
%TD*%
D14*
%TO.C,D30*%
X66075000Y-59500000D03*
X67725000Y-59500000D03*
%TD*%
D18*
%TO.C,R64*%
X232600000Y-53025000D03*
X232600000Y-51375000D03*
%TD*%
D34*
%TO.C,C24*%
X118101724Y-123770800D03*
X120187690Y-125856766D03*
%TD*%
D15*
%TO.C,TP1*%
X89200000Y-86400000D03*
%TD*%
D28*
%TO.C,R59*%
X222740000Y-89125000D03*
X221090000Y-89125000D03*
%TD*%
D36*
%TO.C,J5*%
X233405000Y-46300000D03*
X227405000Y-46300000D03*
D37*
X233605000Y-47575000D03*
X232805000Y-47575000D03*
D38*
X231655000Y-47575000D03*
X230655000Y-47575000D03*
X230155000Y-47575000D03*
X229155000Y-47575000D03*
D37*
X227205000Y-47575000D03*
X228005000Y-47575000D03*
D38*
X228655000Y-47575000D03*
X229655000Y-47575000D03*
X231155000Y-47575000D03*
X232155000Y-47575000D03*
D39*
X235500000Y-46925000D03*
X225310000Y-46925000D03*
D40*
X225310000Y-43000000D03*
X235500000Y-43000000D03*
%TD*%
D14*
%TO.C,R56*%
X227375000Y-62100000D03*
X229025000Y-62100000D03*
%TD*%
D41*
%TO.C,Q5*%
X168340000Y-106262500D03*
X170240000Y-106262500D03*
X169290000Y-104387499D03*
%TD*%
D42*
%TO.C,H5*%
X247000000Y-135500000D03*
%TD*%
D43*
%TO.C,C28*%
X226600000Y-102077945D03*
X226600000Y-99127943D03*
%TD*%
D22*
%TO.C,D2*%
X96756845Y-93943154D03*
X95643151Y-95056848D03*
%TD*%
D28*
%TO.C,D26*%
X242125000Y-118500000D03*
X240475000Y-118500000D03*
%TD*%
D24*
%TO.C,C4*%
X81851992Y-97848008D03*
X82948008Y-96751992D03*
%TD*%
D32*
%TO.C,C27*%
X107944516Y-112222283D03*
X106848500Y-113318299D03*
%TD*%
D16*
%TO.C,R81*%
X76600000Y-120225000D03*
X76600000Y-121875000D03*
%TD*%
D44*
%TO.C,C11*%
X87749590Y-111690791D03*
X88845606Y-112786807D03*
%TD*%
D14*
%TO.C,R53*%
X168465000Y-108125000D03*
X170115000Y-108125000D03*
%TD*%
%TO.C,R71*%
X58675000Y-125100000D03*
X60325000Y-125100000D03*
%TD*%
D15*
%TO.C,J14*%
X215050000Y-49100000D03*
X211550000Y-44100000D03*
%TD*%
D45*
%TO.C,SW5*%
X245742500Y-87925000D03*
X245742500Y-83325000D03*
X245742500Y-78725000D03*
%TD*%
D17*
%TO.C,R25*%
X118491682Y-75424955D03*
X117324956Y-76591681D03*
%TD*%
D26*
%TO.C,Q1*%
X100300002Y-71600001D03*
X98400002Y-71600001D03*
X99350002Y-73475002D03*
%TD*%
D17*
%TO.C,D21*%
X120683363Y-77616636D03*
X119516637Y-78783362D03*
%TD*%
D15*
%TO.C,SW4*%
X104100000Y-46500000D03*
X107600000Y-51500000D03*
%TD*%
D14*
%TO.C,R32*%
X240475000Y-112500000D03*
X242125000Y-112500000D03*
%TD*%
D42*
%TO.C,H1*%
X57000000Y-135500000D03*
%TD*%
D28*
%TO.C,R31*%
X242100000Y-111000000D03*
X240450000Y-111000000D03*
%TD*%
D46*
%TO.C,C30*%
X88100000Y-121550000D03*
X88100000Y-120000000D03*
%TD*%
D17*
%TO.C,R14*%
X122650130Y-97616984D03*
X121483404Y-98783710D03*
%TD*%
D28*
%TO.C,R35*%
X79125002Y-74400000D03*
X77475002Y-74400000D03*
%TD*%
D47*
%TO.C,K5*%
X223710000Y-74325000D03*
D21*
X213510000Y-74325000D03*
X205890000Y-74325000D03*
X223710000Y-81945000D03*
%TD*%
D48*
%TO.C,U4*%
X112076078Y-81595852D03*
X112429631Y-81949405D03*
X112783185Y-82302959D03*
X113136738Y-82656512D03*
X115364124Y-80429126D03*
X115010571Y-80075573D03*
X114657017Y-79722019D03*
X114303464Y-79368466D03*
%TD*%
D17*
%TO.C,D22*%
X128392829Y-85326103D03*
X127226103Y-86492829D03*
%TD*%
D28*
%TO.C,R75*%
X227350000Y-59100000D03*
X225700000Y-59100000D03*
%TD*%
D18*
%TO.C,R43*%
X112300000Y-58425000D03*
X112300000Y-56775000D03*
%TD*%
D17*
%TO.C,R24*%
X130566920Y-87500194D03*
X129400194Y-88666920D03*
%TD*%
%TO.C,R66*%
X112844516Y-105922283D03*
X111677790Y-107089009D03*
%TD*%
D49*
%TO.C,U9*%
X195692500Y-111050000D03*
X193152500Y-111050000D03*
X190612501Y-111050000D03*
X188072500Y-111050000D03*
X185532500Y-111050000D03*
X182992500Y-111050000D03*
X180452500Y-111050000D03*
X177912499Y-111050000D03*
X175372500Y-111050000D03*
X175372500Y-128830000D03*
X177912500Y-128830000D03*
X180452500Y-128830000D03*
X182992499Y-128830000D03*
X185532501Y-128830000D03*
X188072500Y-128830000D03*
X190612500Y-128830000D03*
X193152500Y-128830000D03*
X195692500Y-128830001D03*
%TD*%
D28*
%TO.C,R48*%
X153225000Y-73900000D03*
X151575000Y-73900000D03*
%TD*%
D50*
%TO.C,R36*%
X88900002Y-71487501D03*
X88900002Y-76112499D03*
%TD*%
D44*
%TO.C,C14*%
X109218539Y-117823919D03*
X110314555Y-118919935D03*
%TD*%
D51*
%TO.C,P1*%
X59600000Y-99875000D03*
D52*
X59600000Y-97335000D03*
%TD*%
D19*
%TO.C,D10*%
X119283404Y-96583710D03*
X120450130Y-95416984D03*
%TD*%
D28*
%TO.C,D27*%
X242125000Y-108000000D03*
X240475000Y-108000000D03*
%TD*%
D20*
%TO.C,K1*%
X186817000Y-74137400D03*
X186817000Y-80537400D03*
D21*
X186817000Y-99437400D03*
X194437000Y-99437400D03*
D20*
X194437000Y-77337400D03*
%TD*%
D18*
%TO.C,R45*%
X109300000Y-58425000D03*
X109300000Y-56775000D03*
%TD*%
D53*
%TO.C,R8*%
X102933273Y-122500002D03*
X104099999Y-123666728D03*
%TD*%
D54*
%TO.C,VR3*%
X133569687Y-108833168D03*
X131943341Y-110459514D03*
X130316995Y-112085860D03*
D55*
X136327403Y-114843576D03*
%TD*%
D28*
%TO.C,R55*%
X141625000Y-76500000D03*
X139975000Y-76500000D03*
%TD*%
D56*
%TO.C,C25*%
X224870800Y-113029800D03*
D57*
X229870800Y-113029800D03*
%TD*%
D17*
%TO.C,R15*%
X124850130Y-99816984D03*
X123683404Y-100983710D03*
%TD*%
D51*
%TO.C,JP1*%
X191900000Y-106900000D03*
D52*
X189360000Y-106900000D03*
%TD*%
D23*
%TO.C,C6*%
X66011005Y-104760407D03*
X64914989Y-103664391D03*
%TD*%
D58*
%TO.C,VR5*%
X229499999Y-101702945D03*
X231800000Y-101702945D03*
X234100001Y-101702945D03*
D59*
X231800000Y-95502945D03*
%TD*%
D17*
%TO.C,D17*%
X129466920Y-86400194D03*
X128300194Y-87566920D03*
%TD*%
D42*
%TO.C,H2*%
X57000000Y-45500000D03*
%TD*%
D60*
%TO.C,C19*%
X242075000Y-114000000D03*
X240525000Y-114000000D03*
%TD*%
D16*
%TO.C,R34*%
X82900003Y-71275002D03*
X82900003Y-72925002D03*
%TD*%
D53*
%TO.C,R5*%
X99633273Y-125800001D03*
X100799999Y-126966727D03*
%TD*%
D28*
%TO.C,D28*%
X242125000Y-124500000D03*
X240475000Y-124500000D03*
%TD*%
D42*
%TO.C,H4*%
X247000000Y-45500000D03*
%TD*%
D15*
%TO.C,U7*%
X250500000Y-118500000D03*
X250500000Y-113500000D03*
X250500000Y-116000000D03*
X248000000Y-118500000D03*
X248000000Y-113500000D03*
D61*
X247000000Y-109600000D03*
X247000000Y-122400000D03*
%TD*%
D17*
%TO.C,R9*%
X102900000Y-120400001D03*
X101733274Y-121566727D03*
%TD*%
D28*
%TO.C,R28*%
X242125000Y-121500000D03*
X240475000Y-121500000D03*
%TD*%
%TO.C,D32*%
X71950000Y-59400000D03*
X70300000Y-59400000D03*
%TD*%
D16*
%TO.C,R62*%
X229600000Y-51375000D03*
X229600000Y-53025000D03*
%TD*%
D17*
%TO.C,R13*%
X121550130Y-96516984D03*
X120383404Y-97683710D03*
%TD*%
%TO.C,R4*%
X93383362Y-94916636D03*
X92216636Y-96083362D03*
%TD*%
D27*
%TO.C,J1*%
X206960000Y-63040000D03*
X206960000Y-60500000D03*
X209500000Y-63040000D03*
X209500000Y-60500000D03*
X212040000Y-63040000D03*
X212040000Y-60500000D03*
X214580000Y-63040000D03*
X214580000Y-60500000D03*
X217120000Y-63040000D03*
X217120000Y-60500000D03*
%TD*%
D19*
%TO.C,D9*%
X112707311Y-90007617D03*
X113874037Y-88840891D03*
%TD*%
D42*
%TO.C,H3*%
X152000000Y-45500000D03*
%TD*%
D20*
%TO.C,K3*%
X162763200Y-74137400D03*
X162763200Y-80537400D03*
D21*
X162763200Y-99437400D03*
X170383200Y-99437400D03*
D20*
X170383200Y-77337400D03*
%TD*%
D19*
%TO.C,R67*%
X102461153Y-113705646D03*
X103627879Y-112538920D03*
%TD*%
D27*
%TO.C,J3*%
X86920000Y-63270000D03*
X86920000Y-60730000D03*
X89460000Y-63270000D03*
X89460000Y-60730000D03*
X92000000Y-63270000D03*
X92000000Y-60730000D03*
X94540000Y-63270000D03*
X94540000Y-60730000D03*
X97080000Y-63270000D03*
X97080000Y-60730000D03*
%TD*%
D62*
%TO.C,Y2*%
X65230329Y-108869671D03*
X64169669Y-109930331D03*
%TD*%
D14*
%TO.C,R60*%
X138275000Y-74100000D03*
X139925000Y-74100000D03*
%TD*%
%TO.C,R37*%
X102175001Y-71400001D03*
X103825001Y-71400001D03*
%TD*%
D26*
%TO.C,Q9*%
X149900000Y-75800000D03*
X148000000Y-75800000D03*
X148950000Y-77675001D03*
%TD*%
D63*
%TO.C,Y3*%
X117580077Y-111760481D03*
X116519417Y-110699821D03*
%TD*%
D19*
%TO.C,D12*%
X114907311Y-92207617D03*
X116074037Y-91040891D03*
%TD*%
D64*
%TO.C,U8*%
X109730743Y-108145133D03*
X108832717Y-107247107D03*
X107934692Y-106349082D03*
X107036666Y-105451056D03*
X103218289Y-109269433D03*
X104116315Y-110167459D03*
X105014340Y-111065484D03*
X105912366Y-111963510D03*
%TD*%
D65*
%TO.C,BT1*%
X140550000Y-130500000D03*
X163450000Y-130500000D03*
D66*
X152000000Y-130500000D03*
%TD*%
D44*
%TO.C,C3*%
X88851989Y-110551992D03*
X89948005Y-111648008D03*
%TD*%
D17*
%TO.C,R3*%
X94583362Y-96116637D03*
X93416636Y-97283363D03*
%TD*%
D26*
%TO.C,Q8*%
X81350000Y-71662500D03*
X79450000Y-71662500D03*
X80400000Y-73537501D03*
%TD*%
D16*
%TO.C,R65*%
X228100000Y-51375000D03*
X228100000Y-53025000D03*
%TD*%
D67*
%TO.C,D4*%
X101899999Y-125866727D03*
X100733273Y-124700001D03*
%TD*%
D14*
%TO.C,R69*%
X58675000Y-123600000D03*
X60325000Y-123600000D03*
%TD*%
D15*
%TO.C,SW2*%
X114600000Y-46500000D03*
X118100000Y-51500000D03*
%TD*%
D34*
%TO.C,C23*%
X125597056Y-116275468D03*
X127683022Y-118361434D03*
%TD*%
%TO.C,C22*%
X127930509Y-113942015D03*
X130016475Y-116027981D03*
%TD*%
D19*
%TO.C,R6*%
X97433275Y-128066729D03*
X98600001Y-126900003D03*
%TD*%
%TO.C,D8*%
X106133305Y-83433611D03*
X107300031Y-82266885D03*
%TD*%
D32*
%TO.C,C10*%
X73248006Y-116651991D03*
X72151990Y-117748007D03*
%TD*%
D17*
%TO.C,D24*%
X119583363Y-76516636D03*
X118416637Y-77683362D03*
%TD*%
D68*
%TO.C,C20*%
X240525000Y-109500000D03*
X242075000Y-109500000D03*
%TD*%
D69*
%TO.C,U10*%
X63020000Y-98500000D03*
X64290000Y-98500000D03*
X65560000Y-98500000D03*
X66830000Y-98500000D03*
%TD*%
D18*
%TO.C,R42*%
X130400000Y-58425000D03*
X130400000Y-56775000D03*
%TD*%
D43*
%TO.C,C29*%
X237000000Y-102077945D03*
X237000000Y-99127943D03*
%TD*%
D67*
%TO.C,D6*%
X102999999Y-124766727D03*
X101833273Y-123600001D03*
%TD*%
D17*
%TO.C,R16*%
X108400031Y-83366884D03*
X107233305Y-84533610D03*
%TD*%
D28*
%TO.C,D31*%
X234200000Y-54700000D03*
X232550000Y-54700000D03*
%TD*%
D17*
%TO.C,D20*%
X134966920Y-91900193D03*
X133800194Y-93066919D03*
%TD*%
%TO.C,D18*%
X116283363Y-73216637D03*
X115116637Y-74383363D03*
%TD*%
D54*
%TO.C,VR4*%
X123740902Y-118661953D03*
X122114556Y-120288299D03*
X120488210Y-121914645D03*
D55*
X126498618Y-124672361D03*
%TD*%
D17*
%TO.C,R23*%
X133866920Y-90800193D03*
X132700194Y-91966919D03*
%TD*%
D14*
%TO.C,R70*%
X67075000Y-125100000D03*
X68725000Y-125100000D03*
%TD*%
%TO.C,R72*%
X141575000Y-79300000D03*
X143225000Y-79300000D03*
%TD*%
D44*
%TO.C,C1*%
X83199998Y-115800000D03*
X84296014Y-116896016D03*
%TD*%
D19*
%TO.C,D13*%
X122583404Y-99883710D03*
X123750130Y-98716984D03*
%TD*%
D17*
%TO.C,R2*%
X95783362Y-97316638D03*
X94616636Y-98483364D03*
%TD*%
D19*
%TO.C,D11*%
X109433305Y-86733611D03*
X110600031Y-85566885D03*
%TD*%
D28*
%TO.C,R73*%
X144925000Y-81800000D03*
X143275000Y-81800000D03*
%TD*%
D19*
%TO.C,D15*%
X118207311Y-95507617D03*
X119374037Y-94340891D03*
%TD*%
D48*
%TO.C,U5*%
X118722882Y-88101234D03*
X119076435Y-88454787D03*
X119429989Y-88808341D03*
X119783542Y-89161894D03*
X122010928Y-86934508D03*
X121657375Y-86580955D03*
X121303821Y-86227401D03*
X120950268Y-85873848D03*
%TD*%
D50*
%TO.C,R39*%
X92200000Y-71487501D03*
X92200000Y-76112499D03*
%TD*%
D15*
%TO.C,TP6*%
X57800000Y-118300000D03*
%TD*%
D70*
%TO.C,D33*%
X240500000Y-52200000D03*
X236300000Y-52200000D03*
%TD*%
D25*
%TO.C,Q6*%
X84500002Y-73700000D03*
X86400002Y-73700000D03*
X85450002Y-71400000D03*
%TD*%
D47*
%TO.C,K4*%
X236890000Y-92145000D03*
D21*
X236890000Y-81945000D03*
X236890000Y-74325000D03*
X229270000Y-92145000D03*
%TD*%
D44*
%TO.C,C8*%
X89951992Y-109451992D03*
X91048008Y-110548008D03*
%TD*%
D56*
%TO.C,C26*%
X224900000Y-128600000D03*
D57*
X229900000Y-128600000D03*
%TD*%
D17*
%TO.C,D23*%
X131666921Y-88600194D03*
X130500195Y-89766920D03*
%TD*%
D28*
%TO.C,R50*%
X149825000Y-73900000D03*
X148175000Y-73900000D03*
%TD*%
D26*
%TO.C,Q11*%
X63650000Y-123124999D03*
X61750000Y-123124999D03*
X62700000Y-125000000D03*
%TD*%
D48*
%TO.C,U6*%
X125298975Y-94677327D03*
X125652528Y-95030880D03*
X126006082Y-95384434D03*
X126359635Y-95737987D03*
X128587021Y-93510601D03*
X128233468Y-93157048D03*
X127879914Y-92803494D03*
X127526361Y-92449941D03*
%TD*%
D53*
%TO.C,R1*%
X68116637Y-100416637D03*
X69283363Y-101583363D03*
%TD*%
D18*
%TO.C,R44*%
X131900000Y-58425000D03*
X131900000Y-56775000D03*
%TD*%
D15*
%TO.C,SW1*%
X135600000Y-46500000D03*
X139100000Y-51500000D03*
%TD*%
D46*
%TO.C,C31*%
X90600000Y-120775000D03*
X90600000Y-119225000D03*
%TD*%
D71*
%TO.C,J7*%
X196900000Y-54500000D03*
X196900000Y-48500000D03*
X192200000Y-51500000D03*
%TD*%
D48*
%TO.C,U2*%
X97572613Y-123866726D03*
X97926166Y-124220279D03*
X98279720Y-124573833D03*
X98633273Y-124927386D03*
X100860659Y-122700000D03*
X100507106Y-122346447D03*
X100153552Y-121992893D03*
X99799999Y-121639340D03*
%TD*%
D72*
%TO.C,J4*%
X67730000Y-56600000D03*
X67730000Y-53100000D03*
X70270000Y-56600000D03*
X70270000Y-53100000D03*
%TD*%
D23*
%TO.C,C34*%
X68198008Y-102598008D03*
X67101992Y-101501992D03*
%TD*%
D17*
%TO.C,R17*%
X109500031Y-84466884D03*
X108333305Y-85633610D03*
%TD*%
D18*
%TO.C,R47*%
X110800000Y-58425000D03*
X110800000Y-56775000D03*
%TD*%
D28*
%TO.C,R29*%
X242125000Y-115500000D03*
X240475000Y-115500000D03*
%TD*%
D17*
%TO.C,D25*%
X126192829Y-83126103D03*
X125026103Y-84292829D03*
%TD*%
D32*
%TO.C,C7*%
X74348007Y-117751991D03*
X73251991Y-118848007D03*
%TD*%
D19*
%TO.C,D14*%
X111633305Y-88933611D03*
X112800031Y-87766885D03*
%TD*%
D22*
%TO.C,D3*%
X95554763Y-92741071D03*
X94441069Y-93854765D03*
%TD*%
D68*
%TO.C,C18*%
X240525000Y-123000000D03*
X242075000Y-123000000D03*
%TD*%
D51*
%TO.C,J16*%
X176880000Y-125700000D03*
D52*
X179420000Y-125700000D03*
X181959999Y-125700000D03*
X184500000Y-125700000D03*
X187040000Y-125700000D03*
X189580000Y-125700000D03*
X192120000Y-125700000D03*
X194660001Y-125700000D03*
X197200000Y-125700000D03*
%TD*%
D73*
%TO.C,VR1*%
X223000000Y-60500000D03*
D52*
X240500000Y-60500000D03*
X240500000Y-100500000D03*
X223000000Y-100500000D03*
%TD*%
D15*
%TO.C,VR2*%
X207300000Y-88750000D03*
X212300000Y-92250000D03*
X150200000Y-91250000D03*
X145200000Y-87750000D03*
D74*
X200750000Y-101000000D03*
X200750000Y-81000000D03*
X157250000Y-101000000D03*
X157250000Y-81000000D03*
%TD*%
D51*
%TO.C,J15*%
X196900000Y-114400000D03*
D52*
X194360000Y-114400000D03*
X191820001Y-114400000D03*
X189280000Y-114400000D03*
X186740000Y-114400000D03*
X184200000Y-114400000D03*
X181660000Y-114400000D03*
X179119999Y-114400000D03*
X176580000Y-114400000D03*
%TD*%
M02*
