%TF.GenerationSoftware,KiCad,Pcbnew,9.0.6*%
%TF.CreationDate,2025-12-07T16:13:13-07:00*%
%TF.ProjectId,64 Bit - Main Board,36342042-6974-4202-9d20-4d61696e2042,rev?*%
%TF.SameCoordinates,Original*%
%TF.FileFunction,Legend,Bot*%
%TF.FilePolarity,Positive*%
%FSLAX46Y46*%
G04 Gerber Fmt 4.6, Leading zero omitted, Abs format (unit mm)*
G04 Created by KiCad (PCBNEW 9.0.6) date 2025-12-07 16:13:13*
%MOMM*%
%LPD*%
G01*
G04 APERTURE LIST*
%ADD10C,0.150000*%
%ADD11C,0.100000*%
%ADD12C,0.200000*%
%ADD13C,0.400000*%
%ADD14C,0.381000*%
%ADD15C,0.120000*%
%ADD16C,0.500000*%
G04 APERTURE END LIST*
D10*
X89622744Y-117000414D02*
X89622744Y-116250414D01*
X89301315Y-116321842D02*
X89265601Y-116286128D01*
X89265601Y-116286128D02*
X89194173Y-116250414D01*
X89194173Y-116250414D02*
X89015601Y-116250414D01*
X89015601Y-116250414D02*
X88944173Y-116286128D01*
X88944173Y-116286128D02*
X88908458Y-116321842D01*
X88908458Y-116321842D02*
X88872744Y-116393271D01*
X88872744Y-116393271D02*
X88872744Y-116464700D01*
X88872744Y-116464700D02*
X88908458Y-116571842D01*
X88908458Y-116571842D02*
X89337030Y-117000414D01*
X89337030Y-117000414D02*
X88872744Y-117000414D01*
X88122744Y-116928985D02*
X88158458Y-116964700D01*
X88158458Y-116964700D02*
X88265601Y-117000414D01*
X88265601Y-117000414D02*
X88337029Y-117000414D01*
X88337029Y-117000414D02*
X88444172Y-116964700D01*
X88444172Y-116964700D02*
X88515601Y-116893271D01*
X88515601Y-116893271D02*
X88551315Y-116821842D01*
X88551315Y-116821842D02*
X88587029Y-116678985D01*
X88587029Y-116678985D02*
X88587029Y-116571842D01*
X88587029Y-116571842D02*
X88551315Y-116428985D01*
X88551315Y-116428985D02*
X88515601Y-116357557D01*
X88515601Y-116357557D02*
X88444172Y-116286128D01*
X88444172Y-116286128D02*
X88337029Y-116250414D01*
X88337029Y-116250414D02*
X88265601Y-116250414D01*
X88265601Y-116250414D02*
X88158458Y-116286128D01*
X88158458Y-116286128D02*
X88122744Y-116321842D01*
X74300414Y-71577255D02*
X73550414Y-71577255D01*
X73514700Y-72470112D02*
X74478985Y-71827255D01*
X73550414Y-72862969D02*
X73550414Y-73005826D01*
X73550414Y-73005826D02*
X73586128Y-73077255D01*
X73586128Y-73077255D02*
X73657557Y-73148683D01*
X73657557Y-73148683D02*
X73800414Y-73184398D01*
X73800414Y-73184398D02*
X74050414Y-73184398D01*
X74050414Y-73184398D02*
X74193271Y-73148683D01*
X74193271Y-73148683D02*
X74264700Y-73077255D01*
X74264700Y-73077255D02*
X74300414Y-73005826D01*
X74300414Y-73005826D02*
X74300414Y-72862969D01*
X74300414Y-72862969D02*
X74264700Y-72791541D01*
X74264700Y-72791541D02*
X74193271Y-72720112D01*
X74193271Y-72720112D02*
X74050414Y-72684398D01*
X74050414Y-72684398D02*
X73800414Y-72684398D01*
X73800414Y-72684398D02*
X73657557Y-72720112D01*
X73657557Y-72720112D02*
X73586128Y-72791541D01*
X73586128Y-72791541D02*
X73550414Y-72862969D01*
X126200414Y-114005826D02*
X126200414Y-114470112D01*
X126200414Y-114470112D02*
X126486128Y-114220112D01*
X126486128Y-114220112D02*
X126486128Y-114327255D01*
X126486128Y-114327255D02*
X126521842Y-114398684D01*
X126521842Y-114398684D02*
X126557557Y-114434398D01*
X126557557Y-114434398D02*
X126628985Y-114470112D01*
X126628985Y-114470112D02*
X126807557Y-114470112D01*
X126807557Y-114470112D02*
X126878985Y-114434398D01*
X126878985Y-114434398D02*
X126914700Y-114398684D01*
X126914700Y-114398684D02*
X126950414Y-114327255D01*
X126950414Y-114327255D02*
X126950414Y-114112969D01*
X126950414Y-114112969D02*
X126914700Y-114041541D01*
X126914700Y-114041541D02*
X126878985Y-114005826D01*
X126200414Y-114684398D02*
X126950414Y-114934398D01*
X126950414Y-114934398D02*
X126200414Y-115184398D01*
X126200414Y-115362969D02*
X126200414Y-115827255D01*
X126200414Y-115827255D02*
X126486128Y-115577255D01*
X126486128Y-115577255D02*
X126486128Y-115684398D01*
X126486128Y-115684398D02*
X126521842Y-115755827D01*
X126521842Y-115755827D02*
X126557557Y-115791541D01*
X126557557Y-115791541D02*
X126628985Y-115827255D01*
X126628985Y-115827255D02*
X126807557Y-115827255D01*
X126807557Y-115827255D02*
X126878985Y-115791541D01*
X126878985Y-115791541D02*
X126914700Y-115755827D01*
X126914700Y-115755827D02*
X126950414Y-115684398D01*
X126950414Y-115684398D02*
X126950414Y-115470112D01*
X126950414Y-115470112D02*
X126914700Y-115398684D01*
X126914700Y-115398684D02*
X126878985Y-115362969D01*
X81686128Y-68670112D02*
X81650414Y-68598684D01*
X81650414Y-68598684D02*
X81650414Y-68491541D01*
X81650414Y-68491541D02*
X81686128Y-68384398D01*
X81686128Y-68384398D02*
X81757557Y-68312969D01*
X81757557Y-68312969D02*
X81828985Y-68277255D01*
X81828985Y-68277255D02*
X81971842Y-68241541D01*
X81971842Y-68241541D02*
X82078985Y-68241541D01*
X82078985Y-68241541D02*
X82221842Y-68277255D01*
X82221842Y-68277255D02*
X82293271Y-68312969D01*
X82293271Y-68312969D02*
X82364700Y-68384398D01*
X82364700Y-68384398D02*
X82400414Y-68491541D01*
X82400414Y-68491541D02*
X82400414Y-68562969D01*
X82400414Y-68562969D02*
X82364700Y-68670112D01*
X82364700Y-68670112D02*
X82328985Y-68705826D01*
X82328985Y-68705826D02*
X82078985Y-68705826D01*
X82078985Y-68705826D02*
X82078985Y-68562969D01*
X82400414Y-69027255D02*
X81650414Y-69027255D01*
X81650414Y-69027255D02*
X82400414Y-69455826D01*
X82400414Y-69455826D02*
X81650414Y-69455826D01*
X82400414Y-69812969D02*
X81650414Y-69812969D01*
X81650414Y-69812969D02*
X81650414Y-69991540D01*
X81650414Y-69991540D02*
X81686128Y-70098683D01*
X81686128Y-70098683D02*
X81757557Y-70170112D01*
X81757557Y-70170112D02*
X81828985Y-70205826D01*
X81828985Y-70205826D02*
X81971842Y-70241540D01*
X81971842Y-70241540D02*
X82078985Y-70241540D01*
X82078985Y-70241540D02*
X82221842Y-70205826D01*
X82221842Y-70205826D02*
X82293271Y-70170112D01*
X82293271Y-70170112D02*
X82364700Y-70098683D01*
X82364700Y-70098683D02*
X82400414Y-69991540D01*
X82400414Y-69991540D02*
X82400414Y-69812969D01*
X79186128Y-68570112D02*
X79150414Y-68498684D01*
X79150414Y-68498684D02*
X79150414Y-68391541D01*
X79150414Y-68391541D02*
X79186128Y-68284398D01*
X79186128Y-68284398D02*
X79257557Y-68212969D01*
X79257557Y-68212969D02*
X79328985Y-68177255D01*
X79328985Y-68177255D02*
X79471842Y-68141541D01*
X79471842Y-68141541D02*
X79578985Y-68141541D01*
X79578985Y-68141541D02*
X79721842Y-68177255D01*
X79721842Y-68177255D02*
X79793271Y-68212969D01*
X79793271Y-68212969D02*
X79864700Y-68284398D01*
X79864700Y-68284398D02*
X79900414Y-68391541D01*
X79900414Y-68391541D02*
X79900414Y-68462969D01*
X79900414Y-68462969D02*
X79864700Y-68570112D01*
X79864700Y-68570112D02*
X79828985Y-68605826D01*
X79828985Y-68605826D02*
X79578985Y-68605826D01*
X79578985Y-68605826D02*
X79578985Y-68462969D01*
X79900414Y-68927255D02*
X79150414Y-68927255D01*
X79150414Y-68927255D02*
X79900414Y-69355826D01*
X79900414Y-69355826D02*
X79150414Y-69355826D01*
X79900414Y-69712969D02*
X79150414Y-69712969D01*
X79150414Y-69712969D02*
X79150414Y-69891540D01*
X79150414Y-69891540D02*
X79186128Y-69998683D01*
X79186128Y-69998683D02*
X79257557Y-70070112D01*
X79257557Y-70070112D02*
X79328985Y-70105826D01*
X79328985Y-70105826D02*
X79471842Y-70141540D01*
X79471842Y-70141540D02*
X79578985Y-70141540D01*
X79578985Y-70141540D02*
X79721842Y-70105826D01*
X79721842Y-70105826D02*
X79793271Y-70070112D01*
X79793271Y-70070112D02*
X79864700Y-69998683D01*
X79864700Y-69998683D02*
X79900414Y-69891540D01*
X79900414Y-69891540D02*
X79900414Y-69712969D01*
X71050414Y-71405826D02*
X71050414Y-71870112D01*
X71050414Y-71870112D02*
X71336128Y-71620112D01*
X71336128Y-71620112D02*
X71336128Y-71727255D01*
X71336128Y-71727255D02*
X71371842Y-71798684D01*
X71371842Y-71798684D02*
X71407557Y-71834398D01*
X71407557Y-71834398D02*
X71478985Y-71870112D01*
X71478985Y-71870112D02*
X71657557Y-71870112D01*
X71657557Y-71870112D02*
X71728985Y-71834398D01*
X71728985Y-71834398D02*
X71764700Y-71798684D01*
X71764700Y-71798684D02*
X71800414Y-71727255D01*
X71800414Y-71727255D02*
X71800414Y-71512969D01*
X71800414Y-71512969D02*
X71764700Y-71441541D01*
X71764700Y-71441541D02*
X71728985Y-71405826D01*
X71050414Y-72084398D02*
X71800414Y-72334398D01*
X71800414Y-72334398D02*
X71050414Y-72584398D01*
X71050414Y-72762969D02*
X71050414Y-73227255D01*
X71050414Y-73227255D02*
X71336128Y-72977255D01*
X71336128Y-72977255D02*
X71336128Y-73084398D01*
X71336128Y-73084398D02*
X71371842Y-73155827D01*
X71371842Y-73155827D02*
X71407557Y-73191541D01*
X71407557Y-73191541D02*
X71478985Y-73227255D01*
X71478985Y-73227255D02*
X71657557Y-73227255D01*
X71657557Y-73227255D02*
X71728985Y-73191541D01*
X71728985Y-73191541D02*
X71764700Y-73155827D01*
X71764700Y-73155827D02*
X71800414Y-73084398D01*
X71800414Y-73084398D02*
X71800414Y-72870112D01*
X71800414Y-72870112D02*
X71764700Y-72798684D01*
X71764700Y-72798684D02*
X71728985Y-72762969D01*
X124550414Y-111377255D02*
X123800414Y-111377255D01*
X123764700Y-112270112D02*
X124728985Y-111627255D01*
X123800414Y-112662969D02*
X123800414Y-112805826D01*
X123800414Y-112805826D02*
X123836128Y-112877255D01*
X123836128Y-112877255D02*
X123907557Y-112948683D01*
X123907557Y-112948683D02*
X124050414Y-112984398D01*
X124050414Y-112984398D02*
X124300414Y-112984398D01*
X124300414Y-112984398D02*
X124443271Y-112948683D01*
X124443271Y-112948683D02*
X124514700Y-112877255D01*
X124514700Y-112877255D02*
X124550414Y-112805826D01*
X124550414Y-112805826D02*
X124550414Y-112662969D01*
X124550414Y-112662969D02*
X124514700Y-112591541D01*
X124514700Y-112591541D02*
X124443271Y-112520112D01*
X124443271Y-112520112D02*
X124300414Y-112484398D01*
X124300414Y-112484398D02*
X124050414Y-112484398D01*
X124050414Y-112484398D02*
X123907557Y-112520112D01*
X123907557Y-112520112D02*
X123836128Y-112591541D01*
X123836128Y-112591541D02*
X123800414Y-112662969D01*
X64722744Y-117000414D02*
X64722744Y-116250414D01*
X64722744Y-116250414D02*
X64294173Y-117000414D01*
X64294173Y-117000414D02*
X64294173Y-116250414D01*
X63937030Y-117000414D02*
X63937030Y-116250414D01*
X63937030Y-116250414D02*
X63651316Y-116250414D01*
X63651316Y-116250414D02*
X63579887Y-116286128D01*
X63579887Y-116286128D02*
X63544173Y-116321842D01*
X63544173Y-116321842D02*
X63508459Y-116393271D01*
X63508459Y-116393271D02*
X63508459Y-116500414D01*
X63508459Y-116500414D02*
X63544173Y-116571842D01*
X63544173Y-116571842D02*
X63579887Y-116607557D01*
X63579887Y-116607557D02*
X63651316Y-116643271D01*
X63651316Y-116643271D02*
X63937030Y-116643271D01*
X63187030Y-117000414D02*
X63187030Y-116250414D01*
X63187030Y-116250414D02*
X62758459Y-117000414D01*
X62758459Y-117000414D02*
X62758459Y-116250414D01*
X62350414Y-111220112D02*
X62350414Y-111362969D01*
X62350414Y-111362969D02*
X62386128Y-111434398D01*
X62386128Y-111434398D02*
X62457557Y-111505826D01*
X62457557Y-111505826D02*
X62600414Y-111541541D01*
X62600414Y-111541541D02*
X62850414Y-111541541D01*
X62850414Y-111541541D02*
X62993271Y-111505826D01*
X62993271Y-111505826D02*
X63064700Y-111434398D01*
X63064700Y-111434398D02*
X63100414Y-111362969D01*
X63100414Y-111362969D02*
X63100414Y-111220112D01*
X63100414Y-111220112D02*
X63064700Y-111148684D01*
X63064700Y-111148684D02*
X62993271Y-111077255D01*
X62993271Y-111077255D02*
X62850414Y-111041541D01*
X62850414Y-111041541D02*
X62600414Y-111041541D01*
X62600414Y-111041541D02*
X62457557Y-111077255D01*
X62457557Y-111077255D02*
X62386128Y-111148684D01*
X62386128Y-111148684D02*
X62350414Y-111220112D01*
X62350414Y-111862969D02*
X62957557Y-111862969D01*
X62957557Y-111862969D02*
X63028985Y-111898683D01*
X63028985Y-111898683D02*
X63064700Y-111934398D01*
X63064700Y-111934398D02*
X63100414Y-112005826D01*
X63100414Y-112005826D02*
X63100414Y-112148683D01*
X63100414Y-112148683D02*
X63064700Y-112220112D01*
X63064700Y-112220112D02*
X63028985Y-112255826D01*
X63028985Y-112255826D02*
X62957557Y-112291540D01*
X62957557Y-112291540D02*
X62350414Y-112291540D01*
X62350414Y-112541540D02*
X62350414Y-112970112D01*
X63100414Y-112755826D02*
X62350414Y-112755826D01*
X135000414Y-114005826D02*
X135000414Y-114470112D01*
X135000414Y-114470112D02*
X135286128Y-114220112D01*
X135286128Y-114220112D02*
X135286128Y-114327255D01*
X135286128Y-114327255D02*
X135321842Y-114398684D01*
X135321842Y-114398684D02*
X135357557Y-114434398D01*
X135357557Y-114434398D02*
X135428985Y-114470112D01*
X135428985Y-114470112D02*
X135607557Y-114470112D01*
X135607557Y-114470112D02*
X135678985Y-114434398D01*
X135678985Y-114434398D02*
X135714700Y-114398684D01*
X135714700Y-114398684D02*
X135750414Y-114327255D01*
X135750414Y-114327255D02*
X135750414Y-114112969D01*
X135750414Y-114112969D02*
X135714700Y-114041541D01*
X135714700Y-114041541D02*
X135678985Y-114005826D01*
X135000414Y-114684398D02*
X135750414Y-114934398D01*
X135750414Y-114934398D02*
X135000414Y-115184398D01*
X135000414Y-115362969D02*
X135000414Y-115827255D01*
X135000414Y-115827255D02*
X135286128Y-115577255D01*
X135286128Y-115577255D02*
X135286128Y-115684398D01*
X135286128Y-115684398D02*
X135321842Y-115755827D01*
X135321842Y-115755827D02*
X135357557Y-115791541D01*
X135357557Y-115791541D02*
X135428985Y-115827255D01*
X135428985Y-115827255D02*
X135607557Y-115827255D01*
X135607557Y-115827255D02*
X135678985Y-115791541D01*
X135678985Y-115791541D02*
X135714700Y-115755827D01*
X135714700Y-115755827D02*
X135750414Y-115684398D01*
X135750414Y-115684398D02*
X135750414Y-115470112D01*
X135750414Y-115470112D02*
X135714700Y-115398684D01*
X135714700Y-115398684D02*
X135678985Y-115362969D01*
X125772744Y-117400414D02*
X125772744Y-116650414D01*
X124879887Y-116614700D02*
X125522744Y-117578985D01*
X124487030Y-116650414D02*
X124415601Y-116650414D01*
X124415601Y-116650414D02*
X124344173Y-116686128D01*
X124344173Y-116686128D02*
X124308459Y-116721842D01*
X124308459Y-116721842D02*
X124272744Y-116793271D01*
X124272744Y-116793271D02*
X124237030Y-116936128D01*
X124237030Y-116936128D02*
X124237030Y-117114700D01*
X124237030Y-117114700D02*
X124272744Y-117257557D01*
X124272744Y-117257557D02*
X124308459Y-117328985D01*
X124308459Y-117328985D02*
X124344173Y-117364700D01*
X124344173Y-117364700D02*
X124415601Y-117400414D01*
X124415601Y-117400414D02*
X124487030Y-117400414D01*
X124487030Y-117400414D02*
X124558459Y-117364700D01*
X124558459Y-117364700D02*
X124594173Y-117328985D01*
X124594173Y-117328985D02*
X124629887Y-117257557D01*
X124629887Y-117257557D02*
X124665601Y-117114700D01*
X124665601Y-117114700D02*
X124665601Y-116936128D01*
X124665601Y-116936128D02*
X124629887Y-116793271D01*
X124629887Y-116793271D02*
X124594173Y-116721842D01*
X124594173Y-116721842D02*
X124558459Y-116686128D01*
X124558459Y-116686128D02*
X124487030Y-116650414D01*
X88364700Y-113541541D02*
X88400414Y-113648684D01*
X88400414Y-113648684D02*
X88400414Y-113827255D01*
X88400414Y-113827255D02*
X88364700Y-113898684D01*
X88364700Y-113898684D02*
X88328985Y-113934398D01*
X88328985Y-113934398D02*
X88257557Y-113970112D01*
X88257557Y-113970112D02*
X88186128Y-113970112D01*
X88186128Y-113970112D02*
X88114700Y-113934398D01*
X88114700Y-113934398D02*
X88078985Y-113898684D01*
X88078985Y-113898684D02*
X88043271Y-113827255D01*
X88043271Y-113827255D02*
X88007557Y-113684398D01*
X88007557Y-113684398D02*
X87971842Y-113612969D01*
X87971842Y-113612969D02*
X87936128Y-113577255D01*
X87936128Y-113577255D02*
X87864700Y-113541541D01*
X87864700Y-113541541D02*
X87793271Y-113541541D01*
X87793271Y-113541541D02*
X87721842Y-113577255D01*
X87721842Y-113577255D02*
X87686128Y-113612969D01*
X87686128Y-113612969D02*
X87650414Y-113684398D01*
X87650414Y-113684398D02*
X87650414Y-113862969D01*
X87650414Y-113862969D02*
X87686128Y-113970112D01*
X88328985Y-114720112D02*
X88364700Y-114684398D01*
X88364700Y-114684398D02*
X88400414Y-114577255D01*
X88400414Y-114577255D02*
X88400414Y-114505827D01*
X88400414Y-114505827D02*
X88364700Y-114398684D01*
X88364700Y-114398684D02*
X88293271Y-114327255D01*
X88293271Y-114327255D02*
X88221842Y-114291541D01*
X88221842Y-114291541D02*
X88078985Y-114255827D01*
X88078985Y-114255827D02*
X87971842Y-114255827D01*
X87971842Y-114255827D02*
X87828985Y-114291541D01*
X87828985Y-114291541D02*
X87757557Y-114327255D01*
X87757557Y-114327255D02*
X87686128Y-114398684D01*
X87686128Y-114398684D02*
X87650414Y-114505827D01*
X87650414Y-114505827D02*
X87650414Y-114577255D01*
X87650414Y-114577255D02*
X87686128Y-114684398D01*
X87686128Y-114684398D02*
X87721842Y-114720112D01*
X88400414Y-115398684D02*
X88400414Y-115041541D01*
X88400414Y-115041541D02*
X87650414Y-115041541D01*
X126336128Y-111770112D02*
X126300414Y-111698684D01*
X126300414Y-111698684D02*
X126300414Y-111591541D01*
X126300414Y-111591541D02*
X126336128Y-111484398D01*
X126336128Y-111484398D02*
X126407557Y-111412969D01*
X126407557Y-111412969D02*
X126478985Y-111377255D01*
X126478985Y-111377255D02*
X126621842Y-111341541D01*
X126621842Y-111341541D02*
X126728985Y-111341541D01*
X126728985Y-111341541D02*
X126871842Y-111377255D01*
X126871842Y-111377255D02*
X126943271Y-111412969D01*
X126943271Y-111412969D02*
X127014700Y-111484398D01*
X127014700Y-111484398D02*
X127050414Y-111591541D01*
X127050414Y-111591541D02*
X127050414Y-111662969D01*
X127050414Y-111662969D02*
X127014700Y-111770112D01*
X127014700Y-111770112D02*
X126978985Y-111805826D01*
X126978985Y-111805826D02*
X126728985Y-111805826D01*
X126728985Y-111805826D02*
X126728985Y-111662969D01*
X127050414Y-112127255D02*
X126300414Y-112127255D01*
X126300414Y-112127255D02*
X127050414Y-112555826D01*
X127050414Y-112555826D02*
X126300414Y-112555826D01*
X127050414Y-112912969D02*
X126300414Y-112912969D01*
X126300414Y-112912969D02*
X126300414Y-113091540D01*
X126300414Y-113091540D02*
X126336128Y-113198683D01*
X126336128Y-113198683D02*
X126407557Y-113270112D01*
X126407557Y-113270112D02*
X126478985Y-113305826D01*
X126478985Y-113305826D02*
X126621842Y-113341540D01*
X126621842Y-113341540D02*
X126728985Y-113341540D01*
X126728985Y-113341540D02*
X126871842Y-113305826D01*
X126871842Y-113305826D02*
X126943271Y-113270112D01*
X126943271Y-113270112D02*
X127014700Y-113198683D01*
X127014700Y-113198683D02*
X127050414Y-113091540D01*
X127050414Y-113091540D02*
X127050414Y-112912969D01*
X64886128Y-114070112D02*
X64850414Y-113998684D01*
X64850414Y-113998684D02*
X64850414Y-113891541D01*
X64850414Y-113891541D02*
X64886128Y-113784398D01*
X64886128Y-113784398D02*
X64957557Y-113712969D01*
X64957557Y-113712969D02*
X65028985Y-113677255D01*
X65028985Y-113677255D02*
X65171842Y-113641541D01*
X65171842Y-113641541D02*
X65278985Y-113641541D01*
X65278985Y-113641541D02*
X65421842Y-113677255D01*
X65421842Y-113677255D02*
X65493271Y-113712969D01*
X65493271Y-113712969D02*
X65564700Y-113784398D01*
X65564700Y-113784398D02*
X65600414Y-113891541D01*
X65600414Y-113891541D02*
X65600414Y-113962969D01*
X65600414Y-113962969D02*
X65564700Y-114070112D01*
X65564700Y-114070112D02*
X65528985Y-114105826D01*
X65528985Y-114105826D02*
X65278985Y-114105826D01*
X65278985Y-114105826D02*
X65278985Y-113962969D01*
X65600414Y-114427255D02*
X64850414Y-114427255D01*
X64850414Y-114427255D02*
X65600414Y-114855826D01*
X65600414Y-114855826D02*
X64850414Y-114855826D01*
X65600414Y-115212969D02*
X64850414Y-115212969D01*
X64850414Y-115212969D02*
X64850414Y-115391540D01*
X64850414Y-115391540D02*
X64886128Y-115498683D01*
X64886128Y-115498683D02*
X64957557Y-115570112D01*
X64957557Y-115570112D02*
X65028985Y-115605826D01*
X65028985Y-115605826D02*
X65171842Y-115641540D01*
X65171842Y-115641540D02*
X65278985Y-115641540D01*
X65278985Y-115641540D02*
X65421842Y-115605826D01*
X65421842Y-115605826D02*
X65493271Y-115570112D01*
X65493271Y-115570112D02*
X65564700Y-115498683D01*
X65564700Y-115498683D02*
X65600414Y-115391540D01*
X65600414Y-115391540D02*
X65600414Y-115212969D01*
X81422744Y-117000414D02*
X81422744Y-116250414D01*
X81101315Y-116321842D02*
X81065601Y-116286128D01*
X81065601Y-116286128D02*
X80994173Y-116250414D01*
X80994173Y-116250414D02*
X80815601Y-116250414D01*
X80815601Y-116250414D02*
X80744173Y-116286128D01*
X80744173Y-116286128D02*
X80708458Y-116321842D01*
X80708458Y-116321842D02*
X80672744Y-116393271D01*
X80672744Y-116393271D02*
X80672744Y-116464700D01*
X80672744Y-116464700D02*
X80708458Y-116571842D01*
X80708458Y-116571842D02*
X81137030Y-117000414D01*
X81137030Y-117000414D02*
X80672744Y-117000414D01*
X79922744Y-116928985D02*
X79958458Y-116964700D01*
X79958458Y-116964700D02*
X80065601Y-117000414D01*
X80065601Y-117000414D02*
X80137029Y-117000414D01*
X80137029Y-117000414D02*
X80244172Y-116964700D01*
X80244172Y-116964700D02*
X80315601Y-116893271D01*
X80315601Y-116893271D02*
X80351315Y-116821842D01*
X80351315Y-116821842D02*
X80387029Y-116678985D01*
X80387029Y-116678985D02*
X80387029Y-116571842D01*
X80387029Y-116571842D02*
X80351315Y-116428985D01*
X80351315Y-116428985D02*
X80315601Y-116357557D01*
X80315601Y-116357557D02*
X80244172Y-116286128D01*
X80244172Y-116286128D02*
X80137029Y-116250414D01*
X80137029Y-116250414D02*
X80065601Y-116250414D01*
X80065601Y-116250414D02*
X79958458Y-116286128D01*
X79958458Y-116286128D02*
X79922744Y-116321842D01*
X82400414Y-71577255D02*
X81650414Y-71577255D01*
X81614700Y-72470112D02*
X82578985Y-71827255D01*
X81650414Y-72862969D02*
X81650414Y-73005826D01*
X81650414Y-73005826D02*
X81686128Y-73077255D01*
X81686128Y-73077255D02*
X81757557Y-73148683D01*
X81757557Y-73148683D02*
X81900414Y-73184398D01*
X81900414Y-73184398D02*
X82150414Y-73184398D01*
X82150414Y-73184398D02*
X82293271Y-73148683D01*
X82293271Y-73148683D02*
X82364700Y-73077255D01*
X82364700Y-73077255D02*
X82400414Y-73005826D01*
X82400414Y-73005826D02*
X82400414Y-72862969D01*
X82400414Y-72862969D02*
X82364700Y-72791541D01*
X82364700Y-72791541D02*
X82293271Y-72720112D01*
X82293271Y-72720112D02*
X82150414Y-72684398D01*
X82150414Y-72684398D02*
X81900414Y-72684398D01*
X81900414Y-72684398D02*
X81757557Y-72720112D01*
X81757557Y-72720112D02*
X81686128Y-72791541D01*
X81686128Y-72791541D02*
X81650414Y-72862969D01*
X62386128Y-114070112D02*
X62350414Y-113998684D01*
X62350414Y-113998684D02*
X62350414Y-113891541D01*
X62350414Y-113891541D02*
X62386128Y-113784398D01*
X62386128Y-113784398D02*
X62457557Y-113712969D01*
X62457557Y-113712969D02*
X62528985Y-113677255D01*
X62528985Y-113677255D02*
X62671842Y-113641541D01*
X62671842Y-113641541D02*
X62778985Y-113641541D01*
X62778985Y-113641541D02*
X62921842Y-113677255D01*
X62921842Y-113677255D02*
X62993271Y-113712969D01*
X62993271Y-113712969D02*
X63064700Y-113784398D01*
X63064700Y-113784398D02*
X63100414Y-113891541D01*
X63100414Y-113891541D02*
X63100414Y-113962969D01*
X63100414Y-113962969D02*
X63064700Y-114070112D01*
X63064700Y-114070112D02*
X63028985Y-114105826D01*
X63028985Y-114105826D02*
X62778985Y-114105826D01*
X62778985Y-114105826D02*
X62778985Y-113962969D01*
X63100414Y-114427255D02*
X62350414Y-114427255D01*
X62350414Y-114427255D02*
X63100414Y-114855826D01*
X63100414Y-114855826D02*
X62350414Y-114855826D01*
X63100414Y-115212969D02*
X62350414Y-115212969D01*
X62350414Y-115212969D02*
X62350414Y-115391540D01*
X62350414Y-115391540D02*
X62386128Y-115498683D01*
X62386128Y-115498683D02*
X62457557Y-115570112D01*
X62457557Y-115570112D02*
X62528985Y-115605826D01*
X62528985Y-115605826D02*
X62671842Y-115641540D01*
X62671842Y-115641540D02*
X62778985Y-115641540D01*
X62778985Y-115641540D02*
X62921842Y-115605826D01*
X62921842Y-115605826D02*
X62993271Y-115570112D01*
X62993271Y-115570112D02*
X63064700Y-115498683D01*
X63064700Y-115498683D02*
X63100414Y-115391540D01*
X63100414Y-115391540D02*
X63100414Y-115212969D01*
X65186128Y-68570112D02*
X65150414Y-68498684D01*
X65150414Y-68498684D02*
X65150414Y-68391541D01*
X65150414Y-68391541D02*
X65186128Y-68284398D01*
X65186128Y-68284398D02*
X65257557Y-68212969D01*
X65257557Y-68212969D02*
X65328985Y-68177255D01*
X65328985Y-68177255D02*
X65471842Y-68141541D01*
X65471842Y-68141541D02*
X65578985Y-68141541D01*
X65578985Y-68141541D02*
X65721842Y-68177255D01*
X65721842Y-68177255D02*
X65793271Y-68212969D01*
X65793271Y-68212969D02*
X65864700Y-68284398D01*
X65864700Y-68284398D02*
X65900414Y-68391541D01*
X65900414Y-68391541D02*
X65900414Y-68462969D01*
X65900414Y-68462969D02*
X65864700Y-68570112D01*
X65864700Y-68570112D02*
X65828985Y-68605826D01*
X65828985Y-68605826D02*
X65578985Y-68605826D01*
X65578985Y-68605826D02*
X65578985Y-68462969D01*
X65900414Y-68927255D02*
X65150414Y-68927255D01*
X65150414Y-68927255D02*
X65900414Y-69355826D01*
X65900414Y-69355826D02*
X65150414Y-69355826D01*
X65900414Y-69712969D02*
X65150414Y-69712969D01*
X65150414Y-69712969D02*
X65150414Y-69891540D01*
X65150414Y-69891540D02*
X65186128Y-69998683D01*
X65186128Y-69998683D02*
X65257557Y-70070112D01*
X65257557Y-70070112D02*
X65328985Y-70105826D01*
X65328985Y-70105826D02*
X65471842Y-70141540D01*
X65471842Y-70141540D02*
X65578985Y-70141540D01*
X65578985Y-70141540D02*
X65721842Y-70105826D01*
X65721842Y-70105826D02*
X65793271Y-70070112D01*
X65793271Y-70070112D02*
X65864700Y-69998683D01*
X65864700Y-69998683D02*
X65900414Y-69891540D01*
X65900414Y-69891540D02*
X65900414Y-69712969D01*
X79964700Y-110941541D02*
X80000414Y-111048684D01*
X80000414Y-111048684D02*
X80000414Y-111227255D01*
X80000414Y-111227255D02*
X79964700Y-111298684D01*
X79964700Y-111298684D02*
X79928985Y-111334398D01*
X79928985Y-111334398D02*
X79857557Y-111370112D01*
X79857557Y-111370112D02*
X79786128Y-111370112D01*
X79786128Y-111370112D02*
X79714700Y-111334398D01*
X79714700Y-111334398D02*
X79678985Y-111298684D01*
X79678985Y-111298684D02*
X79643271Y-111227255D01*
X79643271Y-111227255D02*
X79607557Y-111084398D01*
X79607557Y-111084398D02*
X79571842Y-111012969D01*
X79571842Y-111012969D02*
X79536128Y-110977255D01*
X79536128Y-110977255D02*
X79464700Y-110941541D01*
X79464700Y-110941541D02*
X79393271Y-110941541D01*
X79393271Y-110941541D02*
X79321842Y-110977255D01*
X79321842Y-110977255D02*
X79286128Y-111012969D01*
X79286128Y-111012969D02*
X79250414Y-111084398D01*
X79250414Y-111084398D02*
X79250414Y-111262969D01*
X79250414Y-111262969D02*
X79286128Y-111370112D01*
X80000414Y-111691541D02*
X79250414Y-111691541D01*
X79250414Y-111691541D02*
X79250414Y-111870112D01*
X79250414Y-111870112D02*
X79286128Y-111977255D01*
X79286128Y-111977255D02*
X79357557Y-112048684D01*
X79357557Y-112048684D02*
X79428985Y-112084398D01*
X79428985Y-112084398D02*
X79571842Y-112120112D01*
X79571842Y-112120112D02*
X79678985Y-112120112D01*
X79678985Y-112120112D02*
X79821842Y-112084398D01*
X79821842Y-112084398D02*
X79893271Y-112048684D01*
X79893271Y-112048684D02*
X79964700Y-111977255D01*
X79964700Y-111977255D02*
X80000414Y-111870112D01*
X80000414Y-111870112D02*
X80000414Y-111691541D01*
X79786128Y-112405827D02*
X79786128Y-112762970D01*
X80000414Y-112334398D02*
X79250414Y-112584398D01*
X79250414Y-112584398D02*
X80000414Y-112834398D01*
X134572744Y-117400414D02*
X134572744Y-116650414D01*
X133679887Y-116614700D02*
X134322744Y-117578985D01*
X133287030Y-116650414D02*
X133215601Y-116650414D01*
X133215601Y-116650414D02*
X133144173Y-116686128D01*
X133144173Y-116686128D02*
X133108459Y-116721842D01*
X133108459Y-116721842D02*
X133072744Y-116793271D01*
X133072744Y-116793271D02*
X133037030Y-116936128D01*
X133037030Y-116936128D02*
X133037030Y-117114700D01*
X133037030Y-117114700D02*
X133072744Y-117257557D01*
X133072744Y-117257557D02*
X133108459Y-117328985D01*
X133108459Y-117328985D02*
X133144173Y-117364700D01*
X133144173Y-117364700D02*
X133215601Y-117400414D01*
X133215601Y-117400414D02*
X133287030Y-117400414D01*
X133287030Y-117400414D02*
X133358459Y-117364700D01*
X133358459Y-117364700D02*
X133394173Y-117328985D01*
X133394173Y-117328985D02*
X133429887Y-117257557D01*
X133429887Y-117257557D02*
X133465601Y-117114700D01*
X133465601Y-117114700D02*
X133465601Y-116936128D01*
X133465601Y-116936128D02*
X133429887Y-116793271D01*
X133429887Y-116793271D02*
X133394173Y-116721842D01*
X133394173Y-116721842D02*
X133358459Y-116686128D01*
X133358459Y-116686128D02*
X133287030Y-116650414D01*
X81886128Y-114070112D02*
X81850414Y-113998684D01*
X81850414Y-113998684D02*
X81850414Y-113891541D01*
X81850414Y-113891541D02*
X81886128Y-113784398D01*
X81886128Y-113784398D02*
X81957557Y-113712969D01*
X81957557Y-113712969D02*
X82028985Y-113677255D01*
X82028985Y-113677255D02*
X82171842Y-113641541D01*
X82171842Y-113641541D02*
X82278985Y-113641541D01*
X82278985Y-113641541D02*
X82421842Y-113677255D01*
X82421842Y-113677255D02*
X82493271Y-113712969D01*
X82493271Y-113712969D02*
X82564700Y-113784398D01*
X82564700Y-113784398D02*
X82600414Y-113891541D01*
X82600414Y-113891541D02*
X82600414Y-113962969D01*
X82600414Y-113962969D02*
X82564700Y-114070112D01*
X82564700Y-114070112D02*
X82528985Y-114105826D01*
X82528985Y-114105826D02*
X82278985Y-114105826D01*
X82278985Y-114105826D02*
X82278985Y-113962969D01*
X82600414Y-114427255D02*
X81850414Y-114427255D01*
X81850414Y-114427255D02*
X82600414Y-114855826D01*
X82600414Y-114855826D02*
X81850414Y-114855826D01*
X82600414Y-115212969D02*
X81850414Y-115212969D01*
X81850414Y-115212969D02*
X81850414Y-115391540D01*
X81850414Y-115391540D02*
X81886128Y-115498683D01*
X81886128Y-115498683D02*
X81957557Y-115570112D01*
X81957557Y-115570112D02*
X82028985Y-115605826D01*
X82028985Y-115605826D02*
X82171842Y-115641540D01*
X82171842Y-115641540D02*
X82278985Y-115641540D01*
X82278985Y-115641540D02*
X82421842Y-115605826D01*
X82421842Y-115605826D02*
X82493271Y-115570112D01*
X82493271Y-115570112D02*
X82564700Y-115498683D01*
X82564700Y-115498683D02*
X82600414Y-115391540D01*
X82600414Y-115391540D02*
X82600414Y-115212969D01*
X73486128Y-114070112D02*
X73450414Y-113998684D01*
X73450414Y-113998684D02*
X73450414Y-113891541D01*
X73450414Y-113891541D02*
X73486128Y-113784398D01*
X73486128Y-113784398D02*
X73557557Y-113712969D01*
X73557557Y-113712969D02*
X73628985Y-113677255D01*
X73628985Y-113677255D02*
X73771842Y-113641541D01*
X73771842Y-113641541D02*
X73878985Y-113641541D01*
X73878985Y-113641541D02*
X74021842Y-113677255D01*
X74021842Y-113677255D02*
X74093271Y-113712969D01*
X74093271Y-113712969D02*
X74164700Y-113784398D01*
X74164700Y-113784398D02*
X74200414Y-113891541D01*
X74200414Y-113891541D02*
X74200414Y-113962969D01*
X74200414Y-113962969D02*
X74164700Y-114070112D01*
X74164700Y-114070112D02*
X74128985Y-114105826D01*
X74128985Y-114105826D02*
X73878985Y-114105826D01*
X73878985Y-114105826D02*
X73878985Y-113962969D01*
X74200414Y-114427255D02*
X73450414Y-114427255D01*
X73450414Y-114427255D02*
X74200414Y-114855826D01*
X74200414Y-114855826D02*
X73450414Y-114855826D01*
X74200414Y-115212969D02*
X73450414Y-115212969D01*
X73450414Y-115212969D02*
X73450414Y-115391540D01*
X73450414Y-115391540D02*
X73486128Y-115498683D01*
X73486128Y-115498683D02*
X73557557Y-115570112D01*
X73557557Y-115570112D02*
X73628985Y-115605826D01*
X73628985Y-115605826D02*
X73771842Y-115641540D01*
X73771842Y-115641540D02*
X73878985Y-115641540D01*
X73878985Y-115641540D02*
X74021842Y-115605826D01*
X74021842Y-115605826D02*
X74093271Y-115570112D01*
X74093271Y-115570112D02*
X74164700Y-115498683D01*
X74164700Y-115498683D02*
X74200414Y-115391540D01*
X74200414Y-115391540D02*
X74200414Y-115212969D01*
X62650414Y-71305826D02*
X62650414Y-71770112D01*
X62650414Y-71770112D02*
X62936128Y-71520112D01*
X62936128Y-71520112D02*
X62936128Y-71627255D01*
X62936128Y-71627255D02*
X62971842Y-71698684D01*
X62971842Y-71698684D02*
X63007557Y-71734398D01*
X63007557Y-71734398D02*
X63078985Y-71770112D01*
X63078985Y-71770112D02*
X63257557Y-71770112D01*
X63257557Y-71770112D02*
X63328985Y-71734398D01*
X63328985Y-71734398D02*
X63364700Y-71698684D01*
X63364700Y-71698684D02*
X63400414Y-71627255D01*
X63400414Y-71627255D02*
X63400414Y-71412969D01*
X63400414Y-71412969D02*
X63364700Y-71341541D01*
X63364700Y-71341541D02*
X63328985Y-71305826D01*
X62650414Y-71984398D02*
X63400414Y-72234398D01*
X63400414Y-72234398D02*
X62650414Y-72484398D01*
X62650414Y-72662969D02*
X62650414Y-73127255D01*
X62650414Y-73127255D02*
X62936128Y-72877255D01*
X62936128Y-72877255D02*
X62936128Y-72984398D01*
X62936128Y-72984398D02*
X62971842Y-73055827D01*
X62971842Y-73055827D02*
X63007557Y-73091541D01*
X63007557Y-73091541D02*
X63078985Y-73127255D01*
X63078985Y-73127255D02*
X63257557Y-73127255D01*
X63257557Y-73127255D02*
X63328985Y-73091541D01*
X63328985Y-73091541D02*
X63364700Y-73055827D01*
X63364700Y-73055827D02*
X63400414Y-72984398D01*
X63400414Y-72984398D02*
X63400414Y-72770112D01*
X63400414Y-72770112D02*
X63364700Y-72698684D01*
X63364700Y-72698684D02*
X63328985Y-72662969D01*
X90086128Y-114070112D02*
X90050414Y-113998684D01*
X90050414Y-113998684D02*
X90050414Y-113891541D01*
X90050414Y-113891541D02*
X90086128Y-113784398D01*
X90086128Y-113784398D02*
X90157557Y-113712969D01*
X90157557Y-113712969D02*
X90228985Y-113677255D01*
X90228985Y-113677255D02*
X90371842Y-113641541D01*
X90371842Y-113641541D02*
X90478985Y-113641541D01*
X90478985Y-113641541D02*
X90621842Y-113677255D01*
X90621842Y-113677255D02*
X90693271Y-113712969D01*
X90693271Y-113712969D02*
X90764700Y-113784398D01*
X90764700Y-113784398D02*
X90800414Y-113891541D01*
X90800414Y-113891541D02*
X90800414Y-113962969D01*
X90800414Y-113962969D02*
X90764700Y-114070112D01*
X90764700Y-114070112D02*
X90728985Y-114105826D01*
X90728985Y-114105826D02*
X90478985Y-114105826D01*
X90478985Y-114105826D02*
X90478985Y-113962969D01*
X90800414Y-114427255D02*
X90050414Y-114427255D01*
X90050414Y-114427255D02*
X90800414Y-114855826D01*
X90800414Y-114855826D02*
X90050414Y-114855826D01*
X90800414Y-115212969D02*
X90050414Y-115212969D01*
X90050414Y-115212969D02*
X90050414Y-115391540D01*
X90050414Y-115391540D02*
X90086128Y-115498683D01*
X90086128Y-115498683D02*
X90157557Y-115570112D01*
X90157557Y-115570112D02*
X90228985Y-115605826D01*
X90228985Y-115605826D02*
X90371842Y-115641540D01*
X90371842Y-115641540D02*
X90478985Y-115641540D01*
X90478985Y-115641540D02*
X90621842Y-115605826D01*
X90621842Y-115605826D02*
X90693271Y-115570112D01*
X90693271Y-115570112D02*
X90764700Y-115498683D01*
X90764700Y-115498683D02*
X90800414Y-115391540D01*
X90800414Y-115391540D02*
X90800414Y-115212969D01*
X73550414Y-111005826D02*
X73550414Y-111470112D01*
X73550414Y-111470112D02*
X73836128Y-111220112D01*
X73836128Y-111220112D02*
X73836128Y-111327255D01*
X73836128Y-111327255D02*
X73871842Y-111398684D01*
X73871842Y-111398684D02*
X73907557Y-111434398D01*
X73907557Y-111434398D02*
X73978985Y-111470112D01*
X73978985Y-111470112D02*
X74157557Y-111470112D01*
X74157557Y-111470112D02*
X74228985Y-111434398D01*
X74228985Y-111434398D02*
X74264700Y-111398684D01*
X74264700Y-111398684D02*
X74300414Y-111327255D01*
X74300414Y-111327255D02*
X74300414Y-111112969D01*
X74300414Y-111112969D02*
X74264700Y-111041541D01*
X74264700Y-111041541D02*
X74228985Y-111005826D01*
X73550414Y-111684398D02*
X74300414Y-111934398D01*
X74300414Y-111934398D02*
X73550414Y-112184398D01*
X73550414Y-112362969D02*
X73550414Y-112827255D01*
X73550414Y-112827255D02*
X73836128Y-112577255D01*
X73836128Y-112577255D02*
X73836128Y-112684398D01*
X73836128Y-112684398D02*
X73871842Y-112755827D01*
X73871842Y-112755827D02*
X73907557Y-112791541D01*
X73907557Y-112791541D02*
X73978985Y-112827255D01*
X73978985Y-112827255D02*
X74157557Y-112827255D01*
X74157557Y-112827255D02*
X74228985Y-112791541D01*
X74228985Y-112791541D02*
X74264700Y-112755827D01*
X74264700Y-112755827D02*
X74300414Y-112684398D01*
X74300414Y-112684398D02*
X74300414Y-112470112D01*
X74300414Y-112470112D02*
X74264700Y-112398684D01*
X74264700Y-112398684D02*
X74228985Y-112362969D01*
X79900414Y-71477255D02*
X79150414Y-71477255D01*
X79114700Y-72370112D02*
X80078985Y-71727255D01*
X79150414Y-72762969D02*
X79150414Y-72905826D01*
X79150414Y-72905826D02*
X79186128Y-72977255D01*
X79186128Y-72977255D02*
X79257557Y-73048683D01*
X79257557Y-73048683D02*
X79400414Y-73084398D01*
X79400414Y-73084398D02*
X79650414Y-73084398D01*
X79650414Y-73084398D02*
X79793271Y-73048683D01*
X79793271Y-73048683D02*
X79864700Y-72977255D01*
X79864700Y-72977255D02*
X79900414Y-72905826D01*
X79900414Y-72905826D02*
X79900414Y-72762969D01*
X79900414Y-72762969D02*
X79864700Y-72691541D01*
X79864700Y-72691541D02*
X79793271Y-72620112D01*
X79793271Y-72620112D02*
X79650414Y-72584398D01*
X79650414Y-72584398D02*
X79400414Y-72584398D01*
X79400414Y-72584398D02*
X79257557Y-72620112D01*
X79257557Y-72620112D02*
X79186128Y-72691541D01*
X79186128Y-72691541D02*
X79150414Y-72762969D01*
X135136128Y-111770112D02*
X135100414Y-111698684D01*
X135100414Y-111698684D02*
X135100414Y-111591541D01*
X135100414Y-111591541D02*
X135136128Y-111484398D01*
X135136128Y-111484398D02*
X135207557Y-111412969D01*
X135207557Y-111412969D02*
X135278985Y-111377255D01*
X135278985Y-111377255D02*
X135421842Y-111341541D01*
X135421842Y-111341541D02*
X135528985Y-111341541D01*
X135528985Y-111341541D02*
X135671842Y-111377255D01*
X135671842Y-111377255D02*
X135743271Y-111412969D01*
X135743271Y-111412969D02*
X135814700Y-111484398D01*
X135814700Y-111484398D02*
X135850414Y-111591541D01*
X135850414Y-111591541D02*
X135850414Y-111662969D01*
X135850414Y-111662969D02*
X135814700Y-111770112D01*
X135814700Y-111770112D02*
X135778985Y-111805826D01*
X135778985Y-111805826D02*
X135528985Y-111805826D01*
X135528985Y-111805826D02*
X135528985Y-111662969D01*
X135850414Y-112127255D02*
X135100414Y-112127255D01*
X135100414Y-112127255D02*
X135850414Y-112555826D01*
X135850414Y-112555826D02*
X135100414Y-112555826D01*
X135850414Y-112912969D02*
X135100414Y-112912969D01*
X135100414Y-112912969D02*
X135100414Y-113091540D01*
X135100414Y-113091540D02*
X135136128Y-113198683D01*
X135136128Y-113198683D02*
X135207557Y-113270112D01*
X135207557Y-113270112D02*
X135278985Y-113305826D01*
X135278985Y-113305826D02*
X135421842Y-113341540D01*
X135421842Y-113341540D02*
X135528985Y-113341540D01*
X135528985Y-113341540D02*
X135671842Y-113305826D01*
X135671842Y-113305826D02*
X135743271Y-113270112D01*
X135743271Y-113270112D02*
X135814700Y-113198683D01*
X135814700Y-113198683D02*
X135850414Y-113091540D01*
X135850414Y-113091540D02*
X135850414Y-112912969D01*
X81622744Y-66600414D02*
X81622744Y-65850414D01*
X80729887Y-65814700D02*
X81372744Y-66778985D01*
X80337030Y-65850414D02*
X80194173Y-65850414D01*
X80194173Y-65850414D02*
X80122744Y-65886128D01*
X80122744Y-65886128D02*
X80051316Y-65957557D01*
X80051316Y-65957557D02*
X80015601Y-66100414D01*
X80015601Y-66100414D02*
X80015601Y-66350414D01*
X80015601Y-66350414D02*
X80051316Y-66493271D01*
X80051316Y-66493271D02*
X80122744Y-66564700D01*
X80122744Y-66564700D02*
X80194173Y-66600414D01*
X80194173Y-66600414D02*
X80337030Y-66600414D01*
X80337030Y-66600414D02*
X80408459Y-66564700D01*
X80408459Y-66564700D02*
X80479887Y-66493271D01*
X80479887Y-66493271D02*
X80515601Y-66350414D01*
X80515601Y-66350414D02*
X80515601Y-66100414D01*
X80515601Y-66100414D02*
X80479887Y-65957557D01*
X80479887Y-65957557D02*
X80408459Y-65886128D01*
X80408459Y-65886128D02*
X80337030Y-65850414D01*
D11*
X142903884Y-83908533D02*
X143665789Y-83908533D01*
X143284836Y-83527580D02*
X143284836Y-84289485D01*
D10*
X65022744Y-66500414D02*
X65022744Y-65750414D01*
X64129887Y-65714700D02*
X64772744Y-66678985D01*
X63737030Y-65750414D02*
X63594173Y-65750414D01*
X63594173Y-65750414D02*
X63522744Y-65786128D01*
X63522744Y-65786128D02*
X63451316Y-65857557D01*
X63451316Y-65857557D02*
X63415601Y-66000414D01*
X63415601Y-66000414D02*
X63415601Y-66250414D01*
X63415601Y-66250414D02*
X63451316Y-66393271D01*
X63451316Y-66393271D02*
X63522744Y-66464700D01*
X63522744Y-66464700D02*
X63594173Y-66500414D01*
X63594173Y-66500414D02*
X63737030Y-66500414D01*
X63737030Y-66500414D02*
X63808459Y-66464700D01*
X63808459Y-66464700D02*
X63879887Y-66393271D01*
X63879887Y-66393271D02*
X63915601Y-66250414D01*
X63915601Y-66250414D02*
X63915601Y-66000414D01*
X63915601Y-66000414D02*
X63879887Y-65857557D01*
X63879887Y-65857557D02*
X63808459Y-65786128D01*
X63808459Y-65786128D02*
X63737030Y-65750414D01*
D11*
X216296115Y-83491466D02*
X215534211Y-83491466D01*
X215915163Y-83872419D02*
X215915163Y-83110514D01*
D10*
X65900414Y-71477255D02*
X65150414Y-71477255D01*
X65114700Y-72370112D02*
X66078985Y-71727255D01*
X65150414Y-72762969D02*
X65150414Y-72905826D01*
X65150414Y-72905826D02*
X65186128Y-72977255D01*
X65186128Y-72977255D02*
X65257557Y-73048683D01*
X65257557Y-73048683D02*
X65400414Y-73084398D01*
X65400414Y-73084398D02*
X65650414Y-73084398D01*
X65650414Y-73084398D02*
X65793271Y-73048683D01*
X65793271Y-73048683D02*
X65864700Y-72977255D01*
X65864700Y-72977255D02*
X65900414Y-72905826D01*
X65900414Y-72905826D02*
X65900414Y-72762969D01*
X65900414Y-72762969D02*
X65864700Y-72691541D01*
X65864700Y-72691541D02*
X65793271Y-72620112D01*
X65793271Y-72620112D02*
X65650414Y-72584398D01*
X65650414Y-72584398D02*
X65400414Y-72584398D01*
X65400414Y-72584398D02*
X65257557Y-72620112D01*
X65257557Y-72620112D02*
X65186128Y-72691541D01*
X65186128Y-72691541D02*
X65150414Y-72762969D01*
X88364700Y-110941541D02*
X88400414Y-111048684D01*
X88400414Y-111048684D02*
X88400414Y-111227255D01*
X88400414Y-111227255D02*
X88364700Y-111298684D01*
X88364700Y-111298684D02*
X88328985Y-111334398D01*
X88328985Y-111334398D02*
X88257557Y-111370112D01*
X88257557Y-111370112D02*
X88186128Y-111370112D01*
X88186128Y-111370112D02*
X88114700Y-111334398D01*
X88114700Y-111334398D02*
X88078985Y-111298684D01*
X88078985Y-111298684D02*
X88043271Y-111227255D01*
X88043271Y-111227255D02*
X88007557Y-111084398D01*
X88007557Y-111084398D02*
X87971842Y-111012969D01*
X87971842Y-111012969D02*
X87936128Y-110977255D01*
X87936128Y-110977255D02*
X87864700Y-110941541D01*
X87864700Y-110941541D02*
X87793271Y-110941541D01*
X87793271Y-110941541D02*
X87721842Y-110977255D01*
X87721842Y-110977255D02*
X87686128Y-111012969D01*
X87686128Y-111012969D02*
X87650414Y-111084398D01*
X87650414Y-111084398D02*
X87650414Y-111262969D01*
X87650414Y-111262969D02*
X87686128Y-111370112D01*
X88400414Y-111691541D02*
X87650414Y-111691541D01*
X87650414Y-111691541D02*
X87650414Y-111870112D01*
X87650414Y-111870112D02*
X87686128Y-111977255D01*
X87686128Y-111977255D02*
X87757557Y-112048684D01*
X87757557Y-112048684D02*
X87828985Y-112084398D01*
X87828985Y-112084398D02*
X87971842Y-112120112D01*
X87971842Y-112120112D02*
X88078985Y-112120112D01*
X88078985Y-112120112D02*
X88221842Y-112084398D01*
X88221842Y-112084398D02*
X88293271Y-112048684D01*
X88293271Y-112048684D02*
X88364700Y-111977255D01*
X88364700Y-111977255D02*
X88400414Y-111870112D01*
X88400414Y-111870112D02*
X88400414Y-111691541D01*
X88186128Y-112405827D02*
X88186128Y-112762970D01*
X88400414Y-112334398D02*
X87650414Y-112584398D01*
X87650414Y-112584398D02*
X88400414Y-112834398D01*
X62686128Y-68470112D02*
X62650414Y-68398684D01*
X62650414Y-68398684D02*
X62650414Y-68291541D01*
X62650414Y-68291541D02*
X62686128Y-68184398D01*
X62686128Y-68184398D02*
X62757557Y-68112969D01*
X62757557Y-68112969D02*
X62828985Y-68077255D01*
X62828985Y-68077255D02*
X62971842Y-68041541D01*
X62971842Y-68041541D02*
X63078985Y-68041541D01*
X63078985Y-68041541D02*
X63221842Y-68077255D01*
X63221842Y-68077255D02*
X63293271Y-68112969D01*
X63293271Y-68112969D02*
X63364700Y-68184398D01*
X63364700Y-68184398D02*
X63400414Y-68291541D01*
X63400414Y-68291541D02*
X63400414Y-68362969D01*
X63400414Y-68362969D02*
X63364700Y-68470112D01*
X63364700Y-68470112D02*
X63328985Y-68505826D01*
X63328985Y-68505826D02*
X63078985Y-68505826D01*
X63078985Y-68505826D02*
X63078985Y-68362969D01*
X63400414Y-68827255D02*
X62650414Y-68827255D01*
X62650414Y-68827255D02*
X63400414Y-69255826D01*
X63400414Y-69255826D02*
X62650414Y-69255826D01*
X63400414Y-69612969D02*
X62650414Y-69612969D01*
X62650414Y-69612969D02*
X62650414Y-69791540D01*
X62650414Y-69791540D02*
X62686128Y-69898683D01*
X62686128Y-69898683D02*
X62757557Y-69970112D01*
X62757557Y-69970112D02*
X62828985Y-70005826D01*
X62828985Y-70005826D02*
X62971842Y-70041540D01*
X62971842Y-70041540D02*
X63078985Y-70041540D01*
X63078985Y-70041540D02*
X63221842Y-70005826D01*
X63221842Y-70005826D02*
X63293271Y-69970112D01*
X63293271Y-69970112D02*
X63364700Y-69898683D01*
X63364700Y-69898683D02*
X63400414Y-69791540D01*
X63400414Y-69791540D02*
X63400414Y-69612969D01*
X70886128Y-114070112D02*
X70850414Y-113998684D01*
X70850414Y-113998684D02*
X70850414Y-113891541D01*
X70850414Y-113891541D02*
X70886128Y-113784398D01*
X70886128Y-113784398D02*
X70957557Y-113712969D01*
X70957557Y-113712969D02*
X71028985Y-113677255D01*
X71028985Y-113677255D02*
X71171842Y-113641541D01*
X71171842Y-113641541D02*
X71278985Y-113641541D01*
X71278985Y-113641541D02*
X71421842Y-113677255D01*
X71421842Y-113677255D02*
X71493271Y-113712969D01*
X71493271Y-113712969D02*
X71564700Y-113784398D01*
X71564700Y-113784398D02*
X71600414Y-113891541D01*
X71600414Y-113891541D02*
X71600414Y-113962969D01*
X71600414Y-113962969D02*
X71564700Y-114070112D01*
X71564700Y-114070112D02*
X71528985Y-114105826D01*
X71528985Y-114105826D02*
X71278985Y-114105826D01*
X71278985Y-114105826D02*
X71278985Y-113962969D01*
X71600414Y-114427255D02*
X70850414Y-114427255D01*
X70850414Y-114427255D02*
X71600414Y-114855826D01*
X71600414Y-114855826D02*
X70850414Y-114855826D01*
X71600414Y-115212969D02*
X70850414Y-115212969D01*
X70850414Y-115212969D02*
X70850414Y-115391540D01*
X70850414Y-115391540D02*
X70886128Y-115498683D01*
X70886128Y-115498683D02*
X70957557Y-115570112D01*
X70957557Y-115570112D02*
X71028985Y-115605826D01*
X71028985Y-115605826D02*
X71171842Y-115641540D01*
X71171842Y-115641540D02*
X71278985Y-115641540D01*
X71278985Y-115641540D02*
X71421842Y-115605826D01*
X71421842Y-115605826D02*
X71493271Y-115570112D01*
X71493271Y-115570112D02*
X71564700Y-115498683D01*
X71564700Y-115498683D02*
X71600414Y-115391540D01*
X71600414Y-115391540D02*
X71600414Y-115212969D01*
X73322744Y-117000414D02*
X73322744Y-116250414D01*
X73322744Y-116250414D02*
X72894173Y-117000414D01*
X72894173Y-117000414D02*
X72894173Y-116250414D01*
X72537030Y-117000414D02*
X72537030Y-116250414D01*
X72537030Y-116250414D02*
X72251316Y-116250414D01*
X72251316Y-116250414D02*
X72179887Y-116286128D01*
X72179887Y-116286128D02*
X72144173Y-116321842D01*
X72144173Y-116321842D02*
X72108459Y-116393271D01*
X72108459Y-116393271D02*
X72108459Y-116500414D01*
X72108459Y-116500414D02*
X72144173Y-116571842D01*
X72144173Y-116571842D02*
X72179887Y-116607557D01*
X72179887Y-116607557D02*
X72251316Y-116643271D01*
X72251316Y-116643271D02*
X72537030Y-116643271D01*
X71787030Y-117000414D02*
X71787030Y-116250414D01*
X71787030Y-116250414D02*
X71358459Y-117000414D01*
X71358459Y-117000414D02*
X71358459Y-116250414D01*
X90614700Y-110977255D02*
X90614700Y-111548684D01*
X90900414Y-111262969D02*
X90328985Y-111262969D01*
X90150414Y-112262969D02*
X90150414Y-111905826D01*
X90150414Y-111905826D02*
X90507557Y-111870112D01*
X90507557Y-111870112D02*
X90471842Y-111905826D01*
X90471842Y-111905826D02*
X90436128Y-111977255D01*
X90436128Y-111977255D02*
X90436128Y-112155826D01*
X90436128Y-112155826D02*
X90471842Y-112227255D01*
X90471842Y-112227255D02*
X90507557Y-112262969D01*
X90507557Y-112262969D02*
X90578985Y-112298683D01*
X90578985Y-112298683D02*
X90757557Y-112298683D01*
X90757557Y-112298683D02*
X90828985Y-112262969D01*
X90828985Y-112262969D02*
X90864700Y-112227255D01*
X90864700Y-112227255D02*
X90900414Y-112155826D01*
X90900414Y-112155826D02*
X90900414Y-111977255D01*
X90900414Y-111977255D02*
X90864700Y-111905826D01*
X90864700Y-111905826D02*
X90828985Y-111870112D01*
X90150414Y-112512969D02*
X90900414Y-112762969D01*
X90900414Y-112762969D02*
X90150414Y-113012969D01*
X64950414Y-111005826D02*
X64950414Y-111470112D01*
X64950414Y-111470112D02*
X65236128Y-111220112D01*
X65236128Y-111220112D02*
X65236128Y-111327255D01*
X65236128Y-111327255D02*
X65271842Y-111398684D01*
X65271842Y-111398684D02*
X65307557Y-111434398D01*
X65307557Y-111434398D02*
X65378985Y-111470112D01*
X65378985Y-111470112D02*
X65557557Y-111470112D01*
X65557557Y-111470112D02*
X65628985Y-111434398D01*
X65628985Y-111434398D02*
X65664700Y-111398684D01*
X65664700Y-111398684D02*
X65700414Y-111327255D01*
X65700414Y-111327255D02*
X65700414Y-111112969D01*
X65700414Y-111112969D02*
X65664700Y-111041541D01*
X65664700Y-111041541D02*
X65628985Y-111005826D01*
X64950414Y-111684398D02*
X65700414Y-111934398D01*
X65700414Y-111934398D02*
X64950414Y-112184398D01*
X64950414Y-112362969D02*
X64950414Y-112827255D01*
X64950414Y-112827255D02*
X65236128Y-112577255D01*
X65236128Y-112577255D02*
X65236128Y-112684398D01*
X65236128Y-112684398D02*
X65271842Y-112755827D01*
X65271842Y-112755827D02*
X65307557Y-112791541D01*
X65307557Y-112791541D02*
X65378985Y-112827255D01*
X65378985Y-112827255D02*
X65557557Y-112827255D01*
X65557557Y-112827255D02*
X65628985Y-112791541D01*
X65628985Y-112791541D02*
X65664700Y-112755827D01*
X65664700Y-112755827D02*
X65700414Y-112684398D01*
X65700414Y-112684398D02*
X65700414Y-112470112D01*
X65700414Y-112470112D02*
X65664700Y-112398684D01*
X65664700Y-112398684D02*
X65628985Y-112362969D01*
X79864700Y-113641541D02*
X79900414Y-113748684D01*
X79900414Y-113748684D02*
X79900414Y-113927255D01*
X79900414Y-113927255D02*
X79864700Y-113998684D01*
X79864700Y-113998684D02*
X79828985Y-114034398D01*
X79828985Y-114034398D02*
X79757557Y-114070112D01*
X79757557Y-114070112D02*
X79686128Y-114070112D01*
X79686128Y-114070112D02*
X79614700Y-114034398D01*
X79614700Y-114034398D02*
X79578985Y-113998684D01*
X79578985Y-113998684D02*
X79543271Y-113927255D01*
X79543271Y-113927255D02*
X79507557Y-113784398D01*
X79507557Y-113784398D02*
X79471842Y-113712969D01*
X79471842Y-113712969D02*
X79436128Y-113677255D01*
X79436128Y-113677255D02*
X79364700Y-113641541D01*
X79364700Y-113641541D02*
X79293271Y-113641541D01*
X79293271Y-113641541D02*
X79221842Y-113677255D01*
X79221842Y-113677255D02*
X79186128Y-113712969D01*
X79186128Y-113712969D02*
X79150414Y-113784398D01*
X79150414Y-113784398D02*
X79150414Y-113962969D01*
X79150414Y-113962969D02*
X79186128Y-114070112D01*
X79828985Y-114820112D02*
X79864700Y-114784398D01*
X79864700Y-114784398D02*
X79900414Y-114677255D01*
X79900414Y-114677255D02*
X79900414Y-114605827D01*
X79900414Y-114605827D02*
X79864700Y-114498684D01*
X79864700Y-114498684D02*
X79793271Y-114427255D01*
X79793271Y-114427255D02*
X79721842Y-114391541D01*
X79721842Y-114391541D02*
X79578985Y-114355827D01*
X79578985Y-114355827D02*
X79471842Y-114355827D01*
X79471842Y-114355827D02*
X79328985Y-114391541D01*
X79328985Y-114391541D02*
X79257557Y-114427255D01*
X79257557Y-114427255D02*
X79186128Y-114498684D01*
X79186128Y-114498684D02*
X79150414Y-114605827D01*
X79150414Y-114605827D02*
X79150414Y-114677255D01*
X79150414Y-114677255D02*
X79186128Y-114784398D01*
X79186128Y-114784398D02*
X79221842Y-114820112D01*
X79900414Y-115498684D02*
X79900414Y-115141541D01*
X79900414Y-115141541D02*
X79150414Y-115141541D01*
X124550414Y-113977255D02*
X123800414Y-113977255D01*
X123764700Y-114870112D02*
X124728985Y-114227255D01*
X123800414Y-115262969D02*
X123800414Y-115405826D01*
X123800414Y-115405826D02*
X123836128Y-115477255D01*
X123836128Y-115477255D02*
X123907557Y-115548683D01*
X123907557Y-115548683D02*
X124050414Y-115584398D01*
X124050414Y-115584398D02*
X124300414Y-115584398D01*
X124300414Y-115584398D02*
X124443271Y-115548683D01*
X124443271Y-115548683D02*
X124514700Y-115477255D01*
X124514700Y-115477255D02*
X124550414Y-115405826D01*
X124550414Y-115405826D02*
X124550414Y-115262969D01*
X124550414Y-115262969D02*
X124514700Y-115191541D01*
X124514700Y-115191541D02*
X124443271Y-115120112D01*
X124443271Y-115120112D02*
X124300414Y-115084398D01*
X124300414Y-115084398D02*
X124050414Y-115084398D01*
X124050414Y-115084398D02*
X123907557Y-115120112D01*
X123907557Y-115120112D02*
X123836128Y-115191541D01*
X123836128Y-115191541D02*
X123800414Y-115262969D01*
X82414700Y-110977255D02*
X82414700Y-111548684D01*
X82700414Y-111262969D02*
X82128985Y-111262969D01*
X81950414Y-112262969D02*
X81950414Y-111905826D01*
X81950414Y-111905826D02*
X82307557Y-111870112D01*
X82307557Y-111870112D02*
X82271842Y-111905826D01*
X82271842Y-111905826D02*
X82236128Y-111977255D01*
X82236128Y-111977255D02*
X82236128Y-112155826D01*
X82236128Y-112155826D02*
X82271842Y-112227255D01*
X82271842Y-112227255D02*
X82307557Y-112262969D01*
X82307557Y-112262969D02*
X82378985Y-112298683D01*
X82378985Y-112298683D02*
X82557557Y-112298683D01*
X82557557Y-112298683D02*
X82628985Y-112262969D01*
X82628985Y-112262969D02*
X82664700Y-112227255D01*
X82664700Y-112227255D02*
X82700414Y-112155826D01*
X82700414Y-112155826D02*
X82700414Y-111977255D01*
X82700414Y-111977255D02*
X82664700Y-111905826D01*
X82664700Y-111905826D02*
X82628985Y-111870112D01*
X81950414Y-112512969D02*
X82700414Y-112762969D01*
X82700414Y-112762969D02*
X81950414Y-113012969D01*
X73586128Y-68670112D02*
X73550414Y-68598684D01*
X73550414Y-68598684D02*
X73550414Y-68491541D01*
X73550414Y-68491541D02*
X73586128Y-68384398D01*
X73586128Y-68384398D02*
X73657557Y-68312969D01*
X73657557Y-68312969D02*
X73728985Y-68277255D01*
X73728985Y-68277255D02*
X73871842Y-68241541D01*
X73871842Y-68241541D02*
X73978985Y-68241541D01*
X73978985Y-68241541D02*
X74121842Y-68277255D01*
X74121842Y-68277255D02*
X74193271Y-68312969D01*
X74193271Y-68312969D02*
X74264700Y-68384398D01*
X74264700Y-68384398D02*
X74300414Y-68491541D01*
X74300414Y-68491541D02*
X74300414Y-68562969D01*
X74300414Y-68562969D02*
X74264700Y-68670112D01*
X74264700Y-68670112D02*
X74228985Y-68705826D01*
X74228985Y-68705826D02*
X73978985Y-68705826D01*
X73978985Y-68705826D02*
X73978985Y-68562969D01*
X74300414Y-69027255D02*
X73550414Y-69027255D01*
X73550414Y-69027255D02*
X74300414Y-69455826D01*
X74300414Y-69455826D02*
X73550414Y-69455826D01*
X74300414Y-69812969D02*
X73550414Y-69812969D01*
X73550414Y-69812969D02*
X73550414Y-69991540D01*
X73550414Y-69991540D02*
X73586128Y-70098683D01*
X73586128Y-70098683D02*
X73657557Y-70170112D01*
X73657557Y-70170112D02*
X73728985Y-70205826D01*
X73728985Y-70205826D02*
X73871842Y-70241540D01*
X73871842Y-70241540D02*
X73978985Y-70241540D01*
X73978985Y-70241540D02*
X74121842Y-70205826D01*
X74121842Y-70205826D02*
X74193271Y-70170112D01*
X74193271Y-70170112D02*
X74264700Y-70098683D01*
X74264700Y-70098683D02*
X74300414Y-69991540D01*
X74300414Y-69991540D02*
X74300414Y-69812969D01*
X71086128Y-68570112D02*
X71050414Y-68498684D01*
X71050414Y-68498684D02*
X71050414Y-68391541D01*
X71050414Y-68391541D02*
X71086128Y-68284398D01*
X71086128Y-68284398D02*
X71157557Y-68212969D01*
X71157557Y-68212969D02*
X71228985Y-68177255D01*
X71228985Y-68177255D02*
X71371842Y-68141541D01*
X71371842Y-68141541D02*
X71478985Y-68141541D01*
X71478985Y-68141541D02*
X71621842Y-68177255D01*
X71621842Y-68177255D02*
X71693271Y-68212969D01*
X71693271Y-68212969D02*
X71764700Y-68284398D01*
X71764700Y-68284398D02*
X71800414Y-68391541D01*
X71800414Y-68391541D02*
X71800414Y-68462969D01*
X71800414Y-68462969D02*
X71764700Y-68570112D01*
X71764700Y-68570112D02*
X71728985Y-68605826D01*
X71728985Y-68605826D02*
X71478985Y-68605826D01*
X71478985Y-68605826D02*
X71478985Y-68462969D01*
X71800414Y-68927255D02*
X71050414Y-68927255D01*
X71050414Y-68927255D02*
X71800414Y-69355826D01*
X71800414Y-69355826D02*
X71050414Y-69355826D01*
X71800414Y-69712969D02*
X71050414Y-69712969D01*
X71050414Y-69712969D02*
X71050414Y-69891540D01*
X71050414Y-69891540D02*
X71086128Y-69998683D01*
X71086128Y-69998683D02*
X71157557Y-70070112D01*
X71157557Y-70070112D02*
X71228985Y-70105826D01*
X71228985Y-70105826D02*
X71371842Y-70141540D01*
X71371842Y-70141540D02*
X71478985Y-70141540D01*
X71478985Y-70141540D02*
X71621842Y-70105826D01*
X71621842Y-70105826D02*
X71693271Y-70070112D01*
X71693271Y-70070112D02*
X71764700Y-69998683D01*
X71764700Y-69998683D02*
X71800414Y-69891540D01*
X71800414Y-69891540D02*
X71800414Y-69712969D01*
X133350414Y-111377255D02*
X132600414Y-111377255D01*
X132564700Y-112270112D02*
X133528985Y-111627255D01*
X132600414Y-112662969D02*
X132600414Y-112805826D01*
X132600414Y-112805826D02*
X132636128Y-112877255D01*
X132636128Y-112877255D02*
X132707557Y-112948683D01*
X132707557Y-112948683D02*
X132850414Y-112984398D01*
X132850414Y-112984398D02*
X133100414Y-112984398D01*
X133100414Y-112984398D02*
X133243271Y-112948683D01*
X133243271Y-112948683D02*
X133314700Y-112877255D01*
X133314700Y-112877255D02*
X133350414Y-112805826D01*
X133350414Y-112805826D02*
X133350414Y-112662969D01*
X133350414Y-112662969D02*
X133314700Y-112591541D01*
X133314700Y-112591541D02*
X133243271Y-112520112D01*
X133243271Y-112520112D02*
X133100414Y-112484398D01*
X133100414Y-112484398D02*
X132850414Y-112484398D01*
X132850414Y-112484398D02*
X132707557Y-112520112D01*
X132707557Y-112520112D02*
X132636128Y-112591541D01*
X132636128Y-112591541D02*
X132600414Y-112662969D01*
X133350414Y-113977255D02*
X132600414Y-113977255D01*
X132564700Y-114870112D02*
X133528985Y-114227255D01*
X132600414Y-115262969D02*
X132600414Y-115405826D01*
X132600414Y-115405826D02*
X132636128Y-115477255D01*
X132636128Y-115477255D02*
X132707557Y-115548683D01*
X132707557Y-115548683D02*
X132850414Y-115584398D01*
X132850414Y-115584398D02*
X133100414Y-115584398D01*
X133100414Y-115584398D02*
X133243271Y-115548683D01*
X133243271Y-115548683D02*
X133314700Y-115477255D01*
X133314700Y-115477255D02*
X133350414Y-115405826D01*
X133350414Y-115405826D02*
X133350414Y-115262969D01*
X133350414Y-115262969D02*
X133314700Y-115191541D01*
X133314700Y-115191541D02*
X133243271Y-115120112D01*
X133243271Y-115120112D02*
X133100414Y-115084398D01*
X133100414Y-115084398D02*
X132850414Y-115084398D01*
X132850414Y-115084398D02*
X132707557Y-115120112D01*
X132707557Y-115120112D02*
X132636128Y-115191541D01*
X132636128Y-115191541D02*
X132600414Y-115262969D01*
D11*
X150996115Y-84472419D02*
X150996115Y-83472419D01*
X150996115Y-83948609D02*
X150424687Y-83948609D01*
X150424687Y-84472419D02*
X150424687Y-83472419D01*
X150091353Y-83472419D02*
X149758020Y-84472419D01*
X149758020Y-84472419D02*
X149424687Y-83472419D01*
X148138972Y-83472419D02*
X147948496Y-83472419D01*
X147948496Y-83472419D02*
X147853258Y-83520038D01*
X147853258Y-83520038D02*
X147758020Y-83615276D01*
X147758020Y-83615276D02*
X147710401Y-83805752D01*
X147710401Y-83805752D02*
X147710401Y-84139085D01*
X147710401Y-84139085D02*
X147758020Y-84329561D01*
X147758020Y-84329561D02*
X147853258Y-84424800D01*
X147853258Y-84424800D02*
X147948496Y-84472419D01*
X147948496Y-84472419D02*
X148138972Y-84472419D01*
X148138972Y-84472419D02*
X148234210Y-84424800D01*
X148234210Y-84424800D02*
X148329448Y-84329561D01*
X148329448Y-84329561D02*
X148377067Y-84139085D01*
X148377067Y-84139085D02*
X148377067Y-83805752D01*
X148377067Y-83805752D02*
X148329448Y-83615276D01*
X148329448Y-83615276D02*
X148234210Y-83520038D01*
X148234210Y-83520038D02*
X148138972Y-83472419D01*
X147281829Y-83472419D02*
X147281829Y-84281942D01*
X147281829Y-84281942D02*
X147234210Y-84377180D01*
X147234210Y-84377180D02*
X147186591Y-84424800D01*
X147186591Y-84424800D02*
X147091353Y-84472419D01*
X147091353Y-84472419D02*
X146900877Y-84472419D01*
X146900877Y-84472419D02*
X146805639Y-84424800D01*
X146805639Y-84424800D02*
X146758020Y-84377180D01*
X146758020Y-84377180D02*
X146710401Y-84281942D01*
X146710401Y-84281942D02*
X146710401Y-83472419D01*
X146377067Y-83472419D02*
X145805639Y-83472419D01*
X146091353Y-84472419D02*
X146091353Y-83472419D01*
D10*
X73222744Y-66600414D02*
X73222744Y-65850414D01*
X72329887Y-65814700D02*
X72972744Y-66778985D01*
X71937030Y-65850414D02*
X71794173Y-65850414D01*
X71794173Y-65850414D02*
X71722744Y-65886128D01*
X71722744Y-65886128D02*
X71651316Y-65957557D01*
X71651316Y-65957557D02*
X71615601Y-66100414D01*
X71615601Y-66100414D02*
X71615601Y-66350414D01*
X71615601Y-66350414D02*
X71651316Y-66493271D01*
X71651316Y-66493271D02*
X71722744Y-66564700D01*
X71722744Y-66564700D02*
X71794173Y-66600414D01*
X71794173Y-66600414D02*
X71937030Y-66600414D01*
X71937030Y-66600414D02*
X72008459Y-66564700D01*
X72008459Y-66564700D02*
X72079887Y-66493271D01*
X72079887Y-66493271D02*
X72115601Y-66350414D01*
X72115601Y-66350414D02*
X72115601Y-66100414D01*
X72115601Y-66100414D02*
X72079887Y-65957557D01*
X72079887Y-65957557D02*
X72008459Y-65886128D01*
X72008459Y-65886128D02*
X71937030Y-65850414D01*
X70950414Y-111220112D02*
X70950414Y-111362969D01*
X70950414Y-111362969D02*
X70986128Y-111434398D01*
X70986128Y-111434398D02*
X71057557Y-111505826D01*
X71057557Y-111505826D02*
X71200414Y-111541541D01*
X71200414Y-111541541D02*
X71450414Y-111541541D01*
X71450414Y-111541541D02*
X71593271Y-111505826D01*
X71593271Y-111505826D02*
X71664700Y-111434398D01*
X71664700Y-111434398D02*
X71700414Y-111362969D01*
X71700414Y-111362969D02*
X71700414Y-111220112D01*
X71700414Y-111220112D02*
X71664700Y-111148684D01*
X71664700Y-111148684D02*
X71593271Y-111077255D01*
X71593271Y-111077255D02*
X71450414Y-111041541D01*
X71450414Y-111041541D02*
X71200414Y-111041541D01*
X71200414Y-111041541D02*
X71057557Y-111077255D01*
X71057557Y-111077255D02*
X70986128Y-111148684D01*
X70986128Y-111148684D02*
X70950414Y-111220112D01*
X70950414Y-111862969D02*
X71557557Y-111862969D01*
X71557557Y-111862969D02*
X71628985Y-111898683D01*
X71628985Y-111898683D02*
X71664700Y-111934398D01*
X71664700Y-111934398D02*
X71700414Y-112005826D01*
X71700414Y-112005826D02*
X71700414Y-112148683D01*
X71700414Y-112148683D02*
X71664700Y-112220112D01*
X71664700Y-112220112D02*
X71628985Y-112255826D01*
X71628985Y-112255826D02*
X71557557Y-112291540D01*
X71557557Y-112291540D02*
X70950414Y-112291540D01*
X70950414Y-112541540D02*
X70950414Y-112970112D01*
X71700414Y-112755826D02*
X70950414Y-112755826D01*
D11*
X212996115Y-83872419D02*
X212996115Y-82872419D01*
X212519925Y-83872419D02*
X212519925Y-82872419D01*
X212519925Y-82872419D02*
X211948497Y-83872419D01*
X211948497Y-83872419D02*
X211948497Y-82872419D01*
X211472306Y-83872419D02*
X211472306Y-82872419D01*
X211472306Y-82872419D02*
X211091354Y-82872419D01*
X211091354Y-82872419D02*
X210996116Y-82920038D01*
X210996116Y-82920038D02*
X210948497Y-82967657D01*
X210948497Y-82967657D02*
X210900878Y-83062895D01*
X210900878Y-83062895D02*
X210900878Y-83205752D01*
X210900878Y-83205752D02*
X210948497Y-83300990D01*
X210948497Y-83300990D02*
X210996116Y-83348609D01*
X210996116Y-83348609D02*
X211091354Y-83396228D01*
X211091354Y-83396228D02*
X211472306Y-83396228D01*
X210472306Y-82872419D02*
X210472306Y-83681942D01*
X210472306Y-83681942D02*
X210424687Y-83777180D01*
X210424687Y-83777180D02*
X210377068Y-83824800D01*
X210377068Y-83824800D02*
X210281830Y-83872419D01*
X210281830Y-83872419D02*
X210091354Y-83872419D01*
X210091354Y-83872419D02*
X209996116Y-83824800D01*
X209996116Y-83824800D02*
X209948497Y-83777180D01*
X209948497Y-83777180D02*
X209900878Y-83681942D01*
X209900878Y-83681942D02*
X209900878Y-82872419D01*
X209567544Y-82872419D02*
X208996116Y-82872419D01*
X209281830Y-83872419D02*
X209281830Y-82872419D01*
D10*
X183714285Y-103854819D02*
X183714285Y-102854819D01*
X183714285Y-102854819D02*
X183476190Y-102854819D01*
X183476190Y-102854819D02*
X183333333Y-102902438D01*
X183333333Y-102902438D02*
X183238095Y-102997676D01*
X183238095Y-102997676D02*
X183190476Y-103092914D01*
X183190476Y-103092914D02*
X183142857Y-103283390D01*
X183142857Y-103283390D02*
X183142857Y-103426247D01*
X183142857Y-103426247D02*
X183190476Y-103616723D01*
X183190476Y-103616723D02*
X183238095Y-103711961D01*
X183238095Y-103711961D02*
X183333333Y-103807200D01*
X183333333Y-103807200D02*
X183476190Y-103854819D01*
X183476190Y-103854819D02*
X183714285Y-103854819D01*
X182285714Y-103188152D02*
X182285714Y-103854819D01*
X182523809Y-102807200D02*
X182761904Y-103521485D01*
X182761904Y-103521485D02*
X182142857Y-103521485D01*
X181857142Y-102854819D02*
X181190476Y-102854819D01*
X181190476Y-102854819D02*
X181619047Y-103854819D01*
X64709523Y-136354819D02*
X64709523Y-137069104D01*
X64709523Y-137069104D02*
X64757142Y-137211961D01*
X64757142Y-137211961D02*
X64852380Y-137307200D01*
X64852380Y-137307200D02*
X64995237Y-137354819D01*
X64995237Y-137354819D02*
X65090475Y-137354819D01*
X63709523Y-137354819D02*
X64280951Y-137354819D01*
X63995237Y-137354819D02*
X63995237Y-136354819D01*
X63995237Y-136354819D02*
X64090475Y-136497676D01*
X64090475Y-136497676D02*
X64185713Y-136592914D01*
X64185713Y-136592914D02*
X64280951Y-136640533D01*
X63328570Y-136450057D02*
X63280951Y-136402438D01*
X63280951Y-136402438D02*
X63185713Y-136354819D01*
X63185713Y-136354819D02*
X62947618Y-136354819D01*
X62947618Y-136354819D02*
X62852380Y-136402438D01*
X62852380Y-136402438D02*
X62804761Y-136450057D01*
X62804761Y-136450057D02*
X62757142Y-136545295D01*
X62757142Y-136545295D02*
X62757142Y-136640533D01*
X62757142Y-136640533D02*
X62804761Y-136783390D01*
X62804761Y-136783390D02*
X63376189Y-137354819D01*
X63376189Y-137354819D02*
X62757142Y-137354819D01*
X135209523Y-136404819D02*
X135209523Y-137119104D01*
X135209523Y-137119104D02*
X135257142Y-137261961D01*
X135257142Y-137261961D02*
X135352380Y-137357200D01*
X135352380Y-137357200D02*
X135495237Y-137404819D01*
X135495237Y-137404819D02*
X135590475Y-137404819D01*
X134209523Y-137404819D02*
X134780951Y-137404819D01*
X134495237Y-137404819D02*
X134495237Y-136404819D01*
X134495237Y-136404819D02*
X134590475Y-136547676D01*
X134590475Y-136547676D02*
X134685713Y-136642914D01*
X134685713Y-136642914D02*
X134780951Y-136690533D01*
X133638094Y-136833390D02*
X133733332Y-136785771D01*
X133733332Y-136785771D02*
X133780951Y-136738152D01*
X133780951Y-136738152D02*
X133828570Y-136642914D01*
X133828570Y-136642914D02*
X133828570Y-136595295D01*
X133828570Y-136595295D02*
X133780951Y-136500057D01*
X133780951Y-136500057D02*
X133733332Y-136452438D01*
X133733332Y-136452438D02*
X133638094Y-136404819D01*
X133638094Y-136404819D02*
X133447618Y-136404819D01*
X133447618Y-136404819D02*
X133352380Y-136452438D01*
X133352380Y-136452438D02*
X133304761Y-136500057D01*
X133304761Y-136500057D02*
X133257142Y-136595295D01*
X133257142Y-136595295D02*
X133257142Y-136642914D01*
X133257142Y-136642914D02*
X133304761Y-136738152D01*
X133304761Y-136738152D02*
X133352380Y-136785771D01*
X133352380Y-136785771D02*
X133447618Y-136833390D01*
X133447618Y-136833390D02*
X133638094Y-136833390D01*
X133638094Y-136833390D02*
X133733332Y-136881009D01*
X133733332Y-136881009D02*
X133780951Y-136928628D01*
X133780951Y-136928628D02*
X133828570Y-137023866D01*
X133828570Y-137023866D02*
X133828570Y-137214342D01*
X133828570Y-137214342D02*
X133780951Y-137309580D01*
X133780951Y-137309580D02*
X133733332Y-137357200D01*
X133733332Y-137357200D02*
X133638094Y-137404819D01*
X133638094Y-137404819D02*
X133447618Y-137404819D01*
X133447618Y-137404819D02*
X133352380Y-137357200D01*
X133352380Y-137357200D02*
X133304761Y-137309580D01*
X133304761Y-137309580D02*
X133257142Y-137214342D01*
X133257142Y-137214342D02*
X133257142Y-137023866D01*
X133257142Y-137023866D02*
X133304761Y-136928628D01*
X133304761Y-136928628D02*
X133352380Y-136881009D01*
X133352380Y-136881009D02*
X133447618Y-136833390D01*
X199254819Y-124840476D02*
X199969104Y-124840476D01*
X199969104Y-124840476D02*
X200111961Y-124792857D01*
X200111961Y-124792857D02*
X200207200Y-124697619D01*
X200207200Y-124697619D02*
X200254819Y-124554762D01*
X200254819Y-124554762D02*
X200254819Y-124459524D01*
X200254819Y-125840476D02*
X200254819Y-125269048D01*
X200254819Y-125554762D02*
X199254819Y-125554762D01*
X199254819Y-125554762D02*
X199397676Y-125459524D01*
X199397676Y-125459524D02*
X199492914Y-125364286D01*
X199492914Y-125364286D02*
X199540533Y-125269048D01*
X199254819Y-126697619D02*
X199254819Y-126507143D01*
X199254819Y-126507143D02*
X199302438Y-126411905D01*
X199302438Y-126411905D02*
X199350057Y-126364286D01*
X199350057Y-126364286D02*
X199492914Y-126269048D01*
X199492914Y-126269048D02*
X199683390Y-126221429D01*
X199683390Y-126221429D02*
X200064342Y-126221429D01*
X200064342Y-126221429D02*
X200159580Y-126269048D01*
X200159580Y-126269048D02*
X200207200Y-126316667D01*
X200207200Y-126316667D02*
X200254819Y-126411905D01*
X200254819Y-126411905D02*
X200254819Y-126602381D01*
X200254819Y-126602381D02*
X200207200Y-126697619D01*
X200207200Y-126697619D02*
X200159580Y-126745238D01*
X200159580Y-126745238D02*
X200064342Y-126792857D01*
X200064342Y-126792857D02*
X199826247Y-126792857D01*
X199826247Y-126792857D02*
X199731009Y-126745238D01*
X199731009Y-126745238D02*
X199683390Y-126697619D01*
X199683390Y-126697619D02*
X199635771Y-126602381D01*
X199635771Y-126602381D02*
X199635771Y-126411905D01*
X199635771Y-126411905D02*
X199683390Y-126316667D01*
X199683390Y-126316667D02*
X199731009Y-126269048D01*
X199731009Y-126269048D02*
X199826247Y-126221429D01*
X99214285Y-136804819D02*
X99214285Y-135804819D01*
X99214285Y-135804819D02*
X98976190Y-135804819D01*
X98976190Y-135804819D02*
X98833333Y-135852438D01*
X98833333Y-135852438D02*
X98738095Y-135947676D01*
X98738095Y-135947676D02*
X98690476Y-136042914D01*
X98690476Y-136042914D02*
X98642857Y-136233390D01*
X98642857Y-136233390D02*
X98642857Y-136376247D01*
X98642857Y-136376247D02*
X98690476Y-136566723D01*
X98690476Y-136566723D02*
X98738095Y-136661961D01*
X98738095Y-136661961D02*
X98833333Y-136757200D01*
X98833333Y-136757200D02*
X98976190Y-136804819D01*
X98976190Y-136804819D02*
X99214285Y-136804819D01*
X97785714Y-136138152D02*
X97785714Y-136804819D01*
X98023809Y-135757200D02*
X98261904Y-136471485D01*
X98261904Y-136471485D02*
X97642857Y-136471485D01*
X97357142Y-135804819D02*
X96738095Y-135804819D01*
X96738095Y-135804819D02*
X97071428Y-136185771D01*
X97071428Y-136185771D02*
X96928571Y-136185771D01*
X96928571Y-136185771D02*
X96833333Y-136233390D01*
X96833333Y-136233390D02*
X96785714Y-136281009D01*
X96785714Y-136281009D02*
X96738095Y-136376247D01*
X96738095Y-136376247D02*
X96738095Y-136614342D01*
X96738095Y-136614342D02*
X96785714Y-136709580D01*
X96785714Y-136709580D02*
X96833333Y-136757200D01*
X96833333Y-136757200D02*
X96928571Y-136804819D01*
X96928571Y-136804819D02*
X97214285Y-136804819D01*
X97214285Y-136804819D02*
X97309523Y-136757200D01*
X97309523Y-136757200D02*
X97357142Y-136709580D01*
X61489285Y-78554819D02*
X61489285Y-77554819D01*
X61489285Y-77554819D02*
X61251190Y-77554819D01*
X61251190Y-77554819D02*
X61108333Y-77602438D01*
X61108333Y-77602438D02*
X61013095Y-77697676D01*
X61013095Y-77697676D02*
X60965476Y-77792914D01*
X60965476Y-77792914D02*
X60917857Y-77983390D01*
X60917857Y-77983390D02*
X60917857Y-78126247D01*
X60917857Y-78126247D02*
X60965476Y-78316723D01*
X60965476Y-78316723D02*
X61013095Y-78411961D01*
X61013095Y-78411961D02*
X61108333Y-78507200D01*
X61108333Y-78507200D02*
X61251190Y-78554819D01*
X61251190Y-78554819D02*
X61489285Y-78554819D01*
X60584523Y-77554819D02*
X59965476Y-77554819D01*
X59965476Y-77554819D02*
X60298809Y-77935771D01*
X60298809Y-77935771D02*
X60155952Y-77935771D01*
X60155952Y-77935771D02*
X60060714Y-77983390D01*
X60060714Y-77983390D02*
X60013095Y-78031009D01*
X60013095Y-78031009D02*
X59965476Y-78126247D01*
X59965476Y-78126247D02*
X59965476Y-78364342D01*
X59965476Y-78364342D02*
X60013095Y-78459580D01*
X60013095Y-78459580D02*
X60060714Y-78507200D01*
X60060714Y-78507200D02*
X60155952Y-78554819D01*
X60155952Y-78554819D02*
X60441666Y-78554819D01*
X60441666Y-78554819D02*
X60536904Y-78507200D01*
X60536904Y-78507200D02*
X60584523Y-78459580D01*
X59632142Y-77554819D02*
X58965476Y-77554819D01*
X58965476Y-77554819D02*
X59394047Y-78554819D01*
X81233333Y-45654819D02*
X81233333Y-46369104D01*
X81233333Y-46369104D02*
X81280952Y-46511961D01*
X81280952Y-46511961D02*
X81376190Y-46607200D01*
X81376190Y-46607200D02*
X81519047Y-46654819D01*
X81519047Y-46654819D02*
X81614285Y-46654819D01*
X80614285Y-46083390D02*
X80709523Y-46035771D01*
X80709523Y-46035771D02*
X80757142Y-45988152D01*
X80757142Y-45988152D02*
X80804761Y-45892914D01*
X80804761Y-45892914D02*
X80804761Y-45845295D01*
X80804761Y-45845295D02*
X80757142Y-45750057D01*
X80757142Y-45750057D02*
X80709523Y-45702438D01*
X80709523Y-45702438D02*
X80614285Y-45654819D01*
X80614285Y-45654819D02*
X80423809Y-45654819D01*
X80423809Y-45654819D02*
X80328571Y-45702438D01*
X80328571Y-45702438D02*
X80280952Y-45750057D01*
X80280952Y-45750057D02*
X80233333Y-45845295D01*
X80233333Y-45845295D02*
X80233333Y-45892914D01*
X80233333Y-45892914D02*
X80280952Y-45988152D01*
X80280952Y-45988152D02*
X80328571Y-46035771D01*
X80328571Y-46035771D02*
X80423809Y-46083390D01*
X80423809Y-46083390D02*
X80614285Y-46083390D01*
X80614285Y-46083390D02*
X80709523Y-46131009D01*
X80709523Y-46131009D02*
X80757142Y-46178628D01*
X80757142Y-46178628D02*
X80804761Y-46273866D01*
X80804761Y-46273866D02*
X80804761Y-46464342D01*
X80804761Y-46464342D02*
X80757142Y-46559580D01*
X80757142Y-46559580D02*
X80709523Y-46607200D01*
X80709523Y-46607200D02*
X80614285Y-46654819D01*
X80614285Y-46654819D02*
X80423809Y-46654819D01*
X80423809Y-46654819D02*
X80328571Y-46607200D01*
X80328571Y-46607200D02*
X80280952Y-46559580D01*
X80280952Y-46559580D02*
X80233333Y-46464342D01*
X80233333Y-46464342D02*
X80233333Y-46273866D01*
X80233333Y-46273866D02*
X80280952Y-46178628D01*
X80280952Y-46178628D02*
X80328571Y-46131009D01*
X80328571Y-46131009D02*
X80423809Y-46083390D01*
X95554819Y-124385714D02*
X94554819Y-124385714D01*
X94554819Y-124385714D02*
X94554819Y-124623809D01*
X94554819Y-124623809D02*
X94602438Y-124766666D01*
X94602438Y-124766666D02*
X94697676Y-124861904D01*
X94697676Y-124861904D02*
X94792914Y-124909523D01*
X94792914Y-124909523D02*
X94983390Y-124957142D01*
X94983390Y-124957142D02*
X95126247Y-124957142D01*
X95126247Y-124957142D02*
X95316723Y-124909523D01*
X95316723Y-124909523D02*
X95411961Y-124861904D01*
X95411961Y-124861904D02*
X95507200Y-124766666D01*
X95507200Y-124766666D02*
X95554819Y-124623809D01*
X95554819Y-124623809D02*
X95554819Y-124385714D01*
X94888152Y-125814285D02*
X95554819Y-125814285D01*
X94507200Y-125576190D02*
X95221485Y-125338095D01*
X95221485Y-125338095D02*
X95221485Y-125957142D01*
X94554819Y-126766666D02*
X94554819Y-126576190D01*
X94554819Y-126576190D02*
X94602438Y-126480952D01*
X94602438Y-126480952D02*
X94650057Y-126433333D01*
X94650057Y-126433333D02*
X94792914Y-126338095D01*
X94792914Y-126338095D02*
X94983390Y-126290476D01*
X94983390Y-126290476D02*
X95364342Y-126290476D01*
X95364342Y-126290476D02*
X95459580Y-126338095D01*
X95459580Y-126338095D02*
X95507200Y-126385714D01*
X95507200Y-126385714D02*
X95554819Y-126480952D01*
X95554819Y-126480952D02*
X95554819Y-126671428D01*
X95554819Y-126671428D02*
X95507200Y-126766666D01*
X95507200Y-126766666D02*
X95459580Y-126814285D01*
X95459580Y-126814285D02*
X95364342Y-126861904D01*
X95364342Y-126861904D02*
X95126247Y-126861904D01*
X95126247Y-126861904D02*
X95031009Y-126814285D01*
X95031009Y-126814285D02*
X94983390Y-126766666D01*
X94983390Y-126766666D02*
X94935771Y-126671428D01*
X94935771Y-126671428D02*
X94935771Y-126480952D01*
X94935771Y-126480952D02*
X94983390Y-126385714D01*
X94983390Y-126385714D02*
X95031009Y-126338095D01*
X95031009Y-126338095D02*
X95126247Y-126290476D01*
X110600305Y-75308830D02*
X110600305Y-75376174D01*
X110600305Y-75376174D02*
X110667649Y-75510861D01*
X110667649Y-75510861D02*
X110734992Y-75578204D01*
X110734992Y-75578204D02*
X110869679Y-75645548D01*
X110869679Y-75645548D02*
X111004366Y-75645548D01*
X111004366Y-75645548D02*
X111105381Y-75611876D01*
X111105381Y-75611876D02*
X111273740Y-75510861D01*
X111273740Y-75510861D02*
X111374755Y-75409846D01*
X111374755Y-75409846D02*
X111475771Y-75241487D01*
X111475771Y-75241487D02*
X111509442Y-75140472D01*
X111509442Y-75140472D02*
X111509442Y-75005785D01*
X111509442Y-75005785D02*
X111442099Y-74871098D01*
X111442099Y-74871098D02*
X111374755Y-74803754D01*
X111374755Y-74803754D02*
X111240068Y-74736411D01*
X111240068Y-74736411D02*
X111172725Y-74736411D01*
X109859527Y-74702739D02*
X110263588Y-75106800D01*
X110061557Y-74904769D02*
X110768664Y-74197663D01*
X110768664Y-74197663D02*
X110734992Y-74366021D01*
X110734992Y-74366021D02*
X110734992Y-74500708D01*
X110734992Y-74500708D02*
X110768664Y-74601724D01*
X109926870Y-73355869D02*
X110263588Y-73692586D01*
X110263588Y-73692586D02*
X109960542Y-74062975D01*
X109960542Y-74062975D02*
X109960542Y-73995632D01*
X109960542Y-73995632D02*
X109926870Y-73894617D01*
X109926870Y-73894617D02*
X109758511Y-73726258D01*
X109758511Y-73726258D02*
X109657496Y-73692586D01*
X109657496Y-73692586D02*
X109590152Y-73692586D01*
X109590152Y-73692586D02*
X109489137Y-73726258D01*
X109489137Y-73726258D02*
X109320778Y-73894617D01*
X109320778Y-73894617D02*
X109287107Y-73995632D01*
X109287107Y-73995632D02*
X109287107Y-74062975D01*
X109287107Y-74062975D02*
X109320778Y-74163991D01*
X109320778Y-74163991D02*
X109489137Y-74332349D01*
X109489137Y-74332349D02*
X109590152Y-74366021D01*
X109590152Y-74366021D02*
X109657496Y-74366021D01*
X178954819Y-57457142D02*
X178478628Y-57123809D01*
X178954819Y-56885714D02*
X177954819Y-56885714D01*
X177954819Y-56885714D02*
X177954819Y-57266666D01*
X177954819Y-57266666D02*
X178002438Y-57361904D01*
X178002438Y-57361904D02*
X178050057Y-57409523D01*
X178050057Y-57409523D02*
X178145295Y-57457142D01*
X178145295Y-57457142D02*
X178288152Y-57457142D01*
X178288152Y-57457142D02*
X178383390Y-57409523D01*
X178383390Y-57409523D02*
X178431009Y-57361904D01*
X178431009Y-57361904D02*
X178478628Y-57266666D01*
X178478628Y-57266666D02*
X178478628Y-56885714D01*
X177954819Y-58361904D02*
X177954819Y-57885714D01*
X177954819Y-57885714D02*
X178431009Y-57838095D01*
X178431009Y-57838095D02*
X178383390Y-57885714D01*
X178383390Y-57885714D02*
X178335771Y-57980952D01*
X178335771Y-57980952D02*
X178335771Y-58219047D01*
X178335771Y-58219047D02*
X178383390Y-58314285D01*
X178383390Y-58314285D02*
X178431009Y-58361904D01*
X178431009Y-58361904D02*
X178526247Y-58409523D01*
X178526247Y-58409523D02*
X178764342Y-58409523D01*
X178764342Y-58409523D02*
X178859580Y-58361904D01*
X178859580Y-58361904D02*
X178907200Y-58314285D01*
X178907200Y-58314285D02*
X178954819Y-58219047D01*
X178954819Y-58219047D02*
X178954819Y-57980952D01*
X178954819Y-57980952D02*
X178907200Y-57885714D01*
X178907200Y-57885714D02*
X178859580Y-57838095D01*
X178288152Y-59266666D02*
X178954819Y-59266666D01*
X177907200Y-59028571D02*
X178621485Y-58790476D01*
X178621485Y-58790476D02*
X178621485Y-59409523D01*
X90009523Y-136354819D02*
X90009523Y-137069104D01*
X90009523Y-137069104D02*
X90057142Y-137211961D01*
X90057142Y-137211961D02*
X90152380Y-137307200D01*
X90152380Y-137307200D02*
X90295237Y-137354819D01*
X90295237Y-137354819D02*
X90390475Y-137354819D01*
X89009523Y-137354819D02*
X89580951Y-137354819D01*
X89295237Y-137354819D02*
X89295237Y-136354819D01*
X89295237Y-136354819D02*
X89390475Y-136497676D01*
X89390475Y-136497676D02*
X89485713Y-136592914D01*
X89485713Y-136592914D02*
X89580951Y-136640533D01*
X88676189Y-136354819D02*
X88057142Y-136354819D01*
X88057142Y-136354819D02*
X88390475Y-136735771D01*
X88390475Y-136735771D02*
X88247618Y-136735771D01*
X88247618Y-136735771D02*
X88152380Y-136783390D01*
X88152380Y-136783390D02*
X88104761Y-136831009D01*
X88104761Y-136831009D02*
X88057142Y-136926247D01*
X88057142Y-136926247D02*
X88057142Y-137164342D01*
X88057142Y-137164342D02*
X88104761Y-137259580D01*
X88104761Y-137259580D02*
X88152380Y-137307200D01*
X88152380Y-137307200D02*
X88247618Y-137354819D01*
X88247618Y-137354819D02*
X88533332Y-137354819D01*
X88533332Y-137354819D02*
X88628570Y-137307200D01*
X88628570Y-137307200D02*
X88676189Y-137259580D01*
X130254819Y-133885714D02*
X129254819Y-133885714D01*
X129254819Y-133885714D02*
X129254819Y-134123809D01*
X129254819Y-134123809D02*
X129302438Y-134266666D01*
X129302438Y-134266666D02*
X129397676Y-134361904D01*
X129397676Y-134361904D02*
X129492914Y-134409523D01*
X129492914Y-134409523D02*
X129683390Y-134457142D01*
X129683390Y-134457142D02*
X129826247Y-134457142D01*
X129826247Y-134457142D02*
X130016723Y-134409523D01*
X130016723Y-134409523D02*
X130111961Y-134361904D01*
X130111961Y-134361904D02*
X130207200Y-134266666D01*
X130207200Y-134266666D02*
X130254819Y-134123809D01*
X130254819Y-134123809D02*
X130254819Y-133885714D01*
X129588152Y-135314285D02*
X130254819Y-135314285D01*
X129207200Y-135076190D02*
X129921485Y-134838095D01*
X129921485Y-134838095D02*
X129921485Y-135457142D01*
X129350057Y-135790476D02*
X129302438Y-135838095D01*
X129302438Y-135838095D02*
X129254819Y-135933333D01*
X129254819Y-135933333D02*
X129254819Y-136171428D01*
X129254819Y-136171428D02*
X129302438Y-136266666D01*
X129302438Y-136266666D02*
X129350057Y-136314285D01*
X129350057Y-136314285D02*
X129445295Y-136361904D01*
X129445295Y-136361904D02*
X129540533Y-136361904D01*
X129540533Y-136361904D02*
X129683390Y-136314285D01*
X129683390Y-136314285D02*
X130254819Y-135742857D01*
X130254819Y-135742857D02*
X130254819Y-136361904D01*
X233555123Y-57059219D02*
X233221790Y-58059219D01*
X233221790Y-58059219D02*
X232888457Y-57059219D01*
X231983695Y-58059219D02*
X232317028Y-57583028D01*
X232555123Y-58059219D02*
X232555123Y-57059219D01*
X232555123Y-57059219D02*
X232174171Y-57059219D01*
X232174171Y-57059219D02*
X232078933Y-57106838D01*
X232078933Y-57106838D02*
X232031314Y-57154457D01*
X232031314Y-57154457D02*
X231983695Y-57249695D01*
X231983695Y-57249695D02*
X231983695Y-57392552D01*
X231983695Y-57392552D02*
X232031314Y-57487790D01*
X232031314Y-57487790D02*
X232078933Y-57535409D01*
X232078933Y-57535409D02*
X232174171Y-57583028D01*
X232174171Y-57583028D02*
X232555123Y-57583028D01*
X231031314Y-58059219D02*
X231602742Y-58059219D01*
X231317028Y-58059219D02*
X231317028Y-57059219D01*
X231317028Y-57059219D02*
X231412266Y-57202076D01*
X231412266Y-57202076D02*
X231507504Y-57297314D01*
X231507504Y-57297314D02*
X231602742Y-57344933D01*
X240092579Y-103417312D02*
X240092579Y-103607788D01*
X240092579Y-103607788D02*
X240140198Y-103703026D01*
X240140198Y-103703026D02*
X240235436Y-103798264D01*
X240235436Y-103798264D02*
X240425912Y-103845883D01*
X240425912Y-103845883D02*
X240759245Y-103845883D01*
X240759245Y-103845883D02*
X240949721Y-103798264D01*
X240949721Y-103798264D02*
X241044960Y-103703026D01*
X241044960Y-103703026D02*
X241092579Y-103607788D01*
X241092579Y-103607788D02*
X241092579Y-103417312D01*
X241092579Y-103417312D02*
X241044960Y-103322074D01*
X241044960Y-103322074D02*
X240949721Y-103226836D01*
X240949721Y-103226836D02*
X240759245Y-103179217D01*
X240759245Y-103179217D02*
X240425912Y-103179217D01*
X240425912Y-103179217D02*
X240235436Y-103226836D01*
X240235436Y-103226836D02*
X240140198Y-103322074D01*
X240140198Y-103322074D02*
X240092579Y-103417312D01*
X240092579Y-104274455D02*
X240902102Y-104274455D01*
X240902102Y-104274455D02*
X240997340Y-104322074D01*
X240997340Y-104322074D02*
X241044960Y-104369693D01*
X241044960Y-104369693D02*
X241092579Y-104464931D01*
X241092579Y-104464931D02*
X241092579Y-104655407D01*
X241092579Y-104655407D02*
X241044960Y-104750645D01*
X241044960Y-104750645D02*
X240997340Y-104798264D01*
X240997340Y-104798264D02*
X240902102Y-104845883D01*
X240902102Y-104845883D02*
X240092579Y-104845883D01*
X240092579Y-105179217D02*
X240092579Y-105750645D01*
X241092579Y-105464931D02*
X240092579Y-105464931D01*
X240711626Y-106083979D02*
X240711626Y-106845884D01*
X223485299Y-55511583D02*
X222485299Y-55511583D01*
X223485299Y-55987773D02*
X222485299Y-55987773D01*
X222485299Y-55987773D02*
X223485299Y-56559201D01*
X223485299Y-56559201D02*
X222485299Y-56559201D01*
X223104346Y-57035392D02*
X223104346Y-57797297D01*
X223485299Y-57416344D02*
X222723394Y-57416344D01*
X228459379Y-75345352D02*
X229459379Y-76012018D01*
X228459379Y-76012018D02*
X229459379Y-75345352D01*
X229459379Y-76869161D02*
X229459379Y-76392971D01*
X229459379Y-76392971D02*
X228459379Y-76392971D01*
X228459379Y-77631066D02*
X228459379Y-77440590D01*
X228459379Y-77440590D02*
X228506998Y-77345352D01*
X228506998Y-77345352D02*
X228554617Y-77297733D01*
X228554617Y-77297733D02*
X228697474Y-77202495D01*
X228697474Y-77202495D02*
X228887950Y-77154876D01*
X228887950Y-77154876D02*
X229268902Y-77154876D01*
X229268902Y-77154876D02*
X229364140Y-77202495D01*
X229364140Y-77202495D02*
X229411760Y-77250114D01*
X229411760Y-77250114D02*
X229459379Y-77345352D01*
X229459379Y-77345352D02*
X229459379Y-77535828D01*
X229459379Y-77535828D02*
X229411760Y-77631066D01*
X229411760Y-77631066D02*
X229364140Y-77678685D01*
X229364140Y-77678685D02*
X229268902Y-77726304D01*
X229268902Y-77726304D02*
X229030807Y-77726304D01*
X229030807Y-77726304D02*
X228935569Y-77678685D01*
X228935569Y-77678685D02*
X228887950Y-77631066D01*
X228887950Y-77631066D02*
X228840331Y-77535828D01*
X228840331Y-77535828D02*
X228840331Y-77345352D01*
X228840331Y-77345352D02*
X228887950Y-77250114D01*
X228887950Y-77250114D02*
X228935569Y-77202495D01*
X228935569Y-77202495D02*
X229030807Y-77154876D01*
X228459379Y-78345352D02*
X228459379Y-78440590D01*
X228459379Y-78440590D02*
X228506998Y-78535828D01*
X228506998Y-78535828D02*
X228554617Y-78583447D01*
X228554617Y-78583447D02*
X228649855Y-78631066D01*
X228649855Y-78631066D02*
X228840331Y-78678685D01*
X228840331Y-78678685D02*
X229078426Y-78678685D01*
X229078426Y-78678685D02*
X229268902Y-78631066D01*
X229268902Y-78631066D02*
X229364140Y-78583447D01*
X229364140Y-78583447D02*
X229411760Y-78535828D01*
X229411760Y-78535828D02*
X229459379Y-78440590D01*
X229459379Y-78440590D02*
X229459379Y-78345352D01*
X229459379Y-78345352D02*
X229411760Y-78250114D01*
X229411760Y-78250114D02*
X229364140Y-78202495D01*
X229364140Y-78202495D02*
X229268902Y-78154876D01*
X229268902Y-78154876D02*
X229078426Y-78107257D01*
X229078426Y-78107257D02*
X228840331Y-78107257D01*
X228840331Y-78107257D02*
X228649855Y-78154876D01*
X228649855Y-78154876D02*
X228554617Y-78202495D01*
X228554617Y-78202495D02*
X228506998Y-78250114D01*
X228506998Y-78250114D02*
X228459379Y-78345352D01*
X228459379Y-79297733D02*
X228459379Y-79392971D01*
X228459379Y-79392971D02*
X228506998Y-79488209D01*
X228506998Y-79488209D02*
X228554617Y-79535828D01*
X228554617Y-79535828D02*
X228649855Y-79583447D01*
X228649855Y-79583447D02*
X228840331Y-79631066D01*
X228840331Y-79631066D02*
X229078426Y-79631066D01*
X229078426Y-79631066D02*
X229268902Y-79583447D01*
X229268902Y-79583447D02*
X229364140Y-79535828D01*
X229364140Y-79535828D02*
X229411760Y-79488209D01*
X229411760Y-79488209D02*
X229459379Y-79392971D01*
X229459379Y-79392971D02*
X229459379Y-79297733D01*
X229459379Y-79297733D02*
X229411760Y-79202495D01*
X229411760Y-79202495D02*
X229364140Y-79154876D01*
X229364140Y-79154876D02*
X229268902Y-79107257D01*
X229268902Y-79107257D02*
X229078426Y-79059638D01*
X229078426Y-79059638D02*
X228840331Y-79059638D01*
X228840331Y-79059638D02*
X228649855Y-79107257D01*
X228649855Y-79107257D02*
X228554617Y-79154876D01*
X228554617Y-79154876D02*
X228506998Y-79202495D01*
X228506998Y-79202495D02*
X228459379Y-79297733D01*
X229459379Y-80107257D02*
X229459379Y-80297733D01*
X229459379Y-80297733D02*
X229411760Y-80392971D01*
X229411760Y-80392971D02*
X229364140Y-80440590D01*
X229364140Y-80440590D02*
X229221283Y-80535828D01*
X229221283Y-80535828D02*
X229030807Y-80583447D01*
X229030807Y-80583447D02*
X228649855Y-80583447D01*
X228649855Y-80583447D02*
X228554617Y-80535828D01*
X228554617Y-80535828D02*
X228506998Y-80488209D01*
X228506998Y-80488209D02*
X228459379Y-80392971D01*
X228459379Y-80392971D02*
X228459379Y-80202495D01*
X228459379Y-80202495D02*
X228506998Y-80107257D01*
X228506998Y-80107257D02*
X228554617Y-80059638D01*
X228554617Y-80059638D02*
X228649855Y-80012019D01*
X228649855Y-80012019D02*
X228887950Y-80012019D01*
X228887950Y-80012019D02*
X228983188Y-80059638D01*
X228983188Y-80059638D02*
X229030807Y-80107257D01*
X229030807Y-80107257D02*
X229078426Y-80202495D01*
X229078426Y-80202495D02*
X229078426Y-80392971D01*
X229078426Y-80392971D02*
X229030807Y-80488209D01*
X229030807Y-80488209D02*
X228983188Y-80535828D01*
X228983188Y-80535828D02*
X228887950Y-80583447D01*
X228935569Y-82107257D02*
X228983188Y-82250114D01*
X228983188Y-82250114D02*
X229030807Y-82297733D01*
X229030807Y-82297733D02*
X229126045Y-82345352D01*
X229126045Y-82345352D02*
X229268902Y-82345352D01*
X229268902Y-82345352D02*
X229364140Y-82297733D01*
X229364140Y-82297733D02*
X229411760Y-82250114D01*
X229411760Y-82250114D02*
X229459379Y-82154876D01*
X229459379Y-82154876D02*
X229459379Y-81773924D01*
X229459379Y-81773924D02*
X228459379Y-81773924D01*
X228459379Y-81773924D02*
X228459379Y-82107257D01*
X228459379Y-82107257D02*
X228506998Y-82202495D01*
X228506998Y-82202495D02*
X228554617Y-82250114D01*
X228554617Y-82250114D02*
X228649855Y-82297733D01*
X228649855Y-82297733D02*
X228745093Y-82297733D01*
X228745093Y-82297733D02*
X228840331Y-82250114D01*
X228840331Y-82250114D02*
X228887950Y-82202495D01*
X228887950Y-82202495D02*
X228935569Y-82107257D01*
X228935569Y-82107257D02*
X228935569Y-81773924D01*
X229459379Y-82916781D02*
X229411760Y-82821543D01*
X229411760Y-82821543D02*
X229364140Y-82773924D01*
X229364140Y-82773924D02*
X229268902Y-82726305D01*
X229268902Y-82726305D02*
X228983188Y-82726305D01*
X228983188Y-82726305D02*
X228887950Y-82773924D01*
X228887950Y-82773924D02*
X228840331Y-82821543D01*
X228840331Y-82821543D02*
X228792712Y-82916781D01*
X228792712Y-82916781D02*
X228792712Y-83059638D01*
X228792712Y-83059638D02*
X228840331Y-83154876D01*
X228840331Y-83154876D02*
X228887950Y-83202495D01*
X228887950Y-83202495D02*
X228983188Y-83250114D01*
X228983188Y-83250114D02*
X229268902Y-83250114D01*
X229268902Y-83250114D02*
X229364140Y-83202495D01*
X229364140Y-83202495D02*
X229411760Y-83154876D01*
X229411760Y-83154876D02*
X229459379Y-83059638D01*
X229459379Y-83059638D02*
X229459379Y-82916781D01*
X229459379Y-83821543D02*
X229411760Y-83726305D01*
X229411760Y-83726305D02*
X229364140Y-83678686D01*
X229364140Y-83678686D02*
X229268902Y-83631067D01*
X229268902Y-83631067D02*
X228983188Y-83631067D01*
X228983188Y-83631067D02*
X228887950Y-83678686D01*
X228887950Y-83678686D02*
X228840331Y-83726305D01*
X228840331Y-83726305D02*
X228792712Y-83821543D01*
X228792712Y-83821543D02*
X228792712Y-83964400D01*
X228792712Y-83964400D02*
X228840331Y-84059638D01*
X228840331Y-84059638D02*
X228887950Y-84107257D01*
X228887950Y-84107257D02*
X228983188Y-84154876D01*
X228983188Y-84154876D02*
X229268902Y-84154876D01*
X229268902Y-84154876D02*
X229364140Y-84107257D01*
X229364140Y-84107257D02*
X229411760Y-84059638D01*
X229411760Y-84059638D02*
X229459379Y-83964400D01*
X229459379Y-83964400D02*
X229459379Y-83821543D01*
X229411760Y-84535829D02*
X229459379Y-84631067D01*
X229459379Y-84631067D02*
X229459379Y-84821543D01*
X229459379Y-84821543D02*
X229411760Y-84916781D01*
X229411760Y-84916781D02*
X229316521Y-84964400D01*
X229316521Y-84964400D02*
X229268902Y-84964400D01*
X229268902Y-84964400D02*
X229173664Y-84916781D01*
X229173664Y-84916781D02*
X229126045Y-84821543D01*
X229126045Y-84821543D02*
X229126045Y-84678686D01*
X229126045Y-84678686D02*
X229078426Y-84583448D01*
X229078426Y-84583448D02*
X228983188Y-84535829D01*
X228983188Y-84535829D02*
X228935569Y-84535829D01*
X228935569Y-84535829D02*
X228840331Y-84583448D01*
X228840331Y-84583448D02*
X228792712Y-84678686D01*
X228792712Y-84678686D02*
X228792712Y-84821543D01*
X228792712Y-84821543D02*
X228840331Y-84916781D01*
X228792712Y-85250115D02*
X228792712Y-85631067D01*
X228459379Y-85392972D02*
X229316521Y-85392972D01*
X229316521Y-85392972D02*
X229411760Y-85440591D01*
X229411760Y-85440591D02*
X229459379Y-85535829D01*
X229459379Y-85535829D02*
X229459379Y-85631067D01*
X240930019Y-55923063D02*
X239930019Y-55923063D01*
X240930019Y-56399253D02*
X239930019Y-56399253D01*
X239930019Y-56399253D02*
X240930019Y-56970681D01*
X240930019Y-56970681D02*
X239930019Y-56970681D01*
X240549066Y-57446872D02*
X240549066Y-58208777D01*
X222404019Y-103168392D02*
X222404019Y-103358868D01*
X222404019Y-103358868D02*
X222451638Y-103454106D01*
X222451638Y-103454106D02*
X222546876Y-103549344D01*
X222546876Y-103549344D02*
X222737352Y-103596963D01*
X222737352Y-103596963D02*
X223070685Y-103596963D01*
X223070685Y-103596963D02*
X223261161Y-103549344D01*
X223261161Y-103549344D02*
X223356400Y-103454106D01*
X223356400Y-103454106D02*
X223404019Y-103358868D01*
X223404019Y-103358868D02*
X223404019Y-103168392D01*
X223404019Y-103168392D02*
X223356400Y-103073154D01*
X223356400Y-103073154D02*
X223261161Y-102977916D01*
X223261161Y-102977916D02*
X223070685Y-102930297D01*
X223070685Y-102930297D02*
X222737352Y-102930297D01*
X222737352Y-102930297D02*
X222546876Y-102977916D01*
X222546876Y-102977916D02*
X222451638Y-103073154D01*
X222451638Y-103073154D02*
X222404019Y-103168392D01*
X222404019Y-104025535D02*
X223213542Y-104025535D01*
X223213542Y-104025535D02*
X223308780Y-104073154D01*
X223308780Y-104073154D02*
X223356400Y-104120773D01*
X223356400Y-104120773D02*
X223404019Y-104216011D01*
X223404019Y-104216011D02*
X223404019Y-104406487D01*
X223404019Y-104406487D02*
X223356400Y-104501725D01*
X223356400Y-104501725D02*
X223308780Y-104549344D01*
X223308780Y-104549344D02*
X223213542Y-104596963D01*
X223213542Y-104596963D02*
X222404019Y-104596963D01*
X222404019Y-104930297D02*
X222404019Y-105501725D01*
X223404019Y-105216011D02*
X222404019Y-105216011D01*
X223023066Y-105835059D02*
X223023066Y-106596964D01*
X223404019Y-106216011D02*
X222642114Y-106216011D01*
X191954819Y-57357142D02*
X191478628Y-57023809D01*
X191954819Y-56785714D02*
X190954819Y-56785714D01*
X190954819Y-56785714D02*
X190954819Y-57166666D01*
X190954819Y-57166666D02*
X191002438Y-57261904D01*
X191002438Y-57261904D02*
X191050057Y-57309523D01*
X191050057Y-57309523D02*
X191145295Y-57357142D01*
X191145295Y-57357142D02*
X191288152Y-57357142D01*
X191288152Y-57357142D02*
X191383390Y-57309523D01*
X191383390Y-57309523D02*
X191431009Y-57261904D01*
X191431009Y-57261904D02*
X191478628Y-57166666D01*
X191478628Y-57166666D02*
X191478628Y-56785714D01*
X190954819Y-58261904D02*
X190954819Y-57785714D01*
X190954819Y-57785714D02*
X191431009Y-57738095D01*
X191431009Y-57738095D02*
X191383390Y-57785714D01*
X191383390Y-57785714D02*
X191335771Y-57880952D01*
X191335771Y-57880952D02*
X191335771Y-58119047D01*
X191335771Y-58119047D02*
X191383390Y-58214285D01*
X191383390Y-58214285D02*
X191431009Y-58261904D01*
X191431009Y-58261904D02*
X191526247Y-58309523D01*
X191526247Y-58309523D02*
X191764342Y-58309523D01*
X191764342Y-58309523D02*
X191859580Y-58261904D01*
X191859580Y-58261904D02*
X191907200Y-58214285D01*
X191907200Y-58214285D02*
X191954819Y-58119047D01*
X191954819Y-58119047D02*
X191954819Y-57880952D01*
X191954819Y-57880952D02*
X191907200Y-57785714D01*
X191907200Y-57785714D02*
X191859580Y-57738095D01*
X191050057Y-58690476D02*
X191002438Y-58738095D01*
X191002438Y-58738095D02*
X190954819Y-58833333D01*
X190954819Y-58833333D02*
X190954819Y-59071428D01*
X190954819Y-59071428D02*
X191002438Y-59166666D01*
X191002438Y-59166666D02*
X191050057Y-59214285D01*
X191050057Y-59214285D02*
X191145295Y-59261904D01*
X191145295Y-59261904D02*
X191240533Y-59261904D01*
X191240533Y-59261904D02*
X191383390Y-59214285D01*
X191383390Y-59214285D02*
X191954819Y-58642857D01*
X191954819Y-58642857D02*
X191954819Y-59261904D01*
X121808830Y-82699693D02*
X121876174Y-82699693D01*
X121876174Y-82699693D02*
X122010861Y-82632349D01*
X122010861Y-82632349D02*
X122078204Y-82565006D01*
X122078204Y-82565006D02*
X122145548Y-82430319D01*
X122145548Y-82430319D02*
X122145548Y-82295632D01*
X122145548Y-82295632D02*
X122111876Y-82194617D01*
X122111876Y-82194617D02*
X122010861Y-82026258D01*
X122010861Y-82026258D02*
X121909846Y-81925243D01*
X121909846Y-81925243D02*
X121741487Y-81824227D01*
X121741487Y-81824227D02*
X121640472Y-81790556D01*
X121640472Y-81790556D02*
X121505785Y-81790556D01*
X121505785Y-81790556D02*
X121371098Y-81857899D01*
X121371098Y-81857899D02*
X121303754Y-81925243D01*
X121303754Y-81925243D02*
X121236411Y-82059930D01*
X121236411Y-82059930D02*
X121236411Y-82127273D01*
X121202739Y-83440471D02*
X121606800Y-83036410D01*
X121404769Y-83238441D02*
X120697663Y-82531334D01*
X120697663Y-82531334D02*
X120866021Y-82565006D01*
X120866021Y-82565006D02*
X121000708Y-82565006D01*
X121000708Y-82565006D02*
X121101724Y-82531334D01*
X119889540Y-83339456D02*
X120024227Y-83204769D01*
X120024227Y-83204769D02*
X120125243Y-83171098D01*
X120125243Y-83171098D02*
X120192586Y-83171098D01*
X120192586Y-83171098D02*
X120360945Y-83204769D01*
X120360945Y-83204769D02*
X120529304Y-83305785D01*
X120529304Y-83305785D02*
X120798678Y-83575159D01*
X120798678Y-83575159D02*
X120832349Y-83676174D01*
X120832349Y-83676174D02*
X120832349Y-83743517D01*
X120832349Y-83743517D02*
X120798678Y-83844533D01*
X120798678Y-83844533D02*
X120663991Y-83979220D01*
X120663991Y-83979220D02*
X120562975Y-84012891D01*
X120562975Y-84012891D02*
X120495632Y-84012891D01*
X120495632Y-84012891D02*
X120394617Y-83979220D01*
X120394617Y-83979220D02*
X120226258Y-83810861D01*
X120226258Y-83810861D02*
X120192586Y-83709846D01*
X120192586Y-83709846D02*
X120192586Y-83642502D01*
X120192586Y-83642502D02*
X120226258Y-83541487D01*
X120226258Y-83541487D02*
X120360945Y-83406800D01*
X120360945Y-83406800D02*
X120461960Y-83373128D01*
X120461960Y-83373128D02*
X120529304Y-83373128D01*
X120529304Y-83373128D02*
X120630319Y-83406800D01*
X191289286Y-132854817D02*
X191289286Y-131854817D01*
X191289286Y-131854817D02*
X191051191Y-131854817D01*
X191051191Y-131854817D02*
X190908334Y-131902436D01*
X190908334Y-131902436D02*
X190813096Y-131997674D01*
X190813096Y-131997674D02*
X190765477Y-132092912D01*
X190765477Y-132092912D02*
X190717858Y-132283388D01*
X190717858Y-132283388D02*
X190717858Y-132426245D01*
X190717858Y-132426245D02*
X190765477Y-132616721D01*
X190765477Y-132616721D02*
X190813096Y-132711959D01*
X190813096Y-132711959D02*
X190908334Y-132807198D01*
X190908334Y-132807198D02*
X191051191Y-132854817D01*
X191051191Y-132854817D02*
X191289286Y-132854817D01*
X190384524Y-131854817D02*
X189765477Y-131854817D01*
X189765477Y-131854817D02*
X190098810Y-132235769D01*
X190098810Y-132235769D02*
X189955953Y-132235769D01*
X189955953Y-132235769D02*
X189860715Y-132283388D01*
X189860715Y-132283388D02*
X189813096Y-132331007D01*
X189813096Y-132331007D02*
X189765477Y-132426245D01*
X189765477Y-132426245D02*
X189765477Y-132664340D01*
X189765477Y-132664340D02*
X189813096Y-132759578D01*
X189813096Y-132759578D02*
X189860715Y-132807198D01*
X189860715Y-132807198D02*
X189955953Y-132854817D01*
X189955953Y-132854817D02*
X190241667Y-132854817D01*
X190241667Y-132854817D02*
X190336905Y-132807198D01*
X190336905Y-132807198D02*
X190384524Y-132759578D01*
X188908334Y-132188150D02*
X188908334Y-132854817D01*
X189146429Y-131807198D02*
X189384524Y-132521483D01*
X189384524Y-132521483D02*
X188765477Y-132521483D01*
X60414285Y-75254819D02*
X60414285Y-74254819D01*
X60414285Y-74254819D02*
X60176190Y-74254819D01*
X60176190Y-74254819D02*
X60033333Y-74302438D01*
X60033333Y-74302438D02*
X59938095Y-74397676D01*
X59938095Y-74397676D02*
X59890476Y-74492914D01*
X59890476Y-74492914D02*
X59842857Y-74683390D01*
X59842857Y-74683390D02*
X59842857Y-74826247D01*
X59842857Y-74826247D02*
X59890476Y-75016723D01*
X59890476Y-75016723D02*
X59938095Y-75111961D01*
X59938095Y-75111961D02*
X60033333Y-75207200D01*
X60033333Y-75207200D02*
X60176190Y-75254819D01*
X60176190Y-75254819D02*
X60414285Y-75254819D01*
X59509523Y-74254819D02*
X58890476Y-74254819D01*
X58890476Y-74254819D02*
X59223809Y-74635771D01*
X59223809Y-74635771D02*
X59080952Y-74635771D01*
X59080952Y-74635771D02*
X58985714Y-74683390D01*
X58985714Y-74683390D02*
X58938095Y-74731009D01*
X58938095Y-74731009D02*
X58890476Y-74826247D01*
X58890476Y-74826247D02*
X58890476Y-75064342D01*
X58890476Y-75064342D02*
X58938095Y-75159580D01*
X58938095Y-75159580D02*
X58985714Y-75207200D01*
X58985714Y-75207200D02*
X59080952Y-75254819D01*
X59080952Y-75254819D02*
X59366666Y-75254819D01*
X59366666Y-75254819D02*
X59461904Y-75207200D01*
X59461904Y-75207200D02*
X59509523Y-75159580D01*
X58319047Y-74683390D02*
X58414285Y-74635771D01*
X58414285Y-74635771D02*
X58461904Y-74588152D01*
X58461904Y-74588152D02*
X58509523Y-74492914D01*
X58509523Y-74492914D02*
X58509523Y-74445295D01*
X58509523Y-74445295D02*
X58461904Y-74350057D01*
X58461904Y-74350057D02*
X58414285Y-74302438D01*
X58414285Y-74302438D02*
X58319047Y-74254819D01*
X58319047Y-74254819D02*
X58128571Y-74254819D01*
X58128571Y-74254819D02*
X58033333Y-74302438D01*
X58033333Y-74302438D02*
X57985714Y-74350057D01*
X57985714Y-74350057D02*
X57938095Y-74445295D01*
X57938095Y-74445295D02*
X57938095Y-74492914D01*
X57938095Y-74492914D02*
X57985714Y-74588152D01*
X57985714Y-74588152D02*
X58033333Y-74635771D01*
X58033333Y-74635771D02*
X58128571Y-74683390D01*
X58128571Y-74683390D02*
X58319047Y-74683390D01*
X58319047Y-74683390D02*
X58414285Y-74731009D01*
X58414285Y-74731009D02*
X58461904Y-74778628D01*
X58461904Y-74778628D02*
X58509523Y-74873866D01*
X58509523Y-74873866D02*
X58509523Y-75064342D01*
X58509523Y-75064342D02*
X58461904Y-75159580D01*
X58461904Y-75159580D02*
X58414285Y-75207200D01*
X58414285Y-75207200D02*
X58319047Y-75254819D01*
X58319047Y-75254819D02*
X58128571Y-75254819D01*
X58128571Y-75254819D02*
X58033333Y-75207200D01*
X58033333Y-75207200D02*
X57985714Y-75159580D01*
X57985714Y-75159580D02*
X57938095Y-75064342D01*
X57938095Y-75064342D02*
X57938095Y-74873866D01*
X57938095Y-74873866D02*
X57985714Y-74778628D01*
X57985714Y-74778628D02*
X58033333Y-74731009D01*
X58033333Y-74731009D02*
X58128571Y-74683390D01*
X200414285Y-132854819D02*
X200414285Y-131854819D01*
X200414285Y-131854819D02*
X200176190Y-131854819D01*
X200176190Y-131854819D02*
X200033333Y-131902438D01*
X200033333Y-131902438D02*
X199938095Y-131997676D01*
X199938095Y-131997676D02*
X199890476Y-132092914D01*
X199890476Y-132092914D02*
X199842857Y-132283390D01*
X199842857Y-132283390D02*
X199842857Y-132426247D01*
X199842857Y-132426247D02*
X199890476Y-132616723D01*
X199890476Y-132616723D02*
X199938095Y-132711961D01*
X199938095Y-132711961D02*
X200033333Y-132807200D01*
X200033333Y-132807200D02*
X200176190Y-132854819D01*
X200176190Y-132854819D02*
X200414285Y-132854819D01*
X199509523Y-131854819D02*
X198890476Y-131854819D01*
X198890476Y-131854819D02*
X199223809Y-132235771D01*
X199223809Y-132235771D02*
X199080952Y-132235771D01*
X199080952Y-132235771D02*
X198985714Y-132283390D01*
X198985714Y-132283390D02*
X198938095Y-132331009D01*
X198938095Y-132331009D02*
X198890476Y-132426247D01*
X198890476Y-132426247D02*
X198890476Y-132664342D01*
X198890476Y-132664342D02*
X198938095Y-132759580D01*
X198938095Y-132759580D02*
X198985714Y-132807200D01*
X198985714Y-132807200D02*
X199080952Y-132854819D01*
X199080952Y-132854819D02*
X199366666Y-132854819D01*
X199366666Y-132854819D02*
X199461904Y-132807200D01*
X199461904Y-132807200D02*
X199509523Y-132759580D01*
X197985714Y-131854819D02*
X198461904Y-131854819D01*
X198461904Y-131854819D02*
X198509523Y-132331009D01*
X198509523Y-132331009D02*
X198461904Y-132283390D01*
X198461904Y-132283390D02*
X198366666Y-132235771D01*
X198366666Y-132235771D02*
X198128571Y-132235771D01*
X198128571Y-132235771D02*
X198033333Y-132283390D01*
X198033333Y-132283390D02*
X197985714Y-132331009D01*
X197985714Y-132331009D02*
X197938095Y-132426247D01*
X197938095Y-132426247D02*
X197938095Y-132664342D01*
X197938095Y-132664342D02*
X197985714Y-132759580D01*
X197985714Y-132759580D02*
X198033333Y-132807200D01*
X198033333Y-132807200D02*
X198128571Y-132854819D01*
X198128571Y-132854819D02*
X198366666Y-132854819D01*
X198366666Y-132854819D02*
X198461904Y-132807200D01*
X198461904Y-132807200D02*
X198509523Y-132759580D01*
X73109523Y-136354819D02*
X73109523Y-137069104D01*
X73109523Y-137069104D02*
X73157142Y-137211961D01*
X73157142Y-137211961D02*
X73252380Y-137307200D01*
X73252380Y-137307200D02*
X73395237Y-137354819D01*
X73395237Y-137354819D02*
X73490475Y-137354819D01*
X72109523Y-137354819D02*
X72680951Y-137354819D01*
X72395237Y-137354819D02*
X72395237Y-136354819D01*
X72395237Y-136354819D02*
X72490475Y-136497676D01*
X72490475Y-136497676D02*
X72585713Y-136592914D01*
X72585713Y-136592914D02*
X72680951Y-136640533D01*
X71157142Y-137354819D02*
X71728570Y-137354819D01*
X71442856Y-137354819D02*
X71442856Y-136354819D01*
X71442856Y-136354819D02*
X71538094Y-136497676D01*
X71538094Y-136497676D02*
X71633332Y-136592914D01*
X71633332Y-136592914D02*
X71728570Y-136640533D01*
X117814285Y-136154819D02*
X117814285Y-135154819D01*
X117814285Y-135154819D02*
X117576190Y-135154819D01*
X117576190Y-135154819D02*
X117433333Y-135202438D01*
X117433333Y-135202438D02*
X117338095Y-135297676D01*
X117338095Y-135297676D02*
X117290476Y-135392914D01*
X117290476Y-135392914D02*
X117242857Y-135583390D01*
X117242857Y-135583390D02*
X117242857Y-135726247D01*
X117242857Y-135726247D02*
X117290476Y-135916723D01*
X117290476Y-135916723D02*
X117338095Y-136011961D01*
X117338095Y-136011961D02*
X117433333Y-136107200D01*
X117433333Y-136107200D02*
X117576190Y-136154819D01*
X117576190Y-136154819D02*
X117814285Y-136154819D01*
X116909523Y-135154819D02*
X116290476Y-135154819D01*
X116290476Y-135154819D02*
X116623809Y-135535771D01*
X116623809Y-135535771D02*
X116480952Y-135535771D01*
X116480952Y-135535771D02*
X116385714Y-135583390D01*
X116385714Y-135583390D02*
X116338095Y-135631009D01*
X116338095Y-135631009D02*
X116290476Y-135726247D01*
X116290476Y-135726247D02*
X116290476Y-135964342D01*
X116290476Y-135964342D02*
X116338095Y-136059580D01*
X116338095Y-136059580D02*
X116385714Y-136107200D01*
X116385714Y-136107200D02*
X116480952Y-136154819D01*
X116480952Y-136154819D02*
X116766666Y-136154819D01*
X116766666Y-136154819D02*
X116861904Y-136107200D01*
X116861904Y-136107200D02*
X116909523Y-136059580D01*
X115814285Y-136154819D02*
X115623809Y-136154819D01*
X115623809Y-136154819D02*
X115528571Y-136107200D01*
X115528571Y-136107200D02*
X115480952Y-136059580D01*
X115480952Y-136059580D02*
X115385714Y-135916723D01*
X115385714Y-135916723D02*
X115338095Y-135726247D01*
X115338095Y-135726247D02*
X115338095Y-135345295D01*
X115338095Y-135345295D02*
X115385714Y-135250057D01*
X115385714Y-135250057D02*
X115433333Y-135202438D01*
X115433333Y-135202438D02*
X115528571Y-135154819D01*
X115528571Y-135154819D02*
X115719047Y-135154819D01*
X115719047Y-135154819D02*
X115814285Y-135202438D01*
X115814285Y-135202438D02*
X115861904Y-135250057D01*
X115861904Y-135250057D02*
X115909523Y-135345295D01*
X115909523Y-135345295D02*
X115909523Y-135583390D01*
X115909523Y-135583390D02*
X115861904Y-135678628D01*
X115861904Y-135678628D02*
X115814285Y-135726247D01*
X115814285Y-135726247D02*
X115719047Y-135773866D01*
X115719047Y-135773866D02*
X115528571Y-135773866D01*
X115528571Y-135773866D02*
X115433333Y-135726247D01*
X115433333Y-135726247D02*
X115385714Y-135678628D01*
X115385714Y-135678628D02*
X115338095Y-135583390D01*
X105472562Y-133511953D02*
X105472562Y-133579297D01*
X105472562Y-133579297D02*
X105539906Y-133713984D01*
X105539906Y-133713984D02*
X105607249Y-133781327D01*
X105607249Y-133781327D02*
X105741936Y-133848671D01*
X105741936Y-133848671D02*
X105876623Y-133848671D01*
X105876623Y-133848671D02*
X105977638Y-133814999D01*
X105977638Y-133814999D02*
X106145997Y-133713984D01*
X106145997Y-133713984D02*
X106247012Y-133612969D01*
X106247012Y-133612969D02*
X106348028Y-133444610D01*
X106348028Y-133444610D02*
X106381699Y-133343595D01*
X106381699Y-133343595D02*
X106381699Y-133208908D01*
X106381699Y-133208908D02*
X106314356Y-133074221D01*
X106314356Y-133074221D02*
X106247012Y-133006877D01*
X106247012Y-133006877D02*
X106112325Y-132939534D01*
X106112325Y-132939534D02*
X106044982Y-132939534D01*
X105876623Y-132636488D02*
X105438890Y-132198755D01*
X105438890Y-132198755D02*
X105405219Y-132703831D01*
X105405219Y-132703831D02*
X105304203Y-132602816D01*
X105304203Y-132602816D02*
X105203188Y-132569144D01*
X105203188Y-132569144D02*
X105135845Y-132569144D01*
X105135845Y-132569144D02*
X105034829Y-132602816D01*
X105034829Y-132602816D02*
X104866471Y-132771175D01*
X104866471Y-132771175D02*
X104832799Y-132872190D01*
X104832799Y-132872190D02*
X104832799Y-132939534D01*
X104832799Y-132939534D02*
X104866471Y-133040549D01*
X104866471Y-133040549D02*
X105068501Y-133242579D01*
X105068501Y-133242579D02*
X105169516Y-133276251D01*
X105169516Y-133276251D02*
X105236860Y-133276251D01*
X105203188Y-131963053D02*
X104765455Y-131525320D01*
X104765455Y-131525320D02*
X104731783Y-132030396D01*
X104731783Y-132030396D02*
X104630768Y-131929381D01*
X104630768Y-131929381D02*
X104529753Y-131895709D01*
X104529753Y-131895709D02*
X104462409Y-131895709D01*
X104462409Y-131895709D02*
X104361394Y-131929381D01*
X104361394Y-131929381D02*
X104193035Y-132097740D01*
X104193035Y-132097740D02*
X104159364Y-132198755D01*
X104159364Y-132198755D02*
X104159364Y-132266098D01*
X104159364Y-132266098D02*
X104193035Y-132367114D01*
X104193035Y-132367114D02*
X104395066Y-132569144D01*
X104395066Y-132569144D02*
X104496081Y-132602816D01*
X104496081Y-132602816D02*
X104563425Y-132602816D01*
X88514285Y-46654819D02*
X88514285Y-45654819D01*
X88514285Y-45654819D02*
X88276190Y-45654819D01*
X88276190Y-45654819D02*
X88133333Y-45702438D01*
X88133333Y-45702438D02*
X88038095Y-45797676D01*
X88038095Y-45797676D02*
X87990476Y-45892914D01*
X87990476Y-45892914D02*
X87942857Y-46083390D01*
X87942857Y-46083390D02*
X87942857Y-46226247D01*
X87942857Y-46226247D02*
X87990476Y-46416723D01*
X87990476Y-46416723D02*
X88038095Y-46511961D01*
X88038095Y-46511961D02*
X88133333Y-46607200D01*
X88133333Y-46607200D02*
X88276190Y-46654819D01*
X88276190Y-46654819D02*
X88514285Y-46654819D01*
X87609523Y-45654819D02*
X86990476Y-45654819D01*
X86990476Y-45654819D02*
X87323809Y-46035771D01*
X87323809Y-46035771D02*
X87180952Y-46035771D01*
X87180952Y-46035771D02*
X87085714Y-46083390D01*
X87085714Y-46083390D02*
X87038095Y-46131009D01*
X87038095Y-46131009D02*
X86990476Y-46226247D01*
X86990476Y-46226247D02*
X86990476Y-46464342D01*
X86990476Y-46464342D02*
X87038095Y-46559580D01*
X87038095Y-46559580D02*
X87085714Y-46607200D01*
X87085714Y-46607200D02*
X87180952Y-46654819D01*
X87180952Y-46654819D02*
X87466666Y-46654819D01*
X87466666Y-46654819D02*
X87561904Y-46607200D01*
X87561904Y-46607200D02*
X87609523Y-46559580D01*
X86133333Y-45654819D02*
X86323809Y-45654819D01*
X86323809Y-45654819D02*
X86419047Y-45702438D01*
X86419047Y-45702438D02*
X86466666Y-45750057D01*
X86466666Y-45750057D02*
X86561904Y-45892914D01*
X86561904Y-45892914D02*
X86609523Y-46083390D01*
X86609523Y-46083390D02*
X86609523Y-46464342D01*
X86609523Y-46464342D02*
X86561904Y-46559580D01*
X86561904Y-46559580D02*
X86514285Y-46607200D01*
X86514285Y-46607200D02*
X86419047Y-46654819D01*
X86419047Y-46654819D02*
X86228571Y-46654819D01*
X86228571Y-46654819D02*
X86133333Y-46607200D01*
X86133333Y-46607200D02*
X86085714Y-46559580D01*
X86085714Y-46559580D02*
X86038095Y-46464342D01*
X86038095Y-46464342D02*
X86038095Y-46226247D01*
X86038095Y-46226247D02*
X86085714Y-46131009D01*
X86085714Y-46131009D02*
X86133333Y-46083390D01*
X86133333Y-46083390D02*
X86228571Y-46035771D01*
X86228571Y-46035771D02*
X86419047Y-46035771D01*
X86419047Y-46035771D02*
X86514285Y-46083390D01*
X86514285Y-46083390D02*
X86561904Y-46131009D01*
X86561904Y-46131009D02*
X86609523Y-46226247D01*
X117989285Y-134354819D02*
X117989285Y-133354819D01*
X117989285Y-133354819D02*
X117751190Y-133354819D01*
X117751190Y-133354819D02*
X117608333Y-133402438D01*
X117608333Y-133402438D02*
X117513095Y-133497676D01*
X117513095Y-133497676D02*
X117465476Y-133592914D01*
X117465476Y-133592914D02*
X117417857Y-133783390D01*
X117417857Y-133783390D02*
X117417857Y-133926247D01*
X117417857Y-133926247D02*
X117465476Y-134116723D01*
X117465476Y-134116723D02*
X117513095Y-134211961D01*
X117513095Y-134211961D02*
X117608333Y-134307200D01*
X117608333Y-134307200D02*
X117751190Y-134354819D01*
X117751190Y-134354819D02*
X117989285Y-134354819D01*
X116560714Y-133688152D02*
X116560714Y-134354819D01*
X116798809Y-133307200D02*
X117036904Y-134021485D01*
X117036904Y-134021485D02*
X116417857Y-134021485D01*
X115513095Y-134354819D02*
X116084523Y-134354819D01*
X115798809Y-134354819D02*
X115798809Y-133354819D01*
X115798809Y-133354819D02*
X115894047Y-133497676D01*
X115894047Y-133497676D02*
X115989285Y-133592914D01*
X115989285Y-133592914D02*
X116084523Y-133640533D01*
X128608830Y-89199693D02*
X128676174Y-89199693D01*
X128676174Y-89199693D02*
X128810861Y-89132349D01*
X128810861Y-89132349D02*
X128878204Y-89065006D01*
X128878204Y-89065006D02*
X128945548Y-88930319D01*
X128945548Y-88930319D02*
X128945548Y-88795632D01*
X128945548Y-88795632D02*
X128911876Y-88694617D01*
X128911876Y-88694617D02*
X128810861Y-88526258D01*
X128810861Y-88526258D02*
X128709846Y-88425243D01*
X128709846Y-88425243D02*
X128541487Y-88324227D01*
X128541487Y-88324227D02*
X128440472Y-88290556D01*
X128440472Y-88290556D02*
X128305785Y-88290556D01*
X128305785Y-88290556D02*
X128171098Y-88357899D01*
X128171098Y-88357899D02*
X128103754Y-88425243D01*
X128103754Y-88425243D02*
X128036411Y-88559930D01*
X128036411Y-88559930D02*
X128036411Y-88627273D01*
X128002739Y-89940471D02*
X128406800Y-89536410D01*
X128204769Y-89738441D02*
X127497663Y-89031334D01*
X127497663Y-89031334D02*
X127666021Y-89065006D01*
X127666021Y-89065006D02*
X127800708Y-89065006D01*
X127800708Y-89065006D02*
X127901724Y-89031334D01*
X127059930Y-89469067D02*
X126588525Y-89940472D01*
X126588525Y-89940472D02*
X127598678Y-90344533D01*
X117814285Y-132554819D02*
X117814285Y-131554819D01*
X117814285Y-131554819D02*
X117576190Y-131554819D01*
X117576190Y-131554819D02*
X117433333Y-131602438D01*
X117433333Y-131602438D02*
X117338095Y-131697676D01*
X117338095Y-131697676D02*
X117290476Y-131792914D01*
X117290476Y-131792914D02*
X117242857Y-131983390D01*
X117242857Y-131983390D02*
X117242857Y-132126247D01*
X117242857Y-132126247D02*
X117290476Y-132316723D01*
X117290476Y-132316723D02*
X117338095Y-132411961D01*
X117338095Y-132411961D02*
X117433333Y-132507200D01*
X117433333Y-132507200D02*
X117576190Y-132554819D01*
X117576190Y-132554819D02*
X117814285Y-132554819D01*
X116385714Y-131888152D02*
X116385714Y-132554819D01*
X116623809Y-131507200D02*
X116861904Y-132221485D01*
X116861904Y-132221485D02*
X116242857Y-132221485D01*
X115671428Y-131554819D02*
X115576190Y-131554819D01*
X115576190Y-131554819D02*
X115480952Y-131602438D01*
X115480952Y-131602438D02*
X115433333Y-131650057D01*
X115433333Y-131650057D02*
X115385714Y-131745295D01*
X115385714Y-131745295D02*
X115338095Y-131935771D01*
X115338095Y-131935771D02*
X115338095Y-132173866D01*
X115338095Y-132173866D02*
X115385714Y-132364342D01*
X115385714Y-132364342D02*
X115433333Y-132459580D01*
X115433333Y-132459580D02*
X115480952Y-132507200D01*
X115480952Y-132507200D02*
X115576190Y-132554819D01*
X115576190Y-132554819D02*
X115671428Y-132554819D01*
X115671428Y-132554819D02*
X115766666Y-132507200D01*
X115766666Y-132507200D02*
X115814285Y-132459580D01*
X115814285Y-132459580D02*
X115861904Y-132364342D01*
X115861904Y-132364342D02*
X115909523Y-132173866D01*
X115909523Y-132173866D02*
X115909523Y-131935771D01*
X115909523Y-131935771D02*
X115861904Y-131745295D01*
X115861904Y-131745295D02*
X115814285Y-131650057D01*
X115814285Y-131650057D02*
X115766666Y-131602438D01*
X115766666Y-131602438D02*
X115671428Y-131554819D01*
X194354819Y-137057142D02*
X193878628Y-136723809D01*
X194354819Y-136485714D02*
X193354819Y-136485714D01*
X193354819Y-136485714D02*
X193354819Y-136866666D01*
X193354819Y-136866666D02*
X193402438Y-136961904D01*
X193402438Y-136961904D02*
X193450057Y-137009523D01*
X193450057Y-137009523D02*
X193545295Y-137057142D01*
X193545295Y-137057142D02*
X193688152Y-137057142D01*
X193688152Y-137057142D02*
X193783390Y-137009523D01*
X193783390Y-137009523D02*
X193831009Y-136961904D01*
X193831009Y-136961904D02*
X193878628Y-136866666D01*
X193878628Y-136866666D02*
X193878628Y-136485714D01*
X193354819Y-137390476D02*
X193354819Y-138057142D01*
X193354819Y-138057142D02*
X194354819Y-137628571D01*
X194354819Y-138485714D02*
X194354819Y-138676190D01*
X194354819Y-138676190D02*
X194307200Y-138771428D01*
X194307200Y-138771428D02*
X194259580Y-138819047D01*
X194259580Y-138819047D02*
X194116723Y-138914285D01*
X194116723Y-138914285D02*
X193926247Y-138961904D01*
X193926247Y-138961904D02*
X193545295Y-138961904D01*
X193545295Y-138961904D02*
X193450057Y-138914285D01*
X193450057Y-138914285D02*
X193402438Y-138866666D01*
X193402438Y-138866666D02*
X193354819Y-138771428D01*
X193354819Y-138771428D02*
X193354819Y-138580952D01*
X193354819Y-138580952D02*
X193402438Y-138485714D01*
X193402438Y-138485714D02*
X193450057Y-138438095D01*
X193450057Y-138438095D02*
X193545295Y-138390476D01*
X193545295Y-138390476D02*
X193783390Y-138390476D01*
X193783390Y-138390476D02*
X193878628Y-138438095D01*
X193878628Y-138438095D02*
X193926247Y-138485714D01*
X193926247Y-138485714D02*
X193973866Y-138580952D01*
X193973866Y-138580952D02*
X193973866Y-138771428D01*
X193973866Y-138771428D02*
X193926247Y-138866666D01*
X193926247Y-138866666D02*
X193878628Y-138914285D01*
X193878628Y-138914285D02*
X193783390Y-138961904D01*
X126259523Y-136554819D02*
X126259523Y-137269104D01*
X126259523Y-137269104D02*
X126307142Y-137411961D01*
X126307142Y-137411961D02*
X126402380Y-137507200D01*
X126402380Y-137507200D02*
X126545237Y-137554819D01*
X126545237Y-137554819D02*
X126640475Y-137554819D01*
X125259523Y-137554819D02*
X125830951Y-137554819D01*
X125545237Y-137554819D02*
X125545237Y-136554819D01*
X125545237Y-136554819D02*
X125640475Y-136697676D01*
X125640475Y-136697676D02*
X125735713Y-136792914D01*
X125735713Y-136792914D02*
X125830951Y-136840533D01*
X124926189Y-136554819D02*
X124259523Y-136554819D01*
X124259523Y-136554819D02*
X124688094Y-137554819D01*
X65009523Y-45554819D02*
X65009523Y-46269104D01*
X65009523Y-46269104D02*
X65057142Y-46411961D01*
X65057142Y-46411961D02*
X65152380Y-46507200D01*
X65152380Y-46507200D02*
X65295237Y-46554819D01*
X65295237Y-46554819D02*
X65390475Y-46554819D01*
X64009523Y-46554819D02*
X64580951Y-46554819D01*
X64295237Y-46554819D02*
X64295237Y-45554819D01*
X64295237Y-45554819D02*
X64390475Y-45697676D01*
X64390475Y-45697676D02*
X64485713Y-45792914D01*
X64485713Y-45792914D02*
X64580951Y-45840533D01*
X63390475Y-45554819D02*
X63295237Y-45554819D01*
X63295237Y-45554819D02*
X63199999Y-45602438D01*
X63199999Y-45602438D02*
X63152380Y-45650057D01*
X63152380Y-45650057D02*
X63104761Y-45745295D01*
X63104761Y-45745295D02*
X63057142Y-45935771D01*
X63057142Y-45935771D02*
X63057142Y-46173866D01*
X63057142Y-46173866D02*
X63104761Y-46364342D01*
X63104761Y-46364342D02*
X63152380Y-46459580D01*
X63152380Y-46459580D02*
X63199999Y-46507200D01*
X63199999Y-46507200D02*
X63295237Y-46554819D01*
X63295237Y-46554819D02*
X63390475Y-46554819D01*
X63390475Y-46554819D02*
X63485713Y-46507200D01*
X63485713Y-46507200D02*
X63533332Y-46459580D01*
X63533332Y-46459580D02*
X63580951Y-46364342D01*
X63580951Y-46364342D02*
X63628570Y-46173866D01*
X63628570Y-46173866D02*
X63628570Y-45935771D01*
X63628570Y-45935771D02*
X63580951Y-45745295D01*
X63580951Y-45745295D02*
X63533332Y-45650057D01*
X63533332Y-45650057D02*
X63485713Y-45602438D01*
X63485713Y-45602438D02*
X63390475Y-45554819D01*
X195854818Y-137082140D02*
X195378627Y-136748807D01*
X195854818Y-136510712D02*
X194854818Y-136510712D01*
X194854818Y-136510712D02*
X194854818Y-136891664D01*
X194854818Y-136891664D02*
X194902437Y-136986902D01*
X194902437Y-136986902D02*
X194950056Y-137034521D01*
X194950056Y-137034521D02*
X195045294Y-137082140D01*
X195045294Y-137082140D02*
X195188151Y-137082140D01*
X195188151Y-137082140D02*
X195283389Y-137034521D01*
X195283389Y-137034521D02*
X195331008Y-136986902D01*
X195331008Y-136986902D02*
X195378627Y-136891664D01*
X195378627Y-136891664D02*
X195378627Y-136510712D01*
X194854818Y-137415474D02*
X194854818Y-138082140D01*
X194854818Y-138082140D02*
X195854818Y-137653569D01*
X194854818Y-138367855D02*
X194854818Y-139034521D01*
X194854818Y-139034521D02*
X195854818Y-138605950D01*
X81133333Y-136354819D02*
X81133333Y-137069104D01*
X81133333Y-137069104D02*
X81180952Y-137211961D01*
X81180952Y-137211961D02*
X81276190Y-137307200D01*
X81276190Y-137307200D02*
X81419047Y-137354819D01*
X81419047Y-137354819D02*
X81514285Y-137354819D01*
X80228571Y-136354819D02*
X80419047Y-136354819D01*
X80419047Y-136354819D02*
X80514285Y-136402438D01*
X80514285Y-136402438D02*
X80561904Y-136450057D01*
X80561904Y-136450057D02*
X80657142Y-136592914D01*
X80657142Y-136592914D02*
X80704761Y-136783390D01*
X80704761Y-136783390D02*
X80704761Y-137164342D01*
X80704761Y-137164342D02*
X80657142Y-137259580D01*
X80657142Y-137259580D02*
X80609523Y-137307200D01*
X80609523Y-137307200D02*
X80514285Y-137354819D01*
X80514285Y-137354819D02*
X80323809Y-137354819D01*
X80323809Y-137354819D02*
X80228571Y-137307200D01*
X80228571Y-137307200D02*
X80180952Y-137259580D01*
X80180952Y-137259580D02*
X80133333Y-137164342D01*
X80133333Y-137164342D02*
X80133333Y-136926247D01*
X80133333Y-136926247D02*
X80180952Y-136831009D01*
X80180952Y-136831009D02*
X80228571Y-136783390D01*
X80228571Y-136783390D02*
X80323809Y-136735771D01*
X80323809Y-136735771D02*
X80514285Y-136735771D01*
X80514285Y-136735771D02*
X80609523Y-136783390D01*
X80609523Y-136783390D02*
X80657142Y-136831009D01*
X80657142Y-136831009D02*
X80704761Y-136926247D01*
D11*
X180409523Y-88757419D02*
X180076190Y-89757419D01*
X180076190Y-89757419D02*
X179742857Y-88757419D01*
X178838095Y-89757419D02*
X179171428Y-89281228D01*
X179409523Y-89757419D02*
X179409523Y-88757419D01*
X179409523Y-88757419D02*
X179028571Y-88757419D01*
X179028571Y-88757419D02*
X178933333Y-88805038D01*
X178933333Y-88805038D02*
X178885714Y-88852657D01*
X178885714Y-88852657D02*
X178838095Y-88947895D01*
X178838095Y-88947895D02*
X178838095Y-89090752D01*
X178838095Y-89090752D02*
X178885714Y-89185990D01*
X178885714Y-89185990D02*
X178933333Y-89233609D01*
X178933333Y-89233609D02*
X179028571Y-89281228D01*
X179028571Y-89281228D02*
X179409523Y-89281228D01*
X178457142Y-88852657D02*
X178409523Y-88805038D01*
X178409523Y-88805038D02*
X178314285Y-88757419D01*
X178314285Y-88757419D02*
X178076190Y-88757419D01*
X178076190Y-88757419D02*
X177980952Y-88805038D01*
X177980952Y-88805038D02*
X177933333Y-88852657D01*
X177933333Y-88852657D02*
X177885714Y-88947895D01*
X177885714Y-88947895D02*
X177885714Y-89043133D01*
X177885714Y-89043133D02*
X177933333Y-89185990D01*
X177933333Y-89185990D02*
X178504761Y-89757419D01*
X178504761Y-89757419D02*
X177885714Y-89757419D01*
X199672306Y-87872419D02*
X200243734Y-87872419D01*
X199958020Y-87872419D02*
X199958020Y-86872419D01*
X199958020Y-86872419D02*
X200053258Y-87015276D01*
X200053258Y-87015276D02*
X200148496Y-87110514D01*
X200148496Y-87110514D02*
X200243734Y-87158133D01*
X199291353Y-86967657D02*
X199243734Y-86920038D01*
X199243734Y-86920038D02*
X199148496Y-86872419D01*
X199148496Y-86872419D02*
X198910401Y-86872419D01*
X198910401Y-86872419D02*
X198815163Y-86920038D01*
X198815163Y-86920038D02*
X198767544Y-86967657D01*
X198767544Y-86967657D02*
X198719925Y-87062895D01*
X198719925Y-87062895D02*
X198719925Y-87158133D01*
X198719925Y-87158133D02*
X198767544Y-87300990D01*
X198767544Y-87300990D02*
X199338972Y-87872419D01*
X199338972Y-87872419D02*
X198719925Y-87872419D01*
X198434210Y-86872419D02*
X198100877Y-87872419D01*
X198100877Y-87872419D02*
X197767544Y-86872419D01*
X197434210Y-87872419D02*
X197434210Y-86872419D01*
X197434210Y-86872419D02*
X197196115Y-86872419D01*
X197196115Y-86872419D02*
X197053258Y-86920038D01*
X197053258Y-86920038D02*
X196958020Y-87015276D01*
X196958020Y-87015276D02*
X196910401Y-87110514D01*
X196910401Y-87110514D02*
X196862782Y-87300990D01*
X196862782Y-87300990D02*
X196862782Y-87443847D01*
X196862782Y-87443847D02*
X196910401Y-87634323D01*
X196910401Y-87634323D02*
X196958020Y-87729561D01*
X196958020Y-87729561D02*
X197053258Y-87824800D01*
X197053258Y-87824800D02*
X197196115Y-87872419D01*
X197196115Y-87872419D02*
X197434210Y-87872419D01*
X195862782Y-87777180D02*
X195910401Y-87824800D01*
X195910401Y-87824800D02*
X196053258Y-87872419D01*
X196053258Y-87872419D02*
X196148496Y-87872419D01*
X196148496Y-87872419D02*
X196291353Y-87824800D01*
X196291353Y-87824800D02*
X196386591Y-87729561D01*
X196386591Y-87729561D02*
X196434210Y-87634323D01*
X196434210Y-87634323D02*
X196481829Y-87443847D01*
X196481829Y-87443847D02*
X196481829Y-87300990D01*
X196481829Y-87300990D02*
X196434210Y-87110514D01*
X196434210Y-87110514D02*
X196386591Y-87015276D01*
X196386591Y-87015276D02*
X196291353Y-86920038D01*
X196291353Y-86920038D02*
X196148496Y-86872419D01*
X196148496Y-86872419D02*
X196053258Y-86872419D01*
X196053258Y-86872419D02*
X195910401Y-86920038D01*
X195910401Y-86920038D02*
X195862782Y-86967657D01*
X194672305Y-87872419D02*
X194672305Y-86872419D01*
X194196115Y-87872419D02*
X194196115Y-86872419D01*
X194196115Y-86872419D02*
X193624687Y-87872419D01*
X193624687Y-87872419D02*
X193624687Y-86872419D01*
X159672306Y-90920038D02*
X159767544Y-90872419D01*
X159767544Y-90872419D02*
X159910401Y-90872419D01*
X159910401Y-90872419D02*
X160053258Y-90920038D01*
X160053258Y-90920038D02*
X160148496Y-91015276D01*
X160148496Y-91015276D02*
X160196115Y-91110514D01*
X160196115Y-91110514D02*
X160243734Y-91300990D01*
X160243734Y-91300990D02*
X160243734Y-91443847D01*
X160243734Y-91443847D02*
X160196115Y-91634323D01*
X160196115Y-91634323D02*
X160148496Y-91729561D01*
X160148496Y-91729561D02*
X160053258Y-91824800D01*
X160053258Y-91824800D02*
X159910401Y-91872419D01*
X159910401Y-91872419D02*
X159815163Y-91872419D01*
X159815163Y-91872419D02*
X159672306Y-91824800D01*
X159672306Y-91824800D02*
X159624687Y-91777180D01*
X159624687Y-91777180D02*
X159624687Y-91443847D01*
X159624687Y-91443847D02*
X159815163Y-91443847D01*
X159196115Y-91872419D02*
X159196115Y-90872419D01*
X159196115Y-90872419D02*
X158624687Y-91872419D01*
X158624687Y-91872419D02*
X158624687Y-90872419D01*
X158148496Y-91872419D02*
X158148496Y-90872419D01*
X158148496Y-90872419D02*
X157910401Y-90872419D01*
X157910401Y-90872419D02*
X157767544Y-90920038D01*
X157767544Y-90920038D02*
X157672306Y-91015276D01*
X157672306Y-91015276D02*
X157624687Y-91110514D01*
X157624687Y-91110514D02*
X157577068Y-91300990D01*
X157577068Y-91300990D02*
X157577068Y-91443847D01*
X157577068Y-91443847D02*
X157624687Y-91634323D01*
X157624687Y-91634323D02*
X157672306Y-91729561D01*
X157672306Y-91729561D02*
X157767544Y-91824800D01*
X157767544Y-91824800D02*
X157910401Y-91872419D01*
X157910401Y-91872419D02*
X158148496Y-91872419D01*
X199672306Y-90920038D02*
X199767544Y-90872419D01*
X199767544Y-90872419D02*
X199910401Y-90872419D01*
X199910401Y-90872419D02*
X200053258Y-90920038D01*
X200053258Y-90920038D02*
X200148496Y-91015276D01*
X200148496Y-91015276D02*
X200196115Y-91110514D01*
X200196115Y-91110514D02*
X200243734Y-91300990D01*
X200243734Y-91300990D02*
X200243734Y-91443847D01*
X200243734Y-91443847D02*
X200196115Y-91634323D01*
X200196115Y-91634323D02*
X200148496Y-91729561D01*
X200148496Y-91729561D02*
X200053258Y-91824800D01*
X200053258Y-91824800D02*
X199910401Y-91872419D01*
X199910401Y-91872419D02*
X199815163Y-91872419D01*
X199815163Y-91872419D02*
X199672306Y-91824800D01*
X199672306Y-91824800D02*
X199624687Y-91777180D01*
X199624687Y-91777180D02*
X199624687Y-91443847D01*
X199624687Y-91443847D02*
X199815163Y-91443847D01*
X199196115Y-91872419D02*
X199196115Y-90872419D01*
X199196115Y-90872419D02*
X198624687Y-91872419D01*
X198624687Y-91872419D02*
X198624687Y-90872419D01*
X198148496Y-91872419D02*
X198148496Y-90872419D01*
X198148496Y-90872419D02*
X197910401Y-90872419D01*
X197910401Y-90872419D02*
X197767544Y-90920038D01*
X197767544Y-90920038D02*
X197672306Y-91015276D01*
X197672306Y-91015276D02*
X197624687Y-91110514D01*
X197624687Y-91110514D02*
X197577068Y-91300990D01*
X197577068Y-91300990D02*
X197577068Y-91443847D01*
X197577068Y-91443847D02*
X197624687Y-91634323D01*
X197624687Y-91634323D02*
X197672306Y-91729561D01*
X197672306Y-91729561D02*
X197767544Y-91824800D01*
X197767544Y-91824800D02*
X197910401Y-91872419D01*
X197910401Y-91872419D02*
X198148496Y-91872419D01*
X138196115Y-89872419D02*
X138196115Y-88872419D01*
X138196115Y-89348609D02*
X137624687Y-89348609D01*
X137624687Y-89872419D02*
X137624687Y-88872419D01*
X137291353Y-88872419D02*
X136958020Y-89872419D01*
X136958020Y-89872419D02*
X136624687Y-88872419D01*
X135386591Y-89872419D02*
X135481829Y-89824800D01*
X135481829Y-89824800D02*
X135529448Y-89777180D01*
X135529448Y-89777180D02*
X135577067Y-89681942D01*
X135577067Y-89681942D02*
X135577067Y-89396228D01*
X135577067Y-89396228D02*
X135529448Y-89300990D01*
X135529448Y-89300990D02*
X135481829Y-89253371D01*
X135481829Y-89253371D02*
X135386591Y-89205752D01*
X135386591Y-89205752D02*
X135243734Y-89205752D01*
X135243734Y-89205752D02*
X135148496Y-89253371D01*
X135148496Y-89253371D02*
X135100877Y-89300990D01*
X135100877Y-89300990D02*
X135053258Y-89396228D01*
X135053258Y-89396228D02*
X135053258Y-89681942D01*
X135053258Y-89681942D02*
X135100877Y-89777180D01*
X135100877Y-89777180D02*
X135148496Y-89824800D01*
X135148496Y-89824800D02*
X135243734Y-89872419D01*
X135243734Y-89872419D02*
X135386591Y-89872419D01*
X134196115Y-89205752D02*
X134196115Y-89872419D01*
X134624686Y-89205752D02*
X134624686Y-89729561D01*
X134624686Y-89729561D02*
X134577067Y-89824800D01*
X134577067Y-89824800D02*
X134481829Y-89872419D01*
X134481829Y-89872419D02*
X134338972Y-89872419D01*
X134338972Y-89872419D02*
X134243734Y-89824800D01*
X134243734Y-89824800D02*
X134196115Y-89777180D01*
X133862781Y-89205752D02*
X133481829Y-89205752D01*
X133719924Y-88872419D02*
X133719924Y-89729561D01*
X133719924Y-89729561D02*
X133672305Y-89824800D01*
X133672305Y-89824800D02*
X133577067Y-89872419D01*
X133577067Y-89872419D02*
X133481829Y-89872419D01*
X170196115Y-87872419D02*
X170196115Y-86872419D01*
X170196115Y-87348609D02*
X169624687Y-87348609D01*
X169624687Y-87872419D02*
X169624687Y-86872419D01*
X169148496Y-87872419D02*
X169148496Y-87205752D01*
X169148496Y-86872419D02*
X169196115Y-86920038D01*
X169196115Y-86920038D02*
X169148496Y-86967657D01*
X169148496Y-86967657D02*
X169100877Y-86920038D01*
X169100877Y-86920038D02*
X169148496Y-86872419D01*
X169148496Y-86872419D02*
X169148496Y-86967657D01*
X168243735Y-87205752D02*
X168243735Y-88015276D01*
X168243735Y-88015276D02*
X168291354Y-88110514D01*
X168291354Y-88110514D02*
X168338973Y-88158133D01*
X168338973Y-88158133D02*
X168434211Y-88205752D01*
X168434211Y-88205752D02*
X168577068Y-88205752D01*
X168577068Y-88205752D02*
X168672306Y-88158133D01*
X168243735Y-87824800D02*
X168338973Y-87872419D01*
X168338973Y-87872419D02*
X168529449Y-87872419D01*
X168529449Y-87872419D02*
X168624687Y-87824800D01*
X168624687Y-87824800D02*
X168672306Y-87777180D01*
X168672306Y-87777180D02*
X168719925Y-87681942D01*
X168719925Y-87681942D02*
X168719925Y-87396228D01*
X168719925Y-87396228D02*
X168672306Y-87300990D01*
X168672306Y-87300990D02*
X168624687Y-87253371D01*
X168624687Y-87253371D02*
X168529449Y-87205752D01*
X168529449Y-87205752D02*
X168338973Y-87205752D01*
X168338973Y-87205752D02*
X168243735Y-87253371D01*
X167767544Y-87872419D02*
X167767544Y-86872419D01*
X167338973Y-87872419D02*
X167338973Y-87348609D01*
X167338973Y-87348609D02*
X167386592Y-87253371D01*
X167386592Y-87253371D02*
X167481830Y-87205752D01*
X167481830Y-87205752D02*
X167624687Y-87205752D01*
X167624687Y-87205752D02*
X167719925Y-87253371D01*
X167719925Y-87253371D02*
X167767544Y-87300990D01*
X166243734Y-86872419D02*
X165910401Y-87872419D01*
X165910401Y-87872419D02*
X165577068Y-86872419D01*
X165100877Y-87872419D02*
X165196115Y-87824800D01*
X165196115Y-87824800D02*
X165243734Y-87777180D01*
X165243734Y-87777180D02*
X165291353Y-87681942D01*
X165291353Y-87681942D02*
X165291353Y-87396228D01*
X165291353Y-87396228D02*
X165243734Y-87300990D01*
X165243734Y-87300990D02*
X165196115Y-87253371D01*
X165196115Y-87253371D02*
X165100877Y-87205752D01*
X165100877Y-87205752D02*
X164958020Y-87205752D01*
X164958020Y-87205752D02*
X164862782Y-87253371D01*
X164862782Y-87253371D02*
X164815163Y-87300990D01*
X164815163Y-87300990D02*
X164767544Y-87396228D01*
X164767544Y-87396228D02*
X164767544Y-87681942D01*
X164767544Y-87681942D02*
X164815163Y-87777180D01*
X164815163Y-87777180D02*
X164862782Y-87824800D01*
X164862782Y-87824800D02*
X164958020Y-87872419D01*
X164958020Y-87872419D02*
X165100877Y-87872419D01*
X164196115Y-87872419D02*
X164291353Y-87824800D01*
X164291353Y-87824800D02*
X164338972Y-87729561D01*
X164338972Y-87729561D02*
X164338972Y-86872419D01*
X163958019Y-87205752D02*
X163577067Y-87205752D01*
X163815162Y-86872419D02*
X163815162Y-87729561D01*
X163815162Y-87729561D02*
X163767543Y-87824800D01*
X163767543Y-87824800D02*
X163672305Y-87872419D01*
X163672305Y-87872419D02*
X163577067Y-87872419D01*
X162815162Y-87872419D02*
X162815162Y-87348609D01*
X162815162Y-87348609D02*
X162862781Y-87253371D01*
X162862781Y-87253371D02*
X162958019Y-87205752D01*
X162958019Y-87205752D02*
X163148495Y-87205752D01*
X163148495Y-87205752D02*
X163243733Y-87253371D01*
X162815162Y-87824800D02*
X162910400Y-87872419D01*
X162910400Y-87872419D02*
X163148495Y-87872419D01*
X163148495Y-87872419D02*
X163243733Y-87824800D01*
X163243733Y-87824800D02*
X163291352Y-87729561D01*
X163291352Y-87729561D02*
X163291352Y-87634323D01*
X163291352Y-87634323D02*
X163243733Y-87539085D01*
X163243733Y-87539085D02*
X163148495Y-87491466D01*
X163148495Y-87491466D02*
X162910400Y-87491466D01*
X162910400Y-87491466D02*
X162815162Y-87443847D01*
X161910400Y-87205752D02*
X161910400Y-88015276D01*
X161910400Y-88015276D02*
X161958019Y-88110514D01*
X161958019Y-88110514D02*
X162005638Y-88158133D01*
X162005638Y-88158133D02*
X162100876Y-88205752D01*
X162100876Y-88205752D02*
X162243733Y-88205752D01*
X162243733Y-88205752D02*
X162338971Y-88158133D01*
X161910400Y-87824800D02*
X162005638Y-87872419D01*
X162005638Y-87872419D02*
X162196114Y-87872419D01*
X162196114Y-87872419D02*
X162291352Y-87824800D01*
X162291352Y-87824800D02*
X162338971Y-87777180D01*
X162338971Y-87777180D02*
X162386590Y-87681942D01*
X162386590Y-87681942D02*
X162386590Y-87396228D01*
X162386590Y-87396228D02*
X162338971Y-87300990D01*
X162338971Y-87300990D02*
X162291352Y-87253371D01*
X162291352Y-87253371D02*
X162196114Y-87205752D01*
X162196114Y-87205752D02*
X162005638Y-87205752D01*
X162005638Y-87205752D02*
X161910400Y-87253371D01*
X161053257Y-87824800D02*
X161148495Y-87872419D01*
X161148495Y-87872419D02*
X161338971Y-87872419D01*
X161338971Y-87872419D02*
X161434209Y-87824800D01*
X161434209Y-87824800D02*
X161481828Y-87729561D01*
X161481828Y-87729561D02*
X161481828Y-87348609D01*
X161481828Y-87348609D02*
X161434209Y-87253371D01*
X161434209Y-87253371D02*
X161338971Y-87205752D01*
X161338971Y-87205752D02*
X161148495Y-87205752D01*
X161148495Y-87205752D02*
X161053257Y-87253371D01*
X161053257Y-87253371D02*
X161005638Y-87348609D01*
X161005638Y-87348609D02*
X161005638Y-87443847D01*
X161005638Y-87443847D02*
X161481828Y-87539085D01*
X159624685Y-86872419D02*
X159434209Y-86872419D01*
X159434209Y-86872419D02*
X159338971Y-86920038D01*
X159338971Y-86920038D02*
X159243733Y-87015276D01*
X159243733Y-87015276D02*
X159196114Y-87205752D01*
X159196114Y-87205752D02*
X159196114Y-87539085D01*
X159196114Y-87539085D02*
X159243733Y-87729561D01*
X159243733Y-87729561D02*
X159338971Y-87824800D01*
X159338971Y-87824800D02*
X159434209Y-87872419D01*
X159434209Y-87872419D02*
X159624685Y-87872419D01*
X159624685Y-87872419D02*
X159719923Y-87824800D01*
X159719923Y-87824800D02*
X159815161Y-87729561D01*
X159815161Y-87729561D02*
X159862780Y-87539085D01*
X159862780Y-87539085D02*
X159862780Y-87205752D01*
X159862780Y-87205752D02*
X159815161Y-87015276D01*
X159815161Y-87015276D02*
X159719923Y-86920038D01*
X159719923Y-86920038D02*
X159624685Y-86872419D01*
X158338971Y-87205752D02*
X158338971Y-87872419D01*
X158767542Y-87205752D02*
X158767542Y-87729561D01*
X158767542Y-87729561D02*
X158719923Y-87824800D01*
X158719923Y-87824800D02*
X158624685Y-87872419D01*
X158624685Y-87872419D02*
X158481828Y-87872419D01*
X158481828Y-87872419D02*
X158386590Y-87824800D01*
X158386590Y-87824800D02*
X158338971Y-87777180D01*
X158005637Y-87205752D02*
X157624685Y-87205752D01*
X157862780Y-86872419D02*
X157862780Y-87729561D01*
X157862780Y-87729561D02*
X157815161Y-87824800D01*
X157815161Y-87824800D02*
X157719923Y-87872419D01*
X157719923Y-87872419D02*
X157624685Y-87872419D01*
X222672306Y-90920038D02*
X222767544Y-90872419D01*
X222767544Y-90872419D02*
X222910401Y-90872419D01*
X222910401Y-90872419D02*
X223053258Y-90920038D01*
X223053258Y-90920038D02*
X223148496Y-91015276D01*
X223148496Y-91015276D02*
X223196115Y-91110514D01*
X223196115Y-91110514D02*
X223243734Y-91300990D01*
X223243734Y-91300990D02*
X223243734Y-91443847D01*
X223243734Y-91443847D02*
X223196115Y-91634323D01*
X223196115Y-91634323D02*
X223148496Y-91729561D01*
X223148496Y-91729561D02*
X223053258Y-91824800D01*
X223053258Y-91824800D02*
X222910401Y-91872419D01*
X222910401Y-91872419D02*
X222815163Y-91872419D01*
X222815163Y-91872419D02*
X222672306Y-91824800D01*
X222672306Y-91824800D02*
X222624687Y-91777180D01*
X222624687Y-91777180D02*
X222624687Y-91443847D01*
X222624687Y-91443847D02*
X222815163Y-91443847D01*
X222196115Y-91872419D02*
X222196115Y-90872419D01*
X222196115Y-90872419D02*
X221624687Y-91872419D01*
X221624687Y-91872419D02*
X221624687Y-90872419D01*
X221148496Y-91872419D02*
X221148496Y-90872419D01*
X221148496Y-90872419D02*
X220910401Y-90872419D01*
X220910401Y-90872419D02*
X220767544Y-90920038D01*
X220767544Y-90920038D02*
X220672306Y-91015276D01*
X220672306Y-91015276D02*
X220624687Y-91110514D01*
X220624687Y-91110514D02*
X220577068Y-91300990D01*
X220577068Y-91300990D02*
X220577068Y-91443847D01*
X220577068Y-91443847D02*
X220624687Y-91634323D01*
X220624687Y-91634323D02*
X220672306Y-91729561D01*
X220672306Y-91729561D02*
X220767544Y-91824800D01*
X220767544Y-91824800D02*
X220910401Y-91872419D01*
X220910401Y-91872419D02*
X221148496Y-91872419D01*
X137672306Y-92420038D02*
X137767544Y-92372419D01*
X137767544Y-92372419D02*
X137910401Y-92372419D01*
X137910401Y-92372419D02*
X138053258Y-92420038D01*
X138053258Y-92420038D02*
X138148496Y-92515276D01*
X138148496Y-92515276D02*
X138196115Y-92610514D01*
X138196115Y-92610514D02*
X138243734Y-92800990D01*
X138243734Y-92800990D02*
X138243734Y-92943847D01*
X138243734Y-92943847D02*
X138196115Y-93134323D01*
X138196115Y-93134323D02*
X138148496Y-93229561D01*
X138148496Y-93229561D02*
X138053258Y-93324800D01*
X138053258Y-93324800D02*
X137910401Y-93372419D01*
X137910401Y-93372419D02*
X137815163Y-93372419D01*
X137815163Y-93372419D02*
X137672306Y-93324800D01*
X137672306Y-93324800D02*
X137624687Y-93277180D01*
X137624687Y-93277180D02*
X137624687Y-92943847D01*
X137624687Y-92943847D02*
X137815163Y-92943847D01*
X137196115Y-93372419D02*
X137196115Y-92372419D01*
X137196115Y-92372419D02*
X136624687Y-93372419D01*
X136624687Y-93372419D02*
X136624687Y-92372419D01*
X136148496Y-93372419D02*
X136148496Y-92372419D01*
X136148496Y-92372419D02*
X135910401Y-92372419D01*
X135910401Y-92372419D02*
X135767544Y-92420038D01*
X135767544Y-92420038D02*
X135672306Y-92515276D01*
X135672306Y-92515276D02*
X135624687Y-92610514D01*
X135624687Y-92610514D02*
X135577068Y-92800990D01*
X135577068Y-92800990D02*
X135577068Y-92943847D01*
X135577068Y-92943847D02*
X135624687Y-93134323D01*
X135624687Y-93134323D02*
X135672306Y-93229561D01*
X135672306Y-93229561D02*
X135767544Y-93324800D01*
X135767544Y-93324800D02*
X135910401Y-93372419D01*
X135910401Y-93372419D02*
X136148496Y-93372419D01*
X200196115Y-95372419D02*
X200196115Y-94705752D01*
X200196115Y-94372419D02*
X200243734Y-94420038D01*
X200243734Y-94420038D02*
X200196115Y-94467657D01*
X200196115Y-94467657D02*
X200148496Y-94420038D01*
X200148496Y-94420038D02*
X200196115Y-94372419D01*
X200196115Y-94372419D02*
X200196115Y-94467657D01*
X199862782Y-94705752D02*
X199481830Y-94705752D01*
X199719925Y-95372419D02*
X199719925Y-94515276D01*
X199719925Y-94515276D02*
X199672306Y-94420038D01*
X199672306Y-94420038D02*
X199577068Y-94372419D01*
X199577068Y-94372419D02*
X199481830Y-94372419D01*
X198005639Y-95324800D02*
X198100877Y-95372419D01*
X198100877Y-95372419D02*
X198291353Y-95372419D01*
X198291353Y-95372419D02*
X198386591Y-95324800D01*
X198386591Y-95324800D02*
X198434210Y-95229561D01*
X198434210Y-95229561D02*
X198434210Y-94848609D01*
X198434210Y-94848609D02*
X198386591Y-94753371D01*
X198386591Y-94753371D02*
X198291353Y-94705752D01*
X198291353Y-94705752D02*
X198100877Y-94705752D01*
X198100877Y-94705752D02*
X198005639Y-94753371D01*
X198005639Y-94753371D02*
X197958020Y-94848609D01*
X197958020Y-94848609D02*
X197958020Y-94943847D01*
X197958020Y-94943847D02*
X198434210Y-95039085D01*
X197529448Y-94705752D02*
X197529448Y-95372419D01*
X197529448Y-94800990D02*
X197481829Y-94753371D01*
X197481829Y-94753371D02*
X197386591Y-94705752D01*
X197386591Y-94705752D02*
X197243734Y-94705752D01*
X197243734Y-94705752D02*
X197148496Y-94753371D01*
X197148496Y-94753371D02*
X197100877Y-94848609D01*
X197100877Y-94848609D02*
X197100877Y-95372419D01*
X196196115Y-95372419D02*
X196196115Y-94848609D01*
X196196115Y-94848609D02*
X196243734Y-94753371D01*
X196243734Y-94753371D02*
X196338972Y-94705752D01*
X196338972Y-94705752D02*
X196529448Y-94705752D01*
X196529448Y-94705752D02*
X196624686Y-94753371D01*
X196196115Y-95324800D02*
X196291353Y-95372419D01*
X196291353Y-95372419D02*
X196529448Y-95372419D01*
X196529448Y-95372419D02*
X196624686Y-95324800D01*
X196624686Y-95324800D02*
X196672305Y-95229561D01*
X196672305Y-95229561D02*
X196672305Y-95134323D01*
X196672305Y-95134323D02*
X196624686Y-95039085D01*
X196624686Y-95039085D02*
X196529448Y-94991466D01*
X196529448Y-94991466D02*
X196291353Y-94991466D01*
X196291353Y-94991466D02*
X196196115Y-94943847D01*
X195719924Y-95372419D02*
X195719924Y-94372419D01*
X195719924Y-94753371D02*
X195624686Y-94705752D01*
X195624686Y-94705752D02*
X195434210Y-94705752D01*
X195434210Y-94705752D02*
X195338972Y-94753371D01*
X195338972Y-94753371D02*
X195291353Y-94800990D01*
X195291353Y-94800990D02*
X195243734Y-94896228D01*
X195243734Y-94896228D02*
X195243734Y-95181942D01*
X195243734Y-95181942D02*
X195291353Y-95277180D01*
X195291353Y-95277180D02*
X195338972Y-95324800D01*
X195338972Y-95324800D02*
X195434210Y-95372419D01*
X195434210Y-95372419D02*
X195624686Y-95372419D01*
X195624686Y-95372419D02*
X195719924Y-95324800D01*
X194672305Y-95372419D02*
X194767543Y-95324800D01*
X194767543Y-95324800D02*
X194815162Y-95229561D01*
X194815162Y-95229561D02*
X194815162Y-94372419D01*
X193910400Y-95324800D02*
X194005638Y-95372419D01*
X194005638Y-95372419D02*
X194196114Y-95372419D01*
X194196114Y-95372419D02*
X194291352Y-95324800D01*
X194291352Y-95324800D02*
X194338971Y-95229561D01*
X194338971Y-95229561D02*
X194338971Y-94848609D01*
X194338971Y-94848609D02*
X194291352Y-94753371D01*
X194291352Y-94753371D02*
X194196114Y-94705752D01*
X194196114Y-94705752D02*
X194005638Y-94705752D01*
X194005638Y-94705752D02*
X193910400Y-94753371D01*
X193910400Y-94753371D02*
X193862781Y-94848609D01*
X193862781Y-94848609D02*
X193862781Y-94943847D01*
X193862781Y-94943847D02*
X194338971Y-95039085D01*
X192767542Y-94705752D02*
X192577066Y-95372419D01*
X192577066Y-95372419D02*
X192386590Y-94896228D01*
X192386590Y-94896228D02*
X192196114Y-95372419D01*
X192196114Y-95372419D02*
X192005638Y-94705752D01*
X191624685Y-95372419D02*
X191624685Y-94705752D01*
X191624685Y-94372419D02*
X191672304Y-94420038D01*
X191672304Y-94420038D02*
X191624685Y-94467657D01*
X191624685Y-94467657D02*
X191577066Y-94420038D01*
X191577066Y-94420038D02*
X191624685Y-94372419D01*
X191624685Y-94372419D02*
X191624685Y-94467657D01*
X191148495Y-95372419D02*
X191148495Y-94705752D01*
X191148495Y-94896228D02*
X191100876Y-94800990D01*
X191100876Y-94800990D02*
X191053257Y-94753371D01*
X191053257Y-94753371D02*
X190958019Y-94705752D01*
X190958019Y-94705752D02*
X190862781Y-94705752D01*
X190148495Y-95324800D02*
X190243733Y-95372419D01*
X190243733Y-95372419D02*
X190434209Y-95372419D01*
X190434209Y-95372419D02*
X190529447Y-95324800D01*
X190529447Y-95324800D02*
X190577066Y-95229561D01*
X190577066Y-95229561D02*
X190577066Y-94848609D01*
X190577066Y-94848609D02*
X190529447Y-94753371D01*
X190529447Y-94753371D02*
X190434209Y-94705752D01*
X190434209Y-94705752D02*
X190243733Y-94705752D01*
X190243733Y-94705752D02*
X190148495Y-94753371D01*
X190148495Y-94753371D02*
X190100876Y-94848609D01*
X190100876Y-94848609D02*
X190100876Y-94943847D01*
X190100876Y-94943847D02*
X190577066Y-95039085D01*
X188910399Y-95372419D02*
X188910399Y-94705752D01*
X188910399Y-94372419D02*
X188958018Y-94420038D01*
X188958018Y-94420038D02*
X188910399Y-94467657D01*
X188910399Y-94467657D02*
X188862780Y-94420038D01*
X188862780Y-94420038D02*
X188910399Y-94372419D01*
X188910399Y-94372419D02*
X188910399Y-94467657D01*
X188481828Y-95324800D02*
X188386590Y-95372419D01*
X188386590Y-95372419D02*
X188196114Y-95372419D01*
X188196114Y-95372419D02*
X188100876Y-95324800D01*
X188100876Y-95324800D02*
X188053257Y-95229561D01*
X188053257Y-95229561D02*
X188053257Y-95181942D01*
X188053257Y-95181942D02*
X188100876Y-95086704D01*
X188100876Y-95086704D02*
X188196114Y-95039085D01*
X188196114Y-95039085D02*
X188338971Y-95039085D01*
X188338971Y-95039085D02*
X188434209Y-94991466D01*
X188434209Y-94991466D02*
X188481828Y-94896228D01*
X188481828Y-94896228D02*
X188481828Y-94848609D01*
X188481828Y-94848609D02*
X188434209Y-94753371D01*
X188434209Y-94753371D02*
X188338971Y-94705752D01*
X188338971Y-94705752D02*
X188196114Y-94705752D01*
X188196114Y-94705752D02*
X188100876Y-94753371D01*
X186862780Y-94705752D02*
X186862780Y-95705752D01*
X186862780Y-94753371D02*
X186767542Y-94705752D01*
X186767542Y-94705752D02*
X186577066Y-94705752D01*
X186577066Y-94705752D02*
X186481828Y-94753371D01*
X186481828Y-94753371D02*
X186434209Y-94800990D01*
X186434209Y-94800990D02*
X186386590Y-94896228D01*
X186386590Y-94896228D02*
X186386590Y-95181942D01*
X186386590Y-95181942D02*
X186434209Y-95277180D01*
X186434209Y-95277180D02*
X186481828Y-95324800D01*
X186481828Y-95324800D02*
X186577066Y-95372419D01*
X186577066Y-95372419D02*
X186767542Y-95372419D01*
X186767542Y-95372419D02*
X186862780Y-95324800D01*
X185958018Y-95372419D02*
X185958018Y-94705752D01*
X185958018Y-94896228D02*
X185910399Y-94800990D01*
X185910399Y-94800990D02*
X185862780Y-94753371D01*
X185862780Y-94753371D02*
X185767542Y-94705752D01*
X185767542Y-94705752D02*
X185672304Y-94705752D01*
X184958018Y-95324800D02*
X185053256Y-95372419D01*
X185053256Y-95372419D02*
X185243732Y-95372419D01*
X185243732Y-95372419D02*
X185338970Y-95324800D01*
X185338970Y-95324800D02*
X185386589Y-95229561D01*
X185386589Y-95229561D02*
X185386589Y-94848609D01*
X185386589Y-94848609D02*
X185338970Y-94753371D01*
X185338970Y-94753371D02*
X185243732Y-94705752D01*
X185243732Y-94705752D02*
X185053256Y-94705752D01*
X185053256Y-94705752D02*
X184958018Y-94753371D01*
X184958018Y-94753371D02*
X184910399Y-94848609D01*
X184910399Y-94848609D02*
X184910399Y-94943847D01*
X184910399Y-94943847D02*
X185386589Y-95039085D01*
X184529446Y-95324800D02*
X184434208Y-95372419D01*
X184434208Y-95372419D02*
X184243732Y-95372419D01*
X184243732Y-95372419D02*
X184148494Y-95324800D01*
X184148494Y-95324800D02*
X184100875Y-95229561D01*
X184100875Y-95229561D02*
X184100875Y-95181942D01*
X184100875Y-95181942D02*
X184148494Y-95086704D01*
X184148494Y-95086704D02*
X184243732Y-95039085D01*
X184243732Y-95039085D02*
X184386589Y-95039085D01*
X184386589Y-95039085D02*
X184481827Y-94991466D01*
X184481827Y-94991466D02*
X184529446Y-94896228D01*
X184529446Y-94896228D02*
X184529446Y-94848609D01*
X184529446Y-94848609D02*
X184481827Y-94753371D01*
X184481827Y-94753371D02*
X184386589Y-94705752D01*
X184386589Y-94705752D02*
X184243732Y-94705752D01*
X184243732Y-94705752D02*
X184148494Y-94753371D01*
X183291351Y-95324800D02*
X183386589Y-95372419D01*
X183386589Y-95372419D02*
X183577065Y-95372419D01*
X183577065Y-95372419D02*
X183672303Y-95324800D01*
X183672303Y-95324800D02*
X183719922Y-95229561D01*
X183719922Y-95229561D02*
X183719922Y-94848609D01*
X183719922Y-94848609D02*
X183672303Y-94753371D01*
X183672303Y-94753371D02*
X183577065Y-94705752D01*
X183577065Y-94705752D02*
X183386589Y-94705752D01*
X183386589Y-94705752D02*
X183291351Y-94753371D01*
X183291351Y-94753371D02*
X183243732Y-94848609D01*
X183243732Y-94848609D02*
X183243732Y-94943847D01*
X183243732Y-94943847D02*
X183719922Y-95039085D01*
X182815160Y-94705752D02*
X182815160Y-95372419D01*
X182815160Y-94800990D02*
X182767541Y-94753371D01*
X182767541Y-94753371D02*
X182672303Y-94705752D01*
X182672303Y-94705752D02*
X182529446Y-94705752D01*
X182529446Y-94705752D02*
X182434208Y-94753371D01*
X182434208Y-94753371D02*
X182386589Y-94848609D01*
X182386589Y-94848609D02*
X182386589Y-95372419D01*
X182053255Y-94705752D02*
X181672303Y-94705752D01*
X181910398Y-94372419D02*
X181910398Y-95229561D01*
X181910398Y-95229561D02*
X181862779Y-95324800D01*
X181862779Y-95324800D02*
X181767541Y-95372419D01*
X181767541Y-95372419D02*
X181672303Y-95372419D01*
X181291350Y-95324800D02*
X181291350Y-95372419D01*
X181291350Y-95372419D02*
X181338969Y-95467657D01*
X181338969Y-95467657D02*
X181386588Y-95515276D01*
X180243731Y-94705752D02*
X179862779Y-94705752D01*
X180100874Y-94372419D02*
X180100874Y-95229561D01*
X180100874Y-95229561D02*
X180053255Y-95324800D01*
X180053255Y-95324800D02*
X179958017Y-95372419D01*
X179958017Y-95372419D02*
X179862779Y-95372419D01*
X179529445Y-95372419D02*
X179529445Y-94705752D01*
X179529445Y-94372419D02*
X179577064Y-94420038D01*
X179577064Y-94420038D02*
X179529445Y-94467657D01*
X179529445Y-94467657D02*
X179481826Y-94420038D01*
X179481826Y-94420038D02*
X179529445Y-94372419D01*
X179529445Y-94372419D02*
X179529445Y-94467657D01*
X178672303Y-95324800D02*
X178767541Y-95372419D01*
X178767541Y-95372419D02*
X178958017Y-95372419D01*
X178958017Y-95372419D02*
X179053255Y-95324800D01*
X179053255Y-95324800D02*
X179100874Y-95229561D01*
X179100874Y-95229561D02*
X179100874Y-94848609D01*
X179100874Y-94848609D02*
X179053255Y-94753371D01*
X179053255Y-94753371D02*
X178958017Y-94705752D01*
X178958017Y-94705752D02*
X178767541Y-94705752D01*
X178767541Y-94705752D02*
X178672303Y-94753371D01*
X178672303Y-94753371D02*
X178624684Y-94848609D01*
X178624684Y-94848609D02*
X178624684Y-94943847D01*
X178624684Y-94943847D02*
X179100874Y-95039085D01*
X177434207Y-95372419D02*
X177434207Y-94705752D01*
X177434207Y-94372419D02*
X177481826Y-94420038D01*
X177481826Y-94420038D02*
X177434207Y-94467657D01*
X177434207Y-94467657D02*
X177386588Y-94420038D01*
X177386588Y-94420038D02*
X177434207Y-94372419D01*
X177434207Y-94372419D02*
X177434207Y-94467657D01*
X177100874Y-94705752D02*
X176719922Y-94705752D01*
X176958017Y-94372419D02*
X176958017Y-95229561D01*
X176958017Y-95229561D02*
X176910398Y-95324800D01*
X176910398Y-95324800D02*
X176815160Y-95372419D01*
X176815160Y-95372419D02*
X176719922Y-95372419D01*
X175767540Y-94705752D02*
X175386588Y-94705752D01*
X175624683Y-94372419D02*
X175624683Y-95229561D01*
X175624683Y-95229561D02*
X175577064Y-95324800D01*
X175577064Y-95324800D02*
X175481826Y-95372419D01*
X175481826Y-95372419D02*
X175386588Y-95372419D01*
X174910397Y-95372419D02*
X175005635Y-95324800D01*
X175005635Y-95324800D02*
X175053254Y-95277180D01*
X175053254Y-95277180D02*
X175100873Y-95181942D01*
X175100873Y-95181942D02*
X175100873Y-94896228D01*
X175100873Y-94896228D02*
X175053254Y-94800990D01*
X175053254Y-94800990D02*
X175005635Y-94753371D01*
X175005635Y-94753371D02*
X174910397Y-94705752D01*
X174910397Y-94705752D02*
X174767540Y-94705752D01*
X174767540Y-94705752D02*
X174672302Y-94753371D01*
X174672302Y-94753371D02*
X174624683Y-94800990D01*
X174624683Y-94800990D02*
X174577064Y-94896228D01*
X174577064Y-94896228D02*
X174577064Y-95181942D01*
X174577064Y-95181942D02*
X174624683Y-95277180D01*
X174624683Y-95277180D02*
X174672302Y-95324800D01*
X174672302Y-95324800D02*
X174767540Y-95372419D01*
X174767540Y-95372419D02*
X174910397Y-95372419D01*
X172862778Y-94420038D02*
X172958016Y-94372419D01*
X172958016Y-94372419D02*
X173100873Y-94372419D01*
X173100873Y-94372419D02*
X173243730Y-94420038D01*
X173243730Y-94420038D02*
X173338968Y-94515276D01*
X173338968Y-94515276D02*
X173386587Y-94610514D01*
X173386587Y-94610514D02*
X173434206Y-94800990D01*
X173434206Y-94800990D02*
X173434206Y-94943847D01*
X173434206Y-94943847D02*
X173386587Y-95134323D01*
X173386587Y-95134323D02*
X173338968Y-95229561D01*
X173338968Y-95229561D02*
X173243730Y-95324800D01*
X173243730Y-95324800D02*
X173100873Y-95372419D01*
X173100873Y-95372419D02*
X173005635Y-95372419D01*
X173005635Y-95372419D02*
X172862778Y-95324800D01*
X172862778Y-95324800D02*
X172815159Y-95277180D01*
X172815159Y-95277180D02*
X172815159Y-94943847D01*
X172815159Y-94943847D02*
X173005635Y-94943847D01*
X172386587Y-95372419D02*
X172386587Y-94372419D01*
X172386587Y-94372419D02*
X171815159Y-95372419D01*
X171815159Y-95372419D02*
X171815159Y-94372419D01*
X171338968Y-95372419D02*
X171338968Y-94372419D01*
X171338968Y-94372419D02*
X171100873Y-94372419D01*
X171100873Y-94372419D02*
X170958016Y-94420038D01*
X170958016Y-94420038D02*
X170862778Y-94515276D01*
X170862778Y-94515276D02*
X170815159Y-94610514D01*
X170815159Y-94610514D02*
X170767540Y-94800990D01*
X170767540Y-94800990D02*
X170767540Y-94943847D01*
X170767540Y-94943847D02*
X170815159Y-95134323D01*
X170815159Y-95134323D02*
X170862778Y-95229561D01*
X170862778Y-95229561D02*
X170958016Y-95324800D01*
X170958016Y-95324800D02*
X171100873Y-95372419D01*
X171100873Y-95372419D02*
X171338968Y-95372419D01*
X226672306Y-87872419D02*
X227243734Y-87872419D01*
X226958020Y-87872419D02*
X226958020Y-86872419D01*
X226958020Y-86872419D02*
X227053258Y-87015276D01*
X227053258Y-87015276D02*
X227148496Y-87110514D01*
X227148496Y-87110514D02*
X227243734Y-87158133D01*
X226291353Y-86967657D02*
X226243734Y-86920038D01*
X226243734Y-86920038D02*
X226148496Y-86872419D01*
X226148496Y-86872419D02*
X225910401Y-86872419D01*
X225910401Y-86872419D02*
X225815163Y-86920038D01*
X225815163Y-86920038D02*
X225767544Y-86967657D01*
X225767544Y-86967657D02*
X225719925Y-87062895D01*
X225719925Y-87062895D02*
X225719925Y-87158133D01*
X225719925Y-87158133D02*
X225767544Y-87300990D01*
X225767544Y-87300990D02*
X226338972Y-87872419D01*
X226338972Y-87872419D02*
X225719925Y-87872419D01*
X225434210Y-86872419D02*
X225100877Y-87872419D01*
X225100877Y-87872419D02*
X224767544Y-86872419D01*
X224434210Y-87872419D02*
X224434210Y-86872419D01*
X224434210Y-86872419D02*
X224196115Y-86872419D01*
X224196115Y-86872419D02*
X224053258Y-86920038D01*
X224053258Y-86920038D02*
X223958020Y-87015276D01*
X223958020Y-87015276D02*
X223910401Y-87110514D01*
X223910401Y-87110514D02*
X223862782Y-87300990D01*
X223862782Y-87300990D02*
X223862782Y-87443847D01*
X223862782Y-87443847D02*
X223910401Y-87634323D01*
X223910401Y-87634323D02*
X223958020Y-87729561D01*
X223958020Y-87729561D02*
X224053258Y-87824800D01*
X224053258Y-87824800D02*
X224196115Y-87872419D01*
X224196115Y-87872419D02*
X224434210Y-87872419D01*
X222862782Y-87777180D02*
X222910401Y-87824800D01*
X222910401Y-87824800D02*
X223053258Y-87872419D01*
X223053258Y-87872419D02*
X223148496Y-87872419D01*
X223148496Y-87872419D02*
X223291353Y-87824800D01*
X223291353Y-87824800D02*
X223386591Y-87729561D01*
X223386591Y-87729561D02*
X223434210Y-87634323D01*
X223434210Y-87634323D02*
X223481829Y-87443847D01*
X223481829Y-87443847D02*
X223481829Y-87300990D01*
X223481829Y-87300990D02*
X223434210Y-87110514D01*
X223434210Y-87110514D02*
X223386591Y-87015276D01*
X223386591Y-87015276D02*
X223291353Y-86920038D01*
X223291353Y-86920038D02*
X223148496Y-86872419D01*
X223148496Y-86872419D02*
X223053258Y-86872419D01*
X223053258Y-86872419D02*
X222910401Y-86920038D01*
X222910401Y-86920038D02*
X222862782Y-86967657D01*
X221672305Y-87872419D02*
X221672305Y-86872419D01*
X221196115Y-87872419D02*
X221196115Y-86872419D01*
X221196115Y-86872419D02*
X220624687Y-87872419D01*
X220624687Y-87872419D02*
X220624687Y-86872419D01*
D10*
X113126993Y-125892876D02*
X113126993Y-125960220D01*
X113126993Y-125960220D02*
X113194337Y-126094907D01*
X113194337Y-126094907D02*
X113261680Y-126162250D01*
X113261680Y-126162250D02*
X113396367Y-126229594D01*
X113396367Y-126229594D02*
X113531054Y-126229594D01*
X113531054Y-126229594D02*
X113632069Y-126195922D01*
X113632069Y-126195922D02*
X113800428Y-126094907D01*
X113800428Y-126094907D02*
X113901443Y-125993892D01*
X113901443Y-125993892D02*
X114002459Y-125825533D01*
X114002459Y-125825533D02*
X114036130Y-125724518D01*
X114036130Y-125724518D02*
X114036130Y-125589831D01*
X114036130Y-125589831D02*
X113968787Y-125455144D01*
X113968787Y-125455144D02*
X113901443Y-125387800D01*
X113901443Y-125387800D02*
X113766756Y-125320457D01*
X113766756Y-125320457D02*
X113699413Y-125320457D01*
X113531054Y-125017411D02*
X113093321Y-124579678D01*
X113093321Y-124579678D02*
X113059650Y-125084754D01*
X113059650Y-125084754D02*
X112958634Y-124983739D01*
X112958634Y-124983739D02*
X112857619Y-124950067D01*
X112857619Y-124950067D02*
X112790276Y-124950067D01*
X112790276Y-124950067D02*
X112689260Y-124983739D01*
X112689260Y-124983739D02*
X112520902Y-125152098D01*
X112520902Y-125152098D02*
X112487230Y-125253113D01*
X112487230Y-125253113D02*
X112487230Y-125320457D01*
X112487230Y-125320457D02*
X112520902Y-125421472D01*
X112520902Y-125421472D02*
X112722932Y-125623502D01*
X112722932Y-125623502D02*
X112823947Y-125657174D01*
X112823947Y-125657174D02*
X112891291Y-125657174D01*
X112756604Y-124377647D02*
X112756604Y-124310304D01*
X112756604Y-124310304D02*
X112722932Y-124209289D01*
X112722932Y-124209289D02*
X112554573Y-124040930D01*
X112554573Y-124040930D02*
X112453558Y-124007258D01*
X112453558Y-124007258D02*
X112386214Y-124007258D01*
X112386214Y-124007258D02*
X112285199Y-124040930D01*
X112285199Y-124040930D02*
X112217856Y-124108273D01*
X112217856Y-124108273D02*
X112150512Y-124242960D01*
X112150512Y-124242960D02*
X112150512Y-125051082D01*
X112150512Y-125051082D02*
X111712779Y-124613350D01*
X197354819Y-137057141D02*
X196878628Y-136723808D01*
X197354819Y-136485713D02*
X196354819Y-136485713D01*
X196354819Y-136485713D02*
X196354819Y-136866665D01*
X196354819Y-136866665D02*
X196402438Y-136961903D01*
X196402438Y-136961903D02*
X196450057Y-137009522D01*
X196450057Y-137009522D02*
X196545295Y-137057141D01*
X196545295Y-137057141D02*
X196688152Y-137057141D01*
X196688152Y-137057141D02*
X196783390Y-137009522D01*
X196783390Y-137009522D02*
X196831009Y-136961903D01*
X196831009Y-136961903D02*
X196878628Y-136866665D01*
X196878628Y-136866665D02*
X196878628Y-136485713D01*
X196354819Y-137390475D02*
X196354819Y-138057141D01*
X196354819Y-138057141D02*
X197354819Y-137628570D01*
X196783390Y-138580951D02*
X196735771Y-138485713D01*
X196735771Y-138485713D02*
X196688152Y-138438094D01*
X196688152Y-138438094D02*
X196592914Y-138390475D01*
X196592914Y-138390475D02*
X196545295Y-138390475D01*
X196545295Y-138390475D02*
X196450057Y-138438094D01*
X196450057Y-138438094D02*
X196402438Y-138485713D01*
X196402438Y-138485713D02*
X196354819Y-138580951D01*
X196354819Y-138580951D02*
X196354819Y-138771427D01*
X196354819Y-138771427D02*
X196402438Y-138866665D01*
X196402438Y-138866665D02*
X196450057Y-138914284D01*
X196450057Y-138914284D02*
X196545295Y-138961903D01*
X196545295Y-138961903D02*
X196592914Y-138961903D01*
X196592914Y-138961903D02*
X196688152Y-138914284D01*
X196688152Y-138914284D02*
X196735771Y-138866665D01*
X196735771Y-138866665D02*
X196783390Y-138771427D01*
X196783390Y-138771427D02*
X196783390Y-138580951D01*
X196783390Y-138580951D02*
X196831009Y-138485713D01*
X196831009Y-138485713D02*
X196878628Y-138438094D01*
X196878628Y-138438094D02*
X196973866Y-138390475D01*
X196973866Y-138390475D02*
X197164342Y-138390475D01*
X197164342Y-138390475D02*
X197259580Y-138438094D01*
X197259580Y-138438094D02*
X197307200Y-138485713D01*
X197307200Y-138485713D02*
X197354819Y-138580951D01*
X197354819Y-138580951D02*
X197354819Y-138771427D01*
X197354819Y-138771427D02*
X197307200Y-138866665D01*
X197307200Y-138866665D02*
X197259580Y-138914284D01*
X197259580Y-138914284D02*
X197164342Y-138961903D01*
X197164342Y-138961903D02*
X196973866Y-138961903D01*
X196973866Y-138961903D02*
X196878628Y-138914284D01*
X196878628Y-138914284D02*
X196831009Y-138866665D01*
X196831009Y-138866665D02*
X196783390Y-138771427D01*
X199124819Y-113590476D02*
X199839104Y-113590476D01*
X199839104Y-113590476D02*
X199981961Y-113542857D01*
X199981961Y-113542857D02*
X200077200Y-113447619D01*
X200077200Y-113447619D02*
X200124819Y-113304762D01*
X200124819Y-113304762D02*
X200124819Y-113209524D01*
X200124819Y-114590476D02*
X200124819Y-114019048D01*
X200124819Y-114304762D02*
X199124819Y-114304762D01*
X199124819Y-114304762D02*
X199267676Y-114209524D01*
X199267676Y-114209524D02*
X199362914Y-114114286D01*
X199362914Y-114114286D02*
X199410533Y-114019048D01*
X199124819Y-115495238D02*
X199124819Y-115019048D01*
X199124819Y-115019048D02*
X199601009Y-114971429D01*
X199601009Y-114971429D02*
X199553390Y-115019048D01*
X199553390Y-115019048D02*
X199505771Y-115114286D01*
X199505771Y-115114286D02*
X199505771Y-115352381D01*
X199505771Y-115352381D02*
X199553390Y-115447619D01*
X199553390Y-115447619D02*
X199601009Y-115495238D01*
X199601009Y-115495238D02*
X199696247Y-115542857D01*
X199696247Y-115542857D02*
X199934342Y-115542857D01*
X199934342Y-115542857D02*
X200029580Y-115495238D01*
X200029580Y-115495238D02*
X200077200Y-115447619D01*
X200077200Y-115447619D02*
X200124819Y-115352381D01*
X200124819Y-115352381D02*
X200124819Y-115114286D01*
X200124819Y-115114286D02*
X200077200Y-115019048D01*
X200077200Y-115019048D02*
X200029580Y-114971429D01*
X107456751Y-125498918D02*
X107928155Y-126441727D01*
X107928155Y-126441727D02*
X106985346Y-125970323D01*
X107052689Y-127317193D02*
X106951674Y-126744773D01*
X107456750Y-126913132D02*
X106749644Y-126206025D01*
X106749644Y-126206025D02*
X106480270Y-126475399D01*
X106480270Y-126475399D02*
X106446598Y-126576414D01*
X106446598Y-126576414D02*
X106446598Y-126643758D01*
X106446598Y-126643758D02*
X106480270Y-126744773D01*
X106480270Y-126744773D02*
X106581285Y-126845788D01*
X106581285Y-126845788D02*
X106682300Y-126879460D01*
X106682300Y-126879460D02*
X106749644Y-126879460D01*
X106749644Y-126879460D02*
X106850659Y-126845788D01*
X106850659Y-126845788D02*
X107120033Y-126576414D01*
X105739491Y-127216178D02*
X105874178Y-127081491D01*
X105874178Y-127081491D02*
X105975193Y-127047819D01*
X105975193Y-127047819D02*
X106042537Y-127047819D01*
X106042537Y-127047819D02*
X106210896Y-127081491D01*
X106210896Y-127081491D02*
X106379254Y-127182506D01*
X106379254Y-127182506D02*
X106648628Y-127451880D01*
X106648628Y-127451880D02*
X106682300Y-127552895D01*
X106682300Y-127552895D02*
X106682300Y-127620239D01*
X106682300Y-127620239D02*
X106648628Y-127721254D01*
X106648628Y-127721254D02*
X106513941Y-127855941D01*
X106513941Y-127855941D02*
X106412926Y-127889613D01*
X106412926Y-127889613D02*
X106345583Y-127889613D01*
X106345583Y-127889613D02*
X106244567Y-127855941D01*
X106244567Y-127855941D02*
X106076209Y-127687582D01*
X106076209Y-127687582D02*
X106042537Y-127586567D01*
X106042537Y-127586567D02*
X106042537Y-127519223D01*
X106042537Y-127519223D02*
X106076209Y-127418208D01*
X106076209Y-127418208D02*
X106210896Y-127283521D01*
X106210896Y-127283521D02*
X106311911Y-127249849D01*
X106311911Y-127249849D02*
X106379254Y-127249849D01*
X106379254Y-127249849D02*
X106480270Y-127283521D01*
X72833333Y-45654819D02*
X72833333Y-46369104D01*
X72833333Y-46369104D02*
X72880952Y-46511961D01*
X72880952Y-46511961D02*
X72976190Y-46607200D01*
X72976190Y-46607200D02*
X73119047Y-46654819D01*
X73119047Y-46654819D02*
X73214285Y-46654819D01*
X72309523Y-46654819D02*
X72119047Y-46654819D01*
X72119047Y-46654819D02*
X72023809Y-46607200D01*
X72023809Y-46607200D02*
X71976190Y-46559580D01*
X71976190Y-46559580D02*
X71880952Y-46416723D01*
X71880952Y-46416723D02*
X71833333Y-46226247D01*
X71833333Y-46226247D02*
X71833333Y-45845295D01*
X71833333Y-45845295D02*
X71880952Y-45750057D01*
X71880952Y-45750057D02*
X71928571Y-45702438D01*
X71928571Y-45702438D02*
X72023809Y-45654819D01*
X72023809Y-45654819D02*
X72214285Y-45654819D01*
X72214285Y-45654819D02*
X72309523Y-45702438D01*
X72309523Y-45702438D02*
X72357142Y-45750057D01*
X72357142Y-45750057D02*
X72404761Y-45845295D01*
X72404761Y-45845295D02*
X72404761Y-46083390D01*
X72404761Y-46083390D02*
X72357142Y-46178628D01*
X72357142Y-46178628D02*
X72309523Y-46226247D01*
X72309523Y-46226247D02*
X72214285Y-46273866D01*
X72214285Y-46273866D02*
X72023809Y-46273866D01*
X72023809Y-46273866D02*
X71928571Y-46226247D01*
X71928571Y-46226247D02*
X71880952Y-46178628D01*
X71880952Y-46178628D02*
X71833333Y-46083390D01*
X192854819Y-137057142D02*
X192378628Y-136723809D01*
X192854819Y-136485714D02*
X191854819Y-136485714D01*
X191854819Y-136485714D02*
X191854819Y-136866666D01*
X191854819Y-136866666D02*
X191902438Y-136961904D01*
X191902438Y-136961904D02*
X191950057Y-137009523D01*
X191950057Y-137009523D02*
X192045295Y-137057142D01*
X192045295Y-137057142D02*
X192188152Y-137057142D01*
X192188152Y-137057142D02*
X192283390Y-137009523D01*
X192283390Y-137009523D02*
X192331009Y-136961904D01*
X192331009Y-136961904D02*
X192378628Y-136866666D01*
X192378628Y-136866666D02*
X192378628Y-136485714D01*
X191854819Y-137390476D02*
X191854819Y-138057142D01*
X191854819Y-138057142D02*
X192854819Y-137628571D01*
X191854819Y-138866666D02*
X191854819Y-138676190D01*
X191854819Y-138676190D02*
X191902438Y-138580952D01*
X191902438Y-138580952D02*
X191950057Y-138533333D01*
X191950057Y-138533333D02*
X192092914Y-138438095D01*
X192092914Y-138438095D02*
X192283390Y-138390476D01*
X192283390Y-138390476D02*
X192664342Y-138390476D01*
X192664342Y-138390476D02*
X192759580Y-138438095D01*
X192759580Y-138438095D02*
X192807200Y-138485714D01*
X192807200Y-138485714D02*
X192854819Y-138580952D01*
X192854819Y-138580952D02*
X192854819Y-138771428D01*
X192854819Y-138771428D02*
X192807200Y-138866666D01*
X192807200Y-138866666D02*
X192759580Y-138914285D01*
X192759580Y-138914285D02*
X192664342Y-138961904D01*
X192664342Y-138961904D02*
X192426247Y-138961904D01*
X192426247Y-138961904D02*
X192331009Y-138914285D01*
X192331009Y-138914285D02*
X192283390Y-138866666D01*
X192283390Y-138866666D02*
X192235771Y-138771428D01*
X192235771Y-138771428D02*
X192235771Y-138580952D01*
X192235771Y-138580952D02*
X192283390Y-138485714D01*
X192283390Y-138485714D02*
X192331009Y-138438095D01*
X192331009Y-138438095D02*
X192426247Y-138390476D01*
D12*
%TO.C,D47*%
X189438000Y-104800000D02*
X185162000Y-104800000D01*
X190310000Y-102200000D02*
X185162000Y-102200000D01*
D11*
%TO.C,J12*%
X61235000Y-127100001D02*
X66565000Y-127100001D01*
D13*
%TO.C,REF\u002A\u002A*%
X143200000Y-103760000D02*
X151200000Y-103760000D01*
D12*
X143690000Y-103740000D02*
X143423678Y-103330736D01*
D14*
X147200000Y-96840000D02*
X143200000Y-103760000D01*
D12*
X147332899Y-100779099D02*
X147087101Y-100980901D01*
X147350000Y-97260000D02*
X147040000Y-97260000D01*
X147540000Y-102395000D02*
X147030000Y-102485000D01*
X147650000Y-100515000D02*
X147440000Y-100740000D01*
X150710000Y-103740000D02*
X150976322Y-103330736D01*
D14*
X151200000Y-103760000D02*
X147200000Y-96840000D01*
D11*
X148282083Y-101382083D02*
X147161573Y-100785448D01*
X147438062Y-102517146D01*
X147670896Y-102197000D01*
X147452615Y-103244750D01*
X146855979Y-102357073D01*
X147190677Y-102560802D01*
X146535833Y-100174260D01*
X147700000Y-100800000D01*
X146841427Y-98806364D01*
X147554479Y-98806364D01*
X148282083Y-101382083D01*
G36*
X148282083Y-101382083D02*
G01*
X147161573Y-100785448D01*
X147438062Y-102517146D01*
X147670896Y-102197000D01*
X147452615Y-103244750D01*
X146855979Y-102357073D01*
X147190677Y-102560802D01*
X146535833Y-100174260D01*
X147700000Y-100800000D01*
X146841427Y-98806364D01*
X147554479Y-98806364D01*
X148282083Y-101382083D01*
G37*
%TO.C,J18*%
X131565000Y-127400001D02*
X136895000Y-127400001D01*
D15*
%TO.C,J16*%
X175550000Y-125700000D02*
X175550000Y-127030000D01*
X175550000Y-127030000D02*
X176880000Y-127030000D01*
X178150001Y-124370000D02*
X178150001Y-127030000D01*
X178150001Y-124370000D02*
X198530000Y-124370000D01*
X178150001Y-127030000D02*
X198530000Y-127030000D01*
X198530000Y-124370000D02*
X198530000Y-127030000D01*
%TO.C,D43*%
X95037258Y-135777500D02*
X94562742Y-135777500D01*
X95037258Y-136822500D02*
X94562742Y-136822500D01*
%TO.C,D37*%
X63137742Y-77577500D02*
X63612258Y-77577500D01*
X63137742Y-78622500D02*
X63612258Y-78622500D01*
D11*
%TO.C,J8*%
X83462400Y-55803399D02*
X78132400Y-55803399D01*
D15*
%TO.C,D46*%
X94477500Y-122737258D02*
X94477500Y-122262742D01*
X95522500Y-122737258D02*
X95522500Y-122262742D01*
%TO.C,C15*%
X112738781Y-77560030D02*
X112539970Y-77361219D01*
X113460030Y-76838781D02*
X113261219Y-76639970D01*
%TO.C,R54*%
X176790000Y-66214564D02*
X176790000Y-61860436D01*
X180210000Y-66214564D02*
X180210000Y-61860436D01*
D11*
%TO.C,J13*%
X86535000Y-127100001D02*
X91865000Y-127100001D01*
D15*
%TO.C,D42*%
X129277500Y-132212258D02*
X129277500Y-131737742D01*
X130322500Y-132212258D02*
X130322500Y-131737742D01*
D13*
%TO.C,VR1*%
X231143240Y-65458080D02*
X231143240Y-95425000D01*
X231143240Y-95425000D02*
X229500000Y-93500000D01*
X231143240Y-95425000D02*
X233000000Y-93500000D01*
D15*
%TO.C,R52*%
X189790000Y-66177064D02*
X189790000Y-61822936D01*
X193210000Y-66177064D02*
X193210000Y-61822936D01*
%TO.C,C16*%
X118638781Y-84639970D02*
X118439970Y-84838781D01*
X119360030Y-85361219D02*
X119161219Y-85560030D01*
%TO.C,D34*%
X192837743Y-131877498D02*
X193312259Y-131877498D01*
X192837743Y-132922498D02*
X193312259Y-132922498D01*
%TO.C,D38*%
X62062742Y-74177500D02*
X62537258Y-74177500D01*
X62062742Y-75222500D02*
X62537258Y-75222500D01*
%TO.C,D35*%
X196462258Y-131877500D02*
X195987742Y-131877500D01*
X196462258Y-132922500D02*
X195987742Y-132922500D01*
D11*
%TO.C,J11*%
X69665000Y-127100001D02*
X74995000Y-127100001D01*
D15*
%TO.C,D39*%
X119562742Y-135177500D02*
X120037258Y-135177500D01*
X119562742Y-136222500D02*
X120037258Y-136222500D01*
%TO.C,C33*%
X107924792Y-137096146D02*
X106918930Y-136090284D01*
X109848122Y-135172816D02*
X108842260Y-134166954D01*
%TO.C,D36*%
X84437258Y-45677500D02*
X83962742Y-45677500D01*
X84437258Y-46722500D02*
X83962742Y-46722500D01*
%TO.C,D41*%
X119562742Y-133377500D02*
X120037258Y-133377500D01*
X119562742Y-134422500D02*
X120037258Y-134422500D01*
%TO.C,C17*%
X125338781Y-91239970D02*
X125139970Y-91438781D01*
X126060030Y-91961219D02*
X125861219Y-92160030D01*
%TO.C,D40*%
X119562742Y-131577500D02*
X120037258Y-131577500D01*
X119562742Y-132622500D02*
X120037258Y-132622500D01*
%TO.C,R79*%
X193377500Y-134462742D02*
X193377500Y-134937258D01*
X194422500Y-134462742D02*
X194422500Y-134937258D01*
D11*
%TO.C,J17*%
X122565000Y-127400001D02*
X127895000Y-127400001D01*
%TO.C,J10*%
X66795000Y-55799999D02*
X61465000Y-55799999D01*
D15*
%TO.C,R77*%
X194877499Y-134462740D02*
X194877499Y-134937256D01*
X195922499Y-134462740D02*
X195922499Y-134937256D01*
D11*
%TO.C,J6*%
X78105000Y-127100001D02*
X83435000Y-127100001D01*
%TO.C,VR2*%
X140500000Y-86000000D02*
X152500000Y-86000000D01*
X140500000Y-94500000D02*
X140500000Y-86000000D01*
X152500000Y-86000000D02*
X152500001Y-94500000D01*
X152500001Y-94500000D02*
X140500000Y-94500000D01*
X152500001Y-94500000D02*
X152500001Y-94500000D01*
D16*
X172000000Y-91000000D02*
X174500000Y-89000000D01*
X172000000Y-91000000D02*
X174500000Y-93500000D01*
D11*
X174500000Y-89000000D02*
X172000000Y-91000000D01*
D16*
X186500000Y-91000000D02*
X172000000Y-91000000D01*
D11*
X204999999Y-85500000D02*
X204999999Y-85500000D01*
X204999999Y-85500000D02*
X217000000Y-85500000D01*
X205000000Y-94000000D02*
X204999999Y-85500000D01*
X217000000Y-85500000D02*
X217000000Y-94000000D01*
X217000000Y-94000000D02*
X205000000Y-94000000D01*
D15*
%TO.C,C32*%
X115420124Y-129459391D02*
X114414262Y-128453529D01*
X117343454Y-127536061D02*
X116337592Y-126530199D01*
%TO.C,R78*%
X196377500Y-134462741D02*
X196377500Y-134937257D01*
X197422500Y-134462741D02*
X197422500Y-134937257D01*
D13*
%TO.C,REF\u002A\u002A*%
X207700000Y-103760000D02*
X215700000Y-103760000D01*
D12*
X208190000Y-103740000D02*
X207923678Y-103330736D01*
D14*
X211700000Y-96840000D02*
X207700000Y-103760000D01*
D12*
X211832899Y-100779099D02*
X211587101Y-100980901D01*
X211850000Y-97260000D02*
X211540000Y-97260000D01*
X212040000Y-102395000D02*
X211530000Y-102485000D01*
X212150000Y-100515000D02*
X211940000Y-100740000D01*
X215210000Y-103740000D02*
X215476322Y-103330736D01*
D14*
X215700000Y-103760000D02*
X211700000Y-96840000D01*
D11*
X212782083Y-101382083D02*
X211661573Y-100785448D01*
X211938062Y-102517146D01*
X212170896Y-102197000D01*
X211952615Y-103244750D01*
X211355979Y-102357073D01*
X211690677Y-102560802D01*
X211035833Y-100174260D01*
X212200000Y-100800000D01*
X211341427Y-98806364D01*
X212054479Y-98806364D01*
X212782083Y-101382083D01*
G36*
X212782083Y-101382083D02*
G01*
X211661573Y-100785448D01*
X211938062Y-102517146D01*
X212170896Y-102197000D01*
X211952615Y-103244750D01*
X211355979Y-102357073D01*
X211690677Y-102560802D01*
X211035833Y-100174260D01*
X212200000Y-100800000D01*
X211341427Y-98806364D01*
X212054479Y-98806364D01*
X212782083Y-101382083D01*
G37*
D15*
%TO.C,J15*%
X175250000Y-115730000D02*
X175250000Y-113070000D01*
X195629999Y-113070000D02*
X175250000Y-113070000D01*
X195629999Y-115730000D02*
X175250000Y-115730000D01*
X195629999Y-115730000D02*
X195629999Y-113070000D01*
X198230000Y-113070000D02*
X196900000Y-113070000D01*
X198230000Y-114400000D02*
X198230000Y-113070000D01*
D12*
%TO.C,VR6*%
X107146089Y-131494975D02*
X109620963Y-133969849D01*
X109620963Y-133969849D02*
X114217157Y-129373655D01*
X111742283Y-126898781D02*
X107146089Y-131494975D01*
X114217157Y-129373655D02*
X111742283Y-126898781D01*
X115719759Y-131088389D02*
X114411611Y-129780241D01*
D11*
%TO.C,J9*%
X75164999Y-55799999D02*
X69834999Y-55799999D01*
D15*
%TO.C,R76*%
X191877500Y-134462742D02*
X191877500Y-134937258D01*
X192922500Y-134462742D02*
X192922500Y-134937258D01*
%TD*%
M02*
