%TF.GenerationSoftware,KiCad,Pcbnew,9.0.6*%
%TF.CreationDate,2025-12-07T16:13:13-07:00*%
%TF.ProjectId,64 Bit - Main Board,36342042-6974-4202-9d20-4d61696e2042,rev?*%
%TF.SameCoordinates,Original*%
%TF.FileFunction,Paste,Bot*%
%TF.FilePolarity,Positive*%
%FSLAX46Y46*%
G04 Gerber Fmt 4.6, Leading zero omitted, Abs format (unit mm)*
G04 Created by KiCad (PCBNEW 9.0.6) date 2025-12-07 16:13:13*
%MOMM*%
%LPD*%
G01*
G04 APERTURE LIST*
G04 Aperture macros list*
%AMRoundRect*
0 Rectangle with rounded corners*
0 $1 Rounding radius*
0 $2 $3 $4 $5 $6 $7 $8 $9 X,Y pos of 4 corners*
0 Add a 4 corners polygon primitive as box body*
4,1,4,$2,$3,$4,$5,$6,$7,$8,$9,$2,$3,0*
0 Add four circle primitives for the rounded corners*
1,1,$1+$1,$2,$3*
1,1,$1+$1,$4,$5*
1,1,$1+$1,$6,$7*
1,1,$1+$1,$8,$9*
0 Add four rect primitives between the rounded corners*
20,1,$1+$1,$2,$3,$4,$5,0*
20,1,$1+$1,$4,$5,$6,$7,0*
20,1,$1+$1,$6,$7,$8,$9,0*
20,1,$1+$1,$8,$9,$2,$3,0*%
%AMRotRect*
0 Rectangle, with rotation*
0 The origin of the aperture is its center*
0 $1 length*
0 $2 width*
0 $3 Rotation angle, in degrees counterclockwise*
0 Add horizontal line*
21,1,$1,$2,0,0,$3*%
G04 Aperture macros list end*
%ADD10R,1.820000X1.670000*%
%ADD11R,1.000000X2.000000*%
%ADD12RoundRect,0.200000X0.200000X0.275000X-0.200000X0.275000X-0.200000X-0.275000X0.200000X-0.275000X0*%
%ADD13RoundRect,0.200000X-0.200000X-0.275000X0.200000X-0.275000X0.200000X0.275000X-0.200000X0.275000X0*%
%ADD14RoundRect,0.200000X0.275000X-0.200000X0.275000X0.200000X-0.275000X0.200000X-0.275000X-0.200000X0*%
%ADD15RoundRect,0.225000X0.335876X0.017678X0.017678X0.335876X-0.335876X-0.017678X-0.017678X-0.335876X0*%
%ADD16RoundRect,0.250000X1.425000X-0.362500X1.425000X0.362500X-1.425000X0.362500X-1.425000X-0.362500X0*%
%ADD17RoundRect,0.225000X-0.017678X0.335876X-0.335876X0.017678X0.017678X-0.335876X0.335876X-0.017678X0*%
%ADD18RoundRect,0.250000X1.007627X0.548008X0.548008X1.007627X-1.007627X-0.548008X-0.548008X-1.007627X0*%
%ADD19RoundRect,0.200000X-0.275000X0.200000X-0.275000X-0.200000X0.275000X-0.200000X0.275000X0.200000X0*%
%ADD20RotRect,0.900000X1.850000X45.000000*%
%ADD21RotRect,1.850000X3.200000X135.000000*%
G04 APERTURE END LIST*
D10*
%TO.C,D47*%
X189400000Y-103500000D03*
X185200000Y-103500000D03*
%TD*%
D11*
%TO.C,J12*%
X65170000Y-133800000D03*
X65170000Y-130300000D03*
X62630000Y-133800000D03*
X62630000Y-130300000D03*
%TD*%
%TO.C,J18*%
X135500000Y-134100000D03*
X135500000Y-130600000D03*
X132960000Y-134100000D03*
X132960000Y-130600000D03*
%TD*%
D12*
%TO.C,D43*%
X95625000Y-136300000D03*
X93975000Y-136300000D03*
%TD*%
D13*
%TO.C,D37*%
X62550000Y-78100000D03*
X64200000Y-78100000D03*
%TD*%
D11*
%TO.C,J8*%
X79527400Y-49103400D03*
X79527400Y-52603400D03*
X82067400Y-49103400D03*
X82067400Y-52603400D03*
%TD*%
D14*
%TO.C,D46*%
X95000000Y-123325000D03*
X95000000Y-121675000D03*
%TD*%
D15*
%TO.C,C15*%
X113548008Y-77648008D03*
X112451992Y-76551992D03*
%TD*%
D16*
%TO.C,R54*%
X178500000Y-67000000D03*
X178500000Y-61075000D03*
%TD*%
D11*
%TO.C,J13*%
X90470000Y-133800000D03*
X90470000Y-130300000D03*
X87930000Y-133800000D03*
X87930000Y-130300000D03*
%TD*%
D14*
%TO.C,D42*%
X129800000Y-132800000D03*
X129800000Y-131150000D03*
%TD*%
D16*
%TO.C,R52*%
X191500000Y-66962500D03*
X191500000Y-61037500D03*
%TD*%
D17*
%TO.C,C16*%
X119448008Y-84551992D03*
X118351992Y-85648008D03*
%TD*%
D13*
%TO.C,D34*%
X192250001Y-132399998D03*
X193900001Y-132399998D03*
%TD*%
%TO.C,D38*%
X61475000Y-74700000D03*
X63125000Y-74700000D03*
%TD*%
D12*
%TO.C,D35*%
X197050000Y-132400000D03*
X195400000Y-132400000D03*
%TD*%
D11*
%TO.C,J11*%
X73600000Y-133800000D03*
X73600000Y-130300000D03*
X71060000Y-133800000D03*
X71060000Y-130300000D03*
%TD*%
D13*
%TO.C,D39*%
X118975000Y-135700000D03*
X120625000Y-135700000D03*
%TD*%
D18*
%TO.C,C33*%
X109426509Y-136674533D03*
X107340543Y-134588567D03*
%TD*%
D12*
%TO.C,D36*%
X85025000Y-46200000D03*
X83375000Y-46200000D03*
%TD*%
D13*
%TO.C,D41*%
X118975000Y-133900000D03*
X120625000Y-133900000D03*
%TD*%
D17*
%TO.C,C17*%
X126148008Y-91151992D03*
X125051992Y-92248008D03*
%TD*%
D13*
%TO.C,D40*%
X118975000Y-132100000D03*
X120625000Y-132100000D03*
%TD*%
D19*
%TO.C,R79*%
X193900000Y-133875000D03*
X193900000Y-135525000D03*
%TD*%
D11*
%TO.C,J17*%
X126500000Y-134100000D03*
X126500000Y-130600000D03*
X123960000Y-134100000D03*
X123960000Y-130600000D03*
%TD*%
%TO.C,J10*%
X62860000Y-49100000D03*
X62860000Y-52600000D03*
X65400000Y-49100000D03*
X65400000Y-52600000D03*
%TD*%
D19*
%TO.C,R77*%
X195399999Y-133874998D03*
X195399999Y-135524998D03*
%TD*%
D11*
%TO.C,J6*%
X82040000Y-133800000D03*
X82040000Y-130300000D03*
X79500000Y-133800000D03*
X79500000Y-130300000D03*
%TD*%
D18*
%TO.C,C32*%
X116921841Y-129037778D03*
X114835875Y-126951812D03*
%TD*%
D19*
%TO.C,R78*%
X196900000Y-133874999D03*
X196900000Y-135524999D03*
%TD*%
D20*
%TO.C,VR6*%
X114500000Y-131000000D03*
X112873654Y-132626346D03*
X111247308Y-134252692D03*
D21*
X108489592Y-128242284D03*
%TD*%
D11*
%TO.C,J9*%
X71229999Y-49100000D03*
X71229999Y-52600000D03*
X73769999Y-49100000D03*
X73769999Y-52600000D03*
%TD*%
D19*
%TO.C,R76*%
X192400000Y-133875000D03*
X192400000Y-135525000D03*
%TD*%
M02*
