%TF.GenerationSoftware,KiCad,Pcbnew,9.0.6*%
%TF.CreationDate,2025-12-07T16:13:13-07:00*%
%TF.ProjectId,64 Bit - Main Board,36342042-6974-4202-9d20-4d61696e2042,rev?*%
%TF.SameCoordinates,Original*%
%TF.FileFunction,Soldermask,Bot*%
%TF.FilePolarity,Negative*%
%FSLAX46Y46*%
G04 Gerber Fmt 4.6, Leading zero omitted, Abs format (unit mm)*
G04 Created by KiCad (PCBNEW 9.0.6) date 2025-12-07 16:13:13*
%MOMM*%
%LPD*%
G01*
G04 APERTURE LIST*
G04 Aperture macros list*
%AMRoundRect*
0 Rectangle with rounded corners*
0 $1 Rounding radius*
0 $2 $3 $4 $5 $6 $7 $8 $9 X,Y pos of 4 corners*
0 Add a 4 corners polygon primitive as box body*
4,1,4,$2,$3,$4,$5,$6,$7,$8,$9,$2,$3,0*
0 Add four circle primitives for the rounded corners*
1,1,$1+$1,$2,$3*
1,1,$1+$1,$4,$5*
1,1,$1+$1,$6,$7*
1,1,$1+$1,$8,$9*
0 Add four rect primitives between the rounded corners*
20,1,$1+$1,$2,$3,$4,$5,0*
20,1,$1+$1,$4,$5,$6,$7,0*
20,1,$1+$1,$6,$7,$8,$9,0*
20,1,$1+$1,$8,$9,$2,$3,0*%
%AMRotRect*
0 Rectangle, with rotation*
0 The origin of the aperture is its center*
0 $1 length*
0 $2 width*
0 $3 Rotation angle, in degrees counterclockwise*
0 Add horizontal line*
21,1,$1,$2,0,0,$3*%
G04 Aperture macros list end*
%ADD10C,1.500000*%
%ADD11C,2.250000*%
%ADD12C,1.950000*%
%ADD13C,1.605000*%
%ADD14C,0.750000*%
%ADD15C,8.000000*%
%ADD16C,2.475000*%
%ADD17R,1.950000X1.950000*%
%ADD18C,1.750000*%
%ADD19R,1.700000X1.700000*%
%ADD20C,1.700000*%
%ADD21RoundRect,0.250001X-0.949999X-0.949999X0.949999X-0.949999X0.949999X0.949999X-0.949999X0.949999X0*%
%ADD22C,2.400000*%
%ADD23C,4.000000*%
%ADD24C,3.000000*%
%ADD25R,1.820000X1.670000*%
%ADD26R,1.000000X2.000000*%
%ADD27RoundRect,0.200000X0.200000X0.275000X-0.200000X0.275000X-0.200000X-0.275000X0.200000X-0.275000X0*%
%ADD28RoundRect,0.200000X-0.200000X-0.275000X0.200000X-0.275000X0.200000X0.275000X-0.200000X0.275000X0*%
%ADD29RoundRect,0.200000X0.275000X-0.200000X0.275000X0.200000X-0.275000X0.200000X-0.275000X-0.200000X0*%
%ADD30RoundRect,0.225000X0.335876X0.017678X0.017678X0.335876X-0.335876X-0.017678X-0.017678X-0.335876X0*%
%ADD31RoundRect,0.250000X1.425000X-0.362500X1.425000X0.362500X-1.425000X0.362500X-1.425000X-0.362500X0*%
%ADD32RoundRect,0.425000X-0.425000X0.425000X-0.425000X-0.425000X0.425000X-0.425000X0.425000X0.425000X0*%
%ADD33RoundRect,0.225000X-0.017678X0.335876X-0.335876X0.017678X0.017678X-0.335876X0.335876X-0.017678X0*%
%ADD34RoundRect,0.250000X1.007627X0.548008X0.548008X1.007627X-1.007627X-0.548008X-0.548008X-1.007627X0*%
%ADD35RoundRect,0.200000X-0.275000X0.200000X-0.275000X-0.200000X0.275000X-0.200000X0.275000X0.200000X0*%
%ADD36C,5.000000*%
%ADD37RotRect,0.900000X1.850000X45.000000*%
%ADD38RotRect,1.850000X3.200000X135.000000*%
G04 APERTURE END LIST*
D10*
%TO.C,TP3*%
X128200000Y-110000000D03*
%TD*%
D11*
%TO.C,K2*%
X174790000Y-74125000D03*
X174790000Y-80525000D03*
D12*
X174790000Y-99425000D03*
X182410000Y-99425000D03*
D11*
X182410000Y-77325000D03*
%TD*%
D10*
%TO.C,SW3*%
X125100000Y-46500000D03*
X128600000Y-51500000D03*
%TD*%
%TO.C,TP5*%
X156500000Y-74100000D03*
%TD*%
%TO.C,TP4*%
X218500000Y-100700000D03*
%TD*%
D13*
%TO.C,J2*%
X146920000Y-63040000D03*
X146920000Y-60500000D03*
X149460000Y-63040000D03*
X149460000Y-60500000D03*
X152000000Y-63040000D03*
X152000000Y-60500000D03*
X154540000Y-63040000D03*
X154540000Y-60500000D03*
X157080000Y-63040000D03*
X157080000Y-60500000D03*
%TD*%
D10*
%TO.C,TP2*%
X116000000Y-121900000D03*
%TD*%
%TO.C,SW6*%
X164500000Y-46500000D03*
X168000000Y-51500000D03*
%TD*%
%TO.C,R80*%
X76550000Y-127200000D03*
X76550000Y-123800000D03*
%TD*%
%TO.C,TP1*%
X89200000Y-86400000D03*
%TD*%
D14*
%TO.C,J5*%
X233405000Y-46300000D03*
X227405000Y-46300000D03*
%TD*%
D15*
%TO.C,H5*%
X247000000Y-135500000D03*
%TD*%
D10*
%TO.C,J14*%
X215050000Y-49100000D03*
X211550000Y-44100000D03*
%TD*%
D16*
%TO.C,SW5*%
X245742500Y-87925000D03*
X245742500Y-83325000D03*
X245742500Y-78725000D03*
%TD*%
D10*
%TO.C,SW4*%
X104100000Y-46500000D03*
X107600000Y-51500000D03*
%TD*%
D15*
%TO.C,H1*%
X57000000Y-135500000D03*
%TD*%
D17*
%TO.C,K5*%
X223710000Y-74325000D03*
D12*
X213510000Y-74325000D03*
X205890000Y-74325000D03*
X223710000Y-81945000D03*
%TD*%
D18*
%TO.C,U9*%
X195692500Y-111050000D03*
X193152500Y-111050000D03*
X190612501Y-111050000D03*
X188072500Y-111050000D03*
X185532500Y-111050000D03*
X182992500Y-111050000D03*
X180452500Y-111050000D03*
X177912499Y-111050000D03*
X175372500Y-111050000D03*
X175372500Y-128830000D03*
X177912500Y-128830000D03*
X180452500Y-128830000D03*
X182992499Y-128830000D03*
X185532501Y-128830000D03*
X188072500Y-128830000D03*
X190612500Y-128830000D03*
X193152500Y-128830000D03*
X195692500Y-128830001D03*
%TD*%
D19*
%TO.C,P1*%
X59600000Y-99875000D03*
D20*
X59600000Y-97335000D03*
%TD*%
D11*
%TO.C,K1*%
X186817000Y-74137400D03*
X186817000Y-80537400D03*
D12*
X186817000Y-99437400D03*
X194437000Y-99437400D03*
D11*
X194437000Y-77337400D03*
%TD*%
D21*
%TO.C,C25*%
X224870800Y-113029800D03*
D22*
X229870800Y-113029800D03*
%TD*%
D19*
%TO.C,JP1*%
X191900000Y-106900000D03*
D20*
X189360000Y-106900000D03*
%TD*%
D15*
%TO.C,H2*%
X57000000Y-45500000D03*
%TD*%
%TO.C,H4*%
X247000000Y-45500000D03*
%TD*%
D10*
%TO.C,U7*%
X250500000Y-118500000D03*
X250500000Y-113500000D03*
X250500000Y-116000000D03*
X248000000Y-118500000D03*
X248000000Y-113500000D03*
D23*
X247000000Y-109600000D03*
X247000000Y-122400000D03*
%TD*%
D13*
%TO.C,J1*%
X206960000Y-63040000D03*
X206960000Y-60500000D03*
X209500000Y-63040000D03*
X209500000Y-60500000D03*
X212040000Y-63040000D03*
X212040000Y-60500000D03*
X214580000Y-63040000D03*
X214580000Y-60500000D03*
X217120000Y-63040000D03*
X217120000Y-60500000D03*
%TD*%
D15*
%TO.C,H3*%
X152000000Y-45500000D03*
%TD*%
D11*
%TO.C,K3*%
X162763200Y-74137400D03*
X162763200Y-80537400D03*
D12*
X162763200Y-99437400D03*
X170383200Y-99437400D03*
D11*
X170383200Y-77337400D03*
%TD*%
D13*
%TO.C,J3*%
X86920000Y-63270000D03*
X86920000Y-60730000D03*
X89460000Y-63270000D03*
X89460000Y-60730000D03*
X92000000Y-63270000D03*
X92000000Y-60730000D03*
X94540000Y-63270000D03*
X94540000Y-60730000D03*
X97080000Y-63270000D03*
X97080000Y-60730000D03*
%TD*%
D10*
%TO.C,SW2*%
X114600000Y-46500000D03*
X118100000Y-51500000D03*
%TD*%
%TO.C,TP6*%
X57800000Y-118300000D03*
%TD*%
D17*
%TO.C,K4*%
X236890000Y-92145000D03*
D12*
X236890000Y-81945000D03*
X236890000Y-74325000D03*
X229270000Y-92145000D03*
%TD*%
D21*
%TO.C,C26*%
X224900000Y-128600000D03*
D22*
X229900000Y-128600000D03*
%TD*%
D10*
%TO.C,SW1*%
X135600000Y-46500000D03*
X139100000Y-51500000D03*
%TD*%
D24*
%TO.C,J7*%
X196900000Y-54500000D03*
X196900000Y-48500000D03*
X192200000Y-51500000D03*
%TD*%
D25*
%TO.C,D47*%
X189400000Y-103500000D03*
X185200000Y-103500000D03*
%TD*%
D26*
%TO.C,J12*%
X65170000Y-133800000D03*
X65170000Y-130300000D03*
X62630000Y-133800000D03*
X62630000Y-130300000D03*
%TD*%
%TO.C,J18*%
X135500000Y-134100000D03*
X135500000Y-130600000D03*
X132960000Y-134100000D03*
X132960000Y-130600000D03*
%TD*%
D19*
%TO.C,J16*%
X176880000Y-125700000D03*
D20*
X179420000Y-125700000D03*
X181959999Y-125700000D03*
X184500000Y-125700000D03*
X187040000Y-125700000D03*
X189580000Y-125700000D03*
X192120000Y-125700000D03*
X194660001Y-125700000D03*
X197200000Y-125700000D03*
%TD*%
D27*
%TO.C,D43*%
X95625000Y-136300000D03*
X93975000Y-136300000D03*
%TD*%
D28*
%TO.C,D37*%
X62550000Y-78100000D03*
X64200000Y-78100000D03*
%TD*%
D26*
%TO.C,J8*%
X79527400Y-49103400D03*
X79527400Y-52603400D03*
X82067400Y-49103400D03*
X82067400Y-52603400D03*
%TD*%
D29*
%TO.C,D46*%
X95000000Y-123325000D03*
X95000000Y-121675000D03*
%TD*%
D30*
%TO.C,C15*%
X113548008Y-77648008D03*
X112451992Y-76551992D03*
%TD*%
D31*
%TO.C,R54*%
X178500000Y-67000000D03*
X178500000Y-61075000D03*
%TD*%
D26*
%TO.C,J13*%
X90470000Y-133800000D03*
X90470000Y-130300000D03*
X87930000Y-133800000D03*
X87930000Y-130300000D03*
%TD*%
D29*
%TO.C,D42*%
X129800000Y-132800000D03*
X129800000Y-131150000D03*
%TD*%
D32*
%TO.C,VR1*%
X223000000Y-60500000D03*
D20*
X240500000Y-60500000D03*
X240500000Y-100500000D03*
X223000000Y-100500000D03*
%TD*%
D31*
%TO.C,R52*%
X191500000Y-66962500D03*
X191500000Y-61037500D03*
%TD*%
D33*
%TO.C,C16*%
X119448008Y-84551992D03*
X118351992Y-85648008D03*
%TD*%
D28*
%TO.C,D34*%
X192250001Y-132399998D03*
X193900001Y-132399998D03*
%TD*%
%TO.C,D38*%
X61475000Y-74700000D03*
X63125000Y-74700000D03*
%TD*%
D27*
%TO.C,D35*%
X197050000Y-132400000D03*
X195400000Y-132400000D03*
%TD*%
D26*
%TO.C,J11*%
X73600000Y-133800000D03*
X73600000Y-130300000D03*
X71060000Y-133800000D03*
X71060000Y-130300000D03*
%TD*%
D28*
%TO.C,D39*%
X118975000Y-135700000D03*
X120625000Y-135700000D03*
%TD*%
D34*
%TO.C,C33*%
X109426509Y-136674533D03*
X107340543Y-134588567D03*
%TD*%
D27*
%TO.C,D36*%
X85025000Y-46200000D03*
X83375000Y-46200000D03*
%TD*%
D28*
%TO.C,D41*%
X118975000Y-133900000D03*
X120625000Y-133900000D03*
%TD*%
D33*
%TO.C,C17*%
X126148008Y-91151992D03*
X125051992Y-92248008D03*
%TD*%
D28*
%TO.C,D40*%
X118975000Y-132100000D03*
X120625000Y-132100000D03*
%TD*%
D35*
%TO.C,R79*%
X193900000Y-133875000D03*
X193900000Y-135525000D03*
%TD*%
D26*
%TO.C,J17*%
X126500000Y-134100000D03*
X126500000Y-130600000D03*
X123960000Y-134100000D03*
X123960000Y-130600000D03*
%TD*%
%TO.C,J10*%
X62860000Y-49100000D03*
X62860000Y-52600000D03*
X65400000Y-49100000D03*
X65400000Y-52600000D03*
%TD*%
D35*
%TO.C,R77*%
X195399999Y-133874998D03*
X195399999Y-135524998D03*
%TD*%
D26*
%TO.C,J6*%
X82040000Y-133800000D03*
X82040000Y-130300000D03*
X79500000Y-133800000D03*
X79500000Y-130300000D03*
%TD*%
D10*
%TO.C,VR2*%
X207300000Y-88750000D03*
X212300000Y-92250000D03*
X150200000Y-91250000D03*
X145200000Y-87750000D03*
D36*
X200750000Y-101000000D03*
X200750000Y-81000000D03*
X157250000Y-101000000D03*
X157250000Y-81000000D03*
%TD*%
D34*
%TO.C,C32*%
X116921841Y-129037778D03*
X114835875Y-126951812D03*
%TD*%
D35*
%TO.C,R78*%
X196900000Y-133874999D03*
X196900000Y-135524999D03*
%TD*%
D19*
%TO.C,J15*%
X196900000Y-114400000D03*
D20*
X194360000Y-114400000D03*
X191820001Y-114400000D03*
X189280000Y-114400000D03*
X186740000Y-114400000D03*
X184200000Y-114400000D03*
X181660000Y-114400000D03*
X179119999Y-114400000D03*
X176580000Y-114400000D03*
%TD*%
D37*
%TO.C,VR6*%
X114500000Y-131000000D03*
X112873654Y-132626346D03*
X111247308Y-134252692D03*
D38*
X108489592Y-128242284D03*
%TD*%
D26*
%TO.C,J9*%
X71229999Y-49100000D03*
X71229999Y-52600000D03*
X73769999Y-49100000D03*
X73769999Y-52600000D03*
%TD*%
D35*
%TO.C,R76*%
X192400000Y-133875000D03*
X192400000Y-135525000D03*
%TD*%
M02*
