%TF.GenerationSoftware,KiCad,Pcbnew,9.0.6*%
%TF.CreationDate,2025-12-07T15:11:31-07:00*%
%TF.ProjectId,64 Bit - LED Board,36342042-6974-4202-9d20-4c454420426f,rev?*%
%TF.SameCoordinates,Original*%
%TF.FileFunction,Soldermask,Top*%
%TF.FilePolarity,Negative*%
%FSLAX46Y46*%
G04 Gerber Fmt 4.6, Leading zero omitted, Abs format (unit mm)*
G04 Created by KiCad (PCBNEW 9.0.6) date 2025-12-07 15:11:31*
%MOMM*%
%LPD*%
G01*
G04 APERTURE LIST*
G04 Aperture macros list*
%AMRoundRect*
0 Rectangle with rounded corners*
0 $1 Rounding radius*
0 $2 $3 $4 $5 $6 $7 $8 $9 X,Y pos of 4 corners*
0 Add a 4 corners polygon primitive as box body*
4,1,4,$2,$3,$4,$5,$6,$7,$8,$9,$2,$3,0*
0 Add four circle primitives for the rounded corners*
1,1,$1+$1,$2,$3*
1,1,$1+$1,$4,$5*
1,1,$1+$1,$6,$7*
1,1,$1+$1,$8,$9*
0 Add four rect primitives between the rounded corners*
20,1,$1+$1,$2,$3,$4,$5,0*
20,1,$1+$1,$4,$5,$6,$7,0*
20,1,$1+$1,$6,$7,$8,$9,0*
20,1,$1+$1,$8,$9,$2,$3,0*%
G04 Aperture macros list end*
%ADD10C,0.200000*%
%ADD11C,0.150000*%
%ADD12RoundRect,0.200000X-0.200000X-0.275000X0.200000X-0.275000X0.200000X0.275000X-0.200000X0.275000X0*%
%ADD13RoundRect,0.090000X-0.660000X-0.360000X0.660000X-0.360000X0.660000X0.360000X-0.660000X0.360000X0*%
%ADD14R,1.700000X1.700000*%
%ADD15C,1.700000*%
%ADD16RoundRect,0.225000X0.225000X0.250000X-0.225000X0.250000X-0.225000X-0.250000X0.225000X-0.250000X0*%
G04 APERTURE END LIST*
D10*
X80636339Y-113167219D02*
X80517292Y-113357695D01*
X81493482Y-113167219D02*
X81303006Y-113167219D01*
X81303006Y-113167219D02*
X81201815Y-113214838D01*
X81201815Y-113214838D02*
X81148244Y-113262457D01*
X81148244Y-113262457D02*
X81035148Y-113405314D01*
X81035148Y-113405314D02*
X80963720Y-113595790D01*
X80963720Y-113595790D02*
X80916101Y-113976742D01*
X80916101Y-113976742D02*
X80951815Y-114071980D01*
X80951815Y-114071980D02*
X80993482Y-114119600D01*
X80993482Y-114119600D02*
X81082768Y-114167219D01*
X81082768Y-114167219D02*
X81273244Y-114167219D01*
X81273244Y-114167219D02*
X81374434Y-114119600D01*
X81374434Y-114119600D02*
X81428006Y-114071980D01*
X81428006Y-114071980D02*
X81487529Y-113976742D01*
X81487529Y-113976742D02*
X81517291Y-113738647D01*
X81517291Y-113738647D02*
X81481577Y-113643409D01*
X81481577Y-113643409D02*
X81439910Y-113595790D01*
X81439910Y-113595790D02*
X81350625Y-113548171D01*
X81350625Y-113548171D02*
X81160148Y-113548171D01*
X81160148Y-113548171D02*
X81058958Y-113595790D01*
X81058958Y-113595790D02*
X81005387Y-113643409D01*
X81005387Y-113643409D02*
X80945863Y-113738647D01*
X82404196Y-113500552D02*
X82320863Y-114167219D01*
X82213720Y-113119600D02*
X81886339Y-113833885D01*
X81886339Y-113833885D02*
X82505387Y-113833885D01*
X84005387Y-113643409D02*
X84142292Y-113691028D01*
X84142292Y-113691028D02*
X84183958Y-113738647D01*
X84183958Y-113738647D02*
X84219673Y-113833885D01*
X84219673Y-113833885D02*
X84201815Y-113976742D01*
X84201815Y-113976742D02*
X84142292Y-114071980D01*
X84142292Y-114071980D02*
X84088720Y-114119600D01*
X84088720Y-114119600D02*
X83987530Y-114167219D01*
X83987530Y-114167219D02*
X83606577Y-114167219D01*
X83606577Y-114167219D02*
X83731577Y-113167219D01*
X83731577Y-113167219D02*
X84064911Y-113167219D01*
X84064911Y-113167219D02*
X84154196Y-113214838D01*
X84154196Y-113214838D02*
X84195863Y-113262457D01*
X84195863Y-113262457D02*
X84231577Y-113357695D01*
X84231577Y-113357695D02*
X84219673Y-113452933D01*
X84219673Y-113452933D02*
X84160149Y-113548171D01*
X84160149Y-113548171D02*
X84106577Y-113595790D01*
X84106577Y-113595790D02*
X84005387Y-113643409D01*
X84005387Y-113643409D02*
X83672054Y-113643409D01*
X84606577Y-114167219D02*
X84689911Y-113500552D01*
X84731577Y-113167219D02*
X84678006Y-113214838D01*
X84678006Y-113214838D02*
X84719673Y-113262457D01*
X84719673Y-113262457D02*
X84773244Y-113214838D01*
X84773244Y-113214838D02*
X84731577Y-113167219D01*
X84731577Y-113167219D02*
X84719673Y-113262457D01*
X85023244Y-113500552D02*
X85404196Y-113500552D01*
X85207767Y-113167219D02*
X85100625Y-114024361D01*
X85100625Y-114024361D02*
X85136339Y-114119600D01*
X85136339Y-114119600D02*
X85225625Y-114167219D01*
X85225625Y-114167219D02*
X85320863Y-114167219D01*
X85826815Y-113167219D02*
X85707768Y-113357695D01*
X86892291Y-114167219D02*
X87017291Y-113167219D01*
X87017291Y-113167219D02*
X87463720Y-114167219D01*
X87463720Y-114167219D02*
X87588720Y-113167219D01*
X87939910Y-114167219D02*
X88023244Y-113500552D01*
X88064910Y-113167219D02*
X88011339Y-113214838D01*
X88011339Y-113214838D02*
X88053006Y-113262457D01*
X88053006Y-113262457D02*
X88106577Y-113214838D01*
X88106577Y-113214838D02*
X88064910Y-113167219D01*
X88064910Y-113167219D02*
X88053006Y-113262457D01*
X88320862Y-114167219D02*
X88928005Y-113500552D01*
X88404196Y-113500552D02*
X88844672Y-114167219D01*
X89225624Y-114167219D02*
X89308958Y-113500552D01*
X89350624Y-113167219D02*
X89297053Y-113214838D01*
X89297053Y-113214838D02*
X89338720Y-113262457D01*
X89338720Y-113262457D02*
X89392291Y-113214838D01*
X89392291Y-113214838D02*
X89350624Y-113167219D01*
X89350624Y-113167219D02*
X89338720Y-113262457D01*
X90088719Y-114119600D02*
X89987529Y-114167219D01*
X89987529Y-114167219D02*
X89797052Y-114167219D01*
X89797052Y-114167219D02*
X89707767Y-114119600D01*
X89707767Y-114119600D02*
X89672052Y-114024361D01*
X89672052Y-114024361D02*
X89719672Y-113643409D01*
X89719672Y-113643409D02*
X89779195Y-113548171D01*
X89779195Y-113548171D02*
X89880386Y-113500552D01*
X89880386Y-113500552D02*
X90070862Y-113500552D01*
X90070862Y-113500552D02*
X90160148Y-113548171D01*
X90160148Y-113548171D02*
X90195862Y-113643409D01*
X90195862Y-113643409D02*
X90183957Y-113738647D01*
X90183957Y-113738647D02*
X89695862Y-113833885D01*
X91303005Y-113167219D02*
X91874434Y-113167219D01*
X91463720Y-114167219D02*
X91588720Y-113167219D01*
X92594672Y-113500552D02*
X92511339Y-114167219D01*
X92166101Y-113500552D02*
X92100625Y-114024361D01*
X92100625Y-114024361D02*
X92136339Y-114119600D01*
X92136339Y-114119600D02*
X92225625Y-114167219D01*
X92225625Y-114167219D02*
X92368482Y-114167219D01*
X92368482Y-114167219D02*
X92469672Y-114119600D01*
X92469672Y-114119600D02*
X92523244Y-114071980D01*
X92987529Y-114167219D02*
X93112529Y-113167219D01*
X93064910Y-113548171D02*
X93166101Y-113500552D01*
X93166101Y-113500552D02*
X93356577Y-113500552D01*
X93356577Y-113500552D02*
X93445863Y-113548171D01*
X93445863Y-113548171D02*
X93487529Y-113595790D01*
X93487529Y-113595790D02*
X93523244Y-113691028D01*
X93523244Y-113691028D02*
X93487529Y-113976742D01*
X93487529Y-113976742D02*
X93428006Y-114071980D01*
X93428006Y-114071980D02*
X93374434Y-114119600D01*
X93374434Y-114119600D02*
X93273244Y-114167219D01*
X93273244Y-114167219D02*
X93082767Y-114167219D01*
X93082767Y-114167219D02*
X92993482Y-114119600D01*
X94279196Y-114119600D02*
X94178006Y-114167219D01*
X94178006Y-114167219D02*
X93987529Y-114167219D01*
X93987529Y-114167219D02*
X93898244Y-114119600D01*
X93898244Y-114119600D02*
X93862529Y-114024361D01*
X93862529Y-114024361D02*
X93910149Y-113643409D01*
X93910149Y-113643409D02*
X93969672Y-113548171D01*
X93969672Y-113548171D02*
X94070863Y-113500552D01*
X94070863Y-113500552D02*
X94261339Y-113500552D01*
X94261339Y-113500552D02*
X94350625Y-113548171D01*
X94350625Y-113548171D02*
X94386339Y-113643409D01*
X94386339Y-113643409D02*
X94374434Y-113738647D01*
X94374434Y-113738647D02*
X93886339Y-113833885D01*
X96094673Y-114071980D02*
X96041101Y-114119600D01*
X96041101Y-114119600D02*
X95892292Y-114167219D01*
X95892292Y-114167219D02*
X95797054Y-114167219D01*
X95797054Y-114167219D02*
X95660149Y-114119600D01*
X95660149Y-114119600D02*
X95576816Y-114024361D01*
X95576816Y-114024361D02*
X95541101Y-113929123D01*
X95541101Y-113929123D02*
X95517292Y-113738647D01*
X95517292Y-113738647D02*
X95535149Y-113595790D01*
X95535149Y-113595790D02*
X95606577Y-113405314D01*
X95606577Y-113405314D02*
X95666101Y-113310076D01*
X95666101Y-113310076D02*
X95773244Y-113214838D01*
X95773244Y-113214838D02*
X95922054Y-113167219D01*
X95922054Y-113167219D02*
X96017292Y-113167219D01*
X96017292Y-113167219D02*
X96154197Y-113214838D01*
X96154197Y-113214838D02*
X96195863Y-113262457D01*
X96654197Y-114167219D02*
X96564911Y-114119600D01*
X96564911Y-114119600D02*
X96529197Y-114024361D01*
X96529197Y-114024361D02*
X96636339Y-113167219D01*
X97178007Y-114167219D02*
X97088721Y-114119600D01*
X97088721Y-114119600D02*
X97047054Y-114071980D01*
X97047054Y-114071980D02*
X97011340Y-113976742D01*
X97011340Y-113976742D02*
X97047054Y-113691028D01*
X97047054Y-113691028D02*
X97106578Y-113595790D01*
X97106578Y-113595790D02*
X97160149Y-113548171D01*
X97160149Y-113548171D02*
X97261340Y-113500552D01*
X97261340Y-113500552D02*
X97404197Y-113500552D01*
X97404197Y-113500552D02*
X97493483Y-113548171D01*
X97493483Y-113548171D02*
X97535149Y-113595790D01*
X97535149Y-113595790D02*
X97570864Y-113691028D01*
X97570864Y-113691028D02*
X97535149Y-113976742D01*
X97535149Y-113976742D02*
X97475626Y-114071980D01*
X97475626Y-114071980D02*
X97422054Y-114119600D01*
X97422054Y-114119600D02*
X97320864Y-114167219D01*
X97320864Y-114167219D02*
X97178007Y-114167219D01*
X98374435Y-114119600D02*
X98273245Y-114167219D01*
X98273245Y-114167219D02*
X98082769Y-114167219D01*
X98082769Y-114167219D02*
X97993483Y-114119600D01*
X97993483Y-114119600D02*
X97951816Y-114071980D01*
X97951816Y-114071980D02*
X97916102Y-113976742D01*
X97916102Y-113976742D02*
X97951816Y-113691028D01*
X97951816Y-113691028D02*
X98011340Y-113595790D01*
X98011340Y-113595790D02*
X98064911Y-113548171D01*
X98064911Y-113548171D02*
X98166102Y-113500552D01*
X98166102Y-113500552D02*
X98356578Y-113500552D01*
X98356578Y-113500552D02*
X98445864Y-113548171D01*
X98797054Y-114167219D02*
X98922054Y-113167219D01*
X98939912Y-113786266D02*
X99178007Y-114167219D01*
X99261340Y-113500552D02*
X98832769Y-113881504D01*
X100416102Y-113786266D02*
X101178007Y-113786266D01*
X102844674Y-114167219D02*
X102368483Y-114167219D01*
X102368483Y-114167219D02*
X102493483Y-113167219D01*
X103243484Y-113643409D02*
X103576817Y-113643409D01*
X103654198Y-114167219D02*
X103178007Y-114167219D01*
X103178007Y-114167219D02*
X103303007Y-113167219D01*
X103303007Y-113167219D02*
X103779198Y-113167219D01*
X104082769Y-114167219D02*
X104207769Y-113167219D01*
X104207769Y-113167219D02*
X104445865Y-113167219D01*
X104445865Y-113167219D02*
X104582769Y-113214838D01*
X104582769Y-113214838D02*
X104666103Y-113310076D01*
X104666103Y-113310076D02*
X104701817Y-113405314D01*
X104701817Y-113405314D02*
X104725627Y-113595790D01*
X104725627Y-113595790D02*
X104707769Y-113738647D01*
X104707769Y-113738647D02*
X104636341Y-113929123D01*
X104636341Y-113929123D02*
X104576817Y-114024361D01*
X104576817Y-114024361D02*
X104469674Y-114119600D01*
X104469674Y-114119600D02*
X104320865Y-114167219D01*
X104320865Y-114167219D02*
X104082769Y-114167219D01*
X106243484Y-113643409D02*
X106380389Y-113691028D01*
X106380389Y-113691028D02*
X106422055Y-113738647D01*
X106422055Y-113738647D02*
X106457770Y-113833885D01*
X106457770Y-113833885D02*
X106439912Y-113976742D01*
X106439912Y-113976742D02*
X106380389Y-114071980D01*
X106380389Y-114071980D02*
X106326817Y-114119600D01*
X106326817Y-114119600D02*
X106225627Y-114167219D01*
X106225627Y-114167219D02*
X105844674Y-114167219D01*
X105844674Y-114167219D02*
X105969674Y-113167219D01*
X105969674Y-113167219D02*
X106303008Y-113167219D01*
X106303008Y-113167219D02*
X106392293Y-113214838D01*
X106392293Y-113214838D02*
X106433960Y-113262457D01*
X106433960Y-113262457D02*
X106469674Y-113357695D01*
X106469674Y-113357695D02*
X106457770Y-113452933D01*
X106457770Y-113452933D02*
X106398246Y-113548171D01*
X106398246Y-113548171D02*
X106344674Y-113595790D01*
X106344674Y-113595790D02*
X106243484Y-113643409D01*
X106243484Y-113643409D02*
X105910151Y-113643409D01*
X106987532Y-114167219D02*
X106898246Y-114119600D01*
X106898246Y-114119600D02*
X106856579Y-114071980D01*
X106856579Y-114071980D02*
X106820865Y-113976742D01*
X106820865Y-113976742D02*
X106856579Y-113691028D01*
X106856579Y-113691028D02*
X106916103Y-113595790D01*
X106916103Y-113595790D02*
X106969674Y-113548171D01*
X106969674Y-113548171D02*
X107070865Y-113500552D01*
X107070865Y-113500552D02*
X107213722Y-113500552D01*
X107213722Y-113500552D02*
X107303008Y-113548171D01*
X107303008Y-113548171D02*
X107344674Y-113595790D01*
X107344674Y-113595790D02*
X107380389Y-113691028D01*
X107380389Y-113691028D02*
X107344674Y-113976742D01*
X107344674Y-113976742D02*
X107285151Y-114071980D01*
X107285151Y-114071980D02*
X107231579Y-114119600D01*
X107231579Y-114119600D02*
X107130389Y-114167219D01*
X107130389Y-114167219D02*
X106987532Y-114167219D01*
X108178008Y-114167219D02*
X108243484Y-113643409D01*
X108243484Y-113643409D02*
X108207770Y-113548171D01*
X108207770Y-113548171D02*
X108118484Y-113500552D01*
X108118484Y-113500552D02*
X107928008Y-113500552D01*
X107928008Y-113500552D02*
X107826817Y-113548171D01*
X108183960Y-114119600D02*
X108082770Y-114167219D01*
X108082770Y-114167219D02*
X107844674Y-114167219D01*
X107844674Y-114167219D02*
X107755389Y-114119600D01*
X107755389Y-114119600D02*
X107719674Y-114024361D01*
X107719674Y-114024361D02*
X107731579Y-113929123D01*
X107731579Y-113929123D02*
X107791103Y-113833885D01*
X107791103Y-113833885D02*
X107892294Y-113786266D01*
X107892294Y-113786266D02*
X108130389Y-113786266D01*
X108130389Y-113786266D02*
X108231579Y-113738647D01*
X108654198Y-114167219D02*
X108737532Y-113500552D01*
X108713722Y-113691028D02*
X108773246Y-113595790D01*
X108773246Y-113595790D02*
X108826817Y-113548171D01*
X108826817Y-113548171D02*
X108928008Y-113500552D01*
X108928008Y-113500552D02*
X109023246Y-113500552D01*
X109701818Y-114167219D02*
X109826818Y-113167219D01*
X109707770Y-114119600D02*
X109606580Y-114167219D01*
X109606580Y-114167219D02*
X109416104Y-114167219D01*
X109416104Y-114167219D02*
X109326818Y-114119600D01*
X109326818Y-114119600D02*
X109285151Y-114071980D01*
X109285151Y-114071980D02*
X109249437Y-113976742D01*
X109249437Y-113976742D02*
X109285151Y-113691028D01*
X109285151Y-113691028D02*
X109344675Y-113595790D01*
X109344675Y-113595790D02*
X109398246Y-113548171D01*
X109398246Y-113548171D02*
X109499437Y-113500552D01*
X109499437Y-113500552D02*
X109689913Y-113500552D01*
X109689913Y-113500552D02*
X109779199Y-113548171D01*
X109928008Y-114262457D02*
X110689913Y-114262457D01*
X110922056Y-113167219D02*
X111130390Y-114167219D01*
X111130390Y-114167219D02*
X111588723Y-113167219D01*
X112320866Y-114167219D02*
X111749437Y-114167219D01*
X112035152Y-114167219D02*
X112160152Y-113167219D01*
X112160152Y-113167219D02*
X112047056Y-113310076D01*
X112047056Y-113310076D02*
X111939914Y-113405314D01*
X111939914Y-113405314D02*
X111838723Y-113452933D01*
X112761342Y-114071980D02*
X112803009Y-114119600D01*
X112803009Y-114119600D02*
X112749437Y-114167219D01*
X112749437Y-114167219D02*
X112707771Y-114119600D01*
X112707771Y-114119600D02*
X112761342Y-114071980D01*
X112761342Y-114071980D02*
X112749437Y-114167219D01*
X113541104Y-113167219D02*
X113636342Y-113167219D01*
X113636342Y-113167219D02*
X113725627Y-113214838D01*
X113725627Y-113214838D02*
X113767294Y-113262457D01*
X113767294Y-113262457D02*
X113803008Y-113357695D01*
X113803008Y-113357695D02*
X113826818Y-113548171D01*
X113826818Y-113548171D02*
X113797056Y-113786266D01*
X113797056Y-113786266D02*
X113725627Y-113976742D01*
X113725627Y-113976742D02*
X113666104Y-114071980D01*
X113666104Y-114071980D02*
X113612532Y-114119600D01*
X113612532Y-114119600D02*
X113511342Y-114167219D01*
X113511342Y-114167219D02*
X113416104Y-114167219D01*
X113416104Y-114167219D02*
X113326818Y-114119600D01*
X113326818Y-114119600D02*
X113285151Y-114071980D01*
X113285151Y-114071980D02*
X113249437Y-113976742D01*
X113249437Y-113976742D02*
X113225627Y-113786266D01*
X113225627Y-113786266D02*
X113255389Y-113548171D01*
X113255389Y-113548171D02*
X113326818Y-113357695D01*
X113326818Y-113357695D02*
X113386342Y-113262457D01*
X113386342Y-113262457D02*
X113439913Y-113214838D01*
X113439913Y-113214838D02*
X113541104Y-113167219D01*
X114939913Y-114167219D02*
X115064913Y-113167219D01*
X115064913Y-113167219D02*
X115303009Y-113167219D01*
X115303009Y-113167219D02*
X115439913Y-113214838D01*
X115439913Y-113214838D02*
X115523247Y-113310076D01*
X115523247Y-113310076D02*
X115558961Y-113405314D01*
X115558961Y-113405314D02*
X115582771Y-113595790D01*
X115582771Y-113595790D02*
X115564913Y-113738647D01*
X115564913Y-113738647D02*
X115493485Y-113929123D01*
X115493485Y-113929123D02*
X115433961Y-114024361D01*
X115433961Y-114024361D02*
X115326818Y-114119600D01*
X115326818Y-114119600D02*
X115178009Y-114167219D01*
X115178009Y-114167219D02*
X114939913Y-114167219D01*
X116326818Y-114119600D02*
X116225628Y-114167219D01*
X116225628Y-114167219D02*
X116035151Y-114167219D01*
X116035151Y-114167219D02*
X115945866Y-114119600D01*
X115945866Y-114119600D02*
X115910151Y-114024361D01*
X115910151Y-114024361D02*
X115957771Y-113643409D01*
X115957771Y-113643409D02*
X116017294Y-113548171D01*
X116017294Y-113548171D02*
X116118485Y-113500552D01*
X116118485Y-113500552D02*
X116308961Y-113500552D01*
X116308961Y-113500552D02*
X116398247Y-113548171D01*
X116398247Y-113548171D02*
X116433961Y-113643409D01*
X116433961Y-113643409D02*
X116422056Y-113738647D01*
X116422056Y-113738647D02*
X115933961Y-113833885D01*
X117231580Y-114119600D02*
X117130390Y-114167219D01*
X117130390Y-114167219D02*
X116939914Y-114167219D01*
X116939914Y-114167219D02*
X116850628Y-114119600D01*
X116850628Y-114119600D02*
X116808961Y-114071980D01*
X116808961Y-114071980D02*
X116773247Y-113976742D01*
X116773247Y-113976742D02*
X116808961Y-113691028D01*
X116808961Y-113691028D02*
X116868485Y-113595790D01*
X116868485Y-113595790D02*
X116922056Y-113548171D01*
X116922056Y-113548171D02*
X117023247Y-113500552D01*
X117023247Y-113500552D02*
X117213723Y-113500552D01*
X117213723Y-113500552D02*
X117303009Y-113548171D01*
X118481581Y-113262457D02*
X118535152Y-113214838D01*
X118535152Y-113214838D02*
X118636342Y-113167219D01*
X118636342Y-113167219D02*
X118874438Y-113167219D01*
X118874438Y-113167219D02*
X118963723Y-113214838D01*
X118963723Y-113214838D02*
X119005390Y-113262457D01*
X119005390Y-113262457D02*
X119041104Y-113357695D01*
X119041104Y-113357695D02*
X119029200Y-113452933D01*
X119029200Y-113452933D02*
X118963723Y-113595790D01*
X118963723Y-113595790D02*
X118320866Y-114167219D01*
X118320866Y-114167219D02*
X118939914Y-114167219D01*
X119683962Y-113167219D02*
X119779200Y-113167219D01*
X119779200Y-113167219D02*
X119868485Y-113214838D01*
X119868485Y-113214838D02*
X119910152Y-113262457D01*
X119910152Y-113262457D02*
X119945866Y-113357695D01*
X119945866Y-113357695D02*
X119969676Y-113548171D01*
X119969676Y-113548171D02*
X119939914Y-113786266D01*
X119939914Y-113786266D02*
X119868485Y-113976742D01*
X119868485Y-113976742D02*
X119808962Y-114071980D01*
X119808962Y-114071980D02*
X119755390Y-114119600D01*
X119755390Y-114119600D02*
X119654200Y-114167219D01*
X119654200Y-114167219D02*
X119558962Y-114167219D01*
X119558962Y-114167219D02*
X119469676Y-114119600D01*
X119469676Y-114119600D02*
X119428009Y-114071980D01*
X119428009Y-114071980D02*
X119392295Y-113976742D01*
X119392295Y-113976742D02*
X119368485Y-113786266D01*
X119368485Y-113786266D02*
X119398247Y-113548171D01*
X119398247Y-113548171D02*
X119469676Y-113357695D01*
X119469676Y-113357695D02*
X119529200Y-113262457D01*
X119529200Y-113262457D02*
X119582771Y-113214838D01*
X119582771Y-113214838D02*
X119683962Y-113167219D01*
X120386343Y-113262457D02*
X120439914Y-113214838D01*
X120439914Y-113214838D02*
X120541104Y-113167219D01*
X120541104Y-113167219D02*
X120779200Y-113167219D01*
X120779200Y-113167219D02*
X120868485Y-113214838D01*
X120868485Y-113214838D02*
X120910152Y-113262457D01*
X120910152Y-113262457D02*
X120945866Y-113357695D01*
X120945866Y-113357695D02*
X120933962Y-113452933D01*
X120933962Y-113452933D02*
X120868485Y-113595790D01*
X120868485Y-113595790D02*
X120225628Y-114167219D01*
X120225628Y-114167219D02*
X120844676Y-114167219D01*
X121874438Y-113167219D02*
X121398247Y-113167219D01*
X121398247Y-113167219D02*
X121291105Y-113643409D01*
X121291105Y-113643409D02*
X121344676Y-113595790D01*
X121344676Y-113595790D02*
X121445866Y-113548171D01*
X121445866Y-113548171D02*
X121683962Y-113548171D01*
X121683962Y-113548171D02*
X121773247Y-113595790D01*
X121773247Y-113595790D02*
X121814914Y-113643409D01*
X121814914Y-113643409D02*
X121850628Y-113738647D01*
X121850628Y-113738647D02*
X121820866Y-113976742D01*
X121820866Y-113976742D02*
X121761343Y-114071980D01*
X121761343Y-114071980D02*
X121707771Y-114119600D01*
X121707771Y-114119600D02*
X121606581Y-114167219D01*
X121606581Y-114167219D02*
X121368485Y-114167219D01*
X121368485Y-114167219D02*
X121279200Y-114119600D01*
X121279200Y-114119600D02*
X121237533Y-114071980D01*
D11*
%TO.C,REF\u002A\u002A*%
X75324900Y-114281400D02*
X77950100Y-114268600D01*
X75325100Y-111618600D02*
X75324900Y-114281400D01*
X75325100Y-111618600D02*
X77950300Y-111605800D01*
X76125000Y-111375000D02*
X76125200Y-111162200D01*
X76125100Y-113818600D02*
X75324900Y-114281400D01*
X76125100Y-113818600D02*
X76125100Y-111868600D01*
X76125100Y-113818600D02*
X77700100Y-113818600D01*
X76125300Y-111155800D02*
X75325100Y-111618600D01*
X76125300Y-111155800D02*
X78750500Y-111143000D01*
X76782550Y-113413725D02*
X76767650Y-111973475D01*
X77267650Y-113423475D02*
X76775100Y-112693600D01*
X77317650Y-111998475D02*
X76775100Y-112693600D01*
X77950300Y-111605800D02*
X77950100Y-114268600D01*
X78250100Y-113818600D02*
X78750300Y-113805800D01*
X78750300Y-113805800D02*
X77950100Y-114268600D01*
X78750500Y-111143000D02*
X77950300Y-111605800D01*
X78750500Y-111143000D02*
X78750300Y-113805800D01*
%TD*%
D12*
%TO.C,R1*%
X95575000Y-98100000D03*
X97225000Y-98100000D03*
%TD*%
D13*
%TO.C,D4*%
X138850000Y-98950000D03*
X138850000Y-102250000D03*
X143750000Y-102250000D03*
X143750000Y-98950000D03*
%TD*%
D14*
%TO.C,P1*%
X92200000Y-98060000D03*
D15*
X92200000Y-100600000D03*
X92200000Y-103140000D03*
%TD*%
D16*
%TO.C,C2*%
X201425000Y-96950000D03*
X199875000Y-96950000D03*
%TD*%
%TO.C,C5*%
X103225000Y-97050000D03*
X101675000Y-97050000D03*
%TD*%
%TO.C,C6*%
X78425000Y-96950000D03*
X76875000Y-96950000D03*
%TD*%
%TO.C,C1*%
X226475000Y-97100000D03*
X224925000Y-97100000D03*
%TD*%
D13*
%TO.C,D1*%
X225250000Y-98950000D03*
X225250000Y-102250000D03*
X230150000Y-102250000D03*
X230150000Y-98950000D03*
%TD*%
D16*
%TO.C,C3*%
X165075000Y-97000000D03*
X163525000Y-97000000D03*
%TD*%
D13*
%TO.C,D6*%
X77150000Y-98950000D03*
X77150000Y-102250000D03*
X82050000Y-102250000D03*
X82050000Y-98950000D03*
%TD*%
D14*
%TO.C,P2*%
X215100000Y-98060000D03*
D15*
X215100000Y-100600000D03*
X215100000Y-103140000D03*
%TD*%
D16*
%TO.C,C4*%
X140025000Y-97050000D03*
X138475000Y-97050000D03*
%TD*%
D13*
%TO.C,D2*%
X200250000Y-98950000D03*
X200250000Y-102250000D03*
X205150000Y-102250000D03*
X205150000Y-98950000D03*
%TD*%
%TO.C,D3*%
X163850000Y-98950000D03*
X163850000Y-102250000D03*
X168750000Y-102250000D03*
X168750000Y-98950000D03*
%TD*%
%TO.C,D5*%
X102050000Y-98950000D03*
X102050000Y-102250000D03*
X106950000Y-102250000D03*
X106950000Y-98950000D03*
%TD*%
M02*
