M48
; DRILL file {KiCad 9.0.6} date 2025-12-07T15:11:34-0700
; FORMAT={-:-/ absolute / metric / decimal}
; #@! TF.CreationDate,2025-12-07T15:11:34-07:00
; #@! TF.GenerationSoftware,Kicad,Pcbnew,9.0.6
; #@! TF.FileFunction,Plated,1,2,PTH
FMAT,2
METRIC
; #@! TA.AperFunction,Plated,PTH,ViaDrill
T1C0.400
; #@! TA.AperFunction,Plated,PTH,ComponentDrill
T2C1.000
%
G90
G05
T1
X79.8Y-95.8
X82.1Y-103.9
X83.9Y-102.3
X104.8Y-97.0
X107.0Y-104.2
X109.1Y-102.2
X141.6Y-97.0
X143.8Y-104.0
X145.9Y-102.3
X166.8Y-97.0
X168.8Y-104.3
X170.7Y-102.2
X203.1Y-97.0
X205.2Y-104.1
X207.2Y-102.2
X228.1Y-97.1
X230.2Y-103.9
X231.8Y-102.3
T2
X92.2Y-98.06
X92.2Y-100.6
X92.2Y-103.14
X215.1Y-98.06
X215.1Y-100.6
X215.1Y-103.14
M30
