%TF.GenerationSoftware,KiCad,Pcbnew,9.0.6*%
%TF.CreationDate,2025-12-07T15:11:31-07:00*%
%TF.ProjectId,64 Bit - LED Board,36342042-6974-4202-9d20-4c454420426f,rev?*%
%TF.SameCoordinates,Original*%
%TF.FileFunction,Soldermask,Bot*%
%TF.FilePolarity,Negative*%
%FSLAX46Y46*%
G04 Gerber Fmt 4.6, Leading zero omitted, Abs format (unit mm)*
G04 Created by KiCad (PCBNEW 9.0.6) date 2025-12-07 15:11:31*
%MOMM*%
%LPD*%
G01*
G04 APERTURE LIST*
%ADD10C,0.100000*%
%ADD11C,0.300000*%
%ADD12C,0.200000*%
%ADD13C,0.150000*%
%ADD14R,1.700000X1.700000*%
%ADD15C,1.700000*%
G04 APERTURE END LIST*
D10*
X218300000Y-100550000D02*
X217100000Y-100600000D01*
X217100000Y-98000000D02*
X218300000Y-98000000D01*
X218300000Y-103100000D02*
X217100000Y-103100000D01*
X218300000Y-98000000D02*
X218300000Y-103100000D01*
D11*
X222259774Y-99772257D02*
X222402632Y-99700828D01*
X222402632Y-99700828D02*
X222616917Y-99700828D01*
X222616917Y-99700828D02*
X222831203Y-99772257D01*
X222831203Y-99772257D02*
X222974060Y-99915114D01*
X222974060Y-99915114D02*
X223045489Y-100057971D01*
X223045489Y-100057971D02*
X223116917Y-100343685D01*
X223116917Y-100343685D02*
X223116917Y-100557971D01*
X223116917Y-100557971D02*
X223045489Y-100843685D01*
X223045489Y-100843685D02*
X222974060Y-100986542D01*
X222974060Y-100986542D02*
X222831203Y-101129400D01*
X222831203Y-101129400D02*
X222616917Y-101200828D01*
X222616917Y-101200828D02*
X222474060Y-101200828D01*
X222474060Y-101200828D02*
X222259774Y-101129400D01*
X222259774Y-101129400D02*
X222188346Y-101057971D01*
X222188346Y-101057971D02*
X222188346Y-100557971D01*
X222188346Y-100557971D02*
X222474060Y-100557971D01*
X221545489Y-101200828D02*
X221545489Y-99700828D01*
X221545489Y-99700828D02*
X220688346Y-101200828D01*
X220688346Y-101200828D02*
X220688346Y-99700828D01*
X219974060Y-101200828D02*
X219974060Y-99700828D01*
X219974060Y-99700828D02*
X219616917Y-99700828D01*
X219616917Y-99700828D02*
X219402631Y-99772257D01*
X219402631Y-99772257D02*
X219259774Y-99915114D01*
X219259774Y-99915114D02*
X219188345Y-100057971D01*
X219188345Y-100057971D02*
X219116917Y-100343685D01*
X219116917Y-100343685D02*
X219116917Y-100557971D01*
X219116917Y-100557971D02*
X219188345Y-100843685D01*
X219188345Y-100843685D02*
X219259774Y-100986542D01*
X219259774Y-100986542D02*
X219402631Y-101129400D01*
X219402631Y-101129400D02*
X219616917Y-101200828D01*
X219616917Y-101200828D02*
X219974060Y-101200828D01*
X88959774Y-99772257D02*
X89102632Y-99700828D01*
X89102632Y-99700828D02*
X89316917Y-99700828D01*
X89316917Y-99700828D02*
X89531203Y-99772257D01*
X89531203Y-99772257D02*
X89674060Y-99915114D01*
X89674060Y-99915114D02*
X89745489Y-100057971D01*
X89745489Y-100057971D02*
X89816917Y-100343685D01*
X89816917Y-100343685D02*
X89816917Y-100557971D01*
X89816917Y-100557971D02*
X89745489Y-100843685D01*
X89745489Y-100843685D02*
X89674060Y-100986542D01*
X89674060Y-100986542D02*
X89531203Y-101129400D01*
X89531203Y-101129400D02*
X89316917Y-101200828D01*
X89316917Y-101200828D02*
X89174060Y-101200828D01*
X89174060Y-101200828D02*
X88959774Y-101129400D01*
X88959774Y-101129400D02*
X88888346Y-101057971D01*
X88888346Y-101057971D02*
X88888346Y-100557971D01*
X88888346Y-100557971D02*
X89174060Y-100557971D01*
X88245489Y-101200828D02*
X88245489Y-99700828D01*
X88245489Y-99700828D02*
X87388346Y-101200828D01*
X87388346Y-101200828D02*
X87388346Y-99700828D01*
X86674060Y-101200828D02*
X86674060Y-99700828D01*
X86674060Y-99700828D02*
X86316917Y-99700828D01*
X86316917Y-99700828D02*
X86102631Y-99772257D01*
X86102631Y-99772257D02*
X85959774Y-99915114D01*
X85959774Y-99915114D02*
X85888345Y-100057971D01*
X85888345Y-100057971D02*
X85816917Y-100343685D01*
X85816917Y-100343685D02*
X85816917Y-100557971D01*
X85816917Y-100557971D02*
X85888345Y-100843685D01*
X85888345Y-100843685D02*
X85959774Y-100986542D01*
X85959774Y-100986542D02*
X86102631Y-101129400D01*
X86102631Y-101129400D02*
X86316917Y-101200828D01*
X86316917Y-101200828D02*
X86674060Y-101200828D01*
D12*
X120762372Y-113106857D02*
X120881419Y-113297333D01*
X119905229Y-113106857D02*
X120095705Y-113106857D01*
X120095705Y-113106857D02*
X120196896Y-113154476D01*
X120196896Y-113154476D02*
X120250467Y-113202095D01*
X120250467Y-113202095D02*
X120363563Y-113344952D01*
X120363563Y-113344952D02*
X120434991Y-113535428D01*
X120434991Y-113535428D02*
X120482610Y-113916380D01*
X120482610Y-113916380D02*
X120446896Y-114011618D01*
X120446896Y-114011618D02*
X120405229Y-114059238D01*
X120405229Y-114059238D02*
X120315944Y-114106857D01*
X120315944Y-114106857D02*
X120125467Y-114106857D01*
X120125467Y-114106857D02*
X120024277Y-114059238D01*
X120024277Y-114059238D02*
X119970705Y-114011618D01*
X119970705Y-114011618D02*
X119911182Y-113916380D01*
X119911182Y-113916380D02*
X119881420Y-113678285D01*
X119881420Y-113678285D02*
X119917134Y-113583047D01*
X119917134Y-113583047D02*
X119958801Y-113535428D01*
X119958801Y-113535428D02*
X120048086Y-113487809D01*
X120048086Y-113487809D02*
X120238563Y-113487809D01*
X120238563Y-113487809D02*
X120339753Y-113535428D01*
X120339753Y-113535428D02*
X120393324Y-113583047D01*
X120393324Y-113583047D02*
X120452848Y-113678285D01*
X118994515Y-113440190D02*
X119077848Y-114106857D01*
X119184991Y-113059238D02*
X119512372Y-113773523D01*
X119512372Y-113773523D02*
X118893324Y-113773523D01*
X117393324Y-113583047D02*
X117256419Y-113630666D01*
X117256419Y-113630666D02*
X117214753Y-113678285D01*
X117214753Y-113678285D02*
X117179038Y-113773523D01*
X117179038Y-113773523D02*
X117196896Y-113916380D01*
X117196896Y-113916380D02*
X117256419Y-114011618D01*
X117256419Y-114011618D02*
X117309991Y-114059238D01*
X117309991Y-114059238D02*
X117411181Y-114106857D01*
X117411181Y-114106857D02*
X117792134Y-114106857D01*
X117792134Y-114106857D02*
X117667134Y-113106857D01*
X117667134Y-113106857D02*
X117333800Y-113106857D01*
X117333800Y-113106857D02*
X117244515Y-113154476D01*
X117244515Y-113154476D02*
X117202848Y-113202095D01*
X117202848Y-113202095D02*
X117167134Y-113297333D01*
X117167134Y-113297333D02*
X117179038Y-113392571D01*
X117179038Y-113392571D02*
X117238562Y-113487809D01*
X117238562Y-113487809D02*
X117292134Y-113535428D01*
X117292134Y-113535428D02*
X117393324Y-113583047D01*
X117393324Y-113583047D02*
X117726657Y-113583047D01*
X116792134Y-114106857D02*
X116708800Y-113440190D01*
X116667134Y-113106857D02*
X116720705Y-113154476D01*
X116720705Y-113154476D02*
X116679038Y-113202095D01*
X116679038Y-113202095D02*
X116625467Y-113154476D01*
X116625467Y-113154476D02*
X116667134Y-113106857D01*
X116667134Y-113106857D02*
X116679038Y-113202095D01*
X116375467Y-113440190D02*
X115994515Y-113440190D01*
X116190944Y-113106857D02*
X116298087Y-113963999D01*
X116298087Y-113963999D02*
X116262372Y-114059238D01*
X116262372Y-114059238D02*
X116173087Y-114106857D01*
X116173087Y-114106857D02*
X116077848Y-114106857D01*
X115571896Y-113106857D02*
X115690943Y-113297333D01*
X114506420Y-114106857D02*
X114381420Y-113106857D01*
X114381420Y-113106857D02*
X113934991Y-114106857D01*
X113934991Y-114106857D02*
X113809991Y-113106857D01*
X113458801Y-114106857D02*
X113375467Y-113440190D01*
X113333801Y-113106857D02*
X113387372Y-113154476D01*
X113387372Y-113154476D02*
X113345705Y-113202095D01*
X113345705Y-113202095D02*
X113292134Y-113154476D01*
X113292134Y-113154476D02*
X113333801Y-113106857D01*
X113333801Y-113106857D02*
X113345705Y-113202095D01*
X113077849Y-114106857D02*
X112470706Y-113440190D01*
X112994515Y-113440190D02*
X112554039Y-114106857D01*
X112173087Y-114106857D02*
X112089753Y-113440190D01*
X112048087Y-113106857D02*
X112101658Y-113154476D01*
X112101658Y-113154476D02*
X112059991Y-113202095D01*
X112059991Y-113202095D02*
X112006420Y-113154476D01*
X112006420Y-113154476D02*
X112048087Y-113106857D01*
X112048087Y-113106857D02*
X112059991Y-113202095D01*
X111309992Y-114059238D02*
X111411182Y-114106857D01*
X111411182Y-114106857D02*
X111601659Y-114106857D01*
X111601659Y-114106857D02*
X111690944Y-114059238D01*
X111690944Y-114059238D02*
X111726659Y-113963999D01*
X111726659Y-113963999D02*
X111679040Y-113583047D01*
X111679040Y-113583047D02*
X111619516Y-113487809D01*
X111619516Y-113487809D02*
X111518325Y-113440190D01*
X111518325Y-113440190D02*
X111327849Y-113440190D01*
X111327849Y-113440190D02*
X111238563Y-113487809D01*
X111238563Y-113487809D02*
X111202849Y-113583047D01*
X111202849Y-113583047D02*
X111214754Y-113678285D01*
X111214754Y-113678285D02*
X111702849Y-113773523D01*
X110095706Y-113106857D02*
X109524277Y-113106857D01*
X109934992Y-114106857D02*
X109809992Y-113106857D01*
X108804039Y-113440190D02*
X108887372Y-114106857D01*
X109232610Y-113440190D02*
X109298087Y-113963999D01*
X109298087Y-113963999D02*
X109262372Y-114059238D01*
X109262372Y-114059238D02*
X109173087Y-114106857D01*
X109173087Y-114106857D02*
X109030229Y-114106857D01*
X109030229Y-114106857D02*
X108929039Y-114059238D01*
X108929039Y-114059238D02*
X108875467Y-114011618D01*
X108411182Y-114106857D02*
X108286182Y-113106857D01*
X108333801Y-113487809D02*
X108232610Y-113440190D01*
X108232610Y-113440190D02*
X108042134Y-113440190D01*
X108042134Y-113440190D02*
X107952848Y-113487809D01*
X107952848Y-113487809D02*
X107911182Y-113535428D01*
X107911182Y-113535428D02*
X107875467Y-113630666D01*
X107875467Y-113630666D02*
X107911182Y-113916380D01*
X107911182Y-113916380D02*
X107970705Y-114011618D01*
X107970705Y-114011618D02*
X108024277Y-114059238D01*
X108024277Y-114059238D02*
X108125467Y-114106857D01*
X108125467Y-114106857D02*
X108315944Y-114106857D01*
X108315944Y-114106857D02*
X108405229Y-114059238D01*
X107119515Y-114059238D02*
X107220705Y-114106857D01*
X107220705Y-114106857D02*
X107411182Y-114106857D01*
X107411182Y-114106857D02*
X107500467Y-114059238D01*
X107500467Y-114059238D02*
X107536182Y-113963999D01*
X107536182Y-113963999D02*
X107488563Y-113583047D01*
X107488563Y-113583047D02*
X107429039Y-113487809D01*
X107429039Y-113487809D02*
X107327848Y-113440190D01*
X107327848Y-113440190D02*
X107137372Y-113440190D01*
X107137372Y-113440190D02*
X107048086Y-113487809D01*
X107048086Y-113487809D02*
X107012372Y-113583047D01*
X107012372Y-113583047D02*
X107024277Y-113678285D01*
X107024277Y-113678285D02*
X107512372Y-113773523D01*
X105304038Y-114011618D02*
X105357610Y-114059238D01*
X105357610Y-114059238D02*
X105506419Y-114106857D01*
X105506419Y-114106857D02*
X105601657Y-114106857D01*
X105601657Y-114106857D02*
X105738562Y-114059238D01*
X105738562Y-114059238D02*
X105821895Y-113963999D01*
X105821895Y-113963999D02*
X105857610Y-113868761D01*
X105857610Y-113868761D02*
X105881419Y-113678285D01*
X105881419Y-113678285D02*
X105863562Y-113535428D01*
X105863562Y-113535428D02*
X105792134Y-113344952D01*
X105792134Y-113344952D02*
X105732610Y-113249714D01*
X105732610Y-113249714D02*
X105625467Y-113154476D01*
X105625467Y-113154476D02*
X105476657Y-113106857D01*
X105476657Y-113106857D02*
X105381419Y-113106857D01*
X105381419Y-113106857D02*
X105244515Y-113154476D01*
X105244515Y-113154476D02*
X105202848Y-113202095D01*
X104744515Y-114106857D02*
X104833800Y-114059238D01*
X104833800Y-114059238D02*
X104869515Y-113963999D01*
X104869515Y-113963999D02*
X104762372Y-113106857D01*
X104220705Y-114106857D02*
X104309990Y-114059238D01*
X104309990Y-114059238D02*
X104351657Y-114011618D01*
X104351657Y-114011618D02*
X104387371Y-113916380D01*
X104387371Y-113916380D02*
X104351657Y-113630666D01*
X104351657Y-113630666D02*
X104292133Y-113535428D01*
X104292133Y-113535428D02*
X104238562Y-113487809D01*
X104238562Y-113487809D02*
X104137371Y-113440190D01*
X104137371Y-113440190D02*
X103994514Y-113440190D01*
X103994514Y-113440190D02*
X103905228Y-113487809D01*
X103905228Y-113487809D02*
X103863562Y-113535428D01*
X103863562Y-113535428D02*
X103827847Y-113630666D01*
X103827847Y-113630666D02*
X103863562Y-113916380D01*
X103863562Y-113916380D02*
X103923085Y-114011618D01*
X103923085Y-114011618D02*
X103976657Y-114059238D01*
X103976657Y-114059238D02*
X104077847Y-114106857D01*
X104077847Y-114106857D02*
X104220705Y-114106857D01*
X103024276Y-114059238D02*
X103125466Y-114106857D01*
X103125466Y-114106857D02*
X103315943Y-114106857D01*
X103315943Y-114106857D02*
X103405228Y-114059238D01*
X103405228Y-114059238D02*
X103446895Y-114011618D01*
X103446895Y-114011618D02*
X103482609Y-113916380D01*
X103482609Y-113916380D02*
X103446895Y-113630666D01*
X103446895Y-113630666D02*
X103387371Y-113535428D01*
X103387371Y-113535428D02*
X103333800Y-113487809D01*
X103333800Y-113487809D02*
X103232609Y-113440190D01*
X103232609Y-113440190D02*
X103042133Y-113440190D01*
X103042133Y-113440190D02*
X102952847Y-113487809D01*
X102601657Y-114106857D02*
X102476657Y-113106857D01*
X102458800Y-113725904D02*
X102220704Y-114106857D01*
X102137371Y-113440190D02*
X102565942Y-113821142D01*
X100982609Y-113725904D02*
X100220704Y-113725904D01*
X98554037Y-114106857D02*
X99030228Y-114106857D01*
X99030228Y-114106857D02*
X98905228Y-113106857D01*
X98155227Y-113583047D02*
X97821894Y-113583047D01*
X97744513Y-114106857D02*
X98220704Y-114106857D01*
X98220704Y-114106857D02*
X98095704Y-113106857D01*
X98095704Y-113106857D02*
X97619513Y-113106857D01*
X97315942Y-114106857D02*
X97190942Y-113106857D01*
X97190942Y-113106857D02*
X96952846Y-113106857D01*
X96952846Y-113106857D02*
X96815942Y-113154476D01*
X96815942Y-113154476D02*
X96732608Y-113249714D01*
X96732608Y-113249714D02*
X96696894Y-113344952D01*
X96696894Y-113344952D02*
X96673085Y-113535428D01*
X96673085Y-113535428D02*
X96690942Y-113678285D01*
X96690942Y-113678285D02*
X96762370Y-113868761D01*
X96762370Y-113868761D02*
X96821894Y-113963999D01*
X96821894Y-113963999D02*
X96929037Y-114059238D01*
X96929037Y-114059238D02*
X97077846Y-114106857D01*
X97077846Y-114106857D02*
X97315942Y-114106857D01*
X95155227Y-113583047D02*
X95018322Y-113630666D01*
X95018322Y-113630666D02*
X94976656Y-113678285D01*
X94976656Y-113678285D02*
X94940941Y-113773523D01*
X94940941Y-113773523D02*
X94958799Y-113916380D01*
X94958799Y-113916380D02*
X95018322Y-114011618D01*
X95018322Y-114011618D02*
X95071894Y-114059238D01*
X95071894Y-114059238D02*
X95173084Y-114106857D01*
X95173084Y-114106857D02*
X95554037Y-114106857D01*
X95554037Y-114106857D02*
X95429037Y-113106857D01*
X95429037Y-113106857D02*
X95095703Y-113106857D01*
X95095703Y-113106857D02*
X95006418Y-113154476D01*
X95006418Y-113154476D02*
X94964751Y-113202095D01*
X94964751Y-113202095D02*
X94929037Y-113297333D01*
X94929037Y-113297333D02*
X94940941Y-113392571D01*
X94940941Y-113392571D02*
X95000465Y-113487809D01*
X95000465Y-113487809D02*
X95054037Y-113535428D01*
X95054037Y-113535428D02*
X95155227Y-113583047D01*
X95155227Y-113583047D02*
X95488560Y-113583047D01*
X94411180Y-114106857D02*
X94500465Y-114059238D01*
X94500465Y-114059238D02*
X94542132Y-114011618D01*
X94542132Y-114011618D02*
X94577846Y-113916380D01*
X94577846Y-113916380D02*
X94542132Y-113630666D01*
X94542132Y-113630666D02*
X94482608Y-113535428D01*
X94482608Y-113535428D02*
X94429037Y-113487809D01*
X94429037Y-113487809D02*
X94327846Y-113440190D01*
X94327846Y-113440190D02*
X94184989Y-113440190D01*
X94184989Y-113440190D02*
X94095703Y-113487809D01*
X94095703Y-113487809D02*
X94054037Y-113535428D01*
X94054037Y-113535428D02*
X94018322Y-113630666D01*
X94018322Y-113630666D02*
X94054037Y-113916380D01*
X94054037Y-113916380D02*
X94113560Y-114011618D01*
X94113560Y-114011618D02*
X94167132Y-114059238D01*
X94167132Y-114059238D02*
X94268322Y-114106857D01*
X94268322Y-114106857D02*
X94411180Y-114106857D01*
X93220703Y-114106857D02*
X93155227Y-113583047D01*
X93155227Y-113583047D02*
X93190941Y-113487809D01*
X93190941Y-113487809D02*
X93280227Y-113440190D01*
X93280227Y-113440190D02*
X93470703Y-113440190D01*
X93470703Y-113440190D02*
X93571894Y-113487809D01*
X93214751Y-114059238D02*
X93315941Y-114106857D01*
X93315941Y-114106857D02*
X93554037Y-114106857D01*
X93554037Y-114106857D02*
X93643322Y-114059238D01*
X93643322Y-114059238D02*
X93679037Y-113963999D01*
X93679037Y-113963999D02*
X93667132Y-113868761D01*
X93667132Y-113868761D02*
X93607608Y-113773523D01*
X93607608Y-113773523D02*
X93506418Y-113725904D01*
X93506418Y-113725904D02*
X93268322Y-113725904D01*
X93268322Y-113725904D02*
X93167132Y-113678285D01*
X92744513Y-114106857D02*
X92661179Y-113440190D01*
X92684989Y-113630666D02*
X92625465Y-113535428D01*
X92625465Y-113535428D02*
X92571894Y-113487809D01*
X92571894Y-113487809D02*
X92470703Y-113440190D01*
X92470703Y-113440190D02*
X92375465Y-113440190D01*
X91696893Y-114106857D02*
X91571893Y-113106857D01*
X91690941Y-114059238D02*
X91792131Y-114106857D01*
X91792131Y-114106857D02*
X91982608Y-114106857D01*
X91982608Y-114106857D02*
X92071893Y-114059238D01*
X92071893Y-114059238D02*
X92113560Y-114011618D01*
X92113560Y-114011618D02*
X92149274Y-113916380D01*
X92149274Y-113916380D02*
X92113560Y-113630666D01*
X92113560Y-113630666D02*
X92054036Y-113535428D01*
X92054036Y-113535428D02*
X92000465Y-113487809D01*
X92000465Y-113487809D02*
X91899274Y-113440190D01*
X91899274Y-113440190D02*
X91708798Y-113440190D01*
X91708798Y-113440190D02*
X91619512Y-113487809D01*
X91470703Y-114202095D02*
X90708798Y-114202095D01*
X90476655Y-113106857D02*
X90268321Y-114106857D01*
X90268321Y-114106857D02*
X89809988Y-113106857D01*
X89077845Y-114106857D02*
X89649274Y-114106857D01*
X89363559Y-114106857D02*
X89238559Y-113106857D01*
X89238559Y-113106857D02*
X89351655Y-113249714D01*
X89351655Y-113249714D02*
X89458798Y-113344952D01*
X89458798Y-113344952D02*
X89559988Y-113392571D01*
X88637369Y-114011618D02*
X88595702Y-114059238D01*
X88595702Y-114059238D02*
X88649274Y-114106857D01*
X88649274Y-114106857D02*
X88690940Y-114059238D01*
X88690940Y-114059238D02*
X88637369Y-114011618D01*
X88637369Y-114011618D02*
X88649274Y-114106857D01*
X87857607Y-113106857D02*
X87762369Y-113106857D01*
X87762369Y-113106857D02*
X87673084Y-113154476D01*
X87673084Y-113154476D02*
X87631417Y-113202095D01*
X87631417Y-113202095D02*
X87595703Y-113297333D01*
X87595703Y-113297333D02*
X87571893Y-113487809D01*
X87571893Y-113487809D02*
X87601655Y-113725904D01*
X87601655Y-113725904D02*
X87673084Y-113916380D01*
X87673084Y-113916380D02*
X87732607Y-114011618D01*
X87732607Y-114011618D02*
X87786179Y-114059238D01*
X87786179Y-114059238D02*
X87887369Y-114106857D01*
X87887369Y-114106857D02*
X87982607Y-114106857D01*
X87982607Y-114106857D02*
X88071893Y-114059238D01*
X88071893Y-114059238D02*
X88113560Y-114011618D01*
X88113560Y-114011618D02*
X88149274Y-113916380D01*
X88149274Y-113916380D02*
X88173084Y-113725904D01*
X88173084Y-113725904D02*
X88143322Y-113487809D01*
X88143322Y-113487809D02*
X88071893Y-113297333D01*
X88071893Y-113297333D02*
X88012369Y-113202095D01*
X88012369Y-113202095D02*
X87958798Y-113154476D01*
X87958798Y-113154476D02*
X87857607Y-113106857D01*
X86458798Y-114106857D02*
X86333798Y-113106857D01*
X86333798Y-113106857D02*
X86095702Y-113106857D01*
X86095702Y-113106857D02*
X85958798Y-113154476D01*
X85958798Y-113154476D02*
X85875464Y-113249714D01*
X85875464Y-113249714D02*
X85839750Y-113344952D01*
X85839750Y-113344952D02*
X85815941Y-113535428D01*
X85815941Y-113535428D02*
X85833798Y-113678285D01*
X85833798Y-113678285D02*
X85905226Y-113868761D01*
X85905226Y-113868761D02*
X85964750Y-113963999D01*
X85964750Y-113963999D02*
X86071893Y-114059238D01*
X86071893Y-114059238D02*
X86220702Y-114106857D01*
X86220702Y-114106857D02*
X86458798Y-114106857D01*
X85071893Y-114059238D02*
X85173083Y-114106857D01*
X85173083Y-114106857D02*
X85363560Y-114106857D01*
X85363560Y-114106857D02*
X85452845Y-114059238D01*
X85452845Y-114059238D02*
X85488560Y-113963999D01*
X85488560Y-113963999D02*
X85440941Y-113583047D01*
X85440941Y-113583047D02*
X85381417Y-113487809D01*
X85381417Y-113487809D02*
X85280226Y-113440190D01*
X85280226Y-113440190D02*
X85089750Y-113440190D01*
X85089750Y-113440190D02*
X85000464Y-113487809D01*
X85000464Y-113487809D02*
X84964750Y-113583047D01*
X84964750Y-113583047D02*
X84976655Y-113678285D01*
X84976655Y-113678285D02*
X85464750Y-113773523D01*
X84167131Y-114059238D02*
X84268321Y-114106857D01*
X84268321Y-114106857D02*
X84458798Y-114106857D01*
X84458798Y-114106857D02*
X84548083Y-114059238D01*
X84548083Y-114059238D02*
X84589750Y-114011618D01*
X84589750Y-114011618D02*
X84625464Y-113916380D01*
X84625464Y-113916380D02*
X84589750Y-113630666D01*
X84589750Y-113630666D02*
X84530226Y-113535428D01*
X84530226Y-113535428D02*
X84476655Y-113487809D01*
X84476655Y-113487809D02*
X84375464Y-113440190D01*
X84375464Y-113440190D02*
X84184988Y-113440190D01*
X84184988Y-113440190D02*
X84095702Y-113487809D01*
X82917130Y-113202095D02*
X82863559Y-113154476D01*
X82863559Y-113154476D02*
X82762369Y-113106857D01*
X82762369Y-113106857D02*
X82524273Y-113106857D01*
X82524273Y-113106857D02*
X82434988Y-113154476D01*
X82434988Y-113154476D02*
X82393321Y-113202095D01*
X82393321Y-113202095D02*
X82357607Y-113297333D01*
X82357607Y-113297333D02*
X82369511Y-113392571D01*
X82369511Y-113392571D02*
X82434988Y-113535428D01*
X82434988Y-113535428D02*
X83077845Y-114106857D01*
X83077845Y-114106857D02*
X82458797Y-114106857D01*
X81714749Y-113106857D02*
X81619511Y-113106857D01*
X81619511Y-113106857D02*
X81530226Y-113154476D01*
X81530226Y-113154476D02*
X81488559Y-113202095D01*
X81488559Y-113202095D02*
X81452845Y-113297333D01*
X81452845Y-113297333D02*
X81429035Y-113487809D01*
X81429035Y-113487809D02*
X81458797Y-113725904D01*
X81458797Y-113725904D02*
X81530226Y-113916380D01*
X81530226Y-113916380D02*
X81589749Y-114011618D01*
X81589749Y-114011618D02*
X81643321Y-114059238D01*
X81643321Y-114059238D02*
X81744511Y-114106857D01*
X81744511Y-114106857D02*
X81839749Y-114106857D01*
X81839749Y-114106857D02*
X81929035Y-114059238D01*
X81929035Y-114059238D02*
X81970702Y-114011618D01*
X81970702Y-114011618D02*
X82006416Y-113916380D01*
X82006416Y-113916380D02*
X82030226Y-113725904D01*
X82030226Y-113725904D02*
X82000464Y-113487809D01*
X82000464Y-113487809D02*
X81929035Y-113297333D01*
X81929035Y-113297333D02*
X81869511Y-113202095D01*
X81869511Y-113202095D02*
X81815940Y-113154476D01*
X81815940Y-113154476D02*
X81714749Y-113106857D01*
X81012368Y-113202095D02*
X80958797Y-113154476D01*
X80958797Y-113154476D02*
X80857607Y-113106857D01*
X80857607Y-113106857D02*
X80619511Y-113106857D01*
X80619511Y-113106857D02*
X80530226Y-113154476D01*
X80530226Y-113154476D02*
X80488559Y-113202095D01*
X80488559Y-113202095D02*
X80452845Y-113297333D01*
X80452845Y-113297333D02*
X80464749Y-113392571D01*
X80464749Y-113392571D02*
X80530226Y-113535428D01*
X80530226Y-113535428D02*
X81173083Y-114106857D01*
X81173083Y-114106857D02*
X80554035Y-114106857D01*
X79524273Y-113106857D02*
X80000464Y-113106857D01*
X80000464Y-113106857D02*
X80107607Y-113583047D01*
X80107607Y-113583047D02*
X80054035Y-113535428D01*
X80054035Y-113535428D02*
X79952845Y-113487809D01*
X79952845Y-113487809D02*
X79714749Y-113487809D01*
X79714749Y-113487809D02*
X79625464Y-113535428D01*
X79625464Y-113535428D02*
X79583797Y-113583047D01*
X79583797Y-113583047D02*
X79548083Y-113678285D01*
X79548083Y-113678285D02*
X79577845Y-113916380D01*
X79577845Y-113916380D02*
X79637368Y-114011618D01*
X79637368Y-114011618D02*
X79690940Y-114059238D01*
X79690940Y-114059238D02*
X79792130Y-114106857D01*
X79792130Y-114106857D02*
X80030226Y-114106857D01*
X80030226Y-114106857D02*
X80119511Y-114059238D01*
X80119511Y-114059238D02*
X80161178Y-114011618D01*
D11*
X90045489Y-103329400D02*
X88902632Y-103329400D01*
X89474060Y-103900828D02*
X89474060Y-102757971D01*
X87474060Y-102400828D02*
X88188346Y-102400828D01*
X88188346Y-102400828D02*
X88259774Y-103115114D01*
X88259774Y-103115114D02*
X88188346Y-103043685D01*
X88188346Y-103043685D02*
X88045489Y-102972257D01*
X88045489Y-102972257D02*
X87688346Y-102972257D01*
X87688346Y-102972257D02*
X87545489Y-103043685D01*
X87545489Y-103043685D02*
X87474060Y-103115114D01*
X87474060Y-103115114D02*
X87402631Y-103257971D01*
X87402631Y-103257971D02*
X87402631Y-103615114D01*
X87402631Y-103615114D02*
X87474060Y-103757971D01*
X87474060Y-103757971D02*
X87545489Y-103829400D01*
X87545489Y-103829400D02*
X87688346Y-103900828D01*
X87688346Y-103900828D02*
X88045489Y-103900828D01*
X88045489Y-103900828D02*
X88188346Y-103829400D01*
X88188346Y-103829400D02*
X88259774Y-103757971D01*
X86974060Y-102400828D02*
X86474060Y-103900828D01*
X86474060Y-103900828D02*
X85974060Y-102400828D01*
X89325940Y-98600828D02*
X89325940Y-97100828D01*
X89325940Y-98529400D02*
X89468797Y-98600828D01*
X89468797Y-98600828D02*
X89754511Y-98600828D01*
X89754511Y-98600828D02*
X89897368Y-98529400D01*
X89897368Y-98529400D02*
X89968797Y-98457971D01*
X89968797Y-98457971D02*
X90040225Y-98315114D01*
X90040225Y-98315114D02*
X90040225Y-97886542D01*
X90040225Y-97886542D02*
X89968797Y-97743685D01*
X89968797Y-97743685D02*
X89897368Y-97672257D01*
X89897368Y-97672257D02*
X89754511Y-97600828D01*
X89754511Y-97600828D02*
X89468797Y-97600828D01*
X89468797Y-97600828D02*
X89325940Y-97672257D01*
X87968797Y-98600828D02*
X87968797Y-97815114D01*
X87968797Y-97815114D02*
X88040225Y-97672257D01*
X88040225Y-97672257D02*
X88183082Y-97600828D01*
X88183082Y-97600828D02*
X88468797Y-97600828D01*
X88468797Y-97600828D02*
X88611654Y-97672257D01*
X87968797Y-98529400D02*
X88111654Y-98600828D01*
X88111654Y-98600828D02*
X88468797Y-98600828D01*
X88468797Y-98600828D02*
X88611654Y-98529400D01*
X88611654Y-98529400D02*
X88683082Y-98386542D01*
X88683082Y-98386542D02*
X88683082Y-98243685D01*
X88683082Y-98243685D02*
X88611654Y-98100828D01*
X88611654Y-98100828D02*
X88468797Y-98029400D01*
X88468797Y-98029400D02*
X88111654Y-98029400D01*
X88111654Y-98029400D02*
X87968797Y-97957971D01*
X87468796Y-97600828D02*
X86897368Y-97600828D01*
X87254511Y-97100828D02*
X87254511Y-98386542D01*
X87254511Y-98386542D02*
X87183082Y-98529400D01*
X87183082Y-98529400D02*
X87040225Y-98600828D01*
X87040225Y-98600828D02*
X86897368Y-98600828D01*
X85754511Y-98600828D02*
X85754511Y-97815114D01*
X85754511Y-97815114D02*
X85825939Y-97672257D01*
X85825939Y-97672257D02*
X85968796Y-97600828D01*
X85968796Y-97600828D02*
X86254511Y-97600828D01*
X86254511Y-97600828D02*
X86397368Y-97672257D01*
X85754511Y-98529400D02*
X85897368Y-98600828D01*
X85897368Y-98600828D02*
X86254511Y-98600828D01*
X86254511Y-98600828D02*
X86397368Y-98529400D01*
X86397368Y-98529400D02*
X86468796Y-98386542D01*
X86468796Y-98386542D02*
X86468796Y-98243685D01*
X86468796Y-98243685D02*
X86397368Y-98100828D01*
X86397368Y-98100828D02*
X86254511Y-98029400D01*
X86254511Y-98029400D02*
X85897368Y-98029400D01*
X85897368Y-98029400D02*
X85754511Y-97957971D01*
D13*
%TO.C,REF\u002A\u002A*%
X75174600Y-111289038D02*
X75174800Y-113951838D01*
X75174600Y-111289038D02*
X75974800Y-111751838D01*
X75174800Y-113951838D02*
X75975000Y-114414638D01*
X75675000Y-113964638D02*
X75174800Y-113951838D01*
X75974800Y-111751838D02*
X75975000Y-114414638D01*
X76607450Y-112144513D02*
X77150000Y-112839638D01*
X76657450Y-113569513D02*
X77150000Y-112839638D01*
X77142550Y-113559763D02*
X77157450Y-112119513D01*
X77799800Y-111301838D02*
X75174600Y-111289038D01*
X77799800Y-111301838D02*
X78600000Y-111764638D01*
X77800000Y-113964638D02*
X76225000Y-113964638D01*
X77800000Y-113964638D02*
X77800000Y-112014638D01*
X77800000Y-113964638D02*
X78600200Y-114427438D01*
X77800100Y-111521038D02*
X77799900Y-111308238D01*
X78600000Y-111764638D02*
X75974800Y-111751838D01*
X78600000Y-111764638D02*
X78600200Y-114427438D01*
X78600200Y-114427438D02*
X75975000Y-114414638D01*
%TD*%
D14*
%TO.C,P1*%
X92200000Y-98060000D03*
D15*
X92200000Y-100600000D03*
X92200000Y-103140000D03*
%TD*%
D14*
%TO.C,P2*%
X215100000Y-98060000D03*
D15*
X215100000Y-100600000D03*
X215100000Y-103140000D03*
%TD*%
M02*
