%TF.GenerationSoftware,KiCad,Pcbnew,9.0.6*%
%TF.CreationDate,2025-12-07T15:11:30-07:00*%
%TF.ProjectId,64 Bit - LED Board,36342042-6974-4202-9d20-4c454420426f,rev?*%
%TF.SameCoordinates,Original*%
%TF.FileFunction,Legend,Top*%
%TF.FilePolarity,Positive*%
%FSLAX46Y46*%
G04 Gerber Fmt 4.6, Leading zero omitted, Abs format (unit mm)*
G04 Created by KiCad (PCBNEW 9.0.6) date 2025-12-07 15:11:30*
%MOMM*%
%LPD*%
G01*
G04 APERTURE LIST*
%ADD10C,0.300000*%
%ADD11C,0.150000*%
%ADD12C,0.120000*%
G04 APERTURE END LIST*
D10*
X86697367Y-99772257D02*
X86554510Y-99700828D01*
X86554510Y-99700828D02*
X86340224Y-99700828D01*
X86340224Y-99700828D02*
X86125938Y-99772257D01*
X86125938Y-99772257D02*
X85983081Y-99915114D01*
X85983081Y-99915114D02*
X85911652Y-100057971D01*
X85911652Y-100057971D02*
X85840224Y-100343685D01*
X85840224Y-100343685D02*
X85840224Y-100557971D01*
X85840224Y-100557971D02*
X85911652Y-100843685D01*
X85911652Y-100843685D02*
X85983081Y-100986542D01*
X85983081Y-100986542D02*
X86125938Y-101129400D01*
X86125938Y-101129400D02*
X86340224Y-101200828D01*
X86340224Y-101200828D02*
X86483081Y-101200828D01*
X86483081Y-101200828D02*
X86697367Y-101129400D01*
X86697367Y-101129400D02*
X86768795Y-101057971D01*
X86768795Y-101057971D02*
X86768795Y-100557971D01*
X86768795Y-100557971D02*
X86483081Y-100557971D01*
X87411652Y-101200828D02*
X87411652Y-99700828D01*
X87411652Y-99700828D02*
X88268795Y-101200828D01*
X88268795Y-101200828D02*
X88268795Y-99700828D01*
X88983081Y-101200828D02*
X88983081Y-99700828D01*
X88983081Y-99700828D02*
X89340224Y-99700828D01*
X89340224Y-99700828D02*
X89554510Y-99772257D01*
X89554510Y-99772257D02*
X89697367Y-99915114D01*
X89697367Y-99915114D02*
X89768796Y-100057971D01*
X89768796Y-100057971D02*
X89840224Y-100343685D01*
X89840224Y-100343685D02*
X89840224Y-100557971D01*
X89840224Y-100557971D02*
X89768796Y-100843685D01*
X89768796Y-100843685D02*
X89697367Y-100986542D01*
X89697367Y-100986542D02*
X89554510Y-101129400D01*
X89554510Y-101129400D02*
X89340224Y-101200828D01*
X89340224Y-101200828D02*
X88983081Y-101200828D01*
X86331202Y-98600828D02*
X86331202Y-97100828D01*
X86331202Y-98529400D02*
X86188344Y-98600828D01*
X86188344Y-98600828D02*
X85902630Y-98600828D01*
X85902630Y-98600828D02*
X85759773Y-98529400D01*
X85759773Y-98529400D02*
X85688344Y-98457971D01*
X85688344Y-98457971D02*
X85616916Y-98315114D01*
X85616916Y-98315114D02*
X85616916Y-97886542D01*
X85616916Y-97886542D02*
X85688344Y-97743685D01*
X85688344Y-97743685D02*
X85759773Y-97672257D01*
X85759773Y-97672257D02*
X85902630Y-97600828D01*
X85902630Y-97600828D02*
X86188344Y-97600828D01*
X86188344Y-97600828D02*
X86331202Y-97672257D01*
X87688345Y-98600828D02*
X87688345Y-97815114D01*
X87688345Y-97815114D02*
X87616916Y-97672257D01*
X87616916Y-97672257D02*
X87474059Y-97600828D01*
X87474059Y-97600828D02*
X87188345Y-97600828D01*
X87188345Y-97600828D02*
X87045487Y-97672257D01*
X87688345Y-98529400D02*
X87545487Y-98600828D01*
X87545487Y-98600828D02*
X87188345Y-98600828D01*
X87188345Y-98600828D02*
X87045487Y-98529400D01*
X87045487Y-98529400D02*
X86974059Y-98386542D01*
X86974059Y-98386542D02*
X86974059Y-98243685D01*
X86974059Y-98243685D02*
X87045487Y-98100828D01*
X87045487Y-98100828D02*
X87188345Y-98029400D01*
X87188345Y-98029400D02*
X87545487Y-98029400D01*
X87545487Y-98029400D02*
X87688345Y-97957971D01*
X88188345Y-97600828D02*
X88759773Y-97600828D01*
X88402630Y-97100828D02*
X88402630Y-98386542D01*
X88402630Y-98386542D02*
X88474059Y-98529400D01*
X88474059Y-98529400D02*
X88616916Y-98600828D01*
X88616916Y-98600828D02*
X88759773Y-98600828D01*
X89902631Y-98600828D02*
X89902631Y-97815114D01*
X89902631Y-97815114D02*
X89831202Y-97672257D01*
X89831202Y-97672257D02*
X89688345Y-97600828D01*
X89688345Y-97600828D02*
X89402631Y-97600828D01*
X89402631Y-97600828D02*
X89259773Y-97672257D01*
X89902631Y-98529400D02*
X89759773Y-98600828D01*
X89759773Y-98600828D02*
X89402631Y-98600828D01*
X89402631Y-98600828D02*
X89259773Y-98529400D01*
X89259773Y-98529400D02*
X89188345Y-98386542D01*
X89188345Y-98386542D02*
X89188345Y-98243685D01*
X89188345Y-98243685D02*
X89259773Y-98100828D01*
X89259773Y-98100828D02*
X89402631Y-98029400D01*
X89402631Y-98029400D02*
X89759773Y-98029400D01*
X89759773Y-98029400D02*
X89902631Y-97957971D01*
X85611652Y-103329400D02*
X86754510Y-103329400D01*
X86183081Y-103900828D02*
X86183081Y-102757971D01*
X88183081Y-102400828D02*
X87468795Y-102400828D01*
X87468795Y-102400828D02*
X87397367Y-103115114D01*
X87397367Y-103115114D02*
X87468795Y-103043685D01*
X87468795Y-103043685D02*
X87611653Y-102972257D01*
X87611653Y-102972257D02*
X87968795Y-102972257D01*
X87968795Y-102972257D02*
X88111653Y-103043685D01*
X88111653Y-103043685D02*
X88183081Y-103115114D01*
X88183081Y-103115114D02*
X88254510Y-103257971D01*
X88254510Y-103257971D02*
X88254510Y-103615114D01*
X88254510Y-103615114D02*
X88183081Y-103757971D01*
X88183081Y-103757971D02*
X88111653Y-103829400D01*
X88111653Y-103829400D02*
X87968795Y-103900828D01*
X87968795Y-103900828D02*
X87611653Y-103900828D01*
X87611653Y-103900828D02*
X87468795Y-103829400D01*
X87468795Y-103829400D02*
X87397367Y-103757971D01*
X88683081Y-102400828D02*
X89183081Y-103900828D01*
X89183081Y-103900828D02*
X89683081Y-102400828D01*
D11*
X96233333Y-97124819D02*
X95900000Y-96648628D01*
X95661905Y-97124819D02*
X95661905Y-96124819D01*
X95661905Y-96124819D02*
X96042857Y-96124819D01*
X96042857Y-96124819D02*
X96138095Y-96172438D01*
X96138095Y-96172438D02*
X96185714Y-96220057D01*
X96185714Y-96220057D02*
X96233333Y-96315295D01*
X96233333Y-96315295D02*
X96233333Y-96458152D01*
X96233333Y-96458152D02*
X96185714Y-96553390D01*
X96185714Y-96553390D02*
X96138095Y-96601009D01*
X96138095Y-96601009D02*
X96042857Y-96648628D01*
X96042857Y-96648628D02*
X95661905Y-96648628D01*
X97185714Y-97124819D02*
X96614286Y-97124819D01*
X96900000Y-97124819D02*
X96900000Y-96124819D01*
X96900000Y-96124819D02*
X96804762Y-96267676D01*
X96804762Y-96267676D02*
X96709524Y-96362914D01*
X96709524Y-96362914D02*
X96614286Y-96410533D01*
X143211905Y-97504819D02*
X143211905Y-96504819D01*
X143211905Y-96504819D02*
X143450000Y-96504819D01*
X143450000Y-96504819D02*
X143592857Y-96552438D01*
X143592857Y-96552438D02*
X143688095Y-96647676D01*
X143688095Y-96647676D02*
X143735714Y-96742914D01*
X143735714Y-96742914D02*
X143783333Y-96933390D01*
X143783333Y-96933390D02*
X143783333Y-97076247D01*
X143783333Y-97076247D02*
X143735714Y-97266723D01*
X143735714Y-97266723D02*
X143688095Y-97361961D01*
X143688095Y-97361961D02*
X143592857Y-97457200D01*
X143592857Y-97457200D02*
X143450000Y-97504819D01*
X143450000Y-97504819D02*
X143211905Y-97504819D01*
X144640476Y-96838152D02*
X144640476Y-97504819D01*
X144402381Y-96457200D02*
X144164286Y-97171485D01*
X144164286Y-97171485D02*
X144783333Y-97171485D01*
X137528571Y-99362295D02*
X137071428Y-99362295D01*
X137300000Y-99362295D02*
X137300000Y-98562295D01*
X137300000Y-98562295D02*
X137223809Y-98676580D01*
X137223809Y-98676580D02*
X137147619Y-98752771D01*
X137147619Y-98752771D02*
X137071428Y-98790866D01*
X91461905Y-96134819D02*
X91461905Y-95134819D01*
X91461905Y-95134819D02*
X91842857Y-95134819D01*
X91842857Y-95134819D02*
X91938095Y-95182438D01*
X91938095Y-95182438D02*
X91985714Y-95230057D01*
X91985714Y-95230057D02*
X92033333Y-95325295D01*
X92033333Y-95325295D02*
X92033333Y-95468152D01*
X92033333Y-95468152D02*
X91985714Y-95563390D01*
X91985714Y-95563390D02*
X91938095Y-95611009D01*
X91938095Y-95611009D02*
X91842857Y-95658628D01*
X91842857Y-95658628D02*
X91461905Y-95658628D01*
X92985714Y-96134819D02*
X92414286Y-96134819D01*
X92700000Y-96134819D02*
X92700000Y-95134819D01*
X92700000Y-95134819D02*
X92604762Y-95277676D01*
X92604762Y-95277676D02*
X92509524Y-95372914D01*
X92509524Y-95372914D02*
X92414286Y-95420533D01*
X200483333Y-95809580D02*
X200435714Y-95857200D01*
X200435714Y-95857200D02*
X200292857Y-95904819D01*
X200292857Y-95904819D02*
X200197619Y-95904819D01*
X200197619Y-95904819D02*
X200054762Y-95857200D01*
X200054762Y-95857200D02*
X199959524Y-95761961D01*
X199959524Y-95761961D02*
X199911905Y-95666723D01*
X199911905Y-95666723D02*
X199864286Y-95476247D01*
X199864286Y-95476247D02*
X199864286Y-95333390D01*
X199864286Y-95333390D02*
X199911905Y-95142914D01*
X199911905Y-95142914D02*
X199959524Y-95047676D01*
X199959524Y-95047676D02*
X200054762Y-94952438D01*
X200054762Y-94952438D02*
X200197619Y-94904819D01*
X200197619Y-94904819D02*
X200292857Y-94904819D01*
X200292857Y-94904819D02*
X200435714Y-94952438D01*
X200435714Y-94952438D02*
X200483333Y-95000057D01*
X200864286Y-95000057D02*
X200911905Y-94952438D01*
X200911905Y-94952438D02*
X201007143Y-94904819D01*
X201007143Y-94904819D02*
X201245238Y-94904819D01*
X201245238Y-94904819D02*
X201340476Y-94952438D01*
X201340476Y-94952438D02*
X201388095Y-95000057D01*
X201388095Y-95000057D02*
X201435714Y-95095295D01*
X201435714Y-95095295D02*
X201435714Y-95190533D01*
X201435714Y-95190533D02*
X201388095Y-95333390D01*
X201388095Y-95333390D02*
X200816667Y-95904819D01*
X200816667Y-95904819D02*
X201435714Y-95904819D01*
X102183333Y-96009580D02*
X102135714Y-96057200D01*
X102135714Y-96057200D02*
X101992857Y-96104819D01*
X101992857Y-96104819D02*
X101897619Y-96104819D01*
X101897619Y-96104819D02*
X101754762Y-96057200D01*
X101754762Y-96057200D02*
X101659524Y-95961961D01*
X101659524Y-95961961D02*
X101611905Y-95866723D01*
X101611905Y-95866723D02*
X101564286Y-95676247D01*
X101564286Y-95676247D02*
X101564286Y-95533390D01*
X101564286Y-95533390D02*
X101611905Y-95342914D01*
X101611905Y-95342914D02*
X101659524Y-95247676D01*
X101659524Y-95247676D02*
X101754762Y-95152438D01*
X101754762Y-95152438D02*
X101897619Y-95104819D01*
X101897619Y-95104819D02*
X101992857Y-95104819D01*
X101992857Y-95104819D02*
X102135714Y-95152438D01*
X102135714Y-95152438D02*
X102183333Y-95200057D01*
X103088095Y-95104819D02*
X102611905Y-95104819D01*
X102611905Y-95104819D02*
X102564286Y-95581009D01*
X102564286Y-95581009D02*
X102611905Y-95533390D01*
X102611905Y-95533390D02*
X102707143Y-95485771D01*
X102707143Y-95485771D02*
X102945238Y-95485771D01*
X102945238Y-95485771D02*
X103040476Y-95533390D01*
X103040476Y-95533390D02*
X103088095Y-95581009D01*
X103088095Y-95581009D02*
X103135714Y-95676247D01*
X103135714Y-95676247D02*
X103135714Y-95914342D01*
X103135714Y-95914342D02*
X103088095Y-96009580D01*
X103088095Y-96009580D02*
X103040476Y-96057200D01*
X103040476Y-96057200D02*
X102945238Y-96104819D01*
X102945238Y-96104819D02*
X102707143Y-96104819D01*
X102707143Y-96104819D02*
X102611905Y-96057200D01*
X102611905Y-96057200D02*
X102564286Y-96009580D01*
X77458333Y-95709580D02*
X77410714Y-95757200D01*
X77410714Y-95757200D02*
X77267857Y-95804819D01*
X77267857Y-95804819D02*
X77172619Y-95804819D01*
X77172619Y-95804819D02*
X77029762Y-95757200D01*
X77029762Y-95757200D02*
X76934524Y-95661961D01*
X76934524Y-95661961D02*
X76886905Y-95566723D01*
X76886905Y-95566723D02*
X76839286Y-95376247D01*
X76839286Y-95376247D02*
X76839286Y-95233390D01*
X76839286Y-95233390D02*
X76886905Y-95042914D01*
X76886905Y-95042914D02*
X76934524Y-94947676D01*
X76934524Y-94947676D02*
X77029762Y-94852438D01*
X77029762Y-94852438D02*
X77172619Y-94804819D01*
X77172619Y-94804819D02*
X77267857Y-94804819D01*
X77267857Y-94804819D02*
X77410714Y-94852438D01*
X77410714Y-94852438D02*
X77458333Y-94900057D01*
X78315476Y-94804819D02*
X78125000Y-94804819D01*
X78125000Y-94804819D02*
X78029762Y-94852438D01*
X78029762Y-94852438D02*
X77982143Y-94900057D01*
X77982143Y-94900057D02*
X77886905Y-95042914D01*
X77886905Y-95042914D02*
X77839286Y-95233390D01*
X77839286Y-95233390D02*
X77839286Y-95614342D01*
X77839286Y-95614342D02*
X77886905Y-95709580D01*
X77886905Y-95709580D02*
X77934524Y-95757200D01*
X77934524Y-95757200D02*
X78029762Y-95804819D01*
X78029762Y-95804819D02*
X78220238Y-95804819D01*
X78220238Y-95804819D02*
X78315476Y-95757200D01*
X78315476Y-95757200D02*
X78363095Y-95709580D01*
X78363095Y-95709580D02*
X78410714Y-95614342D01*
X78410714Y-95614342D02*
X78410714Y-95376247D01*
X78410714Y-95376247D02*
X78363095Y-95281009D01*
X78363095Y-95281009D02*
X78315476Y-95233390D01*
X78315476Y-95233390D02*
X78220238Y-95185771D01*
X78220238Y-95185771D02*
X78029762Y-95185771D01*
X78029762Y-95185771D02*
X77934524Y-95233390D01*
X77934524Y-95233390D02*
X77886905Y-95281009D01*
X77886905Y-95281009D02*
X77839286Y-95376247D01*
X225533333Y-95859580D02*
X225485714Y-95907200D01*
X225485714Y-95907200D02*
X225342857Y-95954819D01*
X225342857Y-95954819D02*
X225247619Y-95954819D01*
X225247619Y-95954819D02*
X225104762Y-95907200D01*
X225104762Y-95907200D02*
X225009524Y-95811961D01*
X225009524Y-95811961D02*
X224961905Y-95716723D01*
X224961905Y-95716723D02*
X224914286Y-95526247D01*
X224914286Y-95526247D02*
X224914286Y-95383390D01*
X224914286Y-95383390D02*
X224961905Y-95192914D01*
X224961905Y-95192914D02*
X225009524Y-95097676D01*
X225009524Y-95097676D02*
X225104762Y-95002438D01*
X225104762Y-95002438D02*
X225247619Y-94954819D01*
X225247619Y-94954819D02*
X225342857Y-94954819D01*
X225342857Y-94954819D02*
X225485714Y-95002438D01*
X225485714Y-95002438D02*
X225533333Y-95050057D01*
X226485714Y-95954819D02*
X225914286Y-95954819D01*
X226200000Y-95954819D02*
X226200000Y-94954819D01*
X226200000Y-94954819D02*
X226104762Y-95097676D01*
X226104762Y-95097676D02*
X226009524Y-95192914D01*
X226009524Y-95192914D02*
X225914286Y-95240533D01*
X229561905Y-97554819D02*
X229561905Y-96554819D01*
X229561905Y-96554819D02*
X229800000Y-96554819D01*
X229800000Y-96554819D02*
X229942857Y-96602438D01*
X229942857Y-96602438D02*
X230038095Y-96697676D01*
X230038095Y-96697676D02*
X230085714Y-96792914D01*
X230085714Y-96792914D02*
X230133333Y-96983390D01*
X230133333Y-96983390D02*
X230133333Y-97126247D01*
X230133333Y-97126247D02*
X230085714Y-97316723D01*
X230085714Y-97316723D02*
X230038095Y-97411961D01*
X230038095Y-97411961D02*
X229942857Y-97507200D01*
X229942857Y-97507200D02*
X229800000Y-97554819D01*
X229800000Y-97554819D02*
X229561905Y-97554819D01*
X231085714Y-97554819D02*
X230514286Y-97554819D01*
X230800000Y-97554819D02*
X230800000Y-96554819D01*
X230800000Y-96554819D02*
X230704762Y-96697676D01*
X230704762Y-96697676D02*
X230609524Y-96792914D01*
X230609524Y-96792914D02*
X230514286Y-96840533D01*
X223928571Y-99362295D02*
X223471428Y-99362295D01*
X223700000Y-99362295D02*
X223700000Y-98562295D01*
X223700000Y-98562295D02*
X223623809Y-98676580D01*
X223623809Y-98676580D02*
X223547619Y-98752771D01*
X223547619Y-98752771D02*
X223471428Y-98790866D01*
X164133333Y-95909580D02*
X164085714Y-95957200D01*
X164085714Y-95957200D02*
X163942857Y-96004819D01*
X163942857Y-96004819D02*
X163847619Y-96004819D01*
X163847619Y-96004819D02*
X163704762Y-95957200D01*
X163704762Y-95957200D02*
X163609524Y-95861961D01*
X163609524Y-95861961D02*
X163561905Y-95766723D01*
X163561905Y-95766723D02*
X163514286Y-95576247D01*
X163514286Y-95576247D02*
X163514286Y-95433390D01*
X163514286Y-95433390D02*
X163561905Y-95242914D01*
X163561905Y-95242914D02*
X163609524Y-95147676D01*
X163609524Y-95147676D02*
X163704762Y-95052438D01*
X163704762Y-95052438D02*
X163847619Y-95004819D01*
X163847619Y-95004819D02*
X163942857Y-95004819D01*
X163942857Y-95004819D02*
X164085714Y-95052438D01*
X164085714Y-95052438D02*
X164133333Y-95100057D01*
X164466667Y-95004819D02*
X165085714Y-95004819D01*
X165085714Y-95004819D02*
X164752381Y-95385771D01*
X164752381Y-95385771D02*
X164895238Y-95385771D01*
X164895238Y-95385771D02*
X164990476Y-95433390D01*
X164990476Y-95433390D02*
X165038095Y-95481009D01*
X165038095Y-95481009D02*
X165085714Y-95576247D01*
X165085714Y-95576247D02*
X165085714Y-95814342D01*
X165085714Y-95814342D02*
X165038095Y-95909580D01*
X165038095Y-95909580D02*
X164990476Y-95957200D01*
X164990476Y-95957200D02*
X164895238Y-96004819D01*
X164895238Y-96004819D02*
X164609524Y-96004819D01*
X164609524Y-96004819D02*
X164514286Y-95957200D01*
X164514286Y-95957200D02*
X164466667Y-95909580D01*
X81611905Y-97504819D02*
X81611905Y-96504819D01*
X81611905Y-96504819D02*
X81850000Y-96504819D01*
X81850000Y-96504819D02*
X81992857Y-96552438D01*
X81992857Y-96552438D02*
X82088095Y-96647676D01*
X82088095Y-96647676D02*
X82135714Y-96742914D01*
X82135714Y-96742914D02*
X82183333Y-96933390D01*
X82183333Y-96933390D02*
X82183333Y-97076247D01*
X82183333Y-97076247D02*
X82135714Y-97266723D01*
X82135714Y-97266723D02*
X82088095Y-97361961D01*
X82088095Y-97361961D02*
X81992857Y-97457200D01*
X81992857Y-97457200D02*
X81850000Y-97504819D01*
X81850000Y-97504819D02*
X81611905Y-97504819D01*
X83040476Y-96504819D02*
X82850000Y-96504819D01*
X82850000Y-96504819D02*
X82754762Y-96552438D01*
X82754762Y-96552438D02*
X82707143Y-96600057D01*
X82707143Y-96600057D02*
X82611905Y-96742914D01*
X82611905Y-96742914D02*
X82564286Y-96933390D01*
X82564286Y-96933390D02*
X82564286Y-97314342D01*
X82564286Y-97314342D02*
X82611905Y-97409580D01*
X82611905Y-97409580D02*
X82659524Y-97457200D01*
X82659524Y-97457200D02*
X82754762Y-97504819D01*
X82754762Y-97504819D02*
X82945238Y-97504819D01*
X82945238Y-97504819D02*
X83040476Y-97457200D01*
X83040476Y-97457200D02*
X83088095Y-97409580D01*
X83088095Y-97409580D02*
X83135714Y-97314342D01*
X83135714Y-97314342D02*
X83135714Y-97076247D01*
X83135714Y-97076247D02*
X83088095Y-96981009D01*
X83088095Y-96981009D02*
X83040476Y-96933390D01*
X83040476Y-96933390D02*
X82945238Y-96885771D01*
X82945238Y-96885771D02*
X82754762Y-96885771D01*
X82754762Y-96885771D02*
X82659524Y-96933390D01*
X82659524Y-96933390D02*
X82611905Y-96981009D01*
X82611905Y-96981009D02*
X82564286Y-97076247D01*
X75828571Y-99362295D02*
X75371428Y-99362295D01*
X75600000Y-99362295D02*
X75600000Y-98562295D01*
X75600000Y-98562295D02*
X75523809Y-98676580D01*
X75523809Y-98676580D02*
X75447619Y-98752771D01*
X75447619Y-98752771D02*
X75371428Y-98790866D01*
X214361905Y-96134819D02*
X214361905Y-95134819D01*
X214361905Y-95134819D02*
X214742857Y-95134819D01*
X214742857Y-95134819D02*
X214838095Y-95182438D01*
X214838095Y-95182438D02*
X214885714Y-95230057D01*
X214885714Y-95230057D02*
X214933333Y-95325295D01*
X214933333Y-95325295D02*
X214933333Y-95468152D01*
X214933333Y-95468152D02*
X214885714Y-95563390D01*
X214885714Y-95563390D02*
X214838095Y-95611009D01*
X214838095Y-95611009D02*
X214742857Y-95658628D01*
X214742857Y-95658628D02*
X214361905Y-95658628D01*
X215314286Y-95230057D02*
X215361905Y-95182438D01*
X215361905Y-95182438D02*
X215457143Y-95134819D01*
X215457143Y-95134819D02*
X215695238Y-95134819D01*
X215695238Y-95134819D02*
X215790476Y-95182438D01*
X215790476Y-95182438D02*
X215838095Y-95230057D01*
X215838095Y-95230057D02*
X215885714Y-95325295D01*
X215885714Y-95325295D02*
X215885714Y-95420533D01*
X215885714Y-95420533D02*
X215838095Y-95563390D01*
X215838095Y-95563390D02*
X215266667Y-96134819D01*
X215266667Y-96134819D02*
X215885714Y-96134819D01*
X139058333Y-95909580D02*
X139010714Y-95957200D01*
X139010714Y-95957200D02*
X138867857Y-96004819D01*
X138867857Y-96004819D02*
X138772619Y-96004819D01*
X138772619Y-96004819D02*
X138629762Y-95957200D01*
X138629762Y-95957200D02*
X138534524Y-95861961D01*
X138534524Y-95861961D02*
X138486905Y-95766723D01*
X138486905Y-95766723D02*
X138439286Y-95576247D01*
X138439286Y-95576247D02*
X138439286Y-95433390D01*
X138439286Y-95433390D02*
X138486905Y-95242914D01*
X138486905Y-95242914D02*
X138534524Y-95147676D01*
X138534524Y-95147676D02*
X138629762Y-95052438D01*
X138629762Y-95052438D02*
X138772619Y-95004819D01*
X138772619Y-95004819D02*
X138867857Y-95004819D01*
X138867857Y-95004819D02*
X139010714Y-95052438D01*
X139010714Y-95052438D02*
X139058333Y-95100057D01*
X139915476Y-95338152D02*
X139915476Y-96004819D01*
X139677381Y-94957200D02*
X139439286Y-95671485D01*
X139439286Y-95671485D02*
X140058333Y-95671485D01*
X204711905Y-97554819D02*
X204711905Y-96554819D01*
X204711905Y-96554819D02*
X204950000Y-96554819D01*
X204950000Y-96554819D02*
X205092857Y-96602438D01*
X205092857Y-96602438D02*
X205188095Y-96697676D01*
X205188095Y-96697676D02*
X205235714Y-96792914D01*
X205235714Y-96792914D02*
X205283333Y-96983390D01*
X205283333Y-96983390D02*
X205283333Y-97126247D01*
X205283333Y-97126247D02*
X205235714Y-97316723D01*
X205235714Y-97316723D02*
X205188095Y-97411961D01*
X205188095Y-97411961D02*
X205092857Y-97507200D01*
X205092857Y-97507200D02*
X204950000Y-97554819D01*
X204950000Y-97554819D02*
X204711905Y-97554819D01*
X205664286Y-96650057D02*
X205711905Y-96602438D01*
X205711905Y-96602438D02*
X205807143Y-96554819D01*
X205807143Y-96554819D02*
X206045238Y-96554819D01*
X206045238Y-96554819D02*
X206140476Y-96602438D01*
X206140476Y-96602438D02*
X206188095Y-96650057D01*
X206188095Y-96650057D02*
X206235714Y-96745295D01*
X206235714Y-96745295D02*
X206235714Y-96840533D01*
X206235714Y-96840533D02*
X206188095Y-96983390D01*
X206188095Y-96983390D02*
X205616667Y-97554819D01*
X205616667Y-97554819D02*
X206235714Y-97554819D01*
X198928571Y-99362295D02*
X198471428Y-99362295D01*
X198700000Y-99362295D02*
X198700000Y-98562295D01*
X198700000Y-98562295D02*
X198623809Y-98676580D01*
X198623809Y-98676580D02*
X198547619Y-98752771D01*
X198547619Y-98752771D02*
X198471428Y-98790866D01*
X168261905Y-97654819D02*
X168261905Y-96654819D01*
X168261905Y-96654819D02*
X168500000Y-96654819D01*
X168500000Y-96654819D02*
X168642857Y-96702438D01*
X168642857Y-96702438D02*
X168738095Y-96797676D01*
X168738095Y-96797676D02*
X168785714Y-96892914D01*
X168785714Y-96892914D02*
X168833333Y-97083390D01*
X168833333Y-97083390D02*
X168833333Y-97226247D01*
X168833333Y-97226247D02*
X168785714Y-97416723D01*
X168785714Y-97416723D02*
X168738095Y-97511961D01*
X168738095Y-97511961D02*
X168642857Y-97607200D01*
X168642857Y-97607200D02*
X168500000Y-97654819D01*
X168500000Y-97654819D02*
X168261905Y-97654819D01*
X169166667Y-96654819D02*
X169785714Y-96654819D01*
X169785714Y-96654819D02*
X169452381Y-97035771D01*
X169452381Y-97035771D02*
X169595238Y-97035771D01*
X169595238Y-97035771D02*
X169690476Y-97083390D01*
X169690476Y-97083390D02*
X169738095Y-97131009D01*
X169738095Y-97131009D02*
X169785714Y-97226247D01*
X169785714Y-97226247D02*
X169785714Y-97464342D01*
X169785714Y-97464342D02*
X169738095Y-97559580D01*
X169738095Y-97559580D02*
X169690476Y-97607200D01*
X169690476Y-97607200D02*
X169595238Y-97654819D01*
X169595238Y-97654819D02*
X169309524Y-97654819D01*
X169309524Y-97654819D02*
X169214286Y-97607200D01*
X169214286Y-97607200D02*
X169166667Y-97559580D01*
X162528571Y-99362295D02*
X162071428Y-99362295D01*
X162300000Y-99362295D02*
X162300000Y-98562295D01*
X162300000Y-98562295D02*
X162223809Y-98676580D01*
X162223809Y-98676580D02*
X162147619Y-98752771D01*
X162147619Y-98752771D02*
X162071428Y-98790866D01*
X106511905Y-97604819D02*
X106511905Y-96604819D01*
X106511905Y-96604819D02*
X106750000Y-96604819D01*
X106750000Y-96604819D02*
X106892857Y-96652438D01*
X106892857Y-96652438D02*
X106988095Y-96747676D01*
X106988095Y-96747676D02*
X107035714Y-96842914D01*
X107035714Y-96842914D02*
X107083333Y-97033390D01*
X107083333Y-97033390D02*
X107083333Y-97176247D01*
X107083333Y-97176247D02*
X107035714Y-97366723D01*
X107035714Y-97366723D02*
X106988095Y-97461961D01*
X106988095Y-97461961D02*
X106892857Y-97557200D01*
X106892857Y-97557200D02*
X106750000Y-97604819D01*
X106750000Y-97604819D02*
X106511905Y-97604819D01*
X107988095Y-96604819D02*
X107511905Y-96604819D01*
X107511905Y-96604819D02*
X107464286Y-97081009D01*
X107464286Y-97081009D02*
X107511905Y-97033390D01*
X107511905Y-97033390D02*
X107607143Y-96985771D01*
X107607143Y-96985771D02*
X107845238Y-96985771D01*
X107845238Y-96985771D02*
X107940476Y-97033390D01*
X107940476Y-97033390D02*
X107988095Y-97081009D01*
X107988095Y-97081009D02*
X108035714Y-97176247D01*
X108035714Y-97176247D02*
X108035714Y-97414342D01*
X108035714Y-97414342D02*
X107988095Y-97509580D01*
X107988095Y-97509580D02*
X107940476Y-97557200D01*
X107940476Y-97557200D02*
X107845238Y-97604819D01*
X107845238Y-97604819D02*
X107607143Y-97604819D01*
X107607143Y-97604819D02*
X107511905Y-97557200D01*
X107511905Y-97557200D02*
X107464286Y-97509580D01*
X100728571Y-99362295D02*
X100271428Y-99362295D01*
X100500000Y-99362295D02*
X100500000Y-98562295D01*
X100500000Y-98562295D02*
X100423809Y-98676580D01*
X100423809Y-98676580D02*
X100347619Y-98752771D01*
X100347619Y-98752771D02*
X100271428Y-98790866D01*
D12*
%TO.C,R1*%
X96162742Y-97577500D02*
X96637258Y-97577500D01*
X96162742Y-98622500D02*
X96637258Y-98622500D01*
%TO.C,D4*%
X137800000Y-97850000D02*
X137800000Y-103350000D01*
X137800000Y-97850000D02*
X144800000Y-97850000D01*
X137800000Y-103350000D02*
X144350000Y-103350000D01*
X138600000Y-101500000D02*
X138600000Y-99700000D01*
X144000000Y-101500000D02*
X144000000Y-99700000D01*
X144350000Y-103350000D02*
X144800000Y-102900000D01*
X144800000Y-102900000D02*
X144800000Y-97850000D01*
%TO.C,P1*%
X90820000Y-96680000D02*
X92200000Y-96680000D01*
X90820000Y-98060000D02*
X90820000Y-96680000D01*
X90820000Y-99330000D02*
X90820000Y-104520000D01*
X90820000Y-99330000D02*
X93580000Y-99330000D01*
X90820000Y-104520000D02*
X93580000Y-104520000D01*
X93580000Y-99330000D02*
X93580000Y-104520000D01*
%TO.C,C2*%
X200790581Y-96440000D02*
X200509419Y-96440000D01*
X200790581Y-97460000D02*
X200509419Y-97460000D01*
%TO.C,C5*%
X102590581Y-96540000D02*
X102309419Y-96540000D01*
X102590581Y-97560000D02*
X102309419Y-97560000D01*
%TO.C,C6*%
X77790581Y-96440000D02*
X77509419Y-96440000D01*
X77790581Y-97460000D02*
X77509419Y-97460000D01*
%TO.C,C1*%
X225840581Y-96590000D02*
X225559419Y-96590000D01*
X225840581Y-97610000D02*
X225559419Y-97610000D01*
%TO.C,D1*%
X224200000Y-97850000D02*
X224200000Y-103350000D01*
X224200000Y-97850000D02*
X231200000Y-97850000D01*
X224200000Y-103350000D02*
X230750000Y-103350000D01*
X225000000Y-101500000D02*
X225000000Y-99700000D01*
X230400000Y-101500000D02*
X230400000Y-99700000D01*
X230750000Y-103350000D02*
X231200000Y-102900000D01*
X231200000Y-102900000D02*
X231200000Y-97850000D01*
%TO.C,C3*%
X164440581Y-96490000D02*
X164159419Y-96490000D01*
X164440581Y-97510000D02*
X164159419Y-97510000D01*
%TO.C,D6*%
X76100000Y-97850000D02*
X76100000Y-103350000D01*
X76100000Y-97850000D02*
X83100000Y-97850000D01*
X76100000Y-103350000D02*
X82650000Y-103350000D01*
X76900000Y-101500000D02*
X76900000Y-99700000D01*
X82300000Y-101500000D02*
X82300000Y-99700000D01*
X82650000Y-103350000D02*
X83100000Y-102900000D01*
X83100000Y-102900000D02*
X83100000Y-97850000D01*
%TO.C,P2*%
X213720000Y-96680000D02*
X215100000Y-96680000D01*
X213720000Y-98060000D02*
X213720000Y-96680000D01*
X213720000Y-99330000D02*
X213720000Y-104520000D01*
X213720000Y-99330000D02*
X216480000Y-99330000D01*
X213720000Y-104520000D02*
X216480000Y-104520000D01*
X216480000Y-99330000D02*
X216480000Y-104520000D01*
%TO.C,C4*%
X139390581Y-96540000D02*
X139109419Y-96540000D01*
X139390581Y-97560000D02*
X139109419Y-97560000D01*
%TO.C,D2*%
X199200000Y-97850000D02*
X199200000Y-103350000D01*
X199200000Y-97850000D02*
X206200000Y-97850000D01*
X199200000Y-103350000D02*
X205750000Y-103350000D01*
X200000000Y-101500000D02*
X200000000Y-99700000D01*
X205400000Y-101500000D02*
X205400000Y-99700000D01*
X205750000Y-103350000D02*
X206200000Y-102900000D01*
X206200000Y-102900000D02*
X206200000Y-97850000D01*
%TO.C,D3*%
X162800000Y-97850000D02*
X162800000Y-103350000D01*
X162800000Y-97850000D02*
X169800000Y-97850000D01*
X162800000Y-103350000D02*
X169350000Y-103350000D01*
X163600000Y-101500000D02*
X163600000Y-99700000D01*
X169000000Y-101500000D02*
X169000000Y-99700000D01*
X169350000Y-103350000D02*
X169800000Y-102900000D01*
X169800000Y-102900000D02*
X169800000Y-97850000D01*
%TO.C,D5*%
X101000000Y-97850000D02*
X101000000Y-103350000D01*
X101000000Y-97850000D02*
X108000000Y-97850000D01*
X101000000Y-103350000D02*
X107550000Y-103350000D01*
X101800000Y-101500000D02*
X101800000Y-99700000D01*
X107200000Y-101500000D02*
X107200000Y-99700000D01*
X107550000Y-103350000D02*
X108000000Y-102900000D01*
X108000000Y-102900000D02*
X108000000Y-97850000D01*
%TD*%
M02*
