M48
; DRILL file {KiCad 9.0.6} date 2025-12-07T15:20:48-0700
; FORMAT={-:-/ absolute / metric / decimal}
; #@! TF.CreationDate,2025-12-07T15:20:48-07:00
; #@! TF.GenerationSoftware,Kicad,Pcbnew,9.0.6
; #@! TF.FileFunction,Plated,1,4,PTH
FMAT,2
METRIC
; #@! TA.AperFunction,Plated,PTH,ViaDrill
T1C0.300
; #@! TA.AperFunction,Plated,PTH,ViaDrill
T2C0.400
; #@! TA.AperFunction,Plated,PTH,ComponentDrill
T3C1.000
; #@! TA.AperFunction,Plated,PTH,ComponentDrill
T4C1.750
; #@! TA.AperFunction,Plated,PTH,ComponentDrill
T5C1.780
; #@! TA.AperFunction,Plated,PTH,ComponentDrill
T6C3.600
%
G90
G05
T1
X54.2Y-67.2
X55.4Y-68.2
X57.1Y-83.7
X57.2Y-89.2
X60.9Y-52.8
X62.8Y-53.6
X63.2Y-91.8
X65.6Y-100.0
X67.3Y-98.1
X68.9Y-103.0
X69.2Y-99.8
X69.4Y-101.9
X70.1Y-104.5
X70.2Y-103.0
X71.2Y-105.6
X71.3Y-103.8
X71.6Y-96.0
X71.9Y-97.0
X72.3Y-104.5
X72.6Y-105.9
X73.9Y-106.8
X74.6Y-105.6
X76.3Y-81.1
X76.4Y-93.8
X76.4Y-95.4
X76.6Y-97.1
X76.9Y-99.0
X76.9Y-101.6
X77.6Y-95.1
X78.1Y-98.6
X78.2Y-97.1
X78.2Y-101.3
X78.3Y-96.1
X78.7Y-90.0
X79.6Y-97.3
X80.5Y-90.2
X80.6Y-98.1
X81.8Y-92.3
X81.8Y-111.8
X81.9Y-77.0
X81.9Y-89.3
X81.9Y-113.1
X82.1Y-87.6
X82.5Y-93.7
X83.0Y-57.4
X83.459Y-94.421
X84.1Y-95.6
X84.4Y-61.5
X85.5Y-96.1
X86.8Y-87.9
X87.4Y-65.4
X89.1Y-101.3
X89.2Y-74.4
X91.8Y-78.0
X93.4Y-95.5
X93.8Y-97.0
X95.6Y-104.1
X96.1Y-91.4
X96.9Y-105.7
X97.592Y-92.45
X99.6Y-101.7
X100.5Y-100.8
X101.0Y-102.0
X101.2Y-81.1
X101.4Y-100.0
X102.0Y-101.2
X102.3Y-99.1
X102.8Y-100.3
X103.4Y-98.4
X103.6Y-99.4
X106.2Y-83.0
X106.2Y-94.6
X106.7Y-96.1
X106.7Y-102.6
X108.6Y-105.8
X108.908Y-100.792
X114.1Y-96.3
X115.4Y-95.9
X115.484Y-103.031
X117.0Y-104.3
X117.5Y-96.1
X118.36Y-98.353
X118.5Y-68.1
X118.592Y-53.789
X119.4Y-95.8
X119.8Y-84.9
X119.9Y-68.0
X120.7Y-53.7
X121.1Y-89.2
X122.874Y-89.34
X123.0Y-58.0
X123.7Y-90.3
X124.0Y-91.9
X124.7Y-104.7
X125.7Y-93.8
X126.2Y-102.1
X126.5Y-91.4
X126.6Y-94.7
X127.5Y-93.3
X131.3Y-100.7
X131.8Y-104.5
X132.5Y-105.9
X133.2Y-57.6
X133.6Y-102.4
X133.715Y-99.015
X134.0Y-101.2
X135.2Y-102.5
X136.3Y-103.6
X137.4Y-83.2
X137.5Y-104.3
X139.5Y-106.2
X140.5Y-85.1
X140.816Y-100.65
X140.892Y-94.908
X140.9Y-96.4
X141.1Y-93.4
X141.1Y-98.2
X142.1Y-95.8
X143.5Y-88.9
X147.1Y-93.2
X148.3Y-94.9
X148.5Y-93.3
X150.1Y-59.9
X150.5Y-95.8
X152.7Y-101.0
X153.2Y-102.2
X153.7Y-100.3
X154.2Y-101.4
X154.5Y-102.6
X154.701Y-99.26
X154.8Y-82.7
X155.3Y-100.3
X155.5Y-101.9
X157.3Y-101.9
X157.7Y-104.6
X158.4Y-56.7
X158.8Y-103.6
X159.9Y-104.7
X159.9Y-106.6
X161.5Y-97.7
X161.7Y-95.7
X161.8Y-93.8
X162.8Y-94.9
X162.8Y-96.6
X162.8Y-98.0
X164.2Y-89.7
X168.0Y-83.9
X168.7Y-94.1
X169.5Y-85.0
X170.2Y-95.3
X171.0Y-96.1
X171.016Y-93.084
X174.2Y-101.0
X174.4Y-60.1
X175.4Y-89.1
X176.35Y-102.3
X176.5Y-88.6
X177.727Y-82.273
X177.8Y-84.2
X178.1Y-95.6
X178.6Y-96.9
X178.9Y-89.3
X178.9Y-90.5
X180.0Y-68.3
X180.1Y-53.8
X180.6Y-103.9
X181.2Y-91.8
X181.2Y-106.7
X181.3Y-97.0
X181.5Y-105.2
X182.0Y-53.5
X182.4Y-93.0
X182.8Y-98.4
X184.2Y-99.6
X185.6Y-100.9
X187.6Y-101.1
X188.855Y-85.945
X189.192Y-87.908
X189.792Y-89.908
X190.0Y-91.6
X190.6Y-87.8
X190.8Y-89.2
X191.05Y-92.7
X191.1Y-90.8
X191.7Y-94.6
X192.0Y-89.2
X192.4Y-92.5
X192.8Y-95.1
X194.0Y-96.7
X194.5Y-101.0
X195.5Y-102.0
X196.6Y-99.3
X197.0Y-100.5
X198.2Y-101.3
X198.7Y-105.9
X199.0Y-81.6
X199.7Y-105.2
X199.8Y-80.3
X200.5Y-106.2
X200.9Y-108.1
X201.4Y-95.2
X203.0Y-92.9
X205.1Y-111.1
X205.2Y-109.6
X207.5Y-111.0
X207.6Y-109.5
X210.1Y-109.6
X210.2Y-94.6
X210.4Y-60.3
X210.4Y-110.8
X210.7Y-77.3
X211.0Y-95.7
X212.7Y-109.6
X212.8Y-91.7
X212.8Y-111.2
X213.2Y-55.1
X213.9Y-92.7
X214.3Y-100.5
X218.0Y-85.7
X218.3Y-87.3
X218.4Y-109.5
X218.5Y-108.1
X218.6Y-94.9
X219.6Y-88.8
X220.0Y-97.2
X220.5Y-105.7
X220.799Y-103.599
X220.9Y-98.1
X221.597Y-104.597
X221.7Y-80.8
X221.8Y-99.0
X222.7Y-99.9
X223.0Y-92.3
X223.7Y-95.0
X223.9Y-96.7
X224.0Y-98.4
X224.0Y-100.6
X224.7Y-80.8
X224.7Y-82.5
X225.0Y-94.8
X225.2Y-95.8
X225.2Y-99.3
X225.3Y-97.7
X225.5Y-101.5
X225.9Y-96.9
X226.1Y-112.3
X227.2Y-97.9
X228.3Y-97.894
X229.7Y-108.5
X230.0Y-103.3
X232.0Y-94.1
X232.5Y-104.5
X237.2Y-94.9
T2
X68.5Y-98.6
X77.45Y-105.25
X77.6Y-89.5
X79.1Y-113.1
X84.1Y-98.5
X87.5Y-105.8
X90.1Y-105.8
X90.1Y-109.5
X90.5Y-98.4
X92.6Y-105.8
X92.6Y-109.4
X95.2Y-105.7
X95.4Y-109.6
X99.3Y-105.1
X99.35Y-89.65
X105.9Y-98.5
X111.1Y-97.6
X119.85Y-104.25
X119.95Y-88.75
X126.65Y-97.45
X132.8Y-97.8
X141.2Y-110.4
X141.6Y-89.0
X142.236Y-102.536
X143.8Y-104.3
X145.1Y-105.8
X146.4Y-111.9
X147.5Y-105.0
X149.0Y-111.9
X149.4Y-96.9
X151.4Y-111.8
X152.7Y-105.8
X154.0Y-98.1
X162.879Y-104.721
X162.92Y-89.1
X169.5Y-98.1
X175.2Y-98.4
X179.166Y-106.813
X182.111Y-91.511
X184.5Y-105.4
X191.2Y-98.8
X191.5Y-96.5
X195.8Y-98.3
X199.2Y-111.3
X202.5Y-91.6
X205.4Y-103.0
X207.8Y-105.9
X210.4Y-105.9
X211.5Y-98.4
X212.7Y-105.9
X215.4Y-106.0
X215.5Y-98.1
X218.5Y-111.3
X224.6Y-89.1
X224.7Y-104.8
X231.7Y-98.1
T3
X57.2Y-60.5
X57.2Y-65.5
X57.3Y-75.0
X57.3Y-80.0
X87.475Y-67.475
X87.475Y-70.015
X87.475Y-72.555
X118.5Y-60.5
X118.5Y-65.5
X118.5Y-75.5
X118.5Y-80.5
X180.0Y-60.5
X180.0Y-65.5
X180.0Y-75.5
X180.0Y-80.5
X210.5Y-67.46
X210.5Y-70.0
X210.5Y-72.54
T4
X69.138Y-64.815
X69.138Y-69.315
X69.138Y-73.815
X70.888Y-61.315
X70.888Y-77.315
X74.888Y-78.315
X74.977Y-60.115
X78.888Y-61.315
X78.888Y-77.315
X80.638Y-64.815
X80.638Y-69.315
X80.638Y-73.815
X94.0Y-65.0
X94.0Y-69.5
X94.0Y-74.0
X95.75Y-61.5
X95.75Y-77.5
X99.75Y-78.5
X99.839Y-60.3
X103.75Y-61.5
X103.75Y-77.5
X105.5Y-65.0
X105.5Y-69.5
X105.5Y-74.0
X130.75Y-65.0
X130.75Y-69.5
X130.75Y-74.0
X132.5Y-61.5
X132.5Y-77.5
X136.5Y-78.5
X136.589Y-60.3
X140.5Y-61.5
X140.5Y-77.5
X142.25Y-65.0
X142.25Y-69.5
X142.25Y-74.0
X155.75Y-65.0
X155.75Y-69.5
X155.75Y-74.0
X157.5Y-61.5
X157.5Y-77.5
X161.5Y-78.5
X161.589Y-60.3
X165.5Y-61.5
X165.5Y-77.5
X167.25Y-65.0
X167.25Y-69.5
X167.25Y-74.0
X192.25Y-65.2
X192.25Y-69.7
X192.25Y-74.2
X194.0Y-61.7
X194.0Y-77.7
X198.0Y-78.7
X198.089Y-60.5
X202.0Y-61.7
X202.0Y-77.7
X203.75Y-65.2
X203.75Y-69.7
X203.75Y-74.2
X217.25Y-65.5
X217.25Y-70.0
X217.25Y-74.5
X219.0Y-62.0
X219.0Y-78.0
X223.0Y-79.0
X223.089Y-60.8
X227.0Y-62.0
X227.0Y-78.0
X228.75Y-65.5
X228.75Y-70.0
X228.75Y-74.5
T5
X85.09Y-113.915
X92.71Y-113.915
X145.09Y-114.015
X152.71Y-114.015
X205.19Y-114.015
X212.81Y-114.015
T6
X54.0Y-52.5
X54.0Y-112.5
X149.0Y-52.5
X244.0Y-112.6
X244.1Y-52.5
M30
