%TF.GenerationSoftware,KiCad,Pcbnew,9.0.6*%
%TF.CreationDate,2025-12-07T15:20:44-07:00*%
%TF.ProjectId,64 Bit - Display Board,36342042-6974-4202-9d20-446973706c61,rev?*%
%TF.SameCoordinates,Original*%
%TF.FileFunction,Soldermask,Top*%
%TF.FilePolarity,Negative*%
%FSLAX46Y46*%
G04 Gerber Fmt 4.6, Leading zero omitted, Abs format (unit mm)*
G04 Created by KiCad (PCBNEW 9.0.6) date 2025-12-07 15:20:44*
%MOMM*%
%LPD*%
G01*
G04 APERTURE LIST*
G04 Aperture macros list*
%AMRotRect*
0 Rectangle, with rotation*
0 The origin of the aperture is its center*
0 $1 length*
0 $2 width*
0 $3 Rotation angle, in degrees counterclockwise*
0 Add horizontal line*
21,1,$1,$2,0,0,$3*%
G04 Aperture macros list end*
%ADD10C,0.100000*%
%ADD11C,8.000000*%
%ADD12C,0.200000*%
%ADD13C,0.562500*%
%ADD14C,0.381000*%
%ADD15C,0.400000*%
%ADD16C,0.150000*%
%ADD17RotRect,0.650000X1.950000X135.000000*%
%ADD18C,1.750000*%
%ADD19C,5.000000*%
%ADD20C,3.000000*%
%ADD21C,1.524000*%
%ADD22C,8.000000*%
%ADD23C,2.000000*%
%ADD24R,1.700000X1.700000*%
%ADD25C,1.700000*%
G04 APERTURE END LIST*
D10*
X249000000Y-122500000D02*
X249800000Y-122500000D01*
D11*
X249000000Y-47500000D02*
X249000000Y-122500000D01*
X49000000Y-122400000D02*
X49000000Y-47500000D01*
X49000000Y-47500000D02*
X249000000Y-47500000D01*
D12*
X71369673Y-119157275D02*
X71369673Y-118157275D01*
X71845863Y-119157275D02*
X71845863Y-118157275D01*
X71845863Y-118157275D02*
X72417291Y-119157275D01*
X72417291Y-119157275D02*
X72417291Y-118157275D01*
X72845863Y-119109656D02*
X72988720Y-119157275D01*
X72988720Y-119157275D02*
X73226815Y-119157275D01*
X73226815Y-119157275D02*
X73322053Y-119109656D01*
X73322053Y-119109656D02*
X73369672Y-119062036D01*
X73369672Y-119062036D02*
X73417291Y-118966798D01*
X73417291Y-118966798D02*
X73417291Y-118871560D01*
X73417291Y-118871560D02*
X73369672Y-118776322D01*
X73369672Y-118776322D02*
X73322053Y-118728703D01*
X73322053Y-118728703D02*
X73226815Y-118681084D01*
X73226815Y-118681084D02*
X73036339Y-118633465D01*
X73036339Y-118633465D02*
X72941101Y-118585846D01*
X72941101Y-118585846D02*
X72893482Y-118538227D01*
X72893482Y-118538227D02*
X72845863Y-118442989D01*
X72845863Y-118442989D02*
X72845863Y-118347751D01*
X72845863Y-118347751D02*
X72893482Y-118252513D01*
X72893482Y-118252513D02*
X72941101Y-118204894D01*
X72941101Y-118204894D02*
X73036339Y-118157275D01*
X73036339Y-118157275D02*
X73274434Y-118157275D01*
X73274434Y-118157275D02*
X73417291Y-118204894D01*
X73845863Y-118776322D02*
X74607768Y-118776322D01*
X75607767Y-119157275D02*
X75036339Y-119157275D01*
X75322053Y-119157275D02*
X75322053Y-118157275D01*
X75322053Y-118157275D02*
X75226815Y-118300132D01*
X75226815Y-118300132D02*
X75131577Y-118395370D01*
X75131577Y-118395370D02*
X75036339Y-118442989D01*
X76798244Y-119157275D02*
X76798244Y-118157275D01*
X77274434Y-118490608D02*
X77274434Y-119157275D01*
X77274434Y-118585846D02*
X77322053Y-118538227D01*
X77322053Y-118538227D02*
X77417291Y-118490608D01*
X77417291Y-118490608D02*
X77560148Y-118490608D01*
X77560148Y-118490608D02*
X77655386Y-118538227D01*
X77655386Y-118538227D02*
X77703005Y-118633465D01*
X77703005Y-118633465D02*
X77703005Y-119157275D01*
X78607767Y-119157275D02*
X78607767Y-118157275D01*
X78607767Y-119109656D02*
X78512529Y-119157275D01*
X78512529Y-119157275D02*
X78322053Y-119157275D01*
X78322053Y-119157275D02*
X78226815Y-119109656D01*
X78226815Y-119109656D02*
X78179196Y-119062036D01*
X78179196Y-119062036D02*
X78131577Y-118966798D01*
X78131577Y-118966798D02*
X78131577Y-118681084D01*
X78131577Y-118681084D02*
X78179196Y-118585846D01*
X78179196Y-118585846D02*
X78226815Y-118538227D01*
X78226815Y-118538227D02*
X78322053Y-118490608D01*
X78322053Y-118490608D02*
X78512529Y-118490608D01*
X78512529Y-118490608D02*
X78607767Y-118538227D01*
X79083958Y-119157275D02*
X79083958Y-118490608D01*
X79083958Y-118157275D02*
X79036339Y-118204894D01*
X79036339Y-118204894D02*
X79083958Y-118252513D01*
X79083958Y-118252513D02*
X79131577Y-118204894D01*
X79131577Y-118204894D02*
X79083958Y-118157275D01*
X79083958Y-118157275D02*
X79083958Y-118252513D01*
X79988719Y-119109656D02*
X79893481Y-119157275D01*
X79893481Y-119157275D02*
X79703005Y-119157275D01*
X79703005Y-119157275D02*
X79607767Y-119109656D01*
X79607767Y-119109656D02*
X79560148Y-119062036D01*
X79560148Y-119062036D02*
X79512529Y-118966798D01*
X79512529Y-118966798D02*
X79512529Y-118681084D01*
X79512529Y-118681084D02*
X79560148Y-118585846D01*
X79560148Y-118585846D02*
X79607767Y-118538227D01*
X79607767Y-118538227D02*
X79703005Y-118490608D01*
X79703005Y-118490608D02*
X79893481Y-118490608D01*
X79893481Y-118490608D02*
X79988719Y-118538227D01*
X80845862Y-119157275D02*
X80845862Y-118633465D01*
X80845862Y-118633465D02*
X80798243Y-118538227D01*
X80798243Y-118538227D02*
X80703005Y-118490608D01*
X80703005Y-118490608D02*
X80512529Y-118490608D01*
X80512529Y-118490608D02*
X80417291Y-118538227D01*
X80845862Y-119109656D02*
X80750624Y-119157275D01*
X80750624Y-119157275D02*
X80512529Y-119157275D01*
X80512529Y-119157275D02*
X80417291Y-119109656D01*
X80417291Y-119109656D02*
X80369672Y-119014417D01*
X80369672Y-119014417D02*
X80369672Y-118919179D01*
X80369672Y-118919179D02*
X80417291Y-118823941D01*
X80417291Y-118823941D02*
X80512529Y-118776322D01*
X80512529Y-118776322D02*
X80750624Y-118776322D01*
X80750624Y-118776322D02*
X80845862Y-118728703D01*
X81179196Y-118490608D02*
X81560148Y-118490608D01*
X81322053Y-118157275D02*
X81322053Y-119014417D01*
X81322053Y-119014417D02*
X81369672Y-119109656D01*
X81369672Y-119109656D02*
X81464910Y-119157275D01*
X81464910Y-119157275D02*
X81560148Y-119157275D01*
X82036339Y-119157275D02*
X81941101Y-119109656D01*
X81941101Y-119109656D02*
X81893482Y-119062036D01*
X81893482Y-119062036D02*
X81845863Y-118966798D01*
X81845863Y-118966798D02*
X81845863Y-118681084D01*
X81845863Y-118681084D02*
X81893482Y-118585846D01*
X81893482Y-118585846D02*
X81941101Y-118538227D01*
X81941101Y-118538227D02*
X82036339Y-118490608D01*
X82036339Y-118490608D02*
X82179196Y-118490608D01*
X82179196Y-118490608D02*
X82274434Y-118538227D01*
X82274434Y-118538227D02*
X82322053Y-118585846D01*
X82322053Y-118585846D02*
X82369672Y-118681084D01*
X82369672Y-118681084D02*
X82369672Y-118966798D01*
X82369672Y-118966798D02*
X82322053Y-119062036D01*
X82322053Y-119062036D02*
X82274434Y-119109656D01*
X82274434Y-119109656D02*
X82179196Y-119157275D01*
X82179196Y-119157275D02*
X82036339Y-119157275D01*
X82798244Y-119157275D02*
X82798244Y-118490608D01*
X82798244Y-118681084D02*
X82845863Y-118585846D01*
X82845863Y-118585846D02*
X82893482Y-118538227D01*
X82893482Y-118538227D02*
X82988720Y-118490608D01*
X82988720Y-118490608D02*
X83083958Y-118490608D01*
X84512530Y-118633465D02*
X84655387Y-118681084D01*
X84655387Y-118681084D02*
X84703006Y-118728703D01*
X84703006Y-118728703D02*
X84750625Y-118823941D01*
X84750625Y-118823941D02*
X84750625Y-118966798D01*
X84750625Y-118966798D02*
X84703006Y-119062036D01*
X84703006Y-119062036D02*
X84655387Y-119109656D01*
X84655387Y-119109656D02*
X84560149Y-119157275D01*
X84560149Y-119157275D02*
X84179197Y-119157275D01*
X84179197Y-119157275D02*
X84179197Y-118157275D01*
X84179197Y-118157275D02*
X84512530Y-118157275D01*
X84512530Y-118157275D02*
X84607768Y-118204894D01*
X84607768Y-118204894D02*
X84655387Y-118252513D01*
X84655387Y-118252513D02*
X84703006Y-118347751D01*
X84703006Y-118347751D02*
X84703006Y-118442989D01*
X84703006Y-118442989D02*
X84655387Y-118538227D01*
X84655387Y-118538227D02*
X84607768Y-118585846D01*
X84607768Y-118585846D02*
X84512530Y-118633465D01*
X84512530Y-118633465D02*
X84179197Y-118633465D01*
X85607768Y-118490608D02*
X85607768Y-119157275D01*
X85179197Y-118490608D02*
X85179197Y-119014417D01*
X85179197Y-119014417D02*
X85226816Y-119109656D01*
X85226816Y-119109656D02*
X85322054Y-119157275D01*
X85322054Y-119157275D02*
X85464911Y-119157275D01*
X85464911Y-119157275D02*
X85560149Y-119109656D01*
X85560149Y-119109656D02*
X85607768Y-119062036D01*
X86226816Y-119157275D02*
X86131578Y-119109656D01*
X86131578Y-119109656D02*
X86083959Y-119014417D01*
X86083959Y-119014417D02*
X86083959Y-118157275D01*
X86607769Y-119157275D02*
X86607769Y-118157275D01*
X86607769Y-118538227D02*
X86703007Y-118490608D01*
X86703007Y-118490608D02*
X86893483Y-118490608D01*
X86893483Y-118490608D02*
X86988721Y-118538227D01*
X86988721Y-118538227D02*
X87036340Y-118585846D01*
X87036340Y-118585846D02*
X87083959Y-118681084D01*
X87083959Y-118681084D02*
X87083959Y-118966798D01*
X87083959Y-118966798D02*
X87036340Y-119062036D01*
X87036340Y-119062036D02*
X86988721Y-119109656D01*
X86988721Y-119109656D02*
X86893483Y-119157275D01*
X86893483Y-119157275D02*
X86703007Y-119157275D01*
X86703007Y-119157275D02*
X86607769Y-119109656D01*
X87464912Y-119109656D02*
X87560150Y-119157275D01*
X87560150Y-119157275D02*
X87750626Y-119157275D01*
X87750626Y-119157275D02*
X87845864Y-119109656D01*
X87845864Y-119109656D02*
X87893483Y-119014417D01*
X87893483Y-119014417D02*
X87893483Y-118966798D01*
X87893483Y-118966798D02*
X87845864Y-118871560D01*
X87845864Y-118871560D02*
X87750626Y-118823941D01*
X87750626Y-118823941D02*
X87607769Y-118823941D01*
X87607769Y-118823941D02*
X87512531Y-118776322D01*
X87512531Y-118776322D02*
X87464912Y-118681084D01*
X87464912Y-118681084D02*
X87464912Y-118633465D01*
X87464912Y-118633465D02*
X87512531Y-118538227D01*
X87512531Y-118538227D02*
X87607769Y-118490608D01*
X87607769Y-118490608D02*
X87750626Y-118490608D01*
X87750626Y-118490608D02*
X87845864Y-118538227D01*
X71226816Y-119767219D02*
X71798244Y-119767219D01*
X71512530Y-120767219D02*
X71512530Y-119767219D01*
X72131578Y-120767219D02*
X72131578Y-119767219D01*
X72131578Y-119767219D02*
X72512530Y-119767219D01*
X72512530Y-119767219D02*
X72607768Y-119814838D01*
X72607768Y-119814838D02*
X72655387Y-119862457D01*
X72655387Y-119862457D02*
X72703006Y-119957695D01*
X72703006Y-119957695D02*
X72703006Y-120100552D01*
X72703006Y-120100552D02*
X72655387Y-120195790D01*
X72655387Y-120195790D02*
X72607768Y-120243409D01*
X72607768Y-120243409D02*
X72512530Y-120291028D01*
X72512530Y-120291028D02*
X72131578Y-120291028D01*
X73131578Y-120767219D02*
X73131578Y-119767219D01*
X74179196Y-120671980D02*
X74131577Y-120719600D01*
X74131577Y-120719600D02*
X73988720Y-120767219D01*
X73988720Y-120767219D02*
X73893482Y-120767219D01*
X73893482Y-120767219D02*
X73750625Y-120719600D01*
X73750625Y-120719600D02*
X73655387Y-120624361D01*
X73655387Y-120624361D02*
X73607768Y-120529123D01*
X73607768Y-120529123D02*
X73560149Y-120338647D01*
X73560149Y-120338647D02*
X73560149Y-120195790D01*
X73560149Y-120195790D02*
X73607768Y-120005314D01*
X73607768Y-120005314D02*
X73655387Y-119910076D01*
X73655387Y-119910076D02*
X73750625Y-119814838D01*
X73750625Y-119814838D02*
X73893482Y-119767219D01*
X73893482Y-119767219D02*
X73988720Y-119767219D01*
X73988720Y-119767219D02*
X74131577Y-119814838D01*
X74131577Y-119814838D02*
X74179196Y-119862457D01*
X75036339Y-119767219D02*
X74845863Y-119767219D01*
X74845863Y-119767219D02*
X74750625Y-119814838D01*
X74750625Y-119814838D02*
X74703006Y-119862457D01*
X74703006Y-119862457D02*
X74607768Y-120005314D01*
X74607768Y-120005314D02*
X74560149Y-120195790D01*
X74560149Y-120195790D02*
X74560149Y-120576742D01*
X74560149Y-120576742D02*
X74607768Y-120671980D01*
X74607768Y-120671980D02*
X74655387Y-120719600D01*
X74655387Y-120719600D02*
X74750625Y-120767219D01*
X74750625Y-120767219D02*
X74941101Y-120767219D01*
X74941101Y-120767219D02*
X75036339Y-120719600D01*
X75036339Y-120719600D02*
X75083958Y-120671980D01*
X75083958Y-120671980D02*
X75131577Y-120576742D01*
X75131577Y-120576742D02*
X75131577Y-120338647D01*
X75131577Y-120338647D02*
X75083958Y-120243409D01*
X75083958Y-120243409D02*
X75036339Y-120195790D01*
X75036339Y-120195790D02*
X74941101Y-120148171D01*
X74941101Y-120148171D02*
X74750625Y-120148171D01*
X74750625Y-120148171D02*
X74655387Y-120195790D01*
X74655387Y-120195790D02*
X74607768Y-120243409D01*
X74607768Y-120243409D02*
X74560149Y-120338647D01*
X75893482Y-120243409D02*
X76036339Y-120291028D01*
X76036339Y-120291028D02*
X76083958Y-120338647D01*
X76083958Y-120338647D02*
X76131577Y-120433885D01*
X76131577Y-120433885D02*
X76131577Y-120576742D01*
X76131577Y-120576742D02*
X76083958Y-120671980D01*
X76083958Y-120671980D02*
X76036339Y-120719600D01*
X76036339Y-120719600D02*
X75941101Y-120767219D01*
X75941101Y-120767219D02*
X75560149Y-120767219D01*
X75560149Y-120767219D02*
X75560149Y-119767219D01*
X75560149Y-119767219D02*
X75893482Y-119767219D01*
X75893482Y-119767219D02*
X75988720Y-119814838D01*
X75988720Y-119814838D02*
X76036339Y-119862457D01*
X76036339Y-119862457D02*
X76083958Y-119957695D01*
X76083958Y-119957695D02*
X76083958Y-120052933D01*
X76083958Y-120052933D02*
X76036339Y-120148171D01*
X76036339Y-120148171D02*
X75988720Y-120195790D01*
X75988720Y-120195790D02*
X75893482Y-120243409D01*
X75893482Y-120243409D02*
X75560149Y-120243409D01*
X77036339Y-119767219D02*
X76560149Y-119767219D01*
X76560149Y-119767219D02*
X76512530Y-120243409D01*
X76512530Y-120243409D02*
X76560149Y-120195790D01*
X76560149Y-120195790D02*
X76655387Y-120148171D01*
X76655387Y-120148171D02*
X76893482Y-120148171D01*
X76893482Y-120148171D02*
X76988720Y-120195790D01*
X76988720Y-120195790D02*
X77036339Y-120243409D01*
X77036339Y-120243409D02*
X77083958Y-120338647D01*
X77083958Y-120338647D02*
X77083958Y-120576742D01*
X77083958Y-120576742D02*
X77036339Y-120671980D01*
X77036339Y-120671980D02*
X76988720Y-120719600D01*
X76988720Y-120719600D02*
X76893482Y-120767219D01*
X76893482Y-120767219D02*
X76655387Y-120767219D01*
X76655387Y-120767219D02*
X76560149Y-120719600D01*
X76560149Y-120719600D02*
X76512530Y-120671980D01*
X77560149Y-120767219D02*
X77750625Y-120767219D01*
X77750625Y-120767219D02*
X77845863Y-120719600D01*
X77845863Y-120719600D02*
X77893482Y-120671980D01*
X77893482Y-120671980D02*
X77988720Y-120529123D01*
X77988720Y-120529123D02*
X78036339Y-120338647D01*
X78036339Y-120338647D02*
X78036339Y-119957695D01*
X78036339Y-119957695D02*
X77988720Y-119862457D01*
X77988720Y-119862457D02*
X77941101Y-119814838D01*
X77941101Y-119814838D02*
X77845863Y-119767219D01*
X77845863Y-119767219D02*
X77655387Y-119767219D01*
X77655387Y-119767219D02*
X77560149Y-119814838D01*
X77560149Y-119814838D02*
X77512530Y-119862457D01*
X77512530Y-119862457D02*
X77464911Y-119957695D01*
X77464911Y-119957695D02*
X77464911Y-120195790D01*
X77464911Y-120195790D02*
X77512530Y-120291028D01*
X77512530Y-120291028D02*
X77560149Y-120338647D01*
X77560149Y-120338647D02*
X77655387Y-120386266D01*
X77655387Y-120386266D02*
X77845863Y-120386266D01*
X77845863Y-120386266D02*
X77941101Y-120338647D01*
X77941101Y-120338647D02*
X77988720Y-120291028D01*
X77988720Y-120291028D02*
X78036339Y-120195790D01*
X78941101Y-119767219D02*
X78464911Y-119767219D01*
X78464911Y-119767219D02*
X78417292Y-120243409D01*
X78417292Y-120243409D02*
X78464911Y-120195790D01*
X78464911Y-120195790D02*
X78560149Y-120148171D01*
X78560149Y-120148171D02*
X78798244Y-120148171D01*
X78798244Y-120148171D02*
X78893482Y-120195790D01*
X78893482Y-120195790D02*
X78941101Y-120243409D01*
X78941101Y-120243409D02*
X78988720Y-120338647D01*
X78988720Y-120338647D02*
X78988720Y-120576742D01*
X78988720Y-120576742D02*
X78941101Y-120671980D01*
X78941101Y-120671980D02*
X78893482Y-120719600D01*
X78893482Y-120719600D02*
X78798244Y-120767219D01*
X78798244Y-120767219D02*
X78560149Y-120767219D01*
X78560149Y-120767219D02*
X78464911Y-120719600D01*
X78464911Y-120719600D02*
X78417292Y-120671980D01*
X80131578Y-120719600D02*
X80274435Y-120767219D01*
X80274435Y-120767219D02*
X80512530Y-120767219D01*
X80512530Y-120767219D02*
X80607768Y-120719600D01*
X80607768Y-120719600D02*
X80655387Y-120671980D01*
X80655387Y-120671980D02*
X80703006Y-120576742D01*
X80703006Y-120576742D02*
X80703006Y-120481504D01*
X80703006Y-120481504D02*
X80655387Y-120386266D01*
X80655387Y-120386266D02*
X80607768Y-120338647D01*
X80607768Y-120338647D02*
X80512530Y-120291028D01*
X80512530Y-120291028D02*
X80322054Y-120243409D01*
X80322054Y-120243409D02*
X80226816Y-120195790D01*
X80226816Y-120195790D02*
X80179197Y-120148171D01*
X80179197Y-120148171D02*
X80131578Y-120052933D01*
X80131578Y-120052933D02*
X80131578Y-119957695D01*
X80131578Y-119957695D02*
X80179197Y-119862457D01*
X80179197Y-119862457D02*
X80226816Y-119814838D01*
X80226816Y-119814838D02*
X80322054Y-119767219D01*
X80322054Y-119767219D02*
X80560149Y-119767219D01*
X80560149Y-119767219D02*
X80703006Y-119814838D01*
X81131578Y-120767219D02*
X81131578Y-119767219D01*
X81560149Y-120767219D02*
X81560149Y-120243409D01*
X81560149Y-120243409D02*
X81512530Y-120148171D01*
X81512530Y-120148171D02*
X81417292Y-120100552D01*
X81417292Y-120100552D02*
X81274435Y-120100552D01*
X81274435Y-120100552D02*
X81179197Y-120148171D01*
X81179197Y-120148171D02*
X81131578Y-120195790D01*
X82036340Y-120767219D02*
X82036340Y-120100552D01*
X82036340Y-119767219D02*
X81988721Y-119814838D01*
X81988721Y-119814838D02*
X82036340Y-119862457D01*
X82036340Y-119862457D02*
X82083959Y-119814838D01*
X82083959Y-119814838D02*
X82036340Y-119767219D01*
X82036340Y-119767219D02*
X82036340Y-119862457D01*
X82369673Y-120100552D02*
X82750625Y-120100552D01*
X82512530Y-120767219D02*
X82512530Y-119910076D01*
X82512530Y-119910076D02*
X82560149Y-119814838D01*
X82560149Y-119814838D02*
X82655387Y-119767219D01*
X82655387Y-119767219D02*
X82750625Y-119767219D01*
X82941102Y-120100552D02*
X83322054Y-120100552D01*
X83083959Y-119767219D02*
X83083959Y-120624361D01*
X83083959Y-120624361D02*
X83131578Y-120719600D01*
X83131578Y-120719600D02*
X83226816Y-120767219D01*
X83226816Y-120767219D02*
X83322054Y-120767219D01*
X84988721Y-120767219D02*
X84655388Y-120291028D01*
X84417293Y-120767219D02*
X84417293Y-119767219D01*
X84417293Y-119767219D02*
X84798245Y-119767219D01*
X84798245Y-119767219D02*
X84893483Y-119814838D01*
X84893483Y-119814838D02*
X84941102Y-119862457D01*
X84941102Y-119862457D02*
X84988721Y-119957695D01*
X84988721Y-119957695D02*
X84988721Y-120100552D01*
X84988721Y-120100552D02*
X84941102Y-120195790D01*
X84941102Y-120195790D02*
X84893483Y-120243409D01*
X84893483Y-120243409D02*
X84798245Y-120291028D01*
X84798245Y-120291028D02*
X84417293Y-120291028D01*
X85798245Y-120719600D02*
X85703007Y-120767219D01*
X85703007Y-120767219D02*
X85512531Y-120767219D01*
X85512531Y-120767219D02*
X85417293Y-120719600D01*
X85417293Y-120719600D02*
X85369674Y-120624361D01*
X85369674Y-120624361D02*
X85369674Y-120243409D01*
X85369674Y-120243409D02*
X85417293Y-120148171D01*
X85417293Y-120148171D02*
X85512531Y-120100552D01*
X85512531Y-120100552D02*
X85703007Y-120100552D01*
X85703007Y-120100552D02*
X85798245Y-120148171D01*
X85798245Y-120148171D02*
X85845864Y-120243409D01*
X85845864Y-120243409D02*
X85845864Y-120338647D01*
X85845864Y-120338647D02*
X85369674Y-120433885D01*
X86703007Y-120100552D02*
X86703007Y-120910076D01*
X86703007Y-120910076D02*
X86655388Y-121005314D01*
X86655388Y-121005314D02*
X86607769Y-121052933D01*
X86607769Y-121052933D02*
X86512531Y-121100552D01*
X86512531Y-121100552D02*
X86369674Y-121100552D01*
X86369674Y-121100552D02*
X86274436Y-121052933D01*
X86703007Y-120719600D02*
X86607769Y-120767219D01*
X86607769Y-120767219D02*
X86417293Y-120767219D01*
X86417293Y-120767219D02*
X86322055Y-120719600D01*
X86322055Y-120719600D02*
X86274436Y-120671980D01*
X86274436Y-120671980D02*
X86226817Y-120576742D01*
X86226817Y-120576742D02*
X86226817Y-120291028D01*
X86226817Y-120291028D02*
X86274436Y-120195790D01*
X86274436Y-120195790D02*
X86322055Y-120148171D01*
X86322055Y-120148171D02*
X86417293Y-120100552D01*
X86417293Y-120100552D02*
X86607769Y-120100552D01*
X86607769Y-120100552D02*
X86703007Y-120148171D01*
X87179198Y-120767219D02*
X87179198Y-120100552D01*
X87179198Y-119767219D02*
X87131579Y-119814838D01*
X87131579Y-119814838D02*
X87179198Y-119862457D01*
X87179198Y-119862457D02*
X87226817Y-119814838D01*
X87226817Y-119814838D02*
X87179198Y-119767219D01*
X87179198Y-119767219D02*
X87179198Y-119862457D01*
X87607769Y-120719600D02*
X87703007Y-120767219D01*
X87703007Y-120767219D02*
X87893483Y-120767219D01*
X87893483Y-120767219D02*
X87988721Y-120719600D01*
X87988721Y-120719600D02*
X88036340Y-120624361D01*
X88036340Y-120624361D02*
X88036340Y-120576742D01*
X88036340Y-120576742D02*
X87988721Y-120481504D01*
X87988721Y-120481504D02*
X87893483Y-120433885D01*
X87893483Y-120433885D02*
X87750626Y-120433885D01*
X87750626Y-120433885D02*
X87655388Y-120386266D01*
X87655388Y-120386266D02*
X87607769Y-120291028D01*
X87607769Y-120291028D02*
X87607769Y-120243409D01*
X87607769Y-120243409D02*
X87655388Y-120148171D01*
X87655388Y-120148171D02*
X87750626Y-120100552D01*
X87750626Y-120100552D02*
X87893483Y-120100552D01*
X87893483Y-120100552D02*
X87988721Y-120148171D01*
X88322055Y-120100552D02*
X88703007Y-120100552D01*
X88464912Y-119767219D02*
X88464912Y-120624361D01*
X88464912Y-120624361D02*
X88512531Y-120719600D01*
X88512531Y-120719600D02*
X88607769Y-120767219D01*
X88607769Y-120767219D02*
X88703007Y-120767219D01*
X89417293Y-120719600D02*
X89322055Y-120767219D01*
X89322055Y-120767219D02*
X89131579Y-120767219D01*
X89131579Y-120767219D02*
X89036341Y-120719600D01*
X89036341Y-120719600D02*
X88988722Y-120624361D01*
X88988722Y-120624361D02*
X88988722Y-120243409D01*
X88988722Y-120243409D02*
X89036341Y-120148171D01*
X89036341Y-120148171D02*
X89131579Y-120100552D01*
X89131579Y-120100552D02*
X89322055Y-120100552D01*
X89322055Y-120100552D02*
X89417293Y-120148171D01*
X89417293Y-120148171D02*
X89464912Y-120243409D01*
X89464912Y-120243409D02*
X89464912Y-120338647D01*
X89464912Y-120338647D02*
X88988722Y-120433885D01*
X89893484Y-120767219D02*
X89893484Y-120100552D01*
X89893484Y-120291028D02*
X89941103Y-120195790D01*
X89941103Y-120195790D02*
X89988722Y-120148171D01*
X89988722Y-120148171D02*
X90083960Y-120100552D01*
X90083960Y-120100552D02*
X90179198Y-120100552D01*
X90464913Y-120719600D02*
X90560151Y-120767219D01*
X90560151Y-120767219D02*
X90750627Y-120767219D01*
X90750627Y-120767219D02*
X90845865Y-120719600D01*
X90845865Y-120719600D02*
X90893484Y-120624361D01*
X90893484Y-120624361D02*
X90893484Y-120576742D01*
X90893484Y-120576742D02*
X90845865Y-120481504D01*
X90845865Y-120481504D02*
X90750627Y-120433885D01*
X90750627Y-120433885D02*
X90607770Y-120433885D01*
X90607770Y-120433885D02*
X90512532Y-120386266D01*
X90512532Y-120386266D02*
X90464913Y-120291028D01*
X90464913Y-120291028D02*
X90464913Y-120243409D01*
X90464913Y-120243409D02*
X90512532Y-120148171D01*
X90512532Y-120148171D02*
X90607770Y-120100552D01*
X90607770Y-120100552D02*
X90750627Y-120100552D01*
X90750627Y-120100552D02*
X90845865Y-120148171D01*
X97436339Y-119767219D02*
X97317292Y-119957695D01*
X98293482Y-119767219D02*
X98103006Y-119767219D01*
X98103006Y-119767219D02*
X98001815Y-119814838D01*
X98001815Y-119814838D02*
X97948244Y-119862457D01*
X97948244Y-119862457D02*
X97835148Y-120005314D01*
X97835148Y-120005314D02*
X97763720Y-120195790D01*
X97763720Y-120195790D02*
X97716101Y-120576742D01*
X97716101Y-120576742D02*
X97751815Y-120671980D01*
X97751815Y-120671980D02*
X97793482Y-120719600D01*
X97793482Y-120719600D02*
X97882768Y-120767219D01*
X97882768Y-120767219D02*
X98073244Y-120767219D01*
X98073244Y-120767219D02*
X98174434Y-120719600D01*
X98174434Y-120719600D02*
X98228006Y-120671980D01*
X98228006Y-120671980D02*
X98287529Y-120576742D01*
X98287529Y-120576742D02*
X98317291Y-120338647D01*
X98317291Y-120338647D02*
X98281577Y-120243409D01*
X98281577Y-120243409D02*
X98239910Y-120195790D01*
X98239910Y-120195790D02*
X98150625Y-120148171D01*
X98150625Y-120148171D02*
X97960148Y-120148171D01*
X97960148Y-120148171D02*
X97858958Y-120195790D01*
X97858958Y-120195790D02*
X97805387Y-120243409D01*
X97805387Y-120243409D02*
X97745863Y-120338647D01*
X99204196Y-120100552D02*
X99120863Y-120767219D01*
X99013720Y-119719600D02*
X98686339Y-120433885D01*
X98686339Y-120433885D02*
X99305387Y-120433885D01*
X100805387Y-120243409D02*
X100942292Y-120291028D01*
X100942292Y-120291028D02*
X100983958Y-120338647D01*
X100983958Y-120338647D02*
X101019673Y-120433885D01*
X101019673Y-120433885D02*
X101001815Y-120576742D01*
X101001815Y-120576742D02*
X100942292Y-120671980D01*
X100942292Y-120671980D02*
X100888720Y-120719600D01*
X100888720Y-120719600D02*
X100787530Y-120767219D01*
X100787530Y-120767219D02*
X100406577Y-120767219D01*
X100406577Y-120767219D02*
X100531577Y-119767219D01*
X100531577Y-119767219D02*
X100864911Y-119767219D01*
X100864911Y-119767219D02*
X100954196Y-119814838D01*
X100954196Y-119814838D02*
X100995863Y-119862457D01*
X100995863Y-119862457D02*
X101031577Y-119957695D01*
X101031577Y-119957695D02*
X101019673Y-120052933D01*
X101019673Y-120052933D02*
X100960149Y-120148171D01*
X100960149Y-120148171D02*
X100906577Y-120195790D01*
X100906577Y-120195790D02*
X100805387Y-120243409D01*
X100805387Y-120243409D02*
X100472054Y-120243409D01*
X101406577Y-120767219D02*
X101489911Y-120100552D01*
X101531577Y-119767219D02*
X101478006Y-119814838D01*
X101478006Y-119814838D02*
X101519673Y-119862457D01*
X101519673Y-119862457D02*
X101573244Y-119814838D01*
X101573244Y-119814838D02*
X101531577Y-119767219D01*
X101531577Y-119767219D02*
X101519673Y-119862457D01*
X101823244Y-120100552D02*
X102204196Y-120100552D01*
X102007767Y-119767219D02*
X101900625Y-120624361D01*
X101900625Y-120624361D02*
X101936339Y-120719600D01*
X101936339Y-120719600D02*
X102025625Y-120767219D01*
X102025625Y-120767219D02*
X102120863Y-120767219D01*
X102626815Y-119767219D02*
X102507768Y-119957695D01*
X103692291Y-120767219D02*
X103817291Y-119767219D01*
X103817291Y-119767219D02*
X104263720Y-120767219D01*
X104263720Y-120767219D02*
X104388720Y-119767219D01*
X104739910Y-120767219D02*
X104823244Y-120100552D01*
X104864910Y-119767219D02*
X104811339Y-119814838D01*
X104811339Y-119814838D02*
X104853006Y-119862457D01*
X104853006Y-119862457D02*
X104906577Y-119814838D01*
X104906577Y-119814838D02*
X104864910Y-119767219D01*
X104864910Y-119767219D02*
X104853006Y-119862457D01*
X105120862Y-120767219D02*
X105728005Y-120100552D01*
X105204196Y-120100552D02*
X105644672Y-120767219D01*
X106025624Y-120767219D02*
X106108958Y-120100552D01*
X106150624Y-119767219D02*
X106097053Y-119814838D01*
X106097053Y-119814838D02*
X106138720Y-119862457D01*
X106138720Y-119862457D02*
X106192291Y-119814838D01*
X106192291Y-119814838D02*
X106150624Y-119767219D01*
X106150624Y-119767219D02*
X106138720Y-119862457D01*
X106888719Y-120719600D02*
X106787529Y-120767219D01*
X106787529Y-120767219D02*
X106597052Y-120767219D01*
X106597052Y-120767219D02*
X106507767Y-120719600D01*
X106507767Y-120719600D02*
X106472052Y-120624361D01*
X106472052Y-120624361D02*
X106519672Y-120243409D01*
X106519672Y-120243409D02*
X106579195Y-120148171D01*
X106579195Y-120148171D02*
X106680386Y-120100552D01*
X106680386Y-120100552D02*
X106870862Y-120100552D01*
X106870862Y-120100552D02*
X106960148Y-120148171D01*
X106960148Y-120148171D02*
X106995862Y-120243409D01*
X106995862Y-120243409D02*
X106983957Y-120338647D01*
X106983957Y-120338647D02*
X106495862Y-120433885D01*
X108103005Y-119767219D02*
X108674434Y-119767219D01*
X108263720Y-120767219D02*
X108388720Y-119767219D01*
X109394672Y-120100552D02*
X109311339Y-120767219D01*
X108966101Y-120100552D02*
X108900625Y-120624361D01*
X108900625Y-120624361D02*
X108936339Y-120719600D01*
X108936339Y-120719600D02*
X109025625Y-120767219D01*
X109025625Y-120767219D02*
X109168482Y-120767219D01*
X109168482Y-120767219D02*
X109269672Y-120719600D01*
X109269672Y-120719600D02*
X109323244Y-120671980D01*
X109787529Y-120767219D02*
X109912529Y-119767219D01*
X109864910Y-120148171D02*
X109966101Y-120100552D01*
X109966101Y-120100552D02*
X110156577Y-120100552D01*
X110156577Y-120100552D02*
X110245863Y-120148171D01*
X110245863Y-120148171D02*
X110287529Y-120195790D01*
X110287529Y-120195790D02*
X110323244Y-120291028D01*
X110323244Y-120291028D02*
X110287529Y-120576742D01*
X110287529Y-120576742D02*
X110228006Y-120671980D01*
X110228006Y-120671980D02*
X110174434Y-120719600D01*
X110174434Y-120719600D02*
X110073244Y-120767219D01*
X110073244Y-120767219D02*
X109882767Y-120767219D01*
X109882767Y-120767219D02*
X109793482Y-120719600D01*
X111079196Y-120719600D02*
X110978006Y-120767219D01*
X110978006Y-120767219D02*
X110787529Y-120767219D01*
X110787529Y-120767219D02*
X110698244Y-120719600D01*
X110698244Y-120719600D02*
X110662529Y-120624361D01*
X110662529Y-120624361D02*
X110710149Y-120243409D01*
X110710149Y-120243409D02*
X110769672Y-120148171D01*
X110769672Y-120148171D02*
X110870863Y-120100552D01*
X110870863Y-120100552D02*
X111061339Y-120100552D01*
X111061339Y-120100552D02*
X111150625Y-120148171D01*
X111150625Y-120148171D02*
X111186339Y-120243409D01*
X111186339Y-120243409D02*
X111174434Y-120338647D01*
X111174434Y-120338647D02*
X110686339Y-120433885D01*
X112894673Y-120671980D02*
X112841101Y-120719600D01*
X112841101Y-120719600D02*
X112692292Y-120767219D01*
X112692292Y-120767219D02*
X112597054Y-120767219D01*
X112597054Y-120767219D02*
X112460149Y-120719600D01*
X112460149Y-120719600D02*
X112376816Y-120624361D01*
X112376816Y-120624361D02*
X112341101Y-120529123D01*
X112341101Y-120529123D02*
X112317292Y-120338647D01*
X112317292Y-120338647D02*
X112335149Y-120195790D01*
X112335149Y-120195790D02*
X112406577Y-120005314D01*
X112406577Y-120005314D02*
X112466101Y-119910076D01*
X112466101Y-119910076D02*
X112573244Y-119814838D01*
X112573244Y-119814838D02*
X112722054Y-119767219D01*
X112722054Y-119767219D02*
X112817292Y-119767219D01*
X112817292Y-119767219D02*
X112954197Y-119814838D01*
X112954197Y-119814838D02*
X112995863Y-119862457D01*
X113454197Y-120767219D02*
X113364911Y-120719600D01*
X113364911Y-120719600D02*
X113329197Y-120624361D01*
X113329197Y-120624361D02*
X113436339Y-119767219D01*
X113978007Y-120767219D02*
X113888721Y-120719600D01*
X113888721Y-120719600D02*
X113847054Y-120671980D01*
X113847054Y-120671980D02*
X113811340Y-120576742D01*
X113811340Y-120576742D02*
X113847054Y-120291028D01*
X113847054Y-120291028D02*
X113906578Y-120195790D01*
X113906578Y-120195790D02*
X113960149Y-120148171D01*
X113960149Y-120148171D02*
X114061340Y-120100552D01*
X114061340Y-120100552D02*
X114204197Y-120100552D01*
X114204197Y-120100552D02*
X114293483Y-120148171D01*
X114293483Y-120148171D02*
X114335149Y-120195790D01*
X114335149Y-120195790D02*
X114370864Y-120291028D01*
X114370864Y-120291028D02*
X114335149Y-120576742D01*
X114335149Y-120576742D02*
X114275626Y-120671980D01*
X114275626Y-120671980D02*
X114222054Y-120719600D01*
X114222054Y-120719600D02*
X114120864Y-120767219D01*
X114120864Y-120767219D02*
X113978007Y-120767219D01*
X115174435Y-120719600D02*
X115073245Y-120767219D01*
X115073245Y-120767219D02*
X114882769Y-120767219D01*
X114882769Y-120767219D02*
X114793483Y-120719600D01*
X114793483Y-120719600D02*
X114751816Y-120671980D01*
X114751816Y-120671980D02*
X114716102Y-120576742D01*
X114716102Y-120576742D02*
X114751816Y-120291028D01*
X114751816Y-120291028D02*
X114811340Y-120195790D01*
X114811340Y-120195790D02*
X114864911Y-120148171D01*
X114864911Y-120148171D02*
X114966102Y-120100552D01*
X114966102Y-120100552D02*
X115156578Y-120100552D01*
X115156578Y-120100552D02*
X115245864Y-120148171D01*
X115597054Y-120767219D02*
X115722054Y-119767219D01*
X115739912Y-120386266D02*
X115978007Y-120767219D01*
X116061340Y-120100552D02*
X115632769Y-120481504D01*
X117216102Y-120386266D02*
X117978007Y-120386266D01*
X119168483Y-120767219D02*
X119293483Y-119767219D01*
X119293483Y-119767219D02*
X119531579Y-119767219D01*
X119531579Y-119767219D02*
X119668483Y-119814838D01*
X119668483Y-119814838D02*
X119751817Y-119910076D01*
X119751817Y-119910076D02*
X119787531Y-120005314D01*
X119787531Y-120005314D02*
X119811341Y-120195790D01*
X119811341Y-120195790D02*
X119793483Y-120338647D01*
X119793483Y-120338647D02*
X119722055Y-120529123D01*
X119722055Y-120529123D02*
X119662531Y-120624361D01*
X119662531Y-120624361D02*
X119555388Y-120719600D01*
X119555388Y-120719600D02*
X119406579Y-120767219D01*
X119406579Y-120767219D02*
X119168483Y-120767219D01*
X120168483Y-120767219D02*
X120251817Y-120100552D01*
X120293483Y-119767219D02*
X120239912Y-119814838D01*
X120239912Y-119814838D02*
X120281579Y-119862457D01*
X120281579Y-119862457D02*
X120335150Y-119814838D01*
X120335150Y-119814838D02*
X120293483Y-119767219D01*
X120293483Y-119767219D02*
X120281579Y-119862457D01*
X120603007Y-120719600D02*
X120692292Y-120767219D01*
X120692292Y-120767219D02*
X120882769Y-120767219D01*
X120882769Y-120767219D02*
X120983959Y-120719600D01*
X120983959Y-120719600D02*
X121043483Y-120624361D01*
X121043483Y-120624361D02*
X121049435Y-120576742D01*
X121049435Y-120576742D02*
X121013721Y-120481504D01*
X121013721Y-120481504D02*
X120924435Y-120433885D01*
X120924435Y-120433885D02*
X120781578Y-120433885D01*
X120781578Y-120433885D02*
X120692292Y-120386266D01*
X120692292Y-120386266D02*
X120656578Y-120291028D01*
X120656578Y-120291028D02*
X120662531Y-120243409D01*
X120662531Y-120243409D02*
X120722054Y-120148171D01*
X120722054Y-120148171D02*
X120823245Y-120100552D01*
X120823245Y-120100552D02*
X120966102Y-120100552D01*
X120966102Y-120100552D02*
X121055388Y-120148171D01*
X121537531Y-120100552D02*
X121412531Y-121100552D01*
X121531578Y-120148171D02*
X121632769Y-120100552D01*
X121632769Y-120100552D02*
X121823245Y-120100552D01*
X121823245Y-120100552D02*
X121912531Y-120148171D01*
X121912531Y-120148171D02*
X121954197Y-120195790D01*
X121954197Y-120195790D02*
X121989912Y-120291028D01*
X121989912Y-120291028D02*
X121954197Y-120576742D01*
X121954197Y-120576742D02*
X121894674Y-120671980D01*
X121894674Y-120671980D02*
X121841102Y-120719600D01*
X121841102Y-120719600D02*
X121739912Y-120767219D01*
X121739912Y-120767219D02*
X121549435Y-120767219D01*
X121549435Y-120767219D02*
X121460150Y-120719600D01*
X122501817Y-120767219D02*
X122412531Y-120719600D01*
X122412531Y-120719600D02*
X122376817Y-120624361D01*
X122376817Y-120624361D02*
X122483959Y-119767219D01*
X123311341Y-120767219D02*
X123376817Y-120243409D01*
X123376817Y-120243409D02*
X123341103Y-120148171D01*
X123341103Y-120148171D02*
X123251817Y-120100552D01*
X123251817Y-120100552D02*
X123061341Y-120100552D01*
X123061341Y-120100552D02*
X122960150Y-120148171D01*
X123317293Y-120719600D02*
X123216103Y-120767219D01*
X123216103Y-120767219D02*
X122978007Y-120767219D01*
X122978007Y-120767219D02*
X122888722Y-120719600D01*
X122888722Y-120719600D02*
X122853007Y-120624361D01*
X122853007Y-120624361D02*
X122864912Y-120529123D01*
X122864912Y-120529123D02*
X122924436Y-120433885D01*
X122924436Y-120433885D02*
X123025627Y-120386266D01*
X123025627Y-120386266D02*
X123263722Y-120386266D01*
X123263722Y-120386266D02*
X123364912Y-120338647D01*
X123775627Y-120100552D02*
X123930389Y-120767219D01*
X124251817Y-120100552D02*
X123930389Y-120767219D01*
X123930389Y-120767219D02*
X123805389Y-121005314D01*
X123805389Y-121005314D02*
X123751817Y-121052933D01*
X123751817Y-121052933D02*
X123650627Y-121100552D01*
X125710151Y-120243409D02*
X125847056Y-120291028D01*
X125847056Y-120291028D02*
X125888722Y-120338647D01*
X125888722Y-120338647D02*
X125924437Y-120433885D01*
X125924437Y-120433885D02*
X125906579Y-120576742D01*
X125906579Y-120576742D02*
X125847056Y-120671980D01*
X125847056Y-120671980D02*
X125793484Y-120719600D01*
X125793484Y-120719600D02*
X125692294Y-120767219D01*
X125692294Y-120767219D02*
X125311341Y-120767219D01*
X125311341Y-120767219D02*
X125436341Y-119767219D01*
X125436341Y-119767219D02*
X125769675Y-119767219D01*
X125769675Y-119767219D02*
X125858960Y-119814838D01*
X125858960Y-119814838D02*
X125900627Y-119862457D01*
X125900627Y-119862457D02*
X125936341Y-119957695D01*
X125936341Y-119957695D02*
X125924437Y-120052933D01*
X125924437Y-120052933D02*
X125864913Y-120148171D01*
X125864913Y-120148171D02*
X125811341Y-120195790D01*
X125811341Y-120195790D02*
X125710151Y-120243409D01*
X125710151Y-120243409D02*
X125376818Y-120243409D01*
X126454199Y-120767219D02*
X126364913Y-120719600D01*
X126364913Y-120719600D02*
X126323246Y-120671980D01*
X126323246Y-120671980D02*
X126287532Y-120576742D01*
X126287532Y-120576742D02*
X126323246Y-120291028D01*
X126323246Y-120291028D02*
X126382770Y-120195790D01*
X126382770Y-120195790D02*
X126436341Y-120148171D01*
X126436341Y-120148171D02*
X126537532Y-120100552D01*
X126537532Y-120100552D02*
X126680389Y-120100552D01*
X126680389Y-120100552D02*
X126769675Y-120148171D01*
X126769675Y-120148171D02*
X126811341Y-120195790D01*
X126811341Y-120195790D02*
X126847056Y-120291028D01*
X126847056Y-120291028D02*
X126811341Y-120576742D01*
X126811341Y-120576742D02*
X126751818Y-120671980D01*
X126751818Y-120671980D02*
X126698246Y-120719600D01*
X126698246Y-120719600D02*
X126597056Y-120767219D01*
X126597056Y-120767219D02*
X126454199Y-120767219D01*
X127644675Y-120767219D02*
X127710151Y-120243409D01*
X127710151Y-120243409D02*
X127674437Y-120148171D01*
X127674437Y-120148171D02*
X127585151Y-120100552D01*
X127585151Y-120100552D02*
X127394675Y-120100552D01*
X127394675Y-120100552D02*
X127293484Y-120148171D01*
X127650627Y-120719600D02*
X127549437Y-120767219D01*
X127549437Y-120767219D02*
X127311341Y-120767219D01*
X127311341Y-120767219D02*
X127222056Y-120719600D01*
X127222056Y-120719600D02*
X127186341Y-120624361D01*
X127186341Y-120624361D02*
X127198246Y-120529123D01*
X127198246Y-120529123D02*
X127257770Y-120433885D01*
X127257770Y-120433885D02*
X127358961Y-120386266D01*
X127358961Y-120386266D02*
X127597056Y-120386266D01*
X127597056Y-120386266D02*
X127698246Y-120338647D01*
X128120865Y-120767219D02*
X128204199Y-120100552D01*
X128180389Y-120291028D02*
X128239913Y-120195790D01*
X128239913Y-120195790D02*
X128293484Y-120148171D01*
X128293484Y-120148171D02*
X128394675Y-120100552D01*
X128394675Y-120100552D02*
X128489913Y-120100552D01*
X129168485Y-120767219D02*
X129293485Y-119767219D01*
X129174437Y-120719600D02*
X129073247Y-120767219D01*
X129073247Y-120767219D02*
X128882771Y-120767219D01*
X128882771Y-120767219D02*
X128793485Y-120719600D01*
X128793485Y-120719600D02*
X128751818Y-120671980D01*
X128751818Y-120671980D02*
X128716104Y-120576742D01*
X128716104Y-120576742D02*
X128751818Y-120291028D01*
X128751818Y-120291028D02*
X128811342Y-120195790D01*
X128811342Y-120195790D02*
X128864913Y-120148171D01*
X128864913Y-120148171D02*
X128966104Y-120100552D01*
X128966104Y-120100552D02*
X129156580Y-120100552D01*
X129156580Y-120100552D02*
X129245866Y-120148171D01*
X129394675Y-120862457D02*
X130156580Y-120862457D01*
X130388723Y-119767219D02*
X130597057Y-120767219D01*
X130597057Y-120767219D02*
X131055390Y-119767219D01*
X131787533Y-120767219D02*
X131216104Y-120767219D01*
X131501819Y-120767219D02*
X131626819Y-119767219D01*
X131626819Y-119767219D02*
X131513723Y-119910076D01*
X131513723Y-119910076D02*
X131406581Y-120005314D01*
X131406581Y-120005314D02*
X131305390Y-120052933D01*
X132228009Y-120671980D02*
X132269676Y-120719600D01*
X132269676Y-120719600D02*
X132216104Y-120767219D01*
X132216104Y-120767219D02*
X132174438Y-120719600D01*
X132174438Y-120719600D02*
X132228009Y-120671980D01*
X132228009Y-120671980D02*
X132216104Y-120767219D01*
X133007771Y-119767219D02*
X133103009Y-119767219D01*
X133103009Y-119767219D02*
X133192294Y-119814838D01*
X133192294Y-119814838D02*
X133233961Y-119862457D01*
X133233961Y-119862457D02*
X133269675Y-119957695D01*
X133269675Y-119957695D02*
X133293485Y-120148171D01*
X133293485Y-120148171D02*
X133263723Y-120386266D01*
X133263723Y-120386266D02*
X133192294Y-120576742D01*
X133192294Y-120576742D02*
X133132771Y-120671980D01*
X133132771Y-120671980D02*
X133079199Y-120719600D01*
X133079199Y-120719600D02*
X132978009Y-120767219D01*
X132978009Y-120767219D02*
X132882771Y-120767219D01*
X132882771Y-120767219D02*
X132793485Y-120719600D01*
X132793485Y-120719600D02*
X132751818Y-120671980D01*
X132751818Y-120671980D02*
X132716104Y-120576742D01*
X132716104Y-120576742D02*
X132692294Y-120386266D01*
X132692294Y-120386266D02*
X132722056Y-120148171D01*
X132722056Y-120148171D02*
X132793485Y-119957695D01*
X132793485Y-119957695D02*
X132853009Y-119862457D01*
X132853009Y-119862457D02*
X132906580Y-119814838D01*
X132906580Y-119814838D02*
X133007771Y-119767219D01*
X134406580Y-120767219D02*
X134531580Y-119767219D01*
X134531580Y-119767219D02*
X134769676Y-119767219D01*
X134769676Y-119767219D02*
X134906580Y-119814838D01*
X134906580Y-119814838D02*
X134989914Y-119910076D01*
X134989914Y-119910076D02*
X135025628Y-120005314D01*
X135025628Y-120005314D02*
X135049438Y-120195790D01*
X135049438Y-120195790D02*
X135031580Y-120338647D01*
X135031580Y-120338647D02*
X134960152Y-120529123D01*
X134960152Y-120529123D02*
X134900628Y-120624361D01*
X134900628Y-120624361D02*
X134793485Y-120719600D01*
X134793485Y-120719600D02*
X134644676Y-120767219D01*
X134644676Y-120767219D02*
X134406580Y-120767219D01*
X135793485Y-120719600D02*
X135692295Y-120767219D01*
X135692295Y-120767219D02*
X135501818Y-120767219D01*
X135501818Y-120767219D02*
X135412533Y-120719600D01*
X135412533Y-120719600D02*
X135376818Y-120624361D01*
X135376818Y-120624361D02*
X135424438Y-120243409D01*
X135424438Y-120243409D02*
X135483961Y-120148171D01*
X135483961Y-120148171D02*
X135585152Y-120100552D01*
X135585152Y-120100552D02*
X135775628Y-120100552D01*
X135775628Y-120100552D02*
X135864914Y-120148171D01*
X135864914Y-120148171D02*
X135900628Y-120243409D01*
X135900628Y-120243409D02*
X135888723Y-120338647D01*
X135888723Y-120338647D02*
X135400628Y-120433885D01*
X136698247Y-120719600D02*
X136597057Y-120767219D01*
X136597057Y-120767219D02*
X136406581Y-120767219D01*
X136406581Y-120767219D02*
X136317295Y-120719600D01*
X136317295Y-120719600D02*
X136275628Y-120671980D01*
X136275628Y-120671980D02*
X136239914Y-120576742D01*
X136239914Y-120576742D02*
X136275628Y-120291028D01*
X136275628Y-120291028D02*
X136335152Y-120195790D01*
X136335152Y-120195790D02*
X136388723Y-120148171D01*
X136388723Y-120148171D02*
X136489914Y-120100552D01*
X136489914Y-120100552D02*
X136680390Y-120100552D01*
X136680390Y-120100552D02*
X136769676Y-120148171D01*
X137948248Y-119862457D02*
X138001819Y-119814838D01*
X138001819Y-119814838D02*
X138103009Y-119767219D01*
X138103009Y-119767219D02*
X138341105Y-119767219D01*
X138341105Y-119767219D02*
X138430390Y-119814838D01*
X138430390Y-119814838D02*
X138472057Y-119862457D01*
X138472057Y-119862457D02*
X138507771Y-119957695D01*
X138507771Y-119957695D02*
X138495867Y-120052933D01*
X138495867Y-120052933D02*
X138430390Y-120195790D01*
X138430390Y-120195790D02*
X137787533Y-120767219D01*
X137787533Y-120767219D02*
X138406581Y-120767219D01*
X139150629Y-119767219D02*
X139245867Y-119767219D01*
X139245867Y-119767219D02*
X139335152Y-119814838D01*
X139335152Y-119814838D02*
X139376819Y-119862457D01*
X139376819Y-119862457D02*
X139412533Y-119957695D01*
X139412533Y-119957695D02*
X139436343Y-120148171D01*
X139436343Y-120148171D02*
X139406581Y-120386266D01*
X139406581Y-120386266D02*
X139335152Y-120576742D01*
X139335152Y-120576742D02*
X139275629Y-120671980D01*
X139275629Y-120671980D02*
X139222057Y-120719600D01*
X139222057Y-120719600D02*
X139120867Y-120767219D01*
X139120867Y-120767219D02*
X139025629Y-120767219D01*
X139025629Y-120767219D02*
X138936343Y-120719600D01*
X138936343Y-120719600D02*
X138894676Y-120671980D01*
X138894676Y-120671980D02*
X138858962Y-120576742D01*
X138858962Y-120576742D02*
X138835152Y-120386266D01*
X138835152Y-120386266D02*
X138864914Y-120148171D01*
X138864914Y-120148171D02*
X138936343Y-119957695D01*
X138936343Y-119957695D02*
X138995867Y-119862457D01*
X138995867Y-119862457D02*
X139049438Y-119814838D01*
X139049438Y-119814838D02*
X139150629Y-119767219D01*
X139853010Y-119862457D02*
X139906581Y-119814838D01*
X139906581Y-119814838D02*
X140007771Y-119767219D01*
X140007771Y-119767219D02*
X140245867Y-119767219D01*
X140245867Y-119767219D02*
X140335152Y-119814838D01*
X140335152Y-119814838D02*
X140376819Y-119862457D01*
X140376819Y-119862457D02*
X140412533Y-119957695D01*
X140412533Y-119957695D02*
X140400629Y-120052933D01*
X140400629Y-120052933D02*
X140335152Y-120195790D01*
X140335152Y-120195790D02*
X139692295Y-120767219D01*
X139692295Y-120767219D02*
X140311343Y-120767219D01*
X141341105Y-119767219D02*
X140864914Y-119767219D01*
X140864914Y-119767219D02*
X140757772Y-120243409D01*
X140757772Y-120243409D02*
X140811343Y-120195790D01*
X140811343Y-120195790D02*
X140912533Y-120148171D01*
X140912533Y-120148171D02*
X141150629Y-120148171D01*
X141150629Y-120148171D02*
X141239914Y-120195790D01*
X141239914Y-120195790D02*
X141281581Y-120243409D01*
X141281581Y-120243409D02*
X141317295Y-120338647D01*
X141317295Y-120338647D02*
X141287533Y-120576742D01*
X141287533Y-120576742D02*
X141228010Y-120671980D01*
X141228010Y-120671980D02*
X141174438Y-120719600D01*
X141174438Y-120719600D02*
X141073248Y-120767219D01*
X141073248Y-120767219D02*
X140835152Y-120767219D01*
X140835152Y-120767219D02*
X140745867Y-120719600D01*
X140745867Y-120719600D02*
X140704200Y-120671980D01*
D13*
G36*
X98962002Y-115220000D02*
G01*
X97215910Y-115220000D01*
X97215910Y-115026071D01*
X97428890Y-115009706D01*
X97625750Y-114976978D01*
X97705890Y-114933196D01*
X97756908Y-114880013D01*
X97786602Y-114810856D01*
X97797941Y-114709043D01*
X97797941Y-111900739D01*
X97789836Y-111809778D01*
X97767899Y-111740760D01*
X97722294Y-111685520D01*
X97625750Y-111632805D01*
X97419364Y-111571500D01*
X97215910Y-111537306D01*
X97215910Y-111343377D01*
X98962002Y-111343377D01*
X98962002Y-111537306D01*
X98759769Y-111557822D01*
X98554849Y-111602763D01*
X98465484Y-111647954D01*
X98415387Y-111709497D01*
X98389037Y-111786376D01*
X98379972Y-111873384D01*
X98379972Y-114679002D01*
X98390163Y-114765383D01*
X98419539Y-114838981D01*
X98470872Y-114899561D01*
X98554849Y-114949623D01*
X98741939Y-114997494D01*
X98962002Y-115026071D01*
X98962002Y-115220000D01*
G37*
G36*
X103426762Y-111537306D02*
G01*
X103191800Y-111581025D01*
X103045729Y-111626407D01*
X102965143Y-111665533D01*
X102887274Y-111756456D01*
X102832519Y-111927362D01*
X102807814Y-112133674D01*
X102798325Y-112418046D01*
X102798325Y-115251263D01*
X102560676Y-115251263D01*
X100210816Y-112082700D01*
X100210816Y-114085003D01*
X100223057Y-114402096D01*
X100253070Y-114602065D01*
X100310865Y-114764464D01*
X100383007Y-114859253D01*
X100465118Y-114911011D01*
X100642393Y-114971360D01*
X100902023Y-115026071D01*
X100902023Y-115220000D01*
X99311758Y-115220000D01*
X99311758Y-115026071D01*
X99560397Y-114972826D01*
X99717608Y-114921230D01*
X99778995Y-114886852D01*
X99857330Y-114794157D01*
X99910153Y-114653112D01*
X99934902Y-114468274D01*
X99945812Y-114116266D01*
X99945812Y-112206531D01*
X99935034Y-112081861D01*
X99902093Y-111955450D01*
X99848684Y-111840555D01*
X99784368Y-111761277D01*
X99673887Y-111680645D01*
X99518143Y-111606915D01*
X99356425Y-111554957D01*
X99246301Y-111537306D01*
X99246301Y-111343377D01*
X100352721Y-111343377D01*
X102533321Y-114294075D01*
X102533321Y-112453461D01*
X102520655Y-112134997D01*
X102489602Y-111934200D01*
X102431091Y-111773406D01*
X102363817Y-111692644D01*
X102273789Y-111645941D01*
X102113712Y-111591772D01*
X101850174Y-111537306D01*
X101850174Y-111343377D01*
X103426762Y-111343377D01*
X103426762Y-111537306D01*
G37*
G36*
X105336252Y-113947494D02*
G01*
X103707641Y-113947494D01*
X103707641Y-113516161D01*
X105336252Y-113516161D01*
X105336252Y-113947494D01*
G37*
G36*
X107780635Y-115220000D02*
G01*
X105938799Y-115220000D01*
X105938799Y-115026071D01*
X106194277Y-115002623D01*
X106433391Y-114965498D01*
X106509450Y-114928476D01*
X106563084Y-114876106D01*
X106595485Y-114804433D01*
X106608269Y-114689993D01*
X106608269Y-112756566D01*
X105928053Y-112756566D01*
X105928053Y-112531374D01*
X106078262Y-112531374D01*
X106362341Y-112503158D01*
X106606803Y-112422198D01*
X106817703Y-112301593D01*
X106941660Y-112187480D01*
X107168562Y-112187480D01*
X107151953Y-112604891D01*
X107143893Y-113033049D01*
X107143893Y-114660928D01*
X107154725Y-114752927D01*
X107186147Y-114832630D01*
X107237789Y-114898134D01*
X107307780Y-114943761D01*
X107540055Y-114998715D01*
X107780635Y-115026071D01*
X107780635Y-115220000D01*
G37*
G36*
X110834159Y-115220000D02*
G01*
X108274005Y-115220000D01*
X108274005Y-114845331D01*
X108478925Y-114654822D01*
X108790334Y-114425722D01*
X109052651Y-114264033D01*
X109399720Y-114071814D01*
X109731646Y-113869092D01*
X109841468Y-113772183D01*
X109943405Y-113652205D01*
X109998702Y-113559694D01*
X110044521Y-113439713D01*
X110071791Y-113298566D01*
X110082868Y-113076280D01*
X110059665Y-112855446D01*
X109997030Y-112692516D01*
X109899685Y-112573140D01*
X109769543Y-112485664D01*
X109615069Y-112431699D01*
X109429762Y-112412672D01*
X109256421Y-112430064D01*
X109093684Y-112481793D01*
X108952437Y-112566253D01*
X108856036Y-112673035D01*
X108903663Y-112879176D01*
X108932484Y-113112428D01*
X108911670Y-113208171D01*
X108846266Y-113295610D01*
X108745569Y-113353522D01*
X108590788Y-113375478D01*
X108468070Y-113351182D01*
X108380495Y-113281688D01*
X108326532Y-113176430D01*
X108306734Y-113030118D01*
X108326473Y-112885624D01*
X108388555Y-112735317D01*
X108486136Y-112595490D01*
X108623761Y-112462009D01*
X108787326Y-112353613D01*
X108995254Y-112263684D01*
X109222724Y-112206969D01*
X109473482Y-112187480D01*
X109755444Y-112205292D01*
X109993163Y-112255266D01*
X110193663Y-112333611D01*
X110362770Y-112438562D01*
X110508282Y-112576134D01*
X110609605Y-112730968D01*
X110670995Y-112906591D01*
X110692254Y-113108764D01*
X110677038Y-113303201D01*
X110633391Y-113473663D01*
X110557129Y-113627760D01*
X110443614Y-113764312D01*
X110288141Y-113892925D01*
X110104605Y-114004159D01*
X109511828Y-114282595D01*
X109069016Y-114506078D01*
X108875459Y-114625653D01*
X108732937Y-114732247D01*
X110834159Y-114732247D01*
X110834159Y-115220000D01*
G37*
G36*
X116694033Y-111537306D02*
G01*
X116459071Y-111581025D01*
X116313000Y-111626407D01*
X116232414Y-111665533D01*
X116154545Y-111756456D01*
X116099790Y-111927362D01*
X116075086Y-112133674D01*
X116065596Y-112418046D01*
X116065596Y-115251263D01*
X115827948Y-115251263D01*
X113478087Y-112082700D01*
X113478087Y-114085003D01*
X113490329Y-114402096D01*
X113520341Y-114602065D01*
X113578136Y-114764464D01*
X113650279Y-114859253D01*
X113732390Y-114911011D01*
X113909665Y-114971360D01*
X114169295Y-115026071D01*
X114169295Y-115220000D01*
X112579030Y-115220000D01*
X112579030Y-115026071D01*
X112827669Y-114972826D01*
X112984879Y-114921230D01*
X113046266Y-114886852D01*
X113124602Y-114794157D01*
X113177424Y-114653112D01*
X113202174Y-114468274D01*
X113213084Y-114116266D01*
X113213084Y-112206531D01*
X113202305Y-112081861D01*
X113169364Y-111955450D01*
X113115956Y-111840555D01*
X113051639Y-111761277D01*
X112941158Y-111680645D01*
X112785415Y-111606915D01*
X112623696Y-111554957D01*
X112513572Y-111537306D01*
X112513572Y-111343377D01*
X113619993Y-111343377D01*
X115800593Y-114294075D01*
X115800593Y-112453461D01*
X115787927Y-112134997D01*
X115756873Y-111934200D01*
X115698362Y-111773406D01*
X115631088Y-111692644D01*
X115541060Y-111645941D01*
X115380983Y-111591772D01*
X115117445Y-111537306D01*
X115117445Y-111343377D01*
X116694033Y-111343377D01*
X116694033Y-111537306D01*
G37*
G36*
X118248150Y-115220000D02*
G01*
X116944870Y-115220000D01*
X116944870Y-115038771D01*
X117074563Y-115028025D01*
X117190823Y-115006287D01*
X117258237Y-114971868D01*
X117304152Y-114920558D01*
X117331046Y-114853553D01*
X117341032Y-114761800D01*
X117341032Y-113107787D01*
X117330997Y-113024049D01*
X117301465Y-112949030D01*
X117254346Y-112883134D01*
X117190823Y-112828129D01*
X117040369Y-112772442D01*
X116860118Y-112743866D01*
X116860118Y-112562637D01*
X117810956Y-112500111D01*
X117849302Y-112538213D01*
X117849302Y-114728339D01*
X117859168Y-114818185D01*
X117886182Y-114886364D01*
X117932496Y-114939860D01*
X118002198Y-114978932D01*
X118119678Y-115018499D01*
X118248150Y-115038771D01*
X118248150Y-115220000D01*
G37*
G36*
X117904012Y-111441563D02*
G01*
X117878349Y-111586872D01*
X117801430Y-111712428D01*
X117686642Y-111799265D01*
X117548639Y-111827955D01*
X117419809Y-111800973D01*
X117306838Y-111717801D01*
X117229696Y-111598809D01*
X117204501Y-111465987D01*
X117230000Y-111326192D01*
X117306838Y-111204891D01*
X117419923Y-111120561D01*
X117548639Y-111093272D01*
X117691661Y-111119979D01*
X117804117Y-111198053D01*
X117879311Y-111311987D01*
X117904012Y-111441563D01*
G37*
G36*
X121172714Y-115220000D02*
G01*
X119937578Y-115220000D01*
X119937578Y-115028025D01*
X120146406Y-115001158D01*
X120213855Y-114974525D01*
X120232623Y-114931060D01*
X120205268Y-114855833D01*
X120150802Y-114761311D01*
X119963468Y-114479944D01*
X119672575Y-114058381D01*
X119410013Y-114399099D01*
X119158688Y-114750565D01*
X119119120Y-114817976D01*
X119098604Y-114882456D01*
X119116022Y-114934049D01*
X119176517Y-114980886D01*
X119264976Y-115011482D01*
X119410258Y-115033398D01*
X119410258Y-115220000D01*
X118412770Y-115220000D01*
X118412770Y-115038771D01*
X118587318Y-114976110D01*
X118711967Y-114908101D01*
X118820038Y-114822961D01*
X118921039Y-114717836D01*
X119157466Y-114421081D01*
X119549476Y-113908415D01*
X119209246Y-113422372D01*
X118877320Y-112944145D01*
X118799943Y-112849272D01*
X118714654Y-112776594D01*
X118611220Y-112730339D01*
X118456489Y-112712602D01*
X118456489Y-112531374D01*
X119628855Y-112531374D01*
X119628855Y-112712602D01*
X119456664Y-112723593D01*
X119388133Y-112744339D01*
X119371912Y-112772442D01*
X119388276Y-112827152D01*
X119429309Y-112892365D01*
X119616399Y-113178374D01*
X119891172Y-113586748D01*
X120113677Y-113281933D01*
X120347418Y-112949518D01*
X120369155Y-112901891D01*
X120380146Y-112846203D01*
X120360266Y-112798434D01*
X120285868Y-112754856D01*
X120107083Y-112707229D01*
X120107083Y-112532351D01*
X121101639Y-112532351D01*
X121101639Y-112701856D01*
X120904771Y-112765288D01*
X120773621Y-112831304D01*
X120664015Y-112912809D01*
X120574319Y-113004228D01*
X120359630Y-113279246D01*
X120011339Y-113736713D01*
X120415561Y-114304089D01*
X120729902Y-114760579D01*
X120815725Y-114869180D01*
X120906245Y-114948401D01*
X121015194Y-115000865D01*
X121172714Y-115028025D01*
X121172714Y-115220000D01*
G37*
G36*
X122710956Y-115220000D02*
G01*
X121407676Y-115220000D01*
X121407676Y-115038771D01*
X121537369Y-115028025D01*
X121653628Y-115006287D01*
X121721042Y-114971868D01*
X121766957Y-114920558D01*
X121793852Y-114853553D01*
X121803838Y-114761800D01*
X121803838Y-113107787D01*
X121793802Y-113024049D01*
X121764270Y-112949030D01*
X121717151Y-112883134D01*
X121653628Y-112828129D01*
X121503175Y-112772442D01*
X121322923Y-112743866D01*
X121322923Y-112562637D01*
X122273761Y-112500111D01*
X122312107Y-112538213D01*
X122312107Y-114728339D01*
X122321973Y-114818185D01*
X122348988Y-114886364D01*
X122395301Y-114939860D01*
X122465003Y-114978932D01*
X122582484Y-115018499D01*
X122710956Y-115038771D01*
X122710956Y-115220000D01*
G37*
G36*
X122366817Y-111441563D02*
G01*
X122341154Y-111586872D01*
X122264235Y-111712428D01*
X122149448Y-111799265D01*
X122011444Y-111827955D01*
X121882614Y-111800973D01*
X121769644Y-111717801D01*
X121692501Y-111598809D01*
X121667306Y-111465987D01*
X121692805Y-111326192D01*
X121769644Y-111204891D01*
X121882729Y-111120561D01*
X122011444Y-111093272D01*
X122154466Y-111119979D01*
X122266922Y-111198053D01*
X122342116Y-111311987D01*
X122366817Y-111441563D01*
G37*
G36*
X124553787Y-112478050D02*
G01*
X124777250Y-112546517D01*
X124970045Y-112658552D01*
X125118946Y-112801751D01*
X125227570Y-112967108D01*
X125306036Y-113163963D01*
X125351749Y-113378002D01*
X125367585Y-113616545D01*
X125367585Y-113797529D01*
X123583391Y-113797529D01*
X123596617Y-114056015D01*
X123633949Y-114278932D01*
X123700334Y-114484862D01*
X123793684Y-114659218D01*
X123916410Y-114800904D01*
X124072365Y-114909567D01*
X124255858Y-114977099D01*
X124482449Y-115001158D01*
X124641002Y-114987618D01*
X124779483Y-114948739D01*
X124901570Y-114885631D01*
X125008208Y-114797756D01*
X125121375Y-114663290D01*
X125242044Y-114469685D01*
X125433286Y-114587166D01*
X125305748Y-114791612D01*
X125154878Y-114963219D01*
X124979483Y-115105205D01*
X124782489Y-115211661D01*
X124566506Y-115276065D01*
X124326622Y-115298157D01*
X124112337Y-115284555D01*
X123923639Y-115245646D01*
X123756803Y-115183363D01*
X123532163Y-115046592D01*
X123353803Y-114871465D01*
X123216589Y-114660227D01*
X123117376Y-114411800D01*
X123059438Y-114143962D01*
X123039706Y-113856636D01*
X123060460Y-113596693D01*
X123067128Y-113569406D01*
X123583391Y-113569406D01*
X124829274Y-113569406D01*
X124803384Y-113239678D01*
X124767945Y-113072207D01*
X124720097Y-112945366D01*
X124645229Y-112830236D01*
X124547906Y-112739469D01*
X124427315Y-112680824D01*
X124266538Y-112659602D01*
X124086649Y-112686125D01*
X123929859Y-112764466D01*
X123789532Y-112900181D01*
X123687147Y-113070372D01*
X123616729Y-113289285D01*
X123583391Y-113569406D01*
X123067128Y-113569406D01*
X123122993Y-113340795D01*
X123226196Y-113099646D01*
X123367480Y-112885526D01*
X123541082Y-112710764D01*
X123754117Y-112572163D01*
X123911841Y-112506844D01*
X124083521Y-112466927D01*
X124271912Y-112453217D01*
X124553787Y-112478050D01*
G37*
G36*
X128871004Y-115313789D02*
G01*
X128642432Y-115298514D01*
X128421232Y-115252970D01*
X128205443Y-115176769D01*
X128001904Y-115072373D01*
X127814309Y-114941308D01*
X127641242Y-114782072D01*
X127492662Y-114601208D01*
X127363307Y-114392624D01*
X127253384Y-114153147D01*
X127174519Y-113901744D01*
X127125532Y-113623932D01*
X127108548Y-113315882D01*
X127125088Y-113007895D01*
X127173001Y-112727237D01*
X127250453Y-112470558D01*
X127359183Y-112225720D01*
X127490329Y-112008766D01*
X127643928Y-111816964D01*
X127819856Y-111649639D01*
X128015035Y-111510265D01*
X128231332Y-111397599D01*
X128461279Y-111315702D01*
X128701873Y-111266300D01*
X128955512Y-111249588D01*
X129234276Y-111268112D01*
X129474773Y-111320662D01*
X129701171Y-111405914D01*
X129917341Y-111520209D01*
X130029448Y-111343377D01*
X130248046Y-111343377D01*
X130272714Y-112718953D01*
X130048499Y-112718953D01*
X129995553Y-112515431D01*
X129917341Y-112283712D01*
X129819453Y-112061523D01*
X129712421Y-111886573D01*
X129567403Y-111720730D01*
X129401011Y-111597878D01*
X129210533Y-111520186D01*
X128988485Y-111493342D01*
X128731517Y-111522951D01*
X128495115Y-111610823D01*
X128351875Y-111700109D01*
X128220610Y-111814929D01*
X128100418Y-111957892D01*
X127963154Y-112199826D01*
X127851535Y-112520872D01*
X127784956Y-112873863D01*
X127761409Y-113283398D01*
X127785789Y-113645556D01*
X127855687Y-113965324D01*
X127971793Y-114260096D01*
X128124842Y-114510474D01*
X128317398Y-114718888D01*
X128538834Y-114873907D01*
X128702631Y-114946151D01*
X128879710Y-114990046D01*
X129072993Y-115005066D01*
X129288312Y-114987124D01*
X129480146Y-114935212D01*
X129655806Y-114852814D01*
X129802791Y-114750076D01*
X129930905Y-114621506D01*
X130043126Y-114476036D01*
X130137019Y-114316327D01*
X130212630Y-114141423D01*
X130417550Y-114239853D01*
X130281585Y-114524281D01*
X130131989Y-114751541D01*
X129969752Y-114929913D01*
X129794487Y-115065882D01*
X129525844Y-115201151D01*
X129220680Y-115284670D01*
X128871004Y-115313789D01*
G37*
G36*
X131949685Y-115220000D02*
G01*
X130635415Y-115220000D01*
X130635415Y-115038771D01*
X130769260Y-115026559D01*
X130886741Y-115006043D01*
X130954430Y-114971638D01*
X131001535Y-114920069D01*
X131029523Y-114852443D01*
X131039881Y-114760090D01*
X131039881Y-111640132D01*
X131029189Y-111544524D01*
X130997383Y-111455729D01*
X130947718Y-111377846D01*
X130886741Y-111320418D01*
X130826481Y-111292242D01*
X130706489Y-111260334D01*
X130495952Y-111227606D01*
X130495952Y-111046378D01*
X131509804Y-110983852D01*
X131548150Y-111024884D01*
X131548150Y-114726873D01*
X131557700Y-114817086D01*
X131583565Y-114884166D01*
X131628579Y-114937415D01*
X131698360Y-114978688D01*
X131817062Y-115019720D01*
X131949685Y-115038771D01*
X131949685Y-115220000D01*
G37*
G36*
X133891099Y-112478096D02*
G01*
X134134896Y-112549951D01*
X134352359Y-112667532D01*
X134547941Y-112833503D01*
X134705282Y-113033722D01*
X134819324Y-113264872D01*
X134890491Y-113532889D01*
X134915526Y-113845645D01*
X134893024Y-114126211D01*
X134825157Y-114403007D01*
X134713860Y-114659755D01*
X134568457Y-114867557D01*
X134434362Y-115002018D01*
X134289033Y-115109475D01*
X134131263Y-115191912D01*
X133872171Y-115270717D01*
X133573900Y-115298157D01*
X133322502Y-115273854D01*
X133084682Y-115201437D01*
X132866096Y-115083019D01*
X132672156Y-114919337D01*
X132514527Y-114719661D01*
X132389323Y-114473838D01*
X132311317Y-114200040D01*
X132284054Y-113883747D01*
X132287721Y-113837585D01*
X132849720Y-113837585D01*
X132860682Y-114093848D01*
X132891974Y-114321430D01*
X132948189Y-114535107D01*
X133027285Y-114718325D01*
X133134236Y-114876350D01*
X133261025Y-114992365D01*
X133414324Y-115065729D01*
X133609316Y-115091772D01*
X133770159Y-115071445D01*
X133910933Y-115011983D01*
X134036843Y-114911294D01*
X134150314Y-114761800D01*
X134254980Y-114532769D01*
X134324257Y-114235022D01*
X134349860Y-113851263D01*
X134339919Y-113644210D01*
X134308827Y-113418953D01*
X134255496Y-113202116D01*
X134185973Y-113033049D01*
X134083673Y-112879370D01*
X133956385Y-112761939D01*
X133801982Y-112686212D01*
X133609316Y-112659602D01*
X133411012Y-112686464D01*
X133250034Y-112763161D01*
X133116737Y-112883907D01*
X133008234Y-113046727D01*
X132934799Y-113221411D01*
X132885136Y-113425792D01*
X132858399Y-113637153D01*
X132849720Y-113837585D01*
X132287721Y-113837585D01*
X132308750Y-113572836D01*
X132379448Y-113301859D01*
X132493505Y-113063920D01*
X132651639Y-112853775D01*
X132848229Y-112679555D01*
X133070485Y-112555748D01*
X133323529Y-112479700D01*
X133614689Y-112453217D01*
X133891099Y-112478096D01*
G37*
G36*
X136552442Y-115298157D02*
G01*
X136265889Y-115271969D01*
X136023009Y-115197544D01*
X135815331Y-115077550D01*
X135637020Y-114909811D01*
X135497427Y-114707999D01*
X135394569Y-114471588D01*
X135329586Y-114194091D01*
X135306559Y-113867383D01*
X135329145Y-113589728D01*
X135395219Y-113335422D01*
X135504178Y-113099177D01*
X135653384Y-112885526D01*
X135833379Y-112711313D01*
X136057850Y-112572163D01*
X136223575Y-112506477D01*
X136399496Y-112466730D01*
X136587857Y-112453217D01*
X136846064Y-112476090D01*
X137058027Y-112540138D01*
X137232903Y-112641772D01*
X137371101Y-112782793D01*
X137453047Y-112951171D01*
X137481542Y-113155903D01*
X137464725Y-113285309D01*
X137415840Y-113396238D01*
X137364404Y-113452945D01*
X137294539Y-113487844D01*
X137199930Y-113500530D01*
X137052048Y-113478678D01*
X136949825Y-113419441D01*
X136882283Y-113331421D01*
X136861165Y-113238213D01*
X136869175Y-113116189D01*
X136893893Y-112988108D01*
X136932240Y-112800286D01*
X136871490Y-112730475D01*
X136785938Y-112687934D01*
X136577110Y-112659602D01*
X136449050Y-112673636D01*
X136327006Y-112715778D01*
X136215170Y-112790797D01*
X136096196Y-112922407D01*
X136008377Y-113074961D01*
X135932065Y-113292191D01*
X135886224Y-113536840D01*
X135869295Y-113848087D01*
X135896802Y-114181142D01*
X135973617Y-114454460D01*
X136094731Y-114679490D01*
X136220014Y-114823688D01*
X136358139Y-114922255D01*
X136511885Y-114981021D01*
X136686287Y-115001158D01*
X136858845Y-114985820D01*
X137005188Y-114942266D01*
X137130321Y-114872198D01*
X137296197Y-114718650D01*
X137462247Y-114485317D01*
X137637124Y-114600111D01*
X137502641Y-114801715D01*
X137344685Y-114970715D01*
X137161828Y-115110090D01*
X136958816Y-115216297D01*
X136756811Y-115277877D01*
X136552442Y-115298157D01*
G37*
G36*
X140701884Y-115219023D02*
G01*
X139887822Y-115219023D01*
X139431332Y-114559567D01*
X138925994Y-113875687D01*
X138701779Y-114085736D01*
X138701779Y-114722965D01*
X138711311Y-114815453D01*
X138737194Y-114884898D01*
X138782705Y-114939515D01*
X138852233Y-114978932D01*
X138977773Y-115019720D01*
X139117236Y-115038771D01*
X139117236Y-115220000D01*
X137794661Y-115220000D01*
X137794661Y-115038771D01*
X137925819Y-115026559D01*
X138040614Y-115006043D01*
X138108254Y-114971628D01*
X138155163Y-114920069D01*
X138183151Y-114852443D01*
X138193510Y-114760090D01*
X138193510Y-111629141D01*
X138182871Y-111530802D01*
X138151256Y-111439364D01*
X138101250Y-111359603D01*
X138040614Y-111304054D01*
X137973377Y-111269902D01*
X137861584Y-111246657D01*
X137666189Y-111227606D01*
X137666189Y-111046378D01*
X138663677Y-110983852D01*
X138701779Y-111024884D01*
X138701779Y-113883747D01*
X139162177Y-113431898D01*
X139578855Y-113001297D01*
X139626727Y-112938039D01*
X139652616Y-112874535D01*
X139627408Y-112815493D01*
X139533670Y-112766580D01*
X139305792Y-112717976D01*
X139305792Y-112531374D01*
X140491591Y-112531374D01*
X140491591Y-112712602D01*
X140271085Y-112789952D01*
X140085659Y-112880642D01*
X139921806Y-112982270D01*
X139816748Y-113062114D01*
X139630879Y-113236992D01*
X139294801Y-113554019D01*
X139798918Y-114213475D01*
X140207536Y-114769127D01*
X140330461Y-114910465D01*
X140423203Y-114978932D01*
X140530970Y-115016146D01*
X140701884Y-115038771D01*
X140701884Y-115219023D01*
G37*
D14*
%TO.C,REF\u002A\u002A*%
X59500000Y-110660000D02*
X63500000Y-103740000D01*
D12*
X59990000Y-110640000D02*
X59723678Y-110230736D01*
X63050000Y-107415000D02*
X63260000Y-107640000D01*
X63160000Y-109295000D02*
X63670000Y-109385000D01*
X63350000Y-104160000D02*
X63660000Y-104160000D01*
X63367101Y-107679099D02*
X63612899Y-107880901D01*
D14*
X63500000Y-103740000D02*
X67500000Y-110660000D01*
D12*
X67010000Y-110640000D02*
X67276322Y-110230736D01*
D15*
X67500000Y-110660000D02*
X59500000Y-110660000D01*
D10*
X63000000Y-107700000D02*
X64164167Y-107074260D01*
X63509323Y-109460802D01*
X63844021Y-109257073D01*
X63247385Y-110144750D01*
X63029104Y-109097000D01*
X63261938Y-109417146D01*
X63538427Y-107685448D01*
X62417917Y-108282083D01*
X63145521Y-105706364D01*
X63858573Y-105706364D01*
X63000000Y-107700000D01*
G36*
X63000000Y-107700000D02*
G01*
X64164167Y-107074260D01*
X63509323Y-109460802D01*
X63844021Y-109257073D01*
X63247385Y-110144750D01*
X63029104Y-109097000D01*
X63261938Y-109417146D01*
X63538427Y-107685448D01*
X62417917Y-108282083D01*
X63145521Y-105706364D01*
X63858573Y-105706364D01*
X63000000Y-107700000D01*
G37*
D14*
X145100000Y-110560000D02*
X149100000Y-103640000D01*
D12*
X145590000Y-110540000D02*
X145323678Y-110130736D01*
X148650000Y-107315000D02*
X148860000Y-107540000D01*
X148760000Y-109195000D02*
X149270000Y-109285000D01*
X148950000Y-104060000D02*
X149260000Y-104060000D01*
X148967101Y-107579099D02*
X149212899Y-107780901D01*
D14*
X149100000Y-103640000D02*
X153100000Y-110560000D01*
D12*
X152610000Y-110540000D02*
X152876322Y-110130736D01*
D15*
X153100000Y-110560000D02*
X145100000Y-110560000D01*
D10*
X148600000Y-107600000D02*
X149764167Y-106974260D01*
X149109323Y-109360802D01*
X149444021Y-109157073D01*
X148847385Y-110044750D01*
X148629104Y-108997000D01*
X148861938Y-109317146D01*
X149138427Y-107585448D01*
X148017917Y-108182083D01*
X148745521Y-105606364D01*
X149458573Y-105606364D01*
X148600000Y-107600000D01*
G36*
X148600000Y-107600000D02*
G01*
X149764167Y-106974260D01*
X149109323Y-109360802D01*
X149444021Y-109157073D01*
X148847385Y-110044750D01*
X148629104Y-108997000D01*
X148861938Y-109317146D01*
X149138427Y-107585448D01*
X148017917Y-108182083D01*
X148745521Y-105606364D01*
X149458573Y-105606364D01*
X148600000Y-107600000D01*
G37*
D16*
X63024900Y-120981400D02*
X65650100Y-120968600D01*
X63025100Y-118318600D02*
X63024900Y-120981400D01*
X63025100Y-118318600D02*
X65650300Y-118305800D01*
X63825000Y-118075000D02*
X63825200Y-117862200D01*
X63825100Y-120518600D02*
X63024900Y-120981400D01*
X63825100Y-120518600D02*
X63825100Y-118568600D01*
X63825100Y-120518600D02*
X65400100Y-120518600D01*
X63825300Y-117855800D02*
X63025100Y-118318600D01*
X63825300Y-117855800D02*
X66450500Y-117843000D01*
X64482550Y-120113725D02*
X64467650Y-118673475D01*
X64967650Y-120123475D02*
X64475100Y-119393600D01*
X65017650Y-118698475D02*
X64475100Y-119393600D01*
X65650300Y-118305800D02*
X65650100Y-120968600D01*
X65950100Y-120518600D02*
X66450300Y-120505800D01*
X66450300Y-120505800D02*
X65650100Y-120968600D01*
X66450500Y-117843000D02*
X65650300Y-118305800D01*
X66450500Y-117843000D02*
X66450300Y-120505800D01*
D14*
X231200000Y-110460000D02*
X235200000Y-103540000D01*
D12*
X231690000Y-110440000D02*
X231423678Y-110030736D01*
X234750000Y-107215000D02*
X234960000Y-107440000D01*
X234860000Y-109095000D02*
X235370000Y-109185000D01*
X235050000Y-103960000D02*
X235360000Y-103960000D01*
X235067101Y-107479099D02*
X235312899Y-107680901D01*
D14*
X235200000Y-103540000D02*
X239200000Y-110460000D01*
D12*
X238710000Y-110440000D02*
X238976322Y-110030736D01*
D15*
X239200000Y-110460000D02*
X231200000Y-110460000D01*
D10*
X234700000Y-107500000D02*
X235864167Y-106874260D01*
X235209323Y-109260802D01*
X235544021Y-109057073D01*
X234947385Y-109944750D01*
X234729104Y-108897000D01*
X234961938Y-109217146D01*
X235238427Y-107485448D01*
X234117917Y-108082083D01*
X234845521Y-105506364D01*
X235558573Y-105506364D01*
X234700000Y-107500000D01*
G36*
X234700000Y-107500000D02*
G01*
X235864167Y-106874260D01*
X235209323Y-109260802D01*
X235544021Y-109057073D01*
X234947385Y-109944750D01*
X234729104Y-108897000D01*
X234961938Y-109217146D01*
X235238427Y-107485448D01*
X234117917Y-108082083D01*
X234845521Y-105506364D01*
X235558573Y-105506364D01*
X234700000Y-107500000D01*
G37*
%TD*%
D17*
%TO.C,U7*%
X90691005Y-96430964D03*
X91589031Y-97328990D03*
X92487056Y-98227016D03*
X93385082Y-99125041D03*
X94283108Y-100023067D03*
X95181133Y-100921092D03*
X96079159Y-101819118D03*
X96977184Y-102717144D03*
X97875210Y-103615169D03*
X98773236Y-104513195D03*
X105455395Y-97831036D03*
X104557369Y-96933010D03*
X103659344Y-96034984D03*
X102761318Y-95136959D03*
X101863292Y-94238933D03*
X100965267Y-93340908D03*
X100067241Y-92442882D03*
X99169216Y-91544856D03*
X98271190Y-90646831D03*
X97373164Y-89748805D03*
%TD*%
D18*
%TO.C,T7*%
X118500000Y-60500000D03*
X118500000Y-65500000D03*
%TD*%
D19*
%TO.C,T9*%
X99750000Y-69500000D03*
D20*
X103750000Y-77500000D03*
X105500000Y-74000000D03*
X105500000Y-69500000D03*
X105500000Y-65000000D03*
X103750000Y-61500000D03*
X99838900Y-60300000D03*
X95750000Y-61500000D03*
X94000000Y-65000000D03*
X94000000Y-69500000D03*
X94000000Y-74000000D03*
X95750000Y-77500000D03*
X99750000Y-78500000D03*
D21*
X106862000Y-79685400D03*
%TD*%
D18*
%TO.C,T4*%
X180000000Y-75500000D03*
X180000000Y-80500000D03*
%TD*%
D22*
%TO.C,H4*%
X244100000Y-52500000D03*
%TD*%
D19*
%TO.C,T10*%
X74888000Y-69314600D03*
D20*
X78888000Y-77314600D03*
X80638000Y-73814600D03*
X80638000Y-69314600D03*
X80638000Y-64814600D03*
X78888000Y-61314600D03*
X74976900Y-60114600D03*
X70888000Y-61314600D03*
X69138000Y-64814600D03*
X69138000Y-69314600D03*
X69138000Y-73814600D03*
X70888000Y-77314600D03*
X74888000Y-78314600D03*
D21*
X82000000Y-79500000D03*
%TD*%
D18*
%TO.C,T11*%
X57200000Y-60500000D03*
X57200000Y-65500000D03*
%TD*%
D22*
%TO.C,H1*%
X54000000Y-112500000D03*
%TD*%
D18*
%TO.C,T8*%
X118500000Y-75500000D03*
X118500000Y-80500000D03*
%TD*%
%TO.C,T12*%
X57300000Y-75000000D03*
X57300000Y-80000000D03*
%TD*%
D17*
%TO.C,U6*%
X111293005Y-95532864D03*
X112191031Y-96430890D03*
X113089056Y-97328916D03*
X113987082Y-98226941D03*
X114885108Y-99124967D03*
X115783133Y-100022992D03*
X116681159Y-100921018D03*
X117579184Y-101819044D03*
X118477210Y-102717069D03*
X119375236Y-103615095D03*
X126057395Y-96932936D03*
X125159369Y-96034910D03*
X124261344Y-95136884D03*
X123363318Y-94238859D03*
X122465292Y-93340833D03*
X121567267Y-92442808D03*
X120669241Y-91544782D03*
X119771216Y-90646756D03*
X118873190Y-89748731D03*
X117975164Y-88850705D03*
%TD*%
%TO.C,U2*%
X195975105Y-96350764D03*
X196873131Y-97248790D03*
X197771156Y-98146816D03*
X198669182Y-99044841D03*
X199567208Y-99942867D03*
X200465233Y-100840892D03*
X201363259Y-101738918D03*
X202261284Y-102636944D03*
X203159310Y-103534969D03*
X204057336Y-104432995D03*
X210739495Y-97750836D03*
X209841469Y-96852810D03*
X208943444Y-95954784D03*
X208045418Y-95056759D03*
X207147392Y-94158733D03*
X206249367Y-93260708D03*
X205351341Y-92362682D03*
X204453316Y-91464656D03*
X203555290Y-90566631D03*
X202657264Y-89668605D03*
%TD*%
%TO.C,U5*%
X132975105Y-95850764D03*
X133873131Y-96748790D03*
X134771156Y-97646816D03*
X135669182Y-98544841D03*
X136567208Y-99442867D03*
X137465233Y-100340892D03*
X138363259Y-101238918D03*
X139261284Y-102136944D03*
X140159310Y-103034969D03*
X141057336Y-103932995D03*
X147739495Y-97250836D03*
X146841469Y-96352810D03*
X145943444Y-95454784D03*
X145045418Y-94556759D03*
X144147392Y-93658733D03*
X143249367Y-92760708D03*
X142351341Y-91862682D03*
X141453316Y-90964656D03*
X140555290Y-90066631D03*
X139657264Y-89168605D03*
%TD*%
%TO.C,U1*%
X215891755Y-95934113D03*
X216789781Y-96832139D03*
X217687806Y-97730165D03*
X218585832Y-98628190D03*
X219483858Y-99526216D03*
X220381883Y-100424241D03*
X221279909Y-101322267D03*
X222177934Y-102220293D03*
X223075960Y-103118318D03*
X223973986Y-104016344D03*
X230656145Y-97334185D03*
X229758119Y-96436159D03*
X228860094Y-95538133D03*
X227962068Y-94640108D03*
X227064042Y-93742082D03*
X226166017Y-92844057D03*
X225267991Y-91946031D03*
X224369966Y-91048005D03*
X223471940Y-90149980D03*
X222573914Y-89251954D03*
%TD*%
%TO.C,U4*%
X154191005Y-96032864D03*
X155089031Y-96930890D03*
X155987056Y-97828916D03*
X156885082Y-98726941D03*
X157783108Y-99624967D03*
X158681133Y-100522992D03*
X159579159Y-101421018D03*
X160477184Y-102319044D03*
X161375210Y-103217069D03*
X162273236Y-104115095D03*
X168955395Y-97432936D03*
X168057369Y-96534910D03*
X167159344Y-95636884D03*
X166261318Y-94738859D03*
X165363292Y-93840833D03*
X164465267Y-92942808D03*
X163567241Y-92044782D03*
X162669216Y-91146756D03*
X161771190Y-90248731D03*
X160873164Y-89350705D03*
%TD*%
D19*
%TO.C,T5*%
X161500000Y-69500000D03*
D20*
X165500000Y-77500000D03*
X167250000Y-74000000D03*
X167250000Y-69500000D03*
X167250000Y-65000000D03*
X165500000Y-61500000D03*
X161588900Y-60300000D03*
X157500000Y-61500000D03*
X155750000Y-65000000D03*
X155750000Y-69500000D03*
X155750000Y-74000000D03*
X157500000Y-77500000D03*
X161500000Y-78500000D03*
D21*
X168612000Y-79685400D03*
%TD*%
D19*
%TO.C,T1*%
X223000000Y-70000000D03*
D20*
X227000000Y-78000000D03*
X228750000Y-74500000D03*
X228750000Y-70000000D03*
X228750000Y-65500000D03*
X227000000Y-62000000D03*
X223088900Y-60800000D03*
X219000000Y-62000000D03*
X217250000Y-65500000D03*
X217250000Y-70000000D03*
X217250000Y-74500000D03*
X219000000Y-78000000D03*
X223000000Y-79000000D03*
D21*
X230112000Y-80185400D03*
%TD*%
D18*
%TO.C,T3*%
X180000000Y-60500000D03*
X180000000Y-65500000D03*
%TD*%
D22*
%TO.C,H2*%
X149000000Y-52500000D03*
%TD*%
D19*
%TO.C,T6*%
X136500000Y-69500000D03*
D20*
X140500000Y-77500000D03*
X142250000Y-74000000D03*
X142250000Y-69500000D03*
X142250000Y-65000000D03*
X140500000Y-61500000D03*
X136588900Y-60300000D03*
X132500000Y-61500000D03*
X130750000Y-65000000D03*
X130750000Y-69500000D03*
X130750000Y-74000000D03*
X132500000Y-77500000D03*
X136500000Y-78500000D03*
D21*
X143612000Y-79685400D03*
%TD*%
D19*
%TO.C,T2*%
X198000000Y-69700000D03*
D20*
X202000000Y-77700000D03*
X203750000Y-74200000D03*
X203750000Y-69700000D03*
X203750000Y-65200000D03*
X202000000Y-61700000D03*
X198088900Y-60500000D03*
X194000000Y-61700000D03*
X192250000Y-65200000D03*
X192250000Y-69700000D03*
X192250000Y-74200000D03*
X194000000Y-77700000D03*
X198000000Y-78700000D03*
D21*
X205112000Y-79885400D03*
%TD*%
D17*
%TO.C,U3*%
X175475105Y-96350764D03*
X176373131Y-97248790D03*
X177271156Y-98146816D03*
X178169182Y-99044841D03*
X179067208Y-99942867D03*
X179965233Y-100840892D03*
X180863259Y-101738918D03*
X181761284Y-102636944D03*
X182659310Y-103534969D03*
X183557336Y-104432995D03*
X190239495Y-97750836D03*
X189341469Y-96852810D03*
X188443444Y-95954784D03*
X187545418Y-95056759D03*
X186647392Y-94158733D03*
X185749367Y-93260708D03*
X184851341Y-92362682D03*
X183953316Y-91464656D03*
X183055290Y-90566631D03*
X182157264Y-89668605D03*
%TD*%
%TO.C,U8*%
X68793005Y-96532864D03*
X69691031Y-97430890D03*
X70589056Y-98328916D03*
X71487082Y-99226941D03*
X72385108Y-100124967D03*
X73283133Y-101022992D03*
X74181159Y-101921018D03*
X75079184Y-102819044D03*
X75977210Y-103717069D03*
X76875236Y-104615095D03*
X83557395Y-97932936D03*
X82659369Y-97034910D03*
X81761344Y-96136884D03*
X80863318Y-95238859D03*
X79965292Y-94340833D03*
X79067267Y-93442808D03*
X78169241Y-92544782D03*
X77271216Y-91646756D03*
X76373190Y-90748731D03*
X75475164Y-89850705D03*
%TD*%
D22*
%TO.C,H5*%
X54000000Y-52500000D03*
%TD*%
%TO.C,H3*%
X244000000Y-112600000D03*
%TD*%
D23*
%TO.C,P3*%
X85090000Y-113915000D03*
X92710000Y-113915000D03*
%TD*%
D24*
%TO.C,J2*%
X210500000Y-67460000D03*
D25*
X210500000Y-70000000D03*
X210500000Y-72540000D03*
%TD*%
D23*
%TO.C,P2*%
X145090000Y-114015000D03*
X152710000Y-114015000D03*
%TD*%
D24*
%TO.C,J1*%
X87475000Y-67475000D03*
D25*
X87475000Y-70015000D03*
X87475000Y-72555000D03*
%TD*%
D23*
%TO.C,P1*%
X205190000Y-114015000D03*
X212810000Y-114015000D03*
%TD*%
M02*
