%TF.GenerationSoftware,KiCad,Pcbnew,9.0.6*%
%TF.CreationDate,2025-12-07T15:20:44-07:00*%
%TF.ProjectId,64 Bit - Display Board,36342042-6974-4202-9d20-446973706c61,rev?*%
%TF.SameCoordinates,Original*%
%TF.FileFunction,Legend,Bot*%
%TF.FilePolarity,Positive*%
%FSLAX46Y46*%
G04 Gerber Fmt 4.6, Leading zero omitted, Abs format (unit mm)*
G04 Created by KiCad (PCBNEW 9.0.6) date 2025-12-07 15:20:44*
%MOMM*%
%LPD*%
G01*
G04 APERTURE LIST*
%ADD10C,0.150000*%
%ADD11C,0.120000*%
%ADD12C,0.100000*%
%ADD13C,2.000000*%
G04 APERTURE END LIST*
D10*
X91534649Y-68069819D02*
X91534649Y-67069819D01*
X91534649Y-68022200D02*
X91629887Y-68069819D01*
X91629887Y-68069819D02*
X91820363Y-68069819D01*
X91820363Y-68069819D02*
X91915601Y-68022200D01*
X91915601Y-68022200D02*
X91963220Y-67974580D01*
X91963220Y-67974580D02*
X92010839Y-67879342D01*
X92010839Y-67879342D02*
X92010839Y-67593628D01*
X92010839Y-67593628D02*
X91963220Y-67498390D01*
X91963220Y-67498390D02*
X91915601Y-67450771D01*
X91915601Y-67450771D02*
X91820363Y-67403152D01*
X91820363Y-67403152D02*
X91629887Y-67403152D01*
X91629887Y-67403152D02*
X91534649Y-67450771D01*
X90629887Y-68069819D02*
X90629887Y-67546009D01*
X90629887Y-67546009D02*
X90677506Y-67450771D01*
X90677506Y-67450771D02*
X90772744Y-67403152D01*
X90772744Y-67403152D02*
X90963220Y-67403152D01*
X90963220Y-67403152D02*
X91058458Y-67450771D01*
X90629887Y-68022200D02*
X90725125Y-68069819D01*
X90725125Y-68069819D02*
X90963220Y-68069819D01*
X90963220Y-68069819D02*
X91058458Y-68022200D01*
X91058458Y-68022200D02*
X91106077Y-67926961D01*
X91106077Y-67926961D02*
X91106077Y-67831723D01*
X91106077Y-67831723D02*
X91058458Y-67736485D01*
X91058458Y-67736485D02*
X90963220Y-67688866D01*
X90963220Y-67688866D02*
X90725125Y-67688866D01*
X90725125Y-67688866D02*
X90629887Y-67641247D01*
X90296553Y-67403152D02*
X89915601Y-67403152D01*
X90153696Y-67069819D02*
X90153696Y-67926961D01*
X90153696Y-67926961D02*
X90106077Y-68022200D01*
X90106077Y-68022200D02*
X90010839Y-68069819D01*
X90010839Y-68069819D02*
X89915601Y-68069819D01*
X89153696Y-68069819D02*
X89153696Y-67546009D01*
X89153696Y-67546009D02*
X89201315Y-67450771D01*
X89201315Y-67450771D02*
X89296553Y-67403152D01*
X89296553Y-67403152D02*
X89487029Y-67403152D01*
X89487029Y-67403152D02*
X89582267Y-67450771D01*
X89153696Y-68022200D02*
X89248934Y-68069819D01*
X89248934Y-68069819D02*
X89487029Y-68069819D01*
X89487029Y-68069819D02*
X89582267Y-68022200D01*
X89582267Y-68022200D02*
X89629886Y-67926961D01*
X89629886Y-67926961D02*
X89629886Y-67831723D01*
X89629886Y-67831723D02*
X89582267Y-67736485D01*
X89582267Y-67736485D02*
X89487029Y-67688866D01*
X89487029Y-67688866D02*
X89248934Y-67688866D01*
X89248934Y-67688866D02*
X89153696Y-67641247D01*
X92163220Y-72888866D02*
X91401316Y-72888866D01*
X91782268Y-73269819D02*
X91782268Y-72507914D01*
X90448935Y-72269819D02*
X90925125Y-72269819D01*
X90925125Y-72269819D02*
X90972744Y-72746009D01*
X90972744Y-72746009D02*
X90925125Y-72698390D01*
X90925125Y-72698390D02*
X90829887Y-72650771D01*
X90829887Y-72650771D02*
X90591792Y-72650771D01*
X90591792Y-72650771D02*
X90496554Y-72698390D01*
X90496554Y-72698390D02*
X90448935Y-72746009D01*
X90448935Y-72746009D02*
X90401316Y-72841247D01*
X90401316Y-72841247D02*
X90401316Y-73079342D01*
X90401316Y-73079342D02*
X90448935Y-73174580D01*
X90448935Y-73174580D02*
X90496554Y-73222200D01*
X90496554Y-73222200D02*
X90591792Y-73269819D01*
X90591792Y-73269819D02*
X90829887Y-73269819D01*
X90829887Y-73269819D02*
X90925125Y-73222200D01*
X90925125Y-73222200D02*
X90972744Y-73174580D01*
X90115601Y-72269819D02*
X89782268Y-73269819D01*
X89782268Y-73269819D02*
X89448935Y-72269819D01*
X91339411Y-69717438D02*
X91434649Y-69669819D01*
X91434649Y-69669819D02*
X91577506Y-69669819D01*
X91577506Y-69669819D02*
X91720363Y-69717438D01*
X91720363Y-69717438D02*
X91815601Y-69812676D01*
X91815601Y-69812676D02*
X91863220Y-69907914D01*
X91863220Y-69907914D02*
X91910839Y-70098390D01*
X91910839Y-70098390D02*
X91910839Y-70241247D01*
X91910839Y-70241247D02*
X91863220Y-70431723D01*
X91863220Y-70431723D02*
X91815601Y-70526961D01*
X91815601Y-70526961D02*
X91720363Y-70622200D01*
X91720363Y-70622200D02*
X91577506Y-70669819D01*
X91577506Y-70669819D02*
X91482268Y-70669819D01*
X91482268Y-70669819D02*
X91339411Y-70622200D01*
X91339411Y-70622200D02*
X91291792Y-70574580D01*
X91291792Y-70574580D02*
X91291792Y-70241247D01*
X91291792Y-70241247D02*
X91482268Y-70241247D01*
X90863220Y-70669819D02*
X90863220Y-69669819D01*
X90863220Y-69669819D02*
X90291792Y-70669819D01*
X90291792Y-70669819D02*
X90291792Y-69669819D01*
X89815601Y-70669819D02*
X89815601Y-69669819D01*
X89815601Y-69669819D02*
X89577506Y-69669819D01*
X89577506Y-69669819D02*
X89434649Y-69717438D01*
X89434649Y-69717438D02*
X89339411Y-69812676D01*
X89339411Y-69812676D02*
X89291792Y-69907914D01*
X89291792Y-69907914D02*
X89244173Y-70098390D01*
X89244173Y-70098390D02*
X89244173Y-70241247D01*
X89244173Y-70241247D02*
X89291792Y-70431723D01*
X89291792Y-70431723D02*
X89339411Y-70526961D01*
X89339411Y-70526961D02*
X89434649Y-70622200D01*
X89434649Y-70622200D02*
X89577506Y-70669819D01*
X89577506Y-70669819D02*
X89815601Y-70669819D01*
X116654819Y-56333333D02*
X116178628Y-56000000D01*
X116654819Y-55761905D02*
X115654819Y-55761905D01*
X115654819Y-55761905D02*
X115654819Y-56142857D01*
X115654819Y-56142857D02*
X115702438Y-56238095D01*
X115702438Y-56238095D02*
X115750057Y-56285714D01*
X115750057Y-56285714D02*
X115845295Y-56333333D01*
X115845295Y-56333333D02*
X115988152Y-56333333D01*
X115988152Y-56333333D02*
X116083390Y-56285714D01*
X116083390Y-56285714D02*
X116131009Y-56238095D01*
X116131009Y-56238095D02*
X116178628Y-56142857D01*
X116178628Y-56142857D02*
X116178628Y-55761905D01*
X115654819Y-57238095D02*
X115654819Y-56761905D01*
X115654819Y-56761905D02*
X116131009Y-56714286D01*
X116131009Y-56714286D02*
X116083390Y-56761905D01*
X116083390Y-56761905D02*
X116035771Y-56857143D01*
X116035771Y-56857143D02*
X116035771Y-57095238D01*
X116035771Y-57095238D02*
X116083390Y-57190476D01*
X116083390Y-57190476D02*
X116131009Y-57238095D01*
X116131009Y-57238095D02*
X116226247Y-57285714D01*
X116226247Y-57285714D02*
X116464342Y-57285714D01*
X116464342Y-57285714D02*
X116559580Y-57238095D01*
X116559580Y-57238095D02*
X116607200Y-57190476D01*
X116607200Y-57190476D02*
X116654819Y-57095238D01*
X116654819Y-57095238D02*
X116654819Y-56857143D01*
X116654819Y-56857143D02*
X116607200Y-56761905D01*
X116607200Y-56761905D02*
X116559580Y-56714286D01*
X87372112Y-101811411D02*
X87439456Y-101811411D01*
X87439456Y-101811411D02*
X87574143Y-101744067D01*
X87574143Y-101744067D02*
X87641486Y-101676724D01*
X87641486Y-101676724D02*
X87708830Y-101542037D01*
X87708830Y-101542037D02*
X87708830Y-101407350D01*
X87708830Y-101407350D02*
X87675158Y-101306335D01*
X87675158Y-101306335D02*
X87574143Y-101137976D01*
X87574143Y-101137976D02*
X87473128Y-101036961D01*
X87473128Y-101036961D02*
X87304769Y-100935945D01*
X87304769Y-100935945D02*
X87203754Y-100902274D01*
X87203754Y-100902274D02*
X87069067Y-100902274D01*
X87069067Y-100902274D02*
X86934380Y-100969617D01*
X86934380Y-100969617D02*
X86867036Y-101036961D01*
X86867036Y-101036961D02*
X86799693Y-101171648D01*
X86799693Y-101171648D02*
X86799693Y-101238991D01*
X86496647Y-101407350D02*
X86025242Y-101878754D01*
X86025242Y-101878754D02*
X87035395Y-102282815D01*
X91838094Y-102954819D02*
X91838094Y-101954819D01*
X91838094Y-101954819D02*
X91457142Y-101954819D01*
X91457142Y-101954819D02*
X91361904Y-102002438D01*
X91361904Y-102002438D02*
X91314285Y-102050057D01*
X91314285Y-102050057D02*
X91266666Y-102145295D01*
X91266666Y-102145295D02*
X91266666Y-102288152D01*
X91266666Y-102288152D02*
X91314285Y-102383390D01*
X91314285Y-102383390D02*
X91361904Y-102431009D01*
X91361904Y-102431009D02*
X91457142Y-102478628D01*
X91457142Y-102478628D02*
X91838094Y-102478628D01*
X90933332Y-101954819D02*
X90314285Y-101954819D01*
X90314285Y-101954819D02*
X90647618Y-102335771D01*
X90647618Y-102335771D02*
X90504761Y-102335771D01*
X90504761Y-102335771D02*
X90409523Y-102383390D01*
X90409523Y-102383390D02*
X90361904Y-102431009D01*
X90361904Y-102431009D02*
X90314285Y-102526247D01*
X90314285Y-102526247D02*
X90314285Y-102764342D01*
X90314285Y-102764342D02*
X90361904Y-102859580D01*
X90361904Y-102859580D02*
X90409523Y-102907200D01*
X90409523Y-102907200D02*
X90504761Y-102954819D01*
X90504761Y-102954819D02*
X90790475Y-102954819D01*
X90790475Y-102954819D02*
X90885713Y-102907200D01*
X90885713Y-102907200D02*
X90933332Y-102859580D01*
X212572112Y-101161411D02*
X212639456Y-101161411D01*
X212639456Y-101161411D02*
X212774143Y-101094067D01*
X212774143Y-101094067D02*
X212841486Y-101026724D01*
X212841486Y-101026724D02*
X212908830Y-100892037D01*
X212908830Y-100892037D02*
X212908830Y-100757350D01*
X212908830Y-100757350D02*
X212875158Y-100656335D01*
X212875158Y-100656335D02*
X212774143Y-100487976D01*
X212774143Y-100487976D02*
X212673128Y-100386961D01*
X212673128Y-100386961D02*
X212504769Y-100285945D01*
X212504769Y-100285945D02*
X212403754Y-100252274D01*
X212403754Y-100252274D02*
X212269067Y-100252274D01*
X212269067Y-100252274D02*
X212134380Y-100319617D01*
X212134380Y-100319617D02*
X212067036Y-100386961D01*
X212067036Y-100386961D02*
X211999693Y-100521648D01*
X211999693Y-100521648D02*
X211999693Y-100588991D01*
X211966021Y-101902189D02*
X212370082Y-101498128D01*
X212168051Y-101700159D02*
X211460945Y-100993052D01*
X211460945Y-100993052D02*
X211629303Y-101026724D01*
X211629303Y-101026724D02*
X211763990Y-101026724D01*
X211763990Y-101026724D02*
X211865006Y-100993052D01*
X106754819Y-82333333D02*
X106278628Y-82000000D01*
X106754819Y-81761905D02*
X105754819Y-81761905D01*
X105754819Y-81761905D02*
X105754819Y-82142857D01*
X105754819Y-82142857D02*
X105802438Y-82238095D01*
X105802438Y-82238095D02*
X105850057Y-82285714D01*
X105850057Y-82285714D02*
X105945295Y-82333333D01*
X105945295Y-82333333D02*
X106088152Y-82333333D01*
X106088152Y-82333333D02*
X106183390Y-82285714D01*
X106183390Y-82285714D02*
X106231009Y-82238095D01*
X106231009Y-82238095D02*
X106278628Y-82142857D01*
X106278628Y-82142857D02*
X106278628Y-81761905D01*
X106088152Y-83190476D02*
X106754819Y-83190476D01*
X105707200Y-82952381D02*
X106421485Y-82714286D01*
X106421485Y-82714286D02*
X106421485Y-83333333D01*
X168254819Y-82333333D02*
X167778628Y-82000000D01*
X168254819Y-81761905D02*
X167254819Y-81761905D01*
X167254819Y-81761905D02*
X167254819Y-82142857D01*
X167254819Y-82142857D02*
X167302438Y-82238095D01*
X167302438Y-82238095D02*
X167350057Y-82285714D01*
X167350057Y-82285714D02*
X167445295Y-82333333D01*
X167445295Y-82333333D02*
X167588152Y-82333333D01*
X167588152Y-82333333D02*
X167683390Y-82285714D01*
X167683390Y-82285714D02*
X167731009Y-82238095D01*
X167731009Y-82238095D02*
X167778628Y-82142857D01*
X167778628Y-82142857D02*
X167778628Y-81761905D01*
X167683390Y-82904762D02*
X167635771Y-82809524D01*
X167635771Y-82809524D02*
X167588152Y-82761905D01*
X167588152Y-82761905D02*
X167492914Y-82714286D01*
X167492914Y-82714286D02*
X167445295Y-82714286D01*
X167445295Y-82714286D02*
X167350057Y-82761905D01*
X167350057Y-82761905D02*
X167302438Y-82809524D01*
X167302438Y-82809524D02*
X167254819Y-82904762D01*
X167254819Y-82904762D02*
X167254819Y-83095238D01*
X167254819Y-83095238D02*
X167302438Y-83190476D01*
X167302438Y-83190476D02*
X167350057Y-83238095D01*
X167350057Y-83238095D02*
X167445295Y-83285714D01*
X167445295Y-83285714D02*
X167492914Y-83285714D01*
X167492914Y-83285714D02*
X167588152Y-83238095D01*
X167588152Y-83238095D02*
X167635771Y-83190476D01*
X167635771Y-83190476D02*
X167683390Y-83095238D01*
X167683390Y-83095238D02*
X167683390Y-82904762D01*
X167683390Y-82904762D02*
X167731009Y-82809524D01*
X167731009Y-82809524D02*
X167778628Y-82761905D01*
X167778628Y-82761905D02*
X167873866Y-82714286D01*
X167873866Y-82714286D02*
X168064342Y-82714286D01*
X168064342Y-82714286D02*
X168159580Y-82761905D01*
X168159580Y-82761905D02*
X168207200Y-82809524D01*
X168207200Y-82809524D02*
X168254819Y-82904762D01*
X168254819Y-82904762D02*
X168254819Y-83095238D01*
X168254819Y-83095238D02*
X168207200Y-83190476D01*
X168207200Y-83190476D02*
X168159580Y-83238095D01*
X168159580Y-83238095D02*
X168064342Y-83285714D01*
X168064342Y-83285714D02*
X167873866Y-83285714D01*
X167873866Y-83285714D02*
X167778628Y-83238095D01*
X167778628Y-83238095D02*
X167731009Y-83190476D01*
X167731009Y-83190476D02*
X167683390Y-83095238D01*
X217754819Y-112136905D02*
X216754819Y-112136905D01*
X216754819Y-112136905D02*
X216754819Y-112375000D01*
X216754819Y-112375000D02*
X216802438Y-112517857D01*
X216802438Y-112517857D02*
X216897676Y-112613095D01*
X216897676Y-112613095D02*
X216992914Y-112660714D01*
X216992914Y-112660714D02*
X217183390Y-112708333D01*
X217183390Y-112708333D02*
X217326247Y-112708333D01*
X217326247Y-112708333D02*
X217516723Y-112660714D01*
X217516723Y-112660714D02*
X217611961Y-112613095D01*
X217611961Y-112613095D02*
X217707200Y-112517857D01*
X217707200Y-112517857D02*
X217754819Y-112375000D01*
X217754819Y-112375000D02*
X217754819Y-112136905D01*
X216754819Y-113613095D02*
X216754819Y-113136905D01*
X216754819Y-113136905D02*
X217231009Y-113089286D01*
X217231009Y-113089286D02*
X217183390Y-113136905D01*
X217183390Y-113136905D02*
X217135771Y-113232143D01*
X217135771Y-113232143D02*
X217135771Y-113470238D01*
X217135771Y-113470238D02*
X217183390Y-113565476D01*
X217183390Y-113565476D02*
X217231009Y-113613095D01*
X217231009Y-113613095D02*
X217326247Y-113660714D01*
X217326247Y-113660714D02*
X217564342Y-113660714D01*
X217564342Y-113660714D02*
X217659580Y-113613095D01*
X217659580Y-113613095D02*
X217707200Y-113565476D01*
X217707200Y-113565476D02*
X217754819Y-113470238D01*
X217754819Y-113470238D02*
X217754819Y-113232143D01*
X217754819Y-113232143D02*
X217707200Y-113136905D01*
X217707200Y-113136905D02*
X217659580Y-113089286D01*
X204754819Y-81832142D02*
X204278628Y-81498809D01*
X204754819Y-81260714D02*
X203754819Y-81260714D01*
X203754819Y-81260714D02*
X203754819Y-81641666D01*
X203754819Y-81641666D02*
X203802438Y-81736904D01*
X203802438Y-81736904D02*
X203850057Y-81784523D01*
X203850057Y-81784523D02*
X203945295Y-81832142D01*
X203945295Y-81832142D02*
X204088152Y-81832142D01*
X204088152Y-81832142D02*
X204183390Y-81784523D01*
X204183390Y-81784523D02*
X204231009Y-81736904D01*
X204231009Y-81736904D02*
X204278628Y-81641666D01*
X204278628Y-81641666D02*
X204278628Y-81260714D01*
X204754819Y-82784523D02*
X204754819Y-82213095D01*
X204754819Y-82498809D02*
X203754819Y-82498809D01*
X203754819Y-82498809D02*
X203897676Y-82403571D01*
X203897676Y-82403571D02*
X203992914Y-82308333D01*
X203992914Y-82308333D02*
X204040533Y-82213095D01*
X204754819Y-83736904D02*
X204754819Y-83165476D01*
X204754819Y-83451190D02*
X203754819Y-83451190D01*
X203754819Y-83451190D02*
X203897676Y-83355952D01*
X203897676Y-83355952D02*
X203992914Y-83260714D01*
X203992914Y-83260714D02*
X204040533Y-83165476D01*
X210833333Y-64144819D02*
X210833333Y-64859104D01*
X210833333Y-64859104D02*
X210880952Y-65001961D01*
X210880952Y-65001961D02*
X210976190Y-65097200D01*
X210976190Y-65097200D02*
X211119047Y-65144819D01*
X211119047Y-65144819D02*
X211214285Y-65144819D01*
X210404761Y-64240057D02*
X210357142Y-64192438D01*
X210357142Y-64192438D02*
X210261904Y-64144819D01*
X210261904Y-64144819D02*
X210023809Y-64144819D01*
X210023809Y-64144819D02*
X209928571Y-64192438D01*
X209928571Y-64192438D02*
X209880952Y-64240057D01*
X209880952Y-64240057D02*
X209833333Y-64335295D01*
X209833333Y-64335295D02*
X209833333Y-64430533D01*
X209833333Y-64430533D02*
X209880952Y-64573390D01*
X209880952Y-64573390D02*
X210452380Y-65144819D01*
X210452380Y-65144819D02*
X209833333Y-65144819D01*
X214143517Y-90974693D02*
X213436410Y-90267587D01*
X213436410Y-90267587D02*
X213268051Y-90435945D01*
X213268051Y-90435945D02*
X213200708Y-90570632D01*
X213200708Y-90570632D02*
X213200708Y-90705319D01*
X213200708Y-90705319D02*
X213234380Y-90806335D01*
X213234380Y-90806335D02*
X213335395Y-90974693D01*
X213335395Y-90974693D02*
X213436410Y-91075709D01*
X213436410Y-91075709D02*
X213604769Y-91176724D01*
X213604769Y-91176724D02*
X213705784Y-91210396D01*
X213705784Y-91210396D02*
X213840471Y-91210396D01*
X213840471Y-91210396D02*
X213975158Y-91143052D01*
X213975158Y-91143052D02*
X214143517Y-90974693D01*
X212830319Y-91008365D02*
X212762975Y-91008365D01*
X212762975Y-91008365D02*
X212661960Y-91042037D01*
X212661960Y-91042037D02*
X212493601Y-91210396D01*
X212493601Y-91210396D02*
X212459929Y-91311411D01*
X212459929Y-91311411D02*
X212459929Y-91378754D01*
X212459929Y-91378754D02*
X212493601Y-91479770D01*
X212493601Y-91479770D02*
X212560945Y-91547113D01*
X212560945Y-91547113D02*
X212695632Y-91614457D01*
X212695632Y-91614457D02*
X213503754Y-91614457D01*
X213503754Y-91614457D02*
X213066021Y-92052189D01*
X78038094Y-112254819D02*
X78038094Y-111254819D01*
X78038094Y-111254819D02*
X77799999Y-111254819D01*
X77799999Y-111254819D02*
X77657142Y-111302438D01*
X77657142Y-111302438D02*
X77561904Y-111397676D01*
X77561904Y-111397676D02*
X77514285Y-111492914D01*
X77514285Y-111492914D02*
X77466666Y-111683390D01*
X77466666Y-111683390D02*
X77466666Y-111826247D01*
X77466666Y-111826247D02*
X77514285Y-112016723D01*
X77514285Y-112016723D02*
X77561904Y-112111961D01*
X77561904Y-112111961D02*
X77657142Y-112207200D01*
X77657142Y-112207200D02*
X77799999Y-112254819D01*
X77799999Y-112254819D02*
X78038094Y-112254819D01*
X76609523Y-111254819D02*
X76799999Y-111254819D01*
X76799999Y-111254819D02*
X76895237Y-111302438D01*
X76895237Y-111302438D02*
X76942856Y-111350057D01*
X76942856Y-111350057D02*
X77038094Y-111492914D01*
X77038094Y-111492914D02*
X77085713Y-111683390D01*
X77085713Y-111683390D02*
X77085713Y-112064342D01*
X77085713Y-112064342D02*
X77038094Y-112159580D01*
X77038094Y-112159580D02*
X76990475Y-112207200D01*
X76990475Y-112207200D02*
X76895237Y-112254819D01*
X76895237Y-112254819D02*
X76704761Y-112254819D01*
X76704761Y-112254819D02*
X76609523Y-112207200D01*
X76609523Y-112207200D02*
X76561904Y-112159580D01*
X76561904Y-112159580D02*
X76514285Y-112064342D01*
X76514285Y-112064342D02*
X76514285Y-111826247D01*
X76514285Y-111826247D02*
X76561904Y-111731009D01*
X76561904Y-111731009D02*
X76609523Y-111683390D01*
X76609523Y-111683390D02*
X76704761Y-111635771D01*
X76704761Y-111635771D02*
X76895237Y-111635771D01*
X76895237Y-111635771D02*
X76990475Y-111683390D01*
X76990475Y-111683390D02*
X77038094Y-111731009D01*
X77038094Y-111731009D02*
X77085713Y-111826247D01*
X148438094Y-102554819D02*
X148438094Y-101554819D01*
X148438094Y-101554819D02*
X148057142Y-101554819D01*
X148057142Y-101554819D02*
X147961904Y-101602438D01*
X147961904Y-101602438D02*
X147914285Y-101650057D01*
X147914285Y-101650057D02*
X147866666Y-101745295D01*
X147866666Y-101745295D02*
X147866666Y-101888152D01*
X147866666Y-101888152D02*
X147914285Y-101983390D01*
X147914285Y-101983390D02*
X147961904Y-102031009D01*
X147961904Y-102031009D02*
X148057142Y-102078628D01*
X148057142Y-102078628D02*
X148438094Y-102078628D01*
X147485713Y-101650057D02*
X147438094Y-101602438D01*
X147438094Y-101602438D02*
X147342856Y-101554819D01*
X147342856Y-101554819D02*
X147104761Y-101554819D01*
X147104761Y-101554819D02*
X147009523Y-101602438D01*
X147009523Y-101602438D02*
X146961904Y-101650057D01*
X146961904Y-101650057D02*
X146914285Y-101745295D01*
X146914285Y-101745295D02*
X146914285Y-101840533D01*
X146914285Y-101840533D02*
X146961904Y-101983390D01*
X146961904Y-101983390D02*
X147533332Y-102554819D01*
X147533332Y-102554819D02*
X146914285Y-102554819D01*
X150872112Y-101461411D02*
X150939456Y-101461411D01*
X150939456Y-101461411D02*
X151074143Y-101394067D01*
X151074143Y-101394067D02*
X151141486Y-101326724D01*
X151141486Y-101326724D02*
X151208830Y-101192037D01*
X151208830Y-101192037D02*
X151208830Y-101057350D01*
X151208830Y-101057350D02*
X151175158Y-100956335D01*
X151175158Y-100956335D02*
X151074143Y-100787976D01*
X151074143Y-100787976D02*
X150973128Y-100686961D01*
X150973128Y-100686961D02*
X150804769Y-100585945D01*
X150804769Y-100585945D02*
X150703754Y-100552274D01*
X150703754Y-100552274D02*
X150569067Y-100552274D01*
X150569067Y-100552274D02*
X150434380Y-100619617D01*
X150434380Y-100619617D02*
X150367036Y-100686961D01*
X150367036Y-100686961D02*
X150299693Y-100821648D01*
X150299693Y-100821648D02*
X150299693Y-100888991D01*
X149861960Y-101663441D02*
X150333364Y-102134846D01*
X149760945Y-101225709D02*
X150434380Y-101562426D01*
X150434380Y-101562426D02*
X149996647Y-102000159D01*
X172272112Y-101561411D02*
X172339456Y-101561411D01*
X172339456Y-101561411D02*
X172474143Y-101494067D01*
X172474143Y-101494067D02*
X172541486Y-101426724D01*
X172541486Y-101426724D02*
X172608830Y-101292037D01*
X172608830Y-101292037D02*
X172608830Y-101157350D01*
X172608830Y-101157350D02*
X172575158Y-101056335D01*
X172575158Y-101056335D02*
X172474143Y-100887976D01*
X172474143Y-100887976D02*
X172373128Y-100786961D01*
X172373128Y-100786961D02*
X172204769Y-100685945D01*
X172204769Y-100685945D02*
X172103754Y-100652274D01*
X172103754Y-100652274D02*
X171969067Y-100652274D01*
X171969067Y-100652274D02*
X171834380Y-100719617D01*
X171834380Y-100719617D02*
X171767036Y-100786961D01*
X171767036Y-100786961D02*
X171699693Y-100921648D01*
X171699693Y-100921648D02*
X171699693Y-100988991D01*
X171396647Y-101157350D02*
X170958914Y-101595083D01*
X170958914Y-101595083D02*
X171463990Y-101628754D01*
X171463990Y-101628754D02*
X171362975Y-101729770D01*
X171362975Y-101729770D02*
X171329303Y-101830785D01*
X171329303Y-101830785D02*
X171329303Y-101898128D01*
X171329303Y-101898128D02*
X171362975Y-101999144D01*
X171362975Y-101999144D02*
X171531334Y-102167502D01*
X171531334Y-102167502D02*
X171632349Y-102201174D01*
X171632349Y-102201174D02*
X171699693Y-102201174D01*
X171699693Y-102201174D02*
X171800708Y-102167502D01*
X171800708Y-102167502D02*
X172002738Y-101965472D01*
X172002738Y-101965472D02*
X172036410Y-101864457D01*
X172036410Y-101864457D02*
X172036410Y-101797113D01*
X215143480Y-91999730D02*
X214436373Y-91292624D01*
X214436373Y-91292624D02*
X214268014Y-91460982D01*
X214268014Y-91460982D02*
X214200671Y-91595669D01*
X214200671Y-91595669D02*
X214200671Y-91730356D01*
X214200671Y-91730356D02*
X214234343Y-91831372D01*
X214234343Y-91831372D02*
X214335358Y-91999730D01*
X214335358Y-91999730D02*
X214436373Y-92100746D01*
X214436373Y-92100746D02*
X214604732Y-92201761D01*
X214604732Y-92201761D02*
X214705747Y-92235433D01*
X214705747Y-92235433D02*
X214840434Y-92235433D01*
X214840434Y-92235433D02*
X214975121Y-92168089D01*
X214975121Y-92168089D02*
X215143480Y-91999730D01*
X213661923Y-92538478D02*
X214133327Y-93009883D01*
X213560908Y-92100746D02*
X214234343Y-92437463D01*
X214234343Y-92437463D02*
X213796610Y-92875196D01*
X55154819Y-70833333D02*
X54678628Y-70500000D01*
X55154819Y-70261905D02*
X54154819Y-70261905D01*
X54154819Y-70261905D02*
X54154819Y-70642857D01*
X54154819Y-70642857D02*
X54202438Y-70738095D01*
X54202438Y-70738095D02*
X54250057Y-70785714D01*
X54250057Y-70785714D02*
X54345295Y-70833333D01*
X54345295Y-70833333D02*
X54488152Y-70833333D01*
X54488152Y-70833333D02*
X54583390Y-70785714D01*
X54583390Y-70785714D02*
X54631009Y-70738095D01*
X54631009Y-70738095D02*
X54678628Y-70642857D01*
X54678628Y-70642857D02*
X54678628Y-70261905D01*
X54250057Y-71214286D02*
X54202438Y-71261905D01*
X54202438Y-71261905D02*
X54154819Y-71357143D01*
X54154819Y-71357143D02*
X54154819Y-71595238D01*
X54154819Y-71595238D02*
X54202438Y-71690476D01*
X54202438Y-71690476D02*
X54250057Y-71738095D01*
X54250057Y-71738095D02*
X54345295Y-71785714D01*
X54345295Y-71785714D02*
X54440533Y-71785714D01*
X54440533Y-71785714D02*
X54583390Y-71738095D01*
X54583390Y-71738095D02*
X55154819Y-71166667D01*
X55154819Y-71166667D02*
X55154819Y-71785714D01*
X116654819Y-71333333D02*
X116178628Y-71000000D01*
X116654819Y-70761905D02*
X115654819Y-70761905D01*
X115654819Y-70761905D02*
X115654819Y-71142857D01*
X115654819Y-71142857D02*
X115702438Y-71238095D01*
X115702438Y-71238095D02*
X115750057Y-71285714D01*
X115750057Y-71285714D02*
X115845295Y-71333333D01*
X115845295Y-71333333D02*
X115988152Y-71333333D01*
X115988152Y-71333333D02*
X116083390Y-71285714D01*
X116083390Y-71285714D02*
X116131009Y-71238095D01*
X116131009Y-71238095D02*
X116178628Y-71142857D01*
X116178628Y-71142857D02*
X116178628Y-70761905D01*
X115654819Y-72190476D02*
X115654819Y-72000000D01*
X115654819Y-72000000D02*
X115702438Y-71904762D01*
X115702438Y-71904762D02*
X115750057Y-71857143D01*
X115750057Y-71857143D02*
X115892914Y-71761905D01*
X115892914Y-71761905D02*
X116083390Y-71714286D01*
X116083390Y-71714286D02*
X116464342Y-71714286D01*
X116464342Y-71714286D02*
X116559580Y-71761905D01*
X116559580Y-71761905D02*
X116607200Y-71809524D01*
X116607200Y-71809524D02*
X116654819Y-71904762D01*
X116654819Y-71904762D02*
X116654819Y-72095238D01*
X116654819Y-72095238D02*
X116607200Y-72190476D01*
X116607200Y-72190476D02*
X116559580Y-72238095D01*
X116559580Y-72238095D02*
X116464342Y-72285714D01*
X116464342Y-72285714D02*
X116226247Y-72285714D01*
X116226247Y-72285714D02*
X116131009Y-72238095D01*
X116131009Y-72238095D02*
X116083390Y-72190476D01*
X116083390Y-72190476D02*
X116035771Y-72095238D01*
X116035771Y-72095238D02*
X116035771Y-71904762D01*
X116035771Y-71904762D02*
X116083390Y-71809524D01*
X116083390Y-71809524D02*
X116131009Y-71761905D01*
X116131009Y-71761905D02*
X116226247Y-71714286D01*
X87808333Y-64159819D02*
X87808333Y-64874104D01*
X87808333Y-64874104D02*
X87855952Y-65016961D01*
X87855952Y-65016961D02*
X87951190Y-65112200D01*
X87951190Y-65112200D02*
X88094047Y-65159819D01*
X88094047Y-65159819D02*
X88189285Y-65159819D01*
X86808333Y-65159819D02*
X87379761Y-65159819D01*
X87094047Y-65159819D02*
X87094047Y-64159819D01*
X87094047Y-64159819D02*
X87189285Y-64302676D01*
X87189285Y-64302676D02*
X87284523Y-64397914D01*
X87284523Y-64397914D02*
X87379761Y-64445533D01*
X201254819Y-112236905D02*
X200254819Y-112236905D01*
X200254819Y-112236905D02*
X200254819Y-112475000D01*
X200254819Y-112475000D02*
X200302438Y-112617857D01*
X200302438Y-112617857D02*
X200397676Y-112713095D01*
X200397676Y-112713095D02*
X200492914Y-112760714D01*
X200492914Y-112760714D02*
X200683390Y-112808333D01*
X200683390Y-112808333D02*
X200826247Y-112808333D01*
X200826247Y-112808333D02*
X201016723Y-112760714D01*
X201016723Y-112760714D02*
X201111961Y-112713095D01*
X201111961Y-112713095D02*
X201207200Y-112617857D01*
X201207200Y-112617857D02*
X201254819Y-112475000D01*
X201254819Y-112475000D02*
X201254819Y-112236905D01*
X201254819Y-113760714D02*
X201254819Y-113189286D01*
X201254819Y-113475000D02*
X200254819Y-113475000D01*
X200254819Y-113475000D02*
X200397676Y-113379762D01*
X200397676Y-113379762D02*
X200492914Y-113284524D01*
X200492914Y-113284524D02*
X200540533Y-113189286D01*
X143254819Y-82333333D02*
X142778628Y-82000000D01*
X143254819Y-81761905D02*
X142254819Y-81761905D01*
X142254819Y-81761905D02*
X142254819Y-82142857D01*
X142254819Y-82142857D02*
X142302438Y-82238095D01*
X142302438Y-82238095D02*
X142350057Y-82285714D01*
X142350057Y-82285714D02*
X142445295Y-82333333D01*
X142445295Y-82333333D02*
X142588152Y-82333333D01*
X142588152Y-82333333D02*
X142683390Y-82285714D01*
X142683390Y-82285714D02*
X142731009Y-82238095D01*
X142731009Y-82238095D02*
X142778628Y-82142857D01*
X142778628Y-82142857D02*
X142778628Y-81761905D01*
X142254819Y-82666667D02*
X142254819Y-83333333D01*
X142254819Y-83333333D02*
X143254819Y-82904762D01*
X81754819Y-82333333D02*
X81278628Y-82000000D01*
X81754819Y-81761905D02*
X80754819Y-81761905D01*
X80754819Y-81761905D02*
X80754819Y-82142857D01*
X80754819Y-82142857D02*
X80802438Y-82238095D01*
X80802438Y-82238095D02*
X80850057Y-82285714D01*
X80850057Y-82285714D02*
X80945295Y-82333333D01*
X80945295Y-82333333D02*
X81088152Y-82333333D01*
X81088152Y-82333333D02*
X81183390Y-82285714D01*
X81183390Y-82285714D02*
X81231009Y-82238095D01*
X81231009Y-82238095D02*
X81278628Y-82142857D01*
X81278628Y-82142857D02*
X81278628Y-81761905D01*
X80754819Y-82666667D02*
X80754819Y-83285714D01*
X80754819Y-83285714D02*
X81135771Y-82952381D01*
X81135771Y-82952381D02*
X81135771Y-83095238D01*
X81135771Y-83095238D02*
X81183390Y-83190476D01*
X81183390Y-83190476D02*
X81231009Y-83238095D01*
X81231009Y-83238095D02*
X81326247Y-83285714D01*
X81326247Y-83285714D02*
X81564342Y-83285714D01*
X81564342Y-83285714D02*
X81659580Y-83238095D01*
X81659580Y-83238095D02*
X81707200Y-83190476D01*
X81707200Y-83190476D02*
X81754819Y-83095238D01*
X81754819Y-83095238D02*
X81754819Y-82809524D01*
X81754819Y-82809524D02*
X81707200Y-82714286D01*
X81707200Y-82714286D02*
X81659580Y-82666667D01*
X107972112Y-100811411D02*
X108039456Y-100811411D01*
X108039456Y-100811411D02*
X108174143Y-100744067D01*
X108174143Y-100744067D02*
X108241486Y-100676724D01*
X108241486Y-100676724D02*
X108308830Y-100542037D01*
X108308830Y-100542037D02*
X108308830Y-100407350D01*
X108308830Y-100407350D02*
X108275158Y-100306335D01*
X108275158Y-100306335D02*
X108174143Y-100137976D01*
X108174143Y-100137976D02*
X108073128Y-100036961D01*
X108073128Y-100036961D02*
X107904769Y-99935945D01*
X107904769Y-99935945D02*
X107803754Y-99902274D01*
X107803754Y-99902274D02*
X107669067Y-99902274D01*
X107669067Y-99902274D02*
X107534380Y-99969617D01*
X107534380Y-99969617D02*
X107467036Y-100036961D01*
X107467036Y-100036961D02*
X107399693Y-100171648D01*
X107399693Y-100171648D02*
X107399693Y-100238991D01*
X106726258Y-100777739D02*
X106860945Y-100643052D01*
X106860945Y-100643052D02*
X106961960Y-100609380D01*
X106961960Y-100609380D02*
X107029303Y-100609380D01*
X107029303Y-100609380D02*
X107197662Y-100643052D01*
X107197662Y-100643052D02*
X107366021Y-100744067D01*
X107366021Y-100744067D02*
X107635395Y-101013441D01*
X107635395Y-101013441D02*
X107669067Y-101114457D01*
X107669067Y-101114457D02*
X107669067Y-101181800D01*
X107669067Y-101181800D02*
X107635395Y-101282815D01*
X107635395Y-101282815D02*
X107500708Y-101417502D01*
X107500708Y-101417502D02*
X107399693Y-101451174D01*
X107399693Y-101451174D02*
X107332349Y-101451174D01*
X107332349Y-101451174D02*
X107231334Y-101417502D01*
X107231334Y-101417502D02*
X107062975Y-101249144D01*
X107062975Y-101249144D02*
X107029303Y-101148128D01*
X107029303Y-101148128D02*
X107029303Y-101080785D01*
X107029303Y-101080785D02*
X107062975Y-100979770D01*
X107062975Y-100979770D02*
X107197662Y-100845083D01*
X107197662Y-100845083D02*
X107298677Y-100811411D01*
X107298677Y-100811411D02*
X107366021Y-100811411D01*
X107366021Y-100811411D02*
X107467036Y-100845083D01*
X58854819Y-56233333D02*
X58378628Y-55900000D01*
X58854819Y-55661905D02*
X57854819Y-55661905D01*
X57854819Y-55661905D02*
X57854819Y-56042857D01*
X57854819Y-56042857D02*
X57902438Y-56138095D01*
X57902438Y-56138095D02*
X57950057Y-56185714D01*
X57950057Y-56185714D02*
X58045295Y-56233333D01*
X58045295Y-56233333D02*
X58188152Y-56233333D01*
X58188152Y-56233333D02*
X58283390Y-56185714D01*
X58283390Y-56185714D02*
X58331009Y-56138095D01*
X58331009Y-56138095D02*
X58378628Y-56042857D01*
X58378628Y-56042857D02*
X58378628Y-55661905D01*
X58854819Y-57185714D02*
X58854819Y-56614286D01*
X58854819Y-56900000D02*
X57854819Y-56900000D01*
X57854819Y-56900000D02*
X57997676Y-56804762D01*
X57997676Y-56804762D02*
X58092914Y-56709524D01*
X58092914Y-56709524D02*
X58140533Y-56614286D01*
X178154819Y-70857142D02*
X177678628Y-70523809D01*
X178154819Y-70285714D02*
X177154819Y-70285714D01*
X177154819Y-70285714D02*
X177154819Y-70666666D01*
X177154819Y-70666666D02*
X177202438Y-70761904D01*
X177202438Y-70761904D02*
X177250057Y-70809523D01*
X177250057Y-70809523D02*
X177345295Y-70857142D01*
X177345295Y-70857142D02*
X177488152Y-70857142D01*
X177488152Y-70857142D02*
X177583390Y-70809523D01*
X177583390Y-70809523D02*
X177631009Y-70761904D01*
X177631009Y-70761904D02*
X177678628Y-70666666D01*
X177678628Y-70666666D02*
X177678628Y-70285714D01*
X178154819Y-71809523D02*
X178154819Y-71238095D01*
X178154819Y-71523809D02*
X177154819Y-71523809D01*
X177154819Y-71523809D02*
X177297676Y-71428571D01*
X177297676Y-71428571D02*
X177392914Y-71333333D01*
X177392914Y-71333333D02*
X177440533Y-71238095D01*
X177154819Y-72428571D02*
X177154819Y-72523809D01*
X177154819Y-72523809D02*
X177202438Y-72619047D01*
X177202438Y-72619047D02*
X177250057Y-72666666D01*
X177250057Y-72666666D02*
X177345295Y-72714285D01*
X177345295Y-72714285D02*
X177535771Y-72761904D01*
X177535771Y-72761904D02*
X177773866Y-72761904D01*
X177773866Y-72761904D02*
X177964342Y-72714285D01*
X177964342Y-72714285D02*
X178059580Y-72666666D01*
X178059580Y-72666666D02*
X178107200Y-72619047D01*
X178107200Y-72619047D02*
X178154819Y-72523809D01*
X178154819Y-72523809D02*
X178154819Y-72428571D01*
X178154819Y-72428571D02*
X178107200Y-72333333D01*
X178107200Y-72333333D02*
X178059580Y-72285714D01*
X178059580Y-72285714D02*
X177964342Y-72238095D01*
X177964342Y-72238095D02*
X177773866Y-72190476D01*
X177773866Y-72190476D02*
X177535771Y-72190476D01*
X177535771Y-72190476D02*
X177345295Y-72238095D01*
X177345295Y-72238095D02*
X177250057Y-72285714D01*
X177250057Y-72285714D02*
X177202438Y-72333333D01*
X177202438Y-72333333D02*
X177154819Y-72428571D01*
X65372112Y-102336411D02*
X65439456Y-102336411D01*
X65439456Y-102336411D02*
X65574143Y-102269067D01*
X65574143Y-102269067D02*
X65641486Y-102201724D01*
X65641486Y-102201724D02*
X65708830Y-102067037D01*
X65708830Y-102067037D02*
X65708830Y-101932350D01*
X65708830Y-101932350D02*
X65675158Y-101831335D01*
X65675158Y-101831335D02*
X65574143Y-101662976D01*
X65574143Y-101662976D02*
X65473128Y-101561961D01*
X65473128Y-101561961D02*
X65304769Y-101460945D01*
X65304769Y-101460945D02*
X65203754Y-101427274D01*
X65203754Y-101427274D02*
X65069067Y-101427274D01*
X65069067Y-101427274D02*
X64934380Y-101494617D01*
X64934380Y-101494617D02*
X64867036Y-101561961D01*
X64867036Y-101561961D02*
X64799693Y-101696648D01*
X64799693Y-101696648D02*
X64799693Y-101763991D01*
X64631334Y-102403754D02*
X64665006Y-102302739D01*
X64665006Y-102302739D02*
X64665006Y-102235396D01*
X64665006Y-102235396D02*
X64631334Y-102134380D01*
X64631334Y-102134380D02*
X64597662Y-102100709D01*
X64597662Y-102100709D02*
X64496647Y-102067037D01*
X64496647Y-102067037D02*
X64429303Y-102067037D01*
X64429303Y-102067037D02*
X64328288Y-102100709D01*
X64328288Y-102100709D02*
X64193601Y-102235396D01*
X64193601Y-102235396D02*
X64159929Y-102336411D01*
X64159929Y-102336411D02*
X64159929Y-102403754D01*
X64159929Y-102403754D02*
X64193601Y-102504770D01*
X64193601Y-102504770D02*
X64227273Y-102538441D01*
X64227273Y-102538441D02*
X64328288Y-102572113D01*
X64328288Y-102572113D02*
X64395632Y-102572113D01*
X64395632Y-102572113D02*
X64496647Y-102538441D01*
X64496647Y-102538441D02*
X64631334Y-102403754D01*
X64631334Y-102403754D02*
X64732349Y-102370083D01*
X64732349Y-102370083D02*
X64799693Y-102370083D01*
X64799693Y-102370083D02*
X64900708Y-102403754D01*
X64900708Y-102403754D02*
X65035395Y-102538441D01*
X65035395Y-102538441D02*
X65069067Y-102639457D01*
X65069067Y-102639457D02*
X65069067Y-102706800D01*
X65069067Y-102706800D02*
X65035395Y-102807815D01*
X65035395Y-102807815D02*
X64900708Y-102942502D01*
X64900708Y-102942502D02*
X64799693Y-102976174D01*
X64799693Y-102976174D02*
X64732349Y-102976174D01*
X64732349Y-102976174D02*
X64631334Y-102942502D01*
X64631334Y-102942502D02*
X64496647Y-102807815D01*
X64496647Y-102807815D02*
X64462975Y-102706800D01*
X64462975Y-102706800D02*
X64462975Y-102639457D01*
X64462975Y-102639457D02*
X64496647Y-102538441D01*
X178043517Y-107199693D02*
X177336410Y-106492587D01*
X177336410Y-106492587D02*
X177168051Y-106660945D01*
X177168051Y-106660945D02*
X177100708Y-106795632D01*
X177100708Y-106795632D02*
X177100708Y-106930319D01*
X177100708Y-106930319D02*
X177134380Y-107031335D01*
X177134380Y-107031335D02*
X177235395Y-107199693D01*
X177235395Y-107199693D02*
X177336410Y-107300709D01*
X177336410Y-107300709D02*
X177504769Y-107401724D01*
X177504769Y-107401724D02*
X177605784Y-107435396D01*
X177605784Y-107435396D02*
X177740471Y-107435396D01*
X177740471Y-107435396D02*
X177875158Y-107368052D01*
X177875158Y-107368052D02*
X178043517Y-107199693D01*
X176696647Y-107132350D02*
X176258914Y-107570083D01*
X176258914Y-107570083D02*
X176763990Y-107603754D01*
X176763990Y-107603754D02*
X176662975Y-107704770D01*
X176662975Y-107704770D02*
X176629303Y-107805785D01*
X176629303Y-107805785D02*
X176629303Y-107873128D01*
X176629303Y-107873128D02*
X176662975Y-107974144D01*
X176662975Y-107974144D02*
X176831334Y-108142502D01*
X176831334Y-108142502D02*
X176932349Y-108176174D01*
X176932349Y-108176174D02*
X176999693Y-108176174D01*
X176999693Y-108176174D02*
X177100708Y-108142502D01*
X177100708Y-108142502D02*
X177302738Y-107940472D01*
X177302738Y-107940472D02*
X177336410Y-107839457D01*
X177336410Y-107839457D02*
X177336410Y-107772113D01*
X129620120Y-101488403D02*
X129687464Y-101488403D01*
X129687464Y-101488403D02*
X129822151Y-101421059D01*
X129822151Y-101421059D02*
X129889494Y-101353716D01*
X129889494Y-101353716D02*
X129956838Y-101219029D01*
X129956838Y-101219029D02*
X129956838Y-101084342D01*
X129956838Y-101084342D02*
X129923166Y-100983327D01*
X129923166Y-100983327D02*
X129822151Y-100814968D01*
X129822151Y-100814968D02*
X129721136Y-100713953D01*
X129721136Y-100713953D02*
X129552777Y-100612937D01*
X129552777Y-100612937D02*
X129451762Y-100579266D01*
X129451762Y-100579266D02*
X129317075Y-100579266D01*
X129317075Y-100579266D02*
X129182388Y-100646609D01*
X129182388Y-100646609D02*
X129115044Y-100713953D01*
X129115044Y-100713953D02*
X129047701Y-100848640D01*
X129047701Y-100848640D02*
X129047701Y-100915983D01*
X128340594Y-101488403D02*
X128677311Y-101151685D01*
X128677311Y-101151685D02*
X129047701Y-101454731D01*
X129047701Y-101454731D02*
X128980357Y-101454731D01*
X128980357Y-101454731D02*
X128879342Y-101488403D01*
X128879342Y-101488403D02*
X128710983Y-101656762D01*
X128710983Y-101656762D02*
X128677311Y-101757777D01*
X128677311Y-101757777D02*
X128677311Y-101825120D01*
X128677311Y-101825120D02*
X128710983Y-101926136D01*
X128710983Y-101926136D02*
X128879342Y-102094494D01*
X128879342Y-102094494D02*
X128980357Y-102128166D01*
X128980357Y-102128166D02*
X129047701Y-102128166D01*
X129047701Y-102128166D02*
X129148716Y-102094494D01*
X129148716Y-102094494D02*
X129317075Y-101926136D01*
X129317075Y-101926136D02*
X129350746Y-101825120D01*
X129350746Y-101825120D02*
X129350746Y-101757777D01*
X178154819Y-56333333D02*
X177678628Y-56000000D01*
X178154819Y-55761905D02*
X177154819Y-55761905D01*
X177154819Y-55761905D02*
X177154819Y-56142857D01*
X177154819Y-56142857D02*
X177202438Y-56238095D01*
X177202438Y-56238095D02*
X177250057Y-56285714D01*
X177250057Y-56285714D02*
X177345295Y-56333333D01*
X177345295Y-56333333D02*
X177488152Y-56333333D01*
X177488152Y-56333333D02*
X177583390Y-56285714D01*
X177583390Y-56285714D02*
X177631009Y-56238095D01*
X177631009Y-56238095D02*
X177678628Y-56142857D01*
X177678628Y-56142857D02*
X177678628Y-55761905D01*
X178154819Y-56809524D02*
X178154819Y-57000000D01*
X178154819Y-57000000D02*
X178107200Y-57095238D01*
X178107200Y-57095238D02*
X178059580Y-57142857D01*
X178059580Y-57142857D02*
X177916723Y-57238095D01*
X177916723Y-57238095D02*
X177726247Y-57285714D01*
X177726247Y-57285714D02*
X177345295Y-57285714D01*
X177345295Y-57285714D02*
X177250057Y-57238095D01*
X177250057Y-57238095D02*
X177202438Y-57190476D01*
X177202438Y-57190476D02*
X177154819Y-57095238D01*
X177154819Y-57095238D02*
X177154819Y-56904762D01*
X177154819Y-56904762D02*
X177202438Y-56809524D01*
X177202438Y-56809524D02*
X177250057Y-56761905D01*
X177250057Y-56761905D02*
X177345295Y-56714286D01*
X177345295Y-56714286D02*
X177583390Y-56714286D01*
X177583390Y-56714286D02*
X177678628Y-56761905D01*
X177678628Y-56761905D02*
X177726247Y-56809524D01*
X177726247Y-56809524D02*
X177773866Y-56904762D01*
X177773866Y-56904762D02*
X177773866Y-57095238D01*
X177773866Y-57095238D02*
X177726247Y-57190476D01*
X177726247Y-57190476D02*
X177678628Y-57238095D01*
X177678628Y-57238095D02*
X177583390Y-57285714D01*
X209738094Y-103254819D02*
X209738094Y-102254819D01*
X209738094Y-102254819D02*
X209357142Y-102254819D01*
X209357142Y-102254819D02*
X209261904Y-102302438D01*
X209261904Y-102302438D02*
X209214285Y-102350057D01*
X209214285Y-102350057D02*
X209166666Y-102445295D01*
X209166666Y-102445295D02*
X209166666Y-102588152D01*
X209166666Y-102588152D02*
X209214285Y-102683390D01*
X209214285Y-102683390D02*
X209261904Y-102731009D01*
X209261904Y-102731009D02*
X209357142Y-102778628D01*
X209357142Y-102778628D02*
X209738094Y-102778628D01*
X208214285Y-103254819D02*
X208785713Y-103254819D01*
X208499999Y-103254819D02*
X208499999Y-102254819D01*
X208499999Y-102254819D02*
X208595237Y-102397676D01*
X208595237Y-102397676D02*
X208690475Y-102492914D01*
X208690475Y-102492914D02*
X208785713Y-102540533D01*
X192672112Y-101561411D02*
X192739456Y-101561411D01*
X192739456Y-101561411D02*
X192874143Y-101494067D01*
X192874143Y-101494067D02*
X192941486Y-101426724D01*
X192941486Y-101426724D02*
X193008830Y-101292037D01*
X193008830Y-101292037D02*
X193008830Y-101157350D01*
X193008830Y-101157350D02*
X192975158Y-101056335D01*
X192975158Y-101056335D02*
X192874143Y-100887976D01*
X192874143Y-100887976D02*
X192773128Y-100786961D01*
X192773128Y-100786961D02*
X192604769Y-100685945D01*
X192604769Y-100685945D02*
X192503754Y-100652274D01*
X192503754Y-100652274D02*
X192369067Y-100652274D01*
X192369067Y-100652274D02*
X192234380Y-100719617D01*
X192234380Y-100719617D02*
X192167036Y-100786961D01*
X192167036Y-100786961D02*
X192099693Y-100921648D01*
X192099693Y-100921648D02*
X192099693Y-100988991D01*
X191830319Y-101258365D02*
X191762975Y-101258365D01*
X191762975Y-101258365D02*
X191661960Y-101292037D01*
X191661960Y-101292037D02*
X191493601Y-101460396D01*
X191493601Y-101460396D02*
X191459929Y-101561411D01*
X191459929Y-101561411D02*
X191459929Y-101628754D01*
X191459929Y-101628754D02*
X191493601Y-101729770D01*
X191493601Y-101729770D02*
X191560945Y-101797113D01*
X191560945Y-101797113D02*
X191695632Y-101864457D01*
X191695632Y-101864457D02*
X192503754Y-101864457D01*
X192503754Y-101864457D02*
X192066021Y-102302189D01*
X229754819Y-81857142D02*
X229278628Y-81523809D01*
X229754819Y-81285714D02*
X228754819Y-81285714D01*
X228754819Y-81285714D02*
X228754819Y-81666666D01*
X228754819Y-81666666D02*
X228802438Y-81761904D01*
X228802438Y-81761904D02*
X228850057Y-81809523D01*
X228850057Y-81809523D02*
X228945295Y-81857142D01*
X228945295Y-81857142D02*
X229088152Y-81857142D01*
X229088152Y-81857142D02*
X229183390Y-81809523D01*
X229183390Y-81809523D02*
X229231009Y-81761904D01*
X229231009Y-81761904D02*
X229278628Y-81666666D01*
X229278628Y-81666666D02*
X229278628Y-81285714D01*
X229754819Y-82809523D02*
X229754819Y-82238095D01*
X229754819Y-82523809D02*
X228754819Y-82523809D01*
X228754819Y-82523809D02*
X228897676Y-82428571D01*
X228897676Y-82428571D02*
X228992914Y-82333333D01*
X228992914Y-82333333D02*
X229040533Y-82238095D01*
X228850057Y-83190476D02*
X228802438Y-83238095D01*
X228802438Y-83238095D02*
X228754819Y-83333333D01*
X228754819Y-83333333D02*
X228754819Y-83571428D01*
X228754819Y-83571428D02*
X228802438Y-83666666D01*
X228802438Y-83666666D02*
X228850057Y-83714285D01*
X228850057Y-83714285D02*
X228945295Y-83761904D01*
X228945295Y-83761904D02*
X229040533Y-83761904D01*
X229040533Y-83761904D02*
X229183390Y-83714285D01*
X229183390Y-83714285D02*
X229754819Y-83142857D01*
X229754819Y-83142857D02*
X229754819Y-83761904D01*
D11*
%TO.C,R5*%
X117140000Y-55788748D02*
X117140000Y-57211252D01*
X119860000Y-55788748D02*
X119860000Y-57211252D01*
%TO.C,C7*%
X88539970Y-99638781D02*
X88738781Y-99439970D01*
X89261219Y-100360030D02*
X89460030Y-100161219D01*
D12*
%TO.C,P3*%
X82550000Y-112645000D02*
X82550000Y-115185000D01*
X82550000Y-115185000D02*
X95250000Y-115185000D01*
X83820000Y-119185000D02*
X83820000Y-115185000D01*
X86360000Y-119185000D02*
X86360000Y-115185000D01*
X88900000Y-119185000D02*
X88900000Y-115185000D01*
X91440000Y-119185000D02*
X91440000Y-115185000D01*
X93980000Y-119185000D02*
X93980000Y-115185000D01*
X95250000Y-112645000D02*
X82550000Y-112645000D01*
X95250000Y-115185000D02*
X95250000Y-112645000D01*
D11*
%TO.C,C1*%
X213739970Y-99038781D02*
X213938781Y-98839970D01*
X214461219Y-99760030D02*
X214660030Y-99561219D01*
%TO.C,R4*%
X102640000Y-83211252D02*
X102640000Y-81788748D01*
X105360000Y-83211252D02*
X105360000Y-81788748D01*
%TO.C,R8*%
X164140000Y-83211252D02*
X164140000Y-81788748D01*
X166860000Y-83211252D02*
X166860000Y-81788748D01*
%TO.C,D5*%
X216677500Y-110137742D02*
X216677500Y-110612258D01*
X217722500Y-110137742D02*
X217722500Y-110612258D01*
%TO.C,R11*%
X200640000Y-83186252D02*
X200640000Y-81763748D01*
X203360000Y-83186252D02*
X203360000Y-81763748D01*
%TO.C,J2*%
X209170000Y-66130000D02*
X209170000Y-67460000D01*
X209170000Y-68730000D02*
X209170000Y-73870000D01*
X210500000Y-66130000D02*
X209170000Y-66130000D01*
X211830000Y-68730000D02*
X209170000Y-68730000D01*
X211830000Y-68730000D02*
X211830000Y-73870000D01*
X211830000Y-73870000D02*
X209170000Y-73870000D01*
%TO.C,D2*%
X210962770Y-92798303D02*
X211298303Y-92462770D01*
X211701697Y-93537230D02*
X212037230Y-93201697D01*
%TO.C,D6*%
X80137258Y-111277500D02*
X79662742Y-111277500D01*
X80137258Y-112322500D02*
X79662742Y-112322500D01*
D12*
%TO.C,P2*%
X142550000Y-112745000D02*
X142550000Y-115285000D01*
X142550000Y-115285000D02*
X155250000Y-115285000D01*
X143820000Y-119285000D02*
X143820000Y-115285000D01*
X146360000Y-119285000D02*
X146360000Y-115285000D01*
X148900000Y-119285000D02*
X148900000Y-115285000D01*
X151440000Y-119285000D02*
X151440000Y-115285000D01*
X153980000Y-119285000D02*
X153980000Y-115285000D01*
X155250000Y-112745000D02*
X142550000Y-112745000D01*
X155250000Y-115285000D02*
X155250000Y-112745000D01*
D11*
%TO.C,C4*%
X152039970Y-99338781D02*
X152238781Y-99139970D01*
X152761219Y-100060030D02*
X152960030Y-99861219D01*
%TO.C,C3*%
X173439970Y-99438781D02*
X173638781Y-99239970D01*
X174161219Y-100160030D02*
X174360030Y-99961219D01*
%TO.C,D4*%
X212079370Y-93881703D02*
X212414903Y-93546170D01*
X212818297Y-94620630D02*
X213153830Y-94285097D01*
%TO.C,R2*%
X55640000Y-70288748D02*
X55640000Y-71711252D01*
X58360000Y-70288748D02*
X58360000Y-71711252D01*
%TO.C,R6*%
X117140000Y-70788748D02*
X117140000Y-72211252D01*
X119860000Y-70788748D02*
X119860000Y-72211252D01*
%TO.C,J1*%
X86145000Y-66145000D02*
X86145000Y-67475000D01*
X86145000Y-68745000D02*
X86145000Y-73885000D01*
X87475000Y-66145000D02*
X86145000Y-66145000D01*
X88805000Y-68745000D02*
X86145000Y-68745000D01*
X88805000Y-68745000D02*
X88805000Y-73885000D01*
X88805000Y-73885000D02*
X86145000Y-73885000D01*
%TO.C,D1*%
X200177500Y-110162742D02*
X200177500Y-110637258D01*
X201222500Y-110162742D02*
X201222500Y-110637258D01*
%TO.C,R7*%
X139140000Y-83211252D02*
X139140000Y-81788748D01*
X141860000Y-83211252D02*
X141860000Y-81788748D01*
%TO.C,R3*%
X77640000Y-83211252D02*
X77640000Y-81788748D01*
X80360000Y-83211252D02*
X80360000Y-81788748D01*
%TO.C,C6*%
X109139970Y-98638781D02*
X109338781Y-98439970D01*
X109861219Y-99360030D02*
X110060030Y-99161219D01*
%TO.C,R1*%
X59340000Y-55688748D02*
X59340000Y-57111252D01*
X62060000Y-55688748D02*
X62060000Y-57111252D01*
%TO.C,R10*%
X178640000Y-70788748D02*
X178640000Y-72211252D01*
X181360000Y-70788748D02*
X181360000Y-72211252D01*
%TO.C,C8*%
X66539970Y-99938781D02*
X66738781Y-99739970D01*
X67261219Y-100660030D02*
X67460030Y-100461219D01*
%TO.C,D3*%
X178798303Y-104862770D02*
X178462770Y-105198303D01*
X179537230Y-105601697D02*
X179201697Y-105937230D01*
%TO.C,C5*%
X130739970Y-99138781D02*
X130938781Y-98939970D01*
X131461219Y-99860030D02*
X131660030Y-99661219D01*
%TO.C,R9*%
X178640000Y-55788748D02*
X178640000Y-57211252D01*
X181360000Y-55788748D02*
X181360000Y-57211252D01*
D12*
%TO.C,P1*%
X202650000Y-112575000D02*
X202650000Y-115075000D01*
X202650000Y-115075000D02*
X215500000Y-115075000D01*
X203920000Y-119285000D02*
X203920000Y-115575000D01*
X206460000Y-119285000D02*
X206460000Y-115575000D01*
X209000000Y-119285000D02*
X209000000Y-115575000D01*
X211540000Y-119285000D02*
X211540000Y-115575000D01*
X214080000Y-119575000D02*
X214080000Y-115575000D01*
X215500000Y-112575000D02*
X202650000Y-112575000D01*
X215500000Y-115075000D02*
X215500000Y-112575000D01*
D11*
%TO.C,C2*%
X193839970Y-99438781D02*
X194038781Y-99239970D01*
X194561219Y-100160030D02*
X194760030Y-99961219D01*
%TO.C,R12*%
X225640000Y-83211252D02*
X225640000Y-81788748D01*
X228360000Y-83211252D02*
X228360000Y-81788748D01*
%TD*%
D13*
%TO.C,P3*%
X85090000Y-113915000D03*
X92710000Y-113915000D03*
%TD*%
%TO.C,P2*%
X145090000Y-114015000D03*
X152710000Y-114015000D03*
%TD*%
%TO.C,P1*%
X205190000Y-114015000D03*
X212810000Y-114015000D03*
%TD*%
M02*
