%TF.GenerationSoftware,KiCad,Pcbnew,9.0.6*%
%TF.CreationDate,2025-12-07T15:20:44-07:00*%
%TF.ProjectId,64 Bit - Display Board,36342042-6974-4202-9d20-446973706c61,rev?*%
%TF.SameCoordinates,Original*%
%TF.FileFunction,Paste,Bot*%
%TF.FilePolarity,Positive*%
%FSLAX46Y46*%
G04 Gerber Fmt 4.6, Leading zero omitted, Abs format (unit mm)*
G04 Created by KiCad (PCBNEW 9.0.6) date 2025-12-07 15:20:44*
%MOMM*%
%LPD*%
G01*
G04 APERTURE LIST*
G04 Aperture macros list*
%AMRoundRect*
0 Rectangle with rounded corners*
0 $1 Rounding radius*
0 $2 $3 $4 $5 $6 $7 $8 $9 X,Y pos of 4 corners*
0 Add a 4 corners polygon primitive as box body*
4,1,4,$2,$3,$4,$5,$6,$7,$8,$9,$2,$3,0*
0 Add four circle primitives for the rounded corners*
1,1,$1+$1,$2,$3*
1,1,$1+$1,$4,$5*
1,1,$1+$1,$6,$7*
1,1,$1+$1,$8,$9*
0 Add four rect primitives between the rounded corners*
20,1,$1+$1,$2,$3,$4,$5,0*
20,1,$1+$1,$4,$5,$6,$7,0*
20,1,$1+$1,$6,$7,$8,$9,0*
20,1,$1+$1,$8,$9,$2,$3,0*%
G04 Aperture macros list end*
%ADD10RoundRect,0.250000X-1.100000X0.325000X-1.100000X-0.325000X1.100000X-0.325000X1.100000X0.325000X0*%
%ADD11RoundRect,0.225000X0.017678X-0.335876X0.335876X-0.017678X-0.017678X0.335876X-0.335876X0.017678X0*%
%ADD12R,1.000000X2.500000*%
%ADD13RoundRect,0.250000X1.100000X-0.325000X1.100000X0.325000X-1.100000X0.325000X-1.100000X-0.325000X0*%
%ADD14RoundRect,0.200000X-0.275000X0.200000X-0.275000X-0.200000X0.275000X-0.200000X0.275000X0.200000X0*%
%ADD15RoundRect,0.200000X0.053033X-0.335876X0.335876X-0.053033X-0.053033X0.335876X-0.335876X0.053033X0*%
%ADD16RoundRect,0.200000X0.200000X0.275000X-0.200000X0.275000X-0.200000X-0.275000X0.200000X-0.275000X0*%
%ADD17RoundRect,0.200000X-0.053033X0.335876X-0.335876X0.053033X0.053033X-0.335876X0.335876X-0.053033X0*%
G04 APERTURE END LIST*
D10*
%TO.C,R5*%
X118500000Y-55025000D03*
X118500000Y-57975000D03*
%TD*%
D11*
%TO.C,C7*%
X88451992Y-100448008D03*
X89548008Y-99351992D03*
%TD*%
D12*
%TO.C,P3*%
X83820000Y-109465000D03*
X83820000Y-105765000D03*
X86360000Y-109465000D03*
X86360000Y-105765000D03*
X88900000Y-109465000D03*
X88900000Y-105765000D03*
X91440000Y-109465000D03*
X91440000Y-105765000D03*
X93980000Y-109465000D03*
X93980000Y-105765000D03*
%TD*%
D11*
%TO.C,C1*%
X213651992Y-99848008D03*
X214748008Y-98751992D03*
%TD*%
D13*
%TO.C,R4*%
X104000000Y-83975000D03*
X104000000Y-81025000D03*
%TD*%
%TO.C,R8*%
X165500000Y-83975000D03*
X165500000Y-81025000D03*
%TD*%
D14*
%TO.C,D5*%
X217200000Y-109550000D03*
X217200000Y-111200000D03*
%TD*%
D13*
%TO.C,R11*%
X202000000Y-83950000D03*
X202000000Y-81000000D03*
%TD*%
D15*
%TO.C,D2*%
X210916637Y-93583363D03*
X212083363Y-92416637D03*
%TD*%
D16*
%TO.C,D6*%
X80725000Y-111800000D03*
X79075000Y-111800000D03*
%TD*%
D12*
%TO.C,P2*%
X143820000Y-109565000D03*
X143820000Y-105865000D03*
X146360000Y-109565000D03*
X146360000Y-105865000D03*
X148900000Y-109565000D03*
X148900000Y-105865000D03*
X151440000Y-109565000D03*
X151440000Y-105865000D03*
X153980000Y-109565000D03*
X153980000Y-105865000D03*
%TD*%
D11*
%TO.C,C4*%
X151951992Y-100148008D03*
X153048008Y-99051992D03*
%TD*%
%TO.C,C3*%
X173351992Y-100248008D03*
X174448008Y-99151992D03*
%TD*%
D15*
%TO.C,D4*%
X212033237Y-94666763D03*
X213199963Y-93500037D03*
%TD*%
D10*
%TO.C,R2*%
X57000000Y-69525000D03*
X57000000Y-72475000D03*
%TD*%
%TO.C,R6*%
X118500000Y-70025000D03*
X118500000Y-72975000D03*
%TD*%
D14*
%TO.C,D1*%
X200700000Y-109575000D03*
X200700000Y-111225000D03*
%TD*%
D13*
%TO.C,R7*%
X140500000Y-83975000D03*
X140500000Y-81025000D03*
%TD*%
%TO.C,R3*%
X79000000Y-83975000D03*
X79000000Y-81025000D03*
%TD*%
D11*
%TO.C,C6*%
X109051992Y-99448008D03*
X110148008Y-98351992D03*
%TD*%
D10*
%TO.C,R1*%
X60700000Y-54925000D03*
X60700000Y-57875000D03*
%TD*%
%TO.C,R10*%
X180000000Y-70025000D03*
X180000000Y-72975000D03*
%TD*%
D11*
%TO.C,C8*%
X66451992Y-100748008D03*
X67548008Y-99651992D03*
%TD*%
D17*
%TO.C,D3*%
X179583363Y-104816637D03*
X178416637Y-105983363D03*
%TD*%
D11*
%TO.C,C5*%
X130651992Y-99948008D03*
X131748008Y-98851992D03*
%TD*%
D10*
%TO.C,R9*%
X180000000Y-55025000D03*
X180000000Y-57975000D03*
%TD*%
D12*
%TO.C,P1*%
X203920000Y-109565000D03*
X203920000Y-105865000D03*
X206460000Y-109565000D03*
X206460000Y-105865000D03*
X209000000Y-109565000D03*
X209000000Y-105865000D03*
X211540000Y-109565000D03*
X211540000Y-105865000D03*
X214080000Y-109565000D03*
X214080000Y-105865000D03*
%TD*%
D11*
%TO.C,C2*%
X193751992Y-100248008D03*
X194848008Y-99151992D03*
%TD*%
D13*
%TO.C,R12*%
X227000000Y-83975000D03*
X227000000Y-81025000D03*
%TD*%
M02*
