%TF.GenerationSoftware,KiCad,Pcbnew,9.0.6*%
%TF.CreationDate,2025-12-07T15:20:44-07:00*%
%TF.ProjectId,64 Bit - Display Board,36342042-6974-4202-9d20-446973706c61,rev?*%
%TF.SameCoordinates,Original*%
%TF.FileFunction,Soldermask,Bot*%
%TF.FilePolarity,Negative*%
%FSLAX46Y46*%
G04 Gerber Fmt 4.6, Leading zero omitted, Abs format (unit mm)*
G04 Created by KiCad (PCBNEW 9.0.6) date 2025-12-07 15:20:44*
%MOMM*%
%LPD*%
G01*
G04 APERTURE LIST*
G04 Aperture macros list*
%AMRoundRect*
0 Rectangle with rounded corners*
0 $1 Rounding radius*
0 $2 $3 $4 $5 $6 $7 $8 $9 X,Y pos of 4 corners*
0 Add a 4 corners polygon primitive as box body*
4,1,4,$2,$3,$4,$5,$6,$7,$8,$9,$2,$3,0*
0 Add four circle primitives for the rounded corners*
1,1,$1+$1,$2,$3*
1,1,$1+$1,$4,$5*
1,1,$1+$1,$6,$7*
1,1,$1+$1,$8,$9*
0 Add four rect primitives between the rounded corners*
20,1,$1+$1,$2,$3,$4,$5,0*
20,1,$1+$1,$4,$5,$6,$7,0*
20,1,$1+$1,$6,$7,$8,$9,0*
20,1,$1+$1,$8,$9,$2,$3,0*%
G04 Aperture macros list end*
%ADD10C,0.100000*%
%ADD11C,0.150000*%
%ADD12C,1.750000*%
%ADD13C,5.000000*%
%ADD14C,3.000000*%
%ADD15C,8.000000*%
%ADD16RoundRect,0.250000X-1.100000X0.325000X-1.100000X-0.325000X1.100000X-0.325000X1.100000X0.325000X0*%
%ADD17RoundRect,0.225000X0.017678X-0.335876X0.335876X-0.017678X-0.017678X0.335876X-0.335876X0.017678X0*%
%ADD18R,1.000000X2.500000*%
%ADD19C,2.000000*%
%ADD20RoundRect,0.250000X1.100000X-0.325000X1.100000X0.325000X-1.100000X0.325000X-1.100000X-0.325000X0*%
%ADD21RoundRect,0.200000X-0.275000X0.200000X-0.275000X-0.200000X0.275000X-0.200000X0.275000X0.200000X0*%
%ADD22R,1.700000X1.700000*%
%ADD23C,1.700000*%
%ADD24RoundRect,0.200000X0.053033X-0.335876X0.335876X-0.053033X-0.053033X0.335876X-0.335876X0.053033X0*%
%ADD25RoundRect,0.200000X0.200000X0.275000X-0.200000X0.275000X-0.200000X-0.275000X0.200000X-0.275000X0*%
%ADD26RoundRect,0.200000X-0.053033X0.335876X-0.335876X0.053033X0.053033X-0.335876X0.335876X-0.053033X0*%
G04 APERTURE END LIST*
D10*
X212800000Y-70000000D02*
X212000000Y-70000000D01*
X212800000Y-67400000D02*
X212800000Y-72600000D01*
X212000000Y-67400000D02*
X212800000Y-67400000D01*
X212800000Y-72600000D02*
X212000000Y-72600000D01*
D11*
X213317438Y-69360588D02*
X213269819Y-69265350D01*
X213269819Y-69265350D02*
X213269819Y-69122493D01*
X213269819Y-69122493D02*
X213317438Y-68979636D01*
X213317438Y-68979636D02*
X213412676Y-68884398D01*
X213412676Y-68884398D02*
X213507914Y-68836779D01*
X213507914Y-68836779D02*
X213698390Y-68789160D01*
X213698390Y-68789160D02*
X213841247Y-68789160D01*
X213841247Y-68789160D02*
X214031723Y-68836779D01*
X214031723Y-68836779D02*
X214126961Y-68884398D01*
X214126961Y-68884398D02*
X214222200Y-68979636D01*
X214222200Y-68979636D02*
X214269819Y-69122493D01*
X214269819Y-69122493D02*
X214269819Y-69217731D01*
X214269819Y-69217731D02*
X214222200Y-69360588D01*
X214222200Y-69360588D02*
X214174580Y-69408207D01*
X214174580Y-69408207D02*
X213841247Y-69408207D01*
X213841247Y-69408207D02*
X213841247Y-69217731D01*
X214269819Y-69836779D02*
X213269819Y-69836779D01*
X213269819Y-69836779D02*
X214269819Y-70408207D01*
X214269819Y-70408207D02*
X213269819Y-70408207D01*
X214269819Y-70884398D02*
X213269819Y-70884398D01*
X213269819Y-70884398D02*
X213269819Y-71122493D01*
X213269819Y-71122493D02*
X213317438Y-71265350D01*
X213317438Y-71265350D02*
X213412676Y-71360588D01*
X213412676Y-71360588D02*
X213507914Y-71408207D01*
X213507914Y-71408207D02*
X213698390Y-71455826D01*
X213698390Y-71455826D02*
X213841247Y-71455826D01*
X213841247Y-71455826D02*
X214031723Y-71408207D01*
X214031723Y-71408207D02*
X214126961Y-71360588D01*
X214126961Y-71360588D02*
X214222200Y-71265350D01*
X214222200Y-71265350D02*
X214269819Y-71122493D01*
X214269819Y-71122493D02*
X214269819Y-70884398D01*
D12*
%TO.C,T7*%
X118500000Y-60500000D03*
X118500000Y-65500000D03*
%TD*%
D13*
%TO.C,T9*%
X99750000Y-69500000D03*
D14*
X103750000Y-77500000D03*
X105500000Y-74000000D03*
X105500000Y-69500000D03*
X105500000Y-65000000D03*
X103750000Y-61500000D03*
X99838900Y-60300000D03*
X95750000Y-61500000D03*
X94000000Y-65000000D03*
X94000000Y-69500000D03*
X94000000Y-74000000D03*
X95750000Y-77500000D03*
X99750000Y-78500000D03*
%TD*%
D12*
%TO.C,T4*%
X180000000Y-75500000D03*
X180000000Y-80500000D03*
%TD*%
D15*
%TO.C,H4*%
X244100000Y-52500000D03*
%TD*%
D13*
%TO.C,T10*%
X74888000Y-69314600D03*
D14*
X78888000Y-77314600D03*
X80638000Y-73814600D03*
X80638000Y-69314600D03*
X80638000Y-64814600D03*
X78888000Y-61314600D03*
X74976900Y-60114600D03*
X70888000Y-61314600D03*
X69138000Y-64814600D03*
X69138000Y-69314600D03*
X69138000Y-73814600D03*
X70888000Y-77314600D03*
X74888000Y-78314600D03*
%TD*%
D12*
%TO.C,T11*%
X57200000Y-60500000D03*
X57200000Y-65500000D03*
%TD*%
D15*
%TO.C,H1*%
X54000000Y-112500000D03*
%TD*%
D12*
%TO.C,T8*%
X118500000Y-75500000D03*
X118500000Y-80500000D03*
%TD*%
%TO.C,T12*%
X57300000Y-75000000D03*
X57300000Y-80000000D03*
%TD*%
D13*
%TO.C,T5*%
X161500000Y-69500000D03*
D14*
X165500000Y-77500000D03*
X167250000Y-74000000D03*
X167250000Y-69500000D03*
X167250000Y-65000000D03*
X165500000Y-61500000D03*
X161588900Y-60300000D03*
X157500000Y-61500000D03*
X155750000Y-65000000D03*
X155750000Y-69500000D03*
X155750000Y-74000000D03*
X157500000Y-77500000D03*
X161500000Y-78500000D03*
%TD*%
D13*
%TO.C,T1*%
X223000000Y-70000000D03*
D14*
X227000000Y-78000000D03*
X228750000Y-74500000D03*
X228750000Y-70000000D03*
X228750000Y-65500000D03*
X227000000Y-62000000D03*
X223088900Y-60800000D03*
X219000000Y-62000000D03*
X217250000Y-65500000D03*
X217250000Y-70000000D03*
X217250000Y-74500000D03*
X219000000Y-78000000D03*
X223000000Y-79000000D03*
%TD*%
D12*
%TO.C,T3*%
X180000000Y-60500000D03*
X180000000Y-65500000D03*
%TD*%
D15*
%TO.C,H2*%
X149000000Y-52500000D03*
%TD*%
D13*
%TO.C,T6*%
X136500000Y-69500000D03*
D14*
X140500000Y-77500000D03*
X142250000Y-74000000D03*
X142250000Y-69500000D03*
X142250000Y-65000000D03*
X140500000Y-61500000D03*
X136588900Y-60300000D03*
X132500000Y-61500000D03*
X130750000Y-65000000D03*
X130750000Y-69500000D03*
X130750000Y-74000000D03*
X132500000Y-77500000D03*
X136500000Y-78500000D03*
%TD*%
D13*
%TO.C,T2*%
X198000000Y-69700000D03*
D14*
X202000000Y-77700000D03*
X203750000Y-74200000D03*
X203750000Y-69700000D03*
X203750000Y-65200000D03*
X202000000Y-61700000D03*
X198088900Y-60500000D03*
X194000000Y-61700000D03*
X192250000Y-65200000D03*
X192250000Y-69700000D03*
X192250000Y-74200000D03*
X194000000Y-77700000D03*
X198000000Y-78700000D03*
%TD*%
D15*
%TO.C,H5*%
X54000000Y-52500000D03*
%TD*%
%TO.C,H3*%
X244000000Y-112600000D03*
%TD*%
D16*
%TO.C,R5*%
X118500000Y-55025000D03*
X118500000Y-57975000D03*
%TD*%
D17*
%TO.C,C7*%
X88451992Y-100448008D03*
X89548008Y-99351992D03*
%TD*%
D18*
%TO.C,P3*%
X83820000Y-109465000D03*
X83820000Y-105765000D03*
X86360000Y-109465000D03*
X86360000Y-105765000D03*
X88900000Y-109465000D03*
X88900000Y-105765000D03*
X91440000Y-109465000D03*
X91440000Y-105765000D03*
X93980000Y-109465000D03*
X93980000Y-105765000D03*
D19*
X85090000Y-113915000D03*
X92710000Y-113915000D03*
%TD*%
D17*
%TO.C,C1*%
X213651992Y-99848008D03*
X214748008Y-98751992D03*
%TD*%
D20*
%TO.C,R4*%
X104000000Y-83975000D03*
X104000000Y-81025000D03*
%TD*%
%TO.C,R8*%
X165500000Y-83975000D03*
X165500000Y-81025000D03*
%TD*%
D21*
%TO.C,D5*%
X217200000Y-109550000D03*
X217200000Y-111200000D03*
%TD*%
D20*
%TO.C,R11*%
X202000000Y-83950000D03*
X202000000Y-81000000D03*
%TD*%
D22*
%TO.C,J2*%
X210500000Y-67460000D03*
D23*
X210500000Y-70000000D03*
X210500000Y-72540000D03*
%TD*%
D24*
%TO.C,D2*%
X210916637Y-93583363D03*
X212083363Y-92416637D03*
%TD*%
D25*
%TO.C,D6*%
X80725000Y-111800000D03*
X79075000Y-111800000D03*
%TD*%
D18*
%TO.C,P2*%
X143820000Y-109565000D03*
X143820000Y-105865000D03*
X146360000Y-109565000D03*
X146360000Y-105865000D03*
X148900000Y-109565000D03*
X148900000Y-105865000D03*
X151440000Y-109565000D03*
X151440000Y-105865000D03*
X153980000Y-109565000D03*
X153980000Y-105865000D03*
D19*
X145090000Y-114015000D03*
X152710000Y-114015000D03*
%TD*%
D17*
%TO.C,C4*%
X151951992Y-100148008D03*
X153048008Y-99051992D03*
%TD*%
%TO.C,C3*%
X173351992Y-100248008D03*
X174448008Y-99151992D03*
%TD*%
D24*
%TO.C,D4*%
X212033237Y-94666763D03*
X213199963Y-93500037D03*
%TD*%
D16*
%TO.C,R2*%
X57000000Y-69525000D03*
X57000000Y-72475000D03*
%TD*%
%TO.C,R6*%
X118500000Y-70025000D03*
X118500000Y-72975000D03*
%TD*%
D22*
%TO.C,J1*%
X87475000Y-67475000D03*
D23*
X87475000Y-70015000D03*
X87475000Y-72555000D03*
%TD*%
D21*
%TO.C,D1*%
X200700000Y-109575000D03*
X200700000Y-111225000D03*
%TD*%
D20*
%TO.C,R7*%
X140500000Y-83975000D03*
X140500000Y-81025000D03*
%TD*%
%TO.C,R3*%
X79000000Y-83975000D03*
X79000000Y-81025000D03*
%TD*%
D17*
%TO.C,C6*%
X109051992Y-99448008D03*
X110148008Y-98351992D03*
%TD*%
D16*
%TO.C,R1*%
X60700000Y-54925000D03*
X60700000Y-57875000D03*
%TD*%
%TO.C,R10*%
X180000000Y-70025000D03*
X180000000Y-72975000D03*
%TD*%
D17*
%TO.C,C8*%
X66451992Y-100748008D03*
X67548008Y-99651992D03*
%TD*%
D26*
%TO.C,D3*%
X179583363Y-104816637D03*
X178416637Y-105983363D03*
%TD*%
D17*
%TO.C,C5*%
X130651992Y-99948008D03*
X131748008Y-98851992D03*
%TD*%
D16*
%TO.C,R9*%
X180000000Y-55025000D03*
X180000000Y-57975000D03*
%TD*%
D18*
%TO.C,P1*%
X203920000Y-109565000D03*
X203920000Y-105865000D03*
X206460000Y-109565000D03*
X206460000Y-105865000D03*
X209000000Y-109565000D03*
X209000000Y-105865000D03*
X211540000Y-109565000D03*
X211540000Y-105865000D03*
X214080000Y-109565000D03*
X214080000Y-105865000D03*
D19*
X205190000Y-114015000D03*
X212810000Y-114015000D03*
%TD*%
D17*
%TO.C,C2*%
X193751992Y-100248008D03*
X194848008Y-99151992D03*
%TD*%
D20*
%TO.C,R12*%
X227000000Y-83975000D03*
X227000000Y-81025000D03*
%TD*%
M02*
